<svg xmlns="http://www.w3.org/2000/svg" xmlns:xlink="http://www.w3.org/1999/xlink" viewBox="0 0 50.13 25.01"><defs><style>.cls-1{isolation:isolate;}.cls-2{fill:url(#Áåçûìÿííûé_ãðàäèåíò_18);}.cls-23,.cls-3{fill:#42151f;}.cls-3{opacity:0.5;}.cls-4,.cls-5{fill:#d0bfbe;}.cls-14,.cls-19,.cls-27,.cls-4,.cls-5,.cls-52{mix-blend-mode:soft-light;}.cls-5{opacity:0.6;}.cls-6{fill:#632633;opacity:0.33;}.cls-12,.cls-13,.cls-22,.cls-7,.cls-9{fill:#bd6f95;}.cls-49,.cls-7{opacity:0.54;}.cls-10,.cls-12,.cls-13,.cls-20,.cls-22,.cls-49,.cls-51,.cls-7,.cls-9{mix-blend-mode:multiply;}.cls-8{fill:url(#Áåçûìÿííûé_ãðàäèåíò_12);}.cls-9{opacity:0.68;}.cls-10{opacity:0.2;}.cls-11{fill:#3a275e;}.cls-12{opacity:0.45;}.cls-13,.cls-14{opacity:0.23;}.cls-14,.cls-19,.cls-27,.cls-52{fill:#fff;}.cls-15{fill:#2f0000;}.cls-16{fill:url(#Áåçûìÿííûé_ãðàäèåíò_197);}.cls-17{fill:url(#Áåçûìÿííûé_ãðàäèåíò_197-2);}.cls-18{fill:url(#Áåçûìÿííûé_ãðàäèåíò_197-3);}.cls-19{opacity:0.47;}.cls-20{fill:#752531;opacity:0.38;}.cls-21{fill:#ffffd5;}.cls-24{fill:url(#Áåçûìÿííûé_ãðàäèåíò_107);}.cls-25{fill:url(#Áåçûìÿííûé_ãðàäèåíò_80);}.cls-26{fill:url(#Áåçûìÿííûé_ãðàäèåíò_107-2);}.cls-27{opacity:0.53;}.cls-28{fill:url(#Áåçûìÿííûé_ãðàäèåíò_80-2);}.cls-29{fill:url(#Áåçûìÿííûé_ãðàäèåíò_80-3);}.cls-30{fill:url(#Áåçûìÿííûé_ãðàäèåíò_107-3);}.cls-31{fill:url(#Áåçûìÿííûé_ãðàäèåíò_107-4);}.cls-32{fill:url(#Áåçûìÿííûé_ãðàäèåíò_80-4);}.cls-33{fill:url(#Áåçûìÿííûé_ãðàäèåíò_80-5);}.cls-34{fill:url(#Áåçûìÿííûé_ãðàäèåíò_80-6);}.cls-35{fill:url(#Áåçûìÿííûé_ãðàäèåíò_107-5);}.cls-36{fill:url(#Áåçûìÿííûé_ãðàäèåíò_80-7);}.cls-37{fill:url(#Áåçûìÿííûé_ãðàäèåíò_80-8);}.cls-38{fill:url(#Áåçûìÿííûé_ãðàäèåíò_80-9);}.cls-39{fill:url(#Áåçûìÿííûé_ãðàäèåíò_80-10);}.cls-40{fill:url(#Áåçûìÿííûé_ãðàäèåíò_80-11);}.cls-41{fill:url(#Áåçûìÿííûé_ãðàäèåíò_107-6);}.cls-42{fill:url(#Áåçûìÿííûé_ãðàäèåíò_107-7);}.cls-43{fill:url(#Áåçûìÿííûé_ãðàäèåíò_107-8);}.cls-44{fill:url(#Áåçûìÿííûé_ãðàäèåíò_107-9);}.cls-45{fill:url(#Áåçûìÿííûé_ãðàäèåíò_107-10);}.cls-46{fill:url(#Áåçûìÿííûé_ãðàäèåíò_107-11);}.cls-47{fill:url(#Áåçûìÿííûé_ãðàäèåíò_107-12);}.cls-48{fill:url(#Áåçûìÿííûé_ãðàäèåíò_107-13);}.cls-49{fill:#7a001f;}.cls-50{opacity:0.62;mix-blend-mode:color-dodge;fill:url(#Áåçûìÿííûé_ãðàäèåíò_111);}.cls-51{fill:#8d0013;opacity:0.44;}.cls-52{opacity:0.59;}</style><linearGradient id="Áåçûìÿííûé_ãðàäèåíò_18" y1="22.92" x2="50" y2="22.92" gradientUnits="userSpaceOnUse"><stop offset="0" stop-color="#8b3146"/><stop offset="1" stop-color="#695974"/></linearGradient><linearGradient id="Áåçûìÿííûé_ãðàäèåíò_12" x1="25" y1="20.54" x2="25" gradientUnits="userSpaceOnUse"><stop offset="0" stop-color="#452c48"/><stop offset="1" stop-color="#604f73"/></linearGradient><linearGradient id="Áåçûìÿííûé_ãðàäèåíò_197" x1="-139.42" y1="16.96" x2="-131.75" y2="16.96" gradientTransform="matrix(-1, 0, 0, 1, -130.59, 0)" gradientUnits="userSpaceOnUse"><stop offset="0" stop-color="#86102c"/><stop offset="1" stop-color="#e4772f"/></linearGradient><linearGradient id="Áåçûìÿííûé_ãðàäèåíò_197-2" x1="-139.3" y1="18.79" x2="-131.9" y2="18.79" xlink:href="#Áåçûìÿííûé_ãðàäèåíò_197"/><linearGradient id="Áåçûìÿííûé_ãðàäèåíò_197-3" x1="-139.08" y1="20.64" x2="-132.07" y2="20.64" xlink:href="#Áåçûìÿííûé_ãðàäèåíò_197"/><linearGradient id="Áåçûìÿííûé_ãðàäèåíò_107" x1="7.71" y1="10.68" x2="12.38" y2="10.68" gradientUnits="userSpaceOnUse"><stop offset="0" stop-color="#e77231"/><stop offset="0.99" stop-color="#9c3536"/></linearGradient><linearGradient id="Áåçûìÿííûé_ãðàäèåíò_80" x1="9.11" y1="20.25" x2="15.46" y2="20.25" gradientUnits="userSpaceOnUse"><stop offset="0" stop-color="#822717"/><stop offset="0.99" stop-color="#700c26"/></linearGradient><linearGradient id="Áåçûìÿííûé_ãðàäèåíò_107-2" x1="8.57" y1="18.99" x2="15.57" y2="18.99" xlink:href="#Áåçûìÿííûé_ãðàäèåíò_107"/><linearGradient id="Áåçûìÿííûé_ãðàäèåíò_80-2" x1="9.75" y1="17.81" x2="15.29" y2="17.81" xlink:href="#Áåçûìÿííûé_ãðàäèåíò_80"/><linearGradient id="Áåçûìÿííûé_ãðàäèåíò_80-3" x1="10.13" y1="15.67" x2="15.64" y2="15.67" xlink:href="#Áåçûìÿííûé_ãðàäèåíò_80"/><linearGradient id="Áåçûìÿííûé_ãðàäèåíò_107-3" x1="9.57" y1="14.78" x2="15.69" y2="14.78" xlink:href="#Áåçûìÿííûé_ãðàäèåíò_107"/><linearGradient id="Áåçûìÿííûé_ãðàäèåíò_107-4" x1="9.15" y1="16.7" x2="15.39" y2="16.7" xlink:href="#Áåçûìÿííûé_ãðàäèåíò_107"/><linearGradient id="Áåçûìÿííûé_ãðàäèåíò_80-4" x1="10.8" y1="13.77" x2="16.34" y2="13.77" xlink:href="#Áåçûìÿííûé_ãðàäèåíò_80"/><linearGradient id="Áåçûìÿííûé_ãðàäèåíò_80-5" x1="11.04" y1="11.9" x2="16.58" y2="11.9" xlink:href="#Áåçûìÿííûé_ãðàäèåíò_80"/><linearGradient id="Áåçûìÿííûé_ãðàäèåíò_80-6" x1="11.37" y1="10.11" x2="16.91" y2="10.11" xlink:href="#Áåçûìÿííûé_ãðàäèåíò_80"/><linearGradient id="Áåçûìÿííûé_ãðàäèåíò_107-5" x1="10.77" y1="9.18" x2="17.01" y2="9.18" xlink:href="#Áåçûìÿííûé_ãðàäèåíò_107"/><linearGradient id="Áåçûìÿííûé_ãðàäèåíò_80-7" x1="11.74" y1="8.23" x2="17.28" y2="8.23" xlink:href="#Áåçûìÿííûé_ãðàäèåíò_80"/><linearGradient id="Áåçûìÿííûé_ãðàäèåíò_80-8" x1="12.18" y1="6.46" x2="17.71" y2="6.46" xlink:href="#Áåçûìÿííûé_ãðàäèåíò_80"/><linearGradient id="Áåçûìÿííûé_ãðàäèåíò_80-9" x1="12.57" y1="4.8" x2="18.11" y2="4.8" xlink:href="#Áåçûìÿííûé_ãðàäèåíò_80"/><linearGradient id="Áåçûìÿííûé_ãðàäèåíò_80-10" x1="12.88" y1="3.15" x2="18.42" y2="3.15" xlink:href="#Áåçûìÿííûé_ãðàäèåíò_80"/><linearGradient id="Áåçûìÿííûé_ãðàäèåíò_80-11" x1="13.23" y1="1.51" x2="18.77" y2="1.51" xlink:href="#Áåçûìÿííûé_ãðàäèåíò_80"/><linearGradient id="Áåçûìÿííûé_ãðàäèåíò_107-6" x1="12.64" y1="0.7" x2="18.54" y2="0.7" xlink:href="#Áåçûìÿííûé_ãðàäèåíò_107"/><linearGradient id="Áåçûìÿííûé_ãðàäèåíò_107-7" x1="10.21" y1="12.84" x2="16.44" y2="12.84" xlink:href="#Áåçûìÿííûé_ãðàäèåíò_107"/><linearGradient id="Áåçûìÿííûé_ãðàäèåíò_107-8" x1="10.45" y1="10.97" x2="16.69" y2="10.97" xlink:href="#Áåçûìÿííûé_ãðàäèåíò_107"/><linearGradient id="Áåçûìÿííûé_ãðàäèåíò_107-9" x1="11.15" y1="7.3" x2="17.38" y2="7.3" xlink:href="#Áåçûìÿííûé_ãðàäèåíò_107"/><linearGradient id="Áåçûìÿííûé_ãðàäèåíò_107-10" x1="11.58" y1="5.65" x2="17.82" y2="5.65" xlink:href="#Áåçûìÿííûé_ãðàäèåíò_107"/><linearGradient id="Áåçûìÿííûé_ãðàäèåíò_107-11" x1="11.98" y1="3.97" x2="18.21" y2="3.97" xlink:href="#Áåçûìÿííûé_ãðàäèåíò_107"/><linearGradient id="Áåçûìÿííûé_ãðàäèåíò_107-12" x1="12.29" y1="2.35" x2="18.52" y2="2.35" xlink:href="#Áåçûìÿííûé_ãðàäèåíò_107"/><linearGradient id="Áåçûìÿííûé_ãðàäèåíò_107-13" x1="14.64" y1="10.73" x2="18.41" y2="10.73" xlink:href="#Áåçûìÿííûé_ãðàäèåíò_107"/><linearGradient id="Áåçûìÿííûé_ãðàäèåíò_111" x1="5.56" y1="21.32" x2="5.56" y2="0.77" gradientTransform="matrix(-1, 0, 0, 1, 22.15, 0)" gradientUnits="userSpaceOnUse"><stop offset="0"/><stop offset="1" stop-color="#b3a600"/></linearGradient></defs><g class="cls-1"><g id="Layer_2" data-name="Layer 2"><g id="witch"><rect class="cls-2" y="20.82" width="50" height="4.19"/><path class="cls-3" d="M35,21.38H35l14.33,0h0l.64.28v-.1l-.43-.18H50V21.3H34.93l-.59-.48h-.05l.57.48H0v0l11.88,0H12l12.2,0-.62.85-14,.07H9.4l-9.4,0v0l9.27,0L6.48,23.38H0v.07H6.45l16.18,0L21.48,25h.2l1.12-1.52,14.68,0h.17l12.46,0v-.15H37.49l-1.43-1.16,14-.06v-.08L36,22.15h-.11l-12.16.06.59-.85Zm1,.84,1.38,1.16H6.66l2.76-1.05,14.1-.06h.14Z"/><polygon class="cls-4" points="21.68 25.01 22.8 23.49 50.11 23.53 22.89 23.52 21.89 25.01 21.68 25.01"/><polygon class="cls-4" points="6.66 23.38 9.42 22.33 35.95 22.22 9.45 22.37 6.82 23.38 6.66 23.38"/><polygon class="cls-4" points="37.49 23.38 36.06 22.21 50.11 22.16 36.26 22.23 37.62 23.38 37.49 23.38"/><polygon class="cls-4" points="23.7 22.21 24.29 21.36 49.36 21.41 24.36 21.39 23.83 22.21 23.7 22.21"/><polygon class="cls-5" points="21.48 25.01 22.63 23.49 0 23.45 0 25.01 21.48 25.01"/><polygon class="cls-5" points="50.11 23.38 37.49 23.38 36.06 22.21 50.11 22.16 50.11 23.38"/><polygon class="cls-5" points="0 22.32 23.57 22.21 24.19 21.36 0 21.32 0 22.32"/><polygon class="cls-6" points="37.33 23.38 35.95 22.22 23.83 22.27 35.75 22.32 36.5 22.99 29.04 23.05 36.6 23.11 36.8 23.28 31.93 23.38 37.33 23.38"/><polygon class="cls-6" points="50.11 25.01 50.11 23.53 22.8 23.49 48.58 23.67 49.21 24.23 38.21 24.25 50.11 24.46 50.11 24.92 22.8 25.01 50.11 25.01"/><polygon class="cls-6" points="49.36 21.41 41.13 21.39 49.36 21.47 50.11 22.03 42.18 22.12 50.11 22.08 50.13 21.75 49.36 21.41"/><polygon class="cls-7" points="36.06 20.82 38.04 24.64 15.12 24.36 16.64 20.54 0.01 20.54 0 25.01 50 25.01 50 20.82 36.06 20.82"/><polygon class="cls-8" points="50 20.23 0.01 20.54 0.01 0 50 0 50 20.23"/><polygon class="cls-9" points="0.01 20.54 9.18 20.59 13.03 2.17 35.9 2.4 46 20.25 50 20.23 50 0 0.01 0 0.01 20.54"/><g class="cls-10"><rect class="cls-11" x="24.97" y="-20.47" width="0.06" height="50.01" transform="translate(19.81 29.42) rotate(-88.5)"/><rect class="cls-11" x="0.01" y="6.17" width="50" height="0.06"/><rect class="cls-11" x="25.03" y="-13.8" width="0.06" height="50.11" transform="matrix(0.02, -1, 1, 0.02, 13.3, 36.09)"/><rect class="cls-11" x="-0.01" y="16.39" width="50.14" height="0.06" transform="translate(-0.41 0.65) rotate(-1.47)"/></g><polygon class="cls-12" points="0.97 6.42 0.97 7.29 6.54 7.23 6.54 6.54 0.97 6.42"/><polygon class="cls-13" points="4.64 7.59 4.64 8.33 10.21 8.27 10.21 7.58 4.64 7.59"/><polygon class="cls-13" points="6.92 6.49 6.92 7.23 12.5 7.4 12.5 6.48 6.92 6.49"/><polygon class="cls-13" points="10.57 4.55 10.57 5.29 16.15 5.46 16.15 4.54 10.57 4.55"/><polygon class="cls-13" points="16.4 4.55 16.4 5.46 21.98 5.46 21.98 4.67 16.4 4.55"/><polygon class="cls-12" points="36.92 8.05 36.92 8.96 42.49 8.96 42.49 8.16 36.92 8.05"/><polygon class="cls-14" points="39.22 9.22 39.22 10.12 44.79 10.12 44.88 9.51 39.22 9.22"/><polygon class="cls-14" points="36.38 17.97 36.38 18.51 42.11 18.67 42.05 17.9 36.38 17.97"/><polygon class="cls-14" points="34.42 12.99 34.42 13.53 40.15 13.69 40.08 12.92 34.42 12.99"/><polygon class="cls-14" points="24.5 10.13 24.5 10.67 30.23 10.83 30.16 10.06 24.5 10.13"/><polygon class="cls-14" points="31.22 13.93 31.22 14.48 36.95 14.63 36.88 13.86 31.22 13.93"/><polygon class="cls-14" points="17.48 12.39 17.48 13.3 23.06 13.3 23.14 12.69 17.48 12.39"/><polygon class="cls-12" points="39.79 16.99 39.79 17.6 45.36 17.6 45.36 17.07 39.79 16.99"/><polygon class="cls-13" points="20.86 13.63 20.86 14.3 26.43 14.24 26.43 13.75 20.86 13.63"/><polygon class="cls-14" points="13.36 3.14 13.57 4.01 18.83 4.01 18.93 3.25 13.36 3.14"/><polygon class="cls-13" points="38.74 3.14 38.74 3.81 44.31 3.75 44.31 3.25 38.74 3.14"/><polygon class="cls-13" points="31.68 2.89 31.68 3.56 37.26 3.5 37.26 3.01 31.68 2.89"/><polygon class="cls-13" points="3.01 18.06 3.01 18.73 8.59 18.67 8.59 18.17 3.01 18.06"/><polygon class="cls-13" points="0.56 0 0.56 4.35 8.97 4.54 1.32 4.67 1.47 9.33 12.5 9.73 7.75 9.73 7.88 12.39 13.36 12.51 3.76 12.85 3.92 13.97 9.71 14.3 2.25 14.57 2.38 19.01 14.27 19.56 6.54 19.56 6.54 20.5 0.01 20.54 0.01 0 0.56 0"/><polygon class="cls-13" points="47.77 0 47.77 1.45 38.35 1.45 47.48 2.2 47.77 4.38 41.88 4.38 46.33 4.72 46.52 5.78 39.22 6.2 45.5 6.65 45.92 10.58 34.54 10.76 47.06 11.28 47.45 15.01 38.74 15.34 44.47 15.59 45.36 20.12 32.78 20.34 50 20.23 50 0 47.77 0"/><polygon class="cls-15" points="2.42 20.92 3.38 20.92 3.54 20.68 2.58 20.68 2.42 20.92"/><polygon class="cls-15" points="8.84 16.7 9.92 16.76 9.47 20.23 9.56 20.36 9.43 20.92 8.2 20.92 7.85 20.53 1.49 20.36 1.67 20.21 8.84 16.7"/><polygon class="cls-16" points="1.25 17.22 8.76 17.22 8.84 16.7 1.16 16.76 1.25 17.22"/><polygon class="cls-17" points="8.71 17.37 8.34 20.21 1.67 20.21 1.31 17.37 8.71 17.37"/><polygon class="cls-18" points="8.49 20.36 1.49 20.36 1.67 20.92 2.42 20.92 2.58 20.68 7.33 20.64 7.43 20.92 8.4 20.92 8.49 20.36"/><rect class="cls-15" x="1.45" y="17.22" width="7.05" height="0.15"/><polygon class="cls-19" points="3.92 16.8 1.31 16.8 1.4 17.18 3.98 17.18 3.92 16.8"/><polygon class="cls-19" points="4.01 16.8 4.31 16.8 4.39 17.18 4.07 17.18 4.01 16.8"/><polygon class="cls-15" points="8.33 17.37 8 20.28 7.94 20.28 8.25 17.32 8.33 17.37"/><polygon class="cls-15" points="1.79 17.32 2.03 20.28 1.96 20.28 1.76 17.37 1.79 17.32"/><polygon class="cls-19" points="1.79 17.37 2.03 20.21 2.05 20.21 1.81 17.37 1.79 17.37"/><polygon class="cls-19" points="8.37 17.37 8.04 20.21 8.01 20.21 8.33 17.37 8.37 17.37"/><polygon class="cls-19" points="1.67 17.46 1.79 19.15 1.63 19.1 1.41 17.46 1.67 17.46"/><polygon class="cls-19" points="7.02 20.46 1.6 20.41 1.76 20.86 2.03 20.84 1.92 20.49 7.02 20.46"/><polygon class="cls-20" points="8.71 16.8 8.63 17.18 6.56 17.18 6.43 16.8 8.71 16.8"/><polygon class="cls-20" points="8.14 17.46 7.83 20.13 2.2 20.13 6.79 20.04 7.08 17.46 8.14 17.46"/><polygon class="cls-19" points="3.41 17.46 1.92 17.46 2.2 19.95 3.35 19.95 3.41 17.46"/><polygon class="cls-21" points="9.92 16.76 8.84 16.7 1.16 16.76 1.25 17.22 1.12 16.7 8.84 16.64 9.92 16.76"/><polygon class="cls-22" points="11.5 0.23 5.52 20.79 7.71 21.14 12.2 0.01 11.5 0.23"/><polygon class="cls-23" points="12.38 0.23 8.25 21.11 9.35 21.09 13.12 0.85 12.38 0.23"/><polygon class="cls-24" points="8.25 21.11 7.71 21.14 11.94 0.23 12.38 0.23 8.25 21.11"/><polygon class="cls-23" points="9.18 20.59 14.72 20.79 17.67 0.84 13.12 0.85 9.18 20.59"/><polygon class="cls-25" points="9.35 21.09 9.11 19.39 15.46 19.39 15.16 21.11 9.35 21.09"/><polygon class="cls-26" points="8.57 18.77 8.57 19.39 15.46 19.39 15.57 18.59 15.04 18.59 11.25 18.64 10.08 18.65 8.57 18.77"/><polygon class="cls-27" points="8.57 18.77 15.54 18.77 15.57 18.59 10.08 18.65 8.57 18.77"/><polygon class="cls-28" points="10.08 18.65 9.75 16.96 15.29 16.96 15.05 18.59 10.08 18.65"/><polygon class="cls-29" points="10.45 16.53 10.13 14.82 15.64 14.82 15.37 16.53 10.45 16.53"/><polygon class="cls-30" points="9.57 14.48 9.78 15.08 15.6 15.08 15.69 14.48 9.57 14.48"/><polygon class="cls-31" points="9.15 16.42 9.27 16.99 11.7 16.98 15.29 16.97 15.29 16.97 15.39 16.42 9.15 16.42"/><polygon class="cls-32" points="11.1 14.48 10.8 13.07 16.34 13.07 16.1 14.48 11.1 14.48"/><polygon class="cls-33" points="11.35 12.6 11.04 11.19 16.58 11.19 16.35 12.6 11.35 12.6"/><polygon class="cls-34" points="11.67 10.82 11.37 9.4 16.91 9.4 16.67 10.82 11.67 10.82"/><polygon class="cls-35" points="10.77 8.93 10.89 9.43 13.75 9.42 16.4 9.41 16.91 9.41 17.01 8.93 10.77 8.93"/><polygon class="cls-36" points="12.04 8.93 11.74 7.52 17.28 7.52 17.04 8.93 12.04 8.93"/><polygon class="cls-37" points="12.48 7.08 12.18 5.85 17.71 5.85 17.48 7.08 12.48 7.08"/><polygon class="cls-38" points="12.89 5.44 12.57 4.16 18.11 4.16 17.87 5.39 12.89 5.44"/><polygon class="cls-39" points="13.19 3.77 12.88 2.54 18.42 2.54 18.18 3.77 13.19 3.77"/><polygon class="cls-40" points="13.53 2.12 13.23 0.89 18.77 0.89 18.53 2.12 13.53 2.12"/><polygon class="cls-41" points="12.64 0.49 12.75 0.91 16.06 0.9 17.66 0.9 18.54 0.9 18.42 0.49 12.64 0.49"/><polygon class="cls-42" points="10.21 12.6 10.32 13.09 12.76 13.08 15.86 13.07 16.34 13.07 16.44 12.6 10.21 12.6"/><polygon class="cls-43" points="10.45 10.72 10.57 11.21 13.27 11.2 16.14 11.2 16.58 11.2 16.68 10.72 10.45 10.72"/><polygon class="cls-44" points="11.15 7.05 11.26 7.54 14.26 7.53 16.68 7.53 17.28 7.52 17.38 7.05 11.15 7.05"/><polygon class="cls-45" points="11.58 5.44 11.7 5.87 14.72 5.86 16.93 5.85 17.71 5.85 17.82 5.44 11.58 5.44"/><polygon class="cls-46" points="11.98 3.75 12.09 4.18 15.18 4.17 17.18 4.17 18.11 4.17 18.21 3.75 11.98 3.75"/><polygon class="cls-47" points="12.29 2.13 12.4 2.56 15.62 2.55 17.42 2.55 18.42 2.54 18.52 2.13 12.29 2.13"/><polygon class="cls-23" points="18.73 0.85 16.26 21.32 15.38 21.32 15.29 20.79 18.41 0.14 18.73 0.85"/><polygon class="cls-48" points="15.38 21.32 14.64 21.31 17.77 0.14 18.41 0.14 15.38 21.32"/><polygon class="cls-49" points="16.06 0.9 17.66 0.9 17.72 0.49 16.18 0.49 16.06 0.9"/><polygon class="cls-49" points="15.62 2.55 17.42 2.55 17.48 2.13 15.73 2.13 15.62 2.55"/><polygon class="cls-49" points="15.18 4.17 17.18 4.17 17.24 3.75 15.29 3.75 15.18 4.17"/><polygon class="cls-49" points="14.72 5.86 16.93 5.85 16.99 5.44 14.83 5.44 14.72 5.86"/><polygon class="cls-49" points="14.26 7.53 16.68 7.53 16.75 7.05 14.39 7.05 14.26 7.53"/><polygon class="cls-49" points="13.75 9.42 16.4 9.41 16.47 8.93 13.88 8.93 13.75 9.42"/><polygon class="cls-49" points="13.27 11.2 16.14 11.2 16.21 10.72 13.4 10.72 13.27 11.2"/><polygon class="cls-49" points="12.76 13.08 15.86 13.07 15.93 12.6 12.89 12.6 12.76 13.08"/><polygon class="cls-49" points="12.21 15.08 15.56 15.08 15.65 14.48 12.38 14.48 12.21 15.08"/><polygon class="cls-49" points="11.7 16.98 15.29 16.97 15.37 16.42 11.85 16.42 11.7 16.98"/><polygon class="cls-49" points="9.11 19.39 9.19 19.95 14.8 20.25 14.93 19.39 15.04 18.59 11.25 18.64 11.04 19.39 9.11 19.39"/><polygon class="cls-49" points="9.75 16.99 9.85 17.47 14.34 17.79 14.22 18.6 15.04 18.59 15.29 16.97 9.75 16.99"/><polygon class="cls-49" points="10.18 15.08 10.24 15.44 15.46 15.73 15.56 15.08 10.18 15.08"/><polygon class="cls-49" points="10.89 13.52 10.8 13.09 15.86 13.07 15.77 13.72 10.89 13.52"/><polygon class="cls-49" points="11.05 11.21 11.14 11.66 16.02 12.03 16.14 11.2 11.05 11.21"/><polygon class="cls-49" points="11.37 9.43 11.5 10.01 16.28 10.22 16.4 9.41 11.37 9.43"/><polygon class="cls-49" points="11.75 7.57 11.89 8.23 16.55 8.44 16.68 7.53 11.75 7.57"/><polygon class="cls-49" points="12.29 6.3 12.18 5.87 16.93 5.85 16.83 6.5 12.29 6.3"/><polygon class="cls-49" points="12.66 4.5 17.06 4.95 17.18 4.17 12.58 4.18 12.66 4.5"/><polygon class="cls-49" points="12.88 2.56 17.42 2.55 17.33 3.15 12.96 2.85 12.88 2.56"/><polygon class="cls-49" points="13.36 1.4 13.23 0.91 17.66 0.9 17.57 1.51 13.36 1.4"/><polygon class="cls-50" points="18.29 0.77 17.57 1.51 14.9 21.32 15.38 21.32 18.29 0.77"/><polygon class="cls-27" points="15.18 2.19 12.48 2.25 12.64 2.48 14.95 2.48 15.18 2.19"/><polygon class="cls-27" points="12.22 4.16 12.09 3.81 14.7 3.84 14.64 4.13 12.22 4.16"/><polygon class="cls-27" points="11.94 5.78 11.83 5.48 14.43 5.51 14.34 5.79 11.94 5.78"/><polygon class="cls-27" points="11.45 7.44 11.34 7.14 13.94 7.17 13.81 7.45 11.45 7.44"/><polygon class="cls-27" points="11.01 9.32 10.89 9.02 13.5 9.05 13.32 9.33 11.01 9.32"/><polygon class="cls-27" points="10.65 11.11 10.54 10.81 13.15 10.84 13.02 11.12 10.65 11.11"/><polygon class="cls-27" points="9.94 14.81 9.83 14.51 12.2 14.53 12.1 14.81 9.94 14.81"/><polygon class="cls-27" points="9.4 16.87 9.29 16.57 11.89 16.59 12.09 16.87 9.4 16.87"/><polygon class="cls-22" points="11.33 3.25 18.09 2.19 18.41 0.14 11.94 0.23 11.33 3.25"/><path class="cls-15" d="M4,17.27l-.6-.05-.23.33.18.51.14.11-.06-.11a.4.4,0,0,0,.07-.17,1.68,1.68,0,0,0-.16-.37l.23-.2.18.05s0,.19,0,.26-.08.37,0,.43a.38.38,0,0,1,.07.2.61.61,0,0,0,.1-.2v-.5c0-.06.13-.19.13-.19Z"/><path class="cls-15" d="M3.22,17.29l-.46-.07-.1.37.11.41.07.06,0-.09a.89.89,0,0,1,.1-.12c.06-.05-.12-.29-.12-.29l.12-.13.35-.06Z"/><path class="cls-15" d="M4.11,17.29l.09.08s.1.21.16.27a.34.34,0,0,0,.12.08l.14.08,0-.12a1,1,0,0,0,0-.22c0-.09-.23-.17-.23-.17Z"/><path class="cls-15" d="M4.43,17.27s-.06-.17-.13-.17a.83.83,0,0,0-.23.08s-.27-.08-.31-.08H3.31a3.44,3.44,0,0,0-.53.19l1.69,0Z"/><path class="cls-15" d="M5.71,17.21A3.81,3.81,0,0,1,6.28,17a1.31,1.31,0,0,0,.28,0,2.09,2.09,0,0,1,.38,0c.13,0,.25.12.32.12a1,1,0,0,1,.37.21,2.24,2.24,0,0,1,.16.52L7.71,18v-.18s-.19-.07-.19-.17a1.28,1.28,0,0,1,.05-.27H7.34l0,.44-.18.26v-.15s-.09,0-.09-.17a1.17,1.17,0,0,1,.09-.37H6.9l0,.38L6.79,18l0-.15s-.15-.07-.12-.19l.08-.3H6.28s0,.2,0,.26l-.1.12L6,17.58l0-.26Z"/><path class="cls-51" d="M22.45,16.22a3.4,3.4,0,0,0-2.08-2.73l-.19-.08c0-.05.05-.09.07-.14a1,1,0,0,0,0-.74l-.14,0a1.32,1.32,0,0,0-.58.58l0,.11h-.09a1.55,1.55,0,0,0,0-.53,1.85,1.85,0,0,0-.72-1.07l-.14,0a1.86,1.86,0,0,0-.37,1.23,1.38,1.38,0,0,0,.17.47l-.05,0,0,0a1.24,1.24,0,0,0-.64-.48l-.14,0a1,1,0,0,0,.06.74l.06.09A3.39,3.39,0,0,0,16.3,17a3.43,3.43,0,0,0,2.08,2.74l.1,0v0a1,1,0,0,0,.16.73l.14,0a1.33,1.33,0,0,0,.44-.54h.07a1.45,1.45,0,0,0,0,.36A1.89,1.89,0,0,0,20,21.44l.13,0a1.88,1.88,0,0,0,.38-1.24,1.32,1.32,0,0,0-.09-.3l.13-.05a1.46,1.46,0,0,0,.64.31l.14,0a1.1,1.1,0,0,0-.13-.65A3.38,3.38,0,0,0,22.45,16.22Z"/><path class="cls-52" d="M11.07,4.54A10,10,0,0,1,8.14.73L8,.7a.72.72,0,0,1-.55.5c-.48.16-1.2-.47-1.2-.47L6,.75a6.62,6.62,0,0,1,.92,2.1c0,.65-2-2.12-2-2.12L4.77.7s.64,1.19.34,1.49S3.22.73,3.22.73H3s3.7,5.39,7.41,7l0-.17s-1.79-.8-2-1.81,2.24.5,2.24.5l0-.11S10.3,5.45,10.57,5,11.07,4.54,11.07,4.54ZM6.78,4c-.22.22-1.18-.75-1-1S7,3.75,6.78,4Zm2.77-.59c-.22.08-1.42-1.38-1.3-1.5S9.76,3.29,9.55,3.37ZM7.71,5.56c-.11.11-.43-.19-.29-.33S7.83,5.44,7.71,5.56Zm.43-1c-.26.11-1.18-.63-1-.81S8.41,4.45,8.14,4.56Zm1.57-.25c-.45.12-1.19-.73-1-.94S10.16,4.18,9.71,4.31Z"/></g></g></g></svg>