<svg xmlns="http://www.w3.org/2000/svg" xmlns:xlink="http://www.w3.org/1999/xlink" viewBox="0 0 4.04 1.82"><defs><style>.cls-1{isolation:isolate;}.cls-2{fill:url(#Áåçûìÿííûé_ãðàäèåíò_158);}.cls-3{fill:#155168;}.cls-4{fill:#8a011b;}.cls-5{fill:#8ca4af;}.cls-6{fill:#5f8090;}.cls-7{fill:#ffbb15;}.cls-8{fill:#cd4331;}.cls-9{fill:#75113b;}.cls-10{fill:#6e424f;}.cls-11{fill:#a6bc00;}.cls-12{fill:#ffd6cc;}.cls-13{fill:#a21800;opacity:0.26;}.cls-13,.cls-14{mix-blend-mode:multiply;}.cls-14{fill:#385f00;opacity:0.28;}</style><linearGradient id="Áåçûìÿííûé_ãðàäèåíò_158" x1="-210.01" y1="1.82" x2="-210.01" y2="0.2" gradientTransform="translate(212.73)" gradientUnits="userSpaceOnUse"><stop offset="0" stop-color="#f4ffbd"/><stop offset="1" stop-color="#abefb1"/></linearGradient></defs><g class="cls-1"><g id="Layer_2" data-name="Layer 2"><g id="witch"><polygon class="cls-2" points="3.22 1.82 3.83 0.2 2.21 0.33 1.62 1.78 3.22 1.82"/><polygon class="cls-3" points="3.22 1.82 3.52 1.82 4.04 0.38 3.83 0.2 3.22 1.82"/><polygon class="cls-4" points="1.32 1.71 1.46 1.79 2.63 1.81 2.35 1.71 1.32 1.71"/><polygon class="cls-5" points="3.22 0 2.17 0.08 1.32 1.71 2.35 1.71 3.22 0"/><polygon class="cls-6" points="2.63 1.81 3.49 0.15 3.22 0 2.35 1.71 2.63 1.81"/><path class="cls-7" d="M1.49,1.58l.05-.1,0-.05L1.8,1,2,.66,2.15.32l0,0,0-.08.23,0,.34,0,.29,0L3,.26,2.84.52l0,.07v0l-.56,1H1.48Z"/><polygon class="cls-8" points="0.59 1.71 0.75 1.71 1.66 1.71 1.69 1.63 1.71 1.6 1.73 1.55 1.77 1.48 1.8 1.43 2.08 0.88 2.08 0.88 2.21 0.61 2.25 0.54 2.37 0.31 2.37 0.31 2.39 0.27 2.42 0.2 2.44 0.17 2.5 0.05 2.53 0 1.47 0.08 1.45 0.13 1.37 0.27 1.32 0.37 0.76 1.45 0.59 1.71"/><polygon class="cls-9" points="1.94 1.81 2.79 0.15 2.53 0 1.66 1.71 1.94 1.81"/><polygon class="cls-10" points="0.59 1.71 0.63 1.81 1.5 1.79 1.94 1.8 1.91 1.8 1.89 1.79 1.66 1.71 0.59 1.71"/><polygon class="cls-11" points="0.74 1.47 0.74 1.47 0.72 1.5 0.79 1.5 1.43 1.49 1.49 1.49 1.49 1.48 1.54 1.48 1.57 1.48 1.74 1.48 1.75 1.48 1.77 1.48 1.78 1.48 1.94 1.55 2.04 1.6 2.04 1.6 2.07 1.55 2.08 1.54 1.8 1.43 1.77 1.43 1.76 1.43 1.6 1.43 1.57 1.43 1.52 1.43 1.49 1.43 1.46 1.43 0.82 1.45 0.76 1.45 0.74 1.47"/><polygon class="cls-3" points="3.31 1 1.44 0.91 0.31 0.95 0.44 1.37 3.31 1.43 3.31 1.38 1.51 1.28 1.47 0.97 3.31 1.07 3.31 1"/><polygon class="cls-12" points="1.51 1.28 1.47 0.97 3.24 1.07 3.24 1.38 1.51 1.28"/><polygon class="cls-13" points="3.23 1.14 1.9 1.07 1.9 1.13 2.5 1.19 1.5 1.16 1.47 0.97 3.24 1.07 3.23 1.14"/><polygon class="cls-14" points="1.26 0.91 1.34 1.37 1.21 1.37 1.1 0.92 1.26 0.91"/><polygon class="cls-14" points="0.55 0.94 0.68 1.37 0.6 1.37 0.44 0.95 0.55 0.94"/><polygon class="cls-9" points="3.21 1.42 1.21 1.31 0 1.36 0.14 1.81 3.21 1.81 3.21 1.71 1.29 1.71 1.24 1.38 3.21 1.49 3.21 1.42"/><polygon class="cls-12" points="1.29 1.71 1.24 1.38 3.13 1.49 3.1 1.71 1.29 1.71"/><polygon class="cls-13" points="3.12 1.56 1.7 1.49 1.7 1.54 2.34 1.62 1.27 1.58 1.24 1.38 3.13 1.49 3.12 1.56"/><polygon class="cls-9" points="1.02 1.32 1.1 1.81 0.96 1.81 0.84 1.33 1.02 1.32"/><polygon class="cls-9" points="0.26 1.35 0.4 1.81 0.31 1.81 0.14 1.36 0.26 1.35"/></g></g></g></svg>