<svg xmlns="http://www.w3.org/2000/svg" xmlns:xlink="http://www.w3.org/1999/xlink" viewBox="0 0 3.47 0.47"><defs><style>.cls-1{isolation:isolate;}.cls-2{fill:url(#Áåçûìÿííûé_ãðàäèåíò_4);}.cls-3{fill:#5fa9b1;}.cls-4{fill:#d6caca;}.cls-5{fill:#ae8e95;opacity:0.5;}.cls-6{fill:#fff493;}.cls-7{opacity:0.39;mix-blend-mode:multiply;fill:url(#Áåçûìÿííûé_ãðàäèåíò_138);}</style><linearGradient id="Áåçûìÿííûé_ãðàäèåíò_4" x1="0.97" y1="0.24" x2="3.47" y2="0.24" gradientUnits="userSpaceOnUse"><stop offset="0" stop-color="#2395a6"/><stop offset="1" stop-color="#015663"/></linearGradient><linearGradient id="Áåçûìÿííûé_ãðàäèåíò_138" x1="3.21" y1="8.76" x2="5.71" y2="8.76" gradientTransform="matrix(1, -0.02, 0.02, 1, -2.4, -8.43)" gradientUnits="userSpaceOnUse"><stop offset="0" stop-color="#8b6f8e"/><stop offset="1" stop-color="#7a6d84"/></linearGradient></defs><g class="cls-1"><g id="Layer_2" data-name="Layer 2"><g id="witch"><polygon class="cls-2" points="3.46 0.01 3.47 0.47 1.05 0.47 0.97 0 3.46 0.01"/><polygon class="cls-3" points="0 0.32 0.97 0 0.99 0.11 0.03 0.37 0 0.32"/><polygon class="cls-3" points="1.05 0.41 0 0.43 0 0.47 0.77 0.46 1.05 0.47 1.05 0.41"/><polygon class="cls-4" points="0.07 0.35 0.07 0.43 1.05 0.41 0.99 0.11 0.07 0.35"/><polygon class="cls-5" points="0.07 0.4 0.87 0.23 0.89 0.31 0.32 0.4 0.87 0.35 0.9 0.42 1.05 0.41 0.99 0.11 0.07 0.35 0.07 0.4"/><polygon class="cls-6" points="3.21 0.01 3.21 0.47 2.99 0.47 3 0.01 3.21 0.01"/><polygon class="cls-6" points="1.39 0 1.4 0.47 1.58 0.47 1.57 0 1.39 0"/><polygon class="cls-7" points="3.47 0.35 1.64 0.29 1.29 0 0.97 0 1.05 0.47 3.47 0.47 3.47 0.35"/></g></g></g></svg>