<svg xmlns="http://www.w3.org/2000/svg" viewBox="0 0 3.31 0.9"><defs><style>.cls-1{isolation:isolate;}.cls-2{fill:#155168;}.cls-3{fill:#ffd6cc;}.cls-4{fill:#a21800;opacity:0.26;}.cls-4,.cls-5{mix-blend-mode:multiply;}.cls-5{fill:#385f00;opacity:0.28;}.cls-6{fill:#75113b;}</style></defs><g class="cls-1"><g id="Layer_2" data-name="Layer 2"><g id="witch"><polygon class="cls-2" points="3.31 0.1 1.44 0 0.31 0.05 0.44 0.47 3.31 0.52 3.31 0.47 1.51 0.37 1.47 0.06 3.31 0.16 3.31 0.1"/><polygon class="cls-3" points="1.51 0.37 1.47 0.06 3.24 0.16 3.24 0.47 1.51 0.37"/><polygon class="cls-4" points="3.23 0.23 1.9 0.16 1.9 0.22 2.5 0.28 1.5 0.25 1.47 0.06 3.24 0.16 3.23 0.23"/><polygon class="cls-5" points="1.26 0.01 1.34 0.47 1.21 0.47 1.1 0.01 1.26 0.01"/><polygon class="cls-5" points="0.55 0.04 0.68 0.47 0.6 0.47 0.44 0.04 0.55 0.04"/><polygon class="cls-6" points="3.21 0.51 1.21 0.41 0 0.45 0.14 0.9 3.21 0.9 3.21 0.8 1.29 0.8 1.24 0.47 3.21 0.58 3.21 0.51"/><polygon class="cls-3" points="1.29 0.8 1.24 0.47 3.13 0.58 3.1 0.8 1.29 0.8"/><polygon class="cls-4" points="3.12 0.65 1.7 0.58 1.7 0.64 2.34 0.71 1.27 0.67 1.24 0.47 3.13 0.58 3.12 0.65"/><polygon class="cls-6" points="1.02 0.41 1.1 0.9 0.96 0.9 0.84 0.42 1.02 0.41"/><polygon class="cls-6" points="0.26 0.44 0.4 0.9 0.31 0.9 0.14 0.45 0.26 0.44"/></g></g></g></svg>