<svg xmlns="http://www.w3.org/2000/svg" xmlns:xlink="http://www.w3.org/1999/xlink" viewBox="0 0 0.92 1.95"><defs><style>.cls-1{isolation:isolate;}.cls-2{fill:url(#Áåçûìÿííûé_ãðàäèåíò_141);}.cls-3{fill:#571123;}.cls-4,.cls-7,.cls-8{opacity:0.62;mix-blend-mode:color-dodge;}.cls-4{fill:url(#Áåçûìÿííûé_ãðàäèåíò_111);}.cls-10,.cls-5,.cls-9{fill:#fff6d6;}.cls-5{opacity:0.55;}.cls-6{fill:#7a1d23;opacity:0.53;mix-blend-mode:multiply;}.cls-7{fill:url(#Áåçûìÿííûé_ãðàäèåíò_111-2);}.cls-8{fill:url(#Áåçûìÿííûé_ãðàäèåíò_111-3);}.cls-10{opacity:0.2;}</style><linearGradient id="Áåçûìÿííûé_ãðàäèåíò_141" x1="0.34" y1="6.1" x2="0.34" y2="4.15" gradientUnits="userSpaceOnUse"><stop offset="0" stop-color="#4f9f00"/><stop offset="1" stop-color="#267015"/></linearGradient><linearGradient id="Áåçûìÿííûé_ãðàäèåíò_111" x1="-146.84" y1="-301.32" x2="-146.84" y2="-301.91" gradientTransform="translate(146.85 306.69) rotate(0.07)" gradientUnits="userSpaceOnUse"><stop offset="0"/><stop offset="1" stop-color="#b3a600"/></linearGradient><linearGradient id="Áåçûìÿííûé_ãðàäèåíò_111-2" x1="-146.81" y1="-301.98" x2="-146.81" y2="-302.22" gradientTransform="translate(146.98 302.55) rotate(0.07)" xlink:href="#Áåçûìÿííûé_ãðàäèåíò_111"/><linearGradient id="Áåçûìÿííûé_ãðàäèåíò_111-3" x1="-146.77" y1="-302.25" x2="-146.77" y2="-302.33" gradientTransform="translate(146.98 302.55) rotate(0.07)" xlink:href="#Áåçûìÿííûé_ãðàäèåíò_111"/></defs><g class="cls-1"><g id="Layer_2" data-name="Layer 2"><g id="witch"><path class="cls-2" d="M.79,4.82a.14.14,0,0,0,0-.07A.34.34,0,0,0,.61,4.6L.48,4.53h0v0l0-.2h0v0h0v0H.16l0,.38L.07,4.6h0c-.13.07-.2.16-.19.26v.07h0l0,.39h0l0,.73s0,0,.08,0H.62a.08.08,0,0,0,.08,0h0l0-.3h0l0-.2L.79,5v-.1A.06.06,0,0,0,.79,4.82ZM.34,6V6Zm0-.35v0Zm0-.33h0Z" transform="translate(0.12 -4.15)"/><polygon class="cls-3" points="0.67 0.02 0.64 0.12 0.27 0.12 0.25 0.02 0.67 0.02"/><path class="cls-4" d="M.06,4.86A.38.38,0,0,1,.4,4.6a.31.31,0,0,1,.36.26c0,.08,0,.32,0,.32s0-.32,0-.36-.16,0-.34,0A.58.58,0,0,0,.06,4.86Z" transform="translate(0.12 -4.15)"/><path class="cls-5" d="M.29,4.84H.54l0,.83h0s0-.75,0-.78S.29,4.84.29,4.84Z" transform="translate(0.12 -4.15)"/><polygon class="cls-5" points="0.82 1.9 0.8 1.9 0.81 1.67 0.85 0.81 0.85 0.81 0.88 0.78 0.88 0.78 0.92 0.74 0.92 0.74 0.91 0.81 0.86 1.4 0.84 1.59 0.84 1.59 0.82 1.9"/><path class="cls-6" d="M.51,4.27H.17v0h0v.23A.5.5,0,0,0,0,4.77,8.54,8.54,0,0,0,0,6.1h.2s0-1.21,0-1.31.09-.26.09-.26V4.34Z" transform="translate(0.12 -4.15)"/><polygon class="cls-7" points="0.52 0.18 0.6 0.14 0.56 0.38 0.51 0.38 0.52 0.18"/><polygon class="cls-8" points="0.56 0.03 0.64 0.03 0.63 0.11 0.55 0.1 0.56 0.03"/><polygon class="cls-6" points="0.29 0.11 0.28 0.03 0.43 0.03 0.41 0.11 0.29 0.11"/><polygon class="cls-9" points="0.63 0.12 0.6 0.39 0.57 0.39 0.6 0.14 0.6 0.13 0.6 0.12 0.63 0.12"/><polygon class="cls-9" points="0.67 0.02 0.64 0.12 0.63 0.12 0.63 0.11 0.64 0.06 0.64 0.03 0.64 0 0.67 0.02"/><path class="cls-10" d="M.2,4.82l0,1.28H.39l0-1.3A.42.42,0,0,0,.2,4.82Z" transform="translate(0.12 -4.15)"/></g></g></g></svg>