<svg xmlns="http://www.w3.org/2000/svg" xmlns:xlink="http://www.w3.org/1999/xlink" viewBox="0 0 1.66 0.86"><defs><style>.cls-1{isolation:isolate;}.cls-2{fill:#660b21;}.cls-3{fill:url(#Áåçûìÿííûé_ãðàäèåíò_99);}.cls-4,.cls-7{fill:#bd6f95;mix-blend-mode:multiply;}.cls-4{opacity:0.82;}.cls-5,.cls-8{opacity:0.34;mix-blend-mode:color-dodge;}.cls-5{fill:url(#Áåçûìÿííûé_ãðàäèåíò_98);}.cls-6{fill:url(#Áåçûìÿííûé_ãðàäèåíò_99-2);}.cls-7{opacity:0.65;}.cls-8{fill:url(#Áåçûìÿííûé_ãðàäèåíò_98-2);}.cls-9{fill:#fff;opacity:0.74;mix-blend-mode:soft-light;}</style><linearGradient id="Áåçûìÿííûé_ãðàäèåíò_99" y1="0.46" x2="1.4" y2="0.46" gradientUnits="userSpaceOnUse"><stop offset="0" stop-color="#ee666d"/><stop offset="1" stop-color="#910025"/></linearGradient><linearGradient id="Áåçûìÿííûé_ãðàäèåíò_98" x1="0.06" y1="0.58" x2="0.76" y2="0.58" gradientUnits="userSpaceOnUse"><stop offset="0" stop-color="#b9b6c1"/><stop offset="1"/></linearGradient><linearGradient id="Áåçûìÿííûé_ãðàäèåíò_99-2" y1="0.11" x2="1.65" y2="0.11" xlink:href="#Áåçûìÿííûé_ãðàäèåíò_99"/><linearGradient id="Áåçûìÿííûé_ãðàäèåíò_98-2" x1="0.06" y1="0.11" x2="0.96" y2="0.11" xlink:href="#Áåçûìÿííûé_ãðàäèåíò_98"/></defs><g class="cls-1"><g id="Layer_2" data-name="Layer 2"><g id="witch"><polygon class="cls-2" points="1.32 0.07 1.62 0.11 1.66 0.82 1.4 0.84 1.32 0.07"/><polygon class="cls-3" points="0 0.85 0.09 0.07 1.32 0.07 1.4 0.84 0 0.85"/><polygon class="cls-4" points="0.07 0.22 0.06 0.29 1.23 0.33 1.36 0.84 1.4 0.84 1.33 0.17 0.07 0.22"/><polygon class="cls-5" points="0.06 0.84 0.12 0.32 0.76 0.35 0.73 0.84 0.06 0.84"/><polygon class="cls-6" points="0 0.22 1.37 0.16 1.65 0.16 1.65 0.07 1.32 0 0.04 0.01 0 0.22"/><polygon class="cls-2" points="1.35 0.16 1.32 0 1.65 0.05 1.65 0.16 1.35 0.16"/><polygon class="cls-7" points="1.13 0 1.16 0.13 0.04 0.2 1.31 0.15 1.29 0 1.13 0"/><polygon class="cls-8" points="0.06 0.2 0.09 0.03 0.96 0.02 0.95 0.13 0.06 0.2"/><polygon class="cls-9" points="0 0.22 0.04 0.01 1.32 0 0.07 0.03 0.05 0.22 0 0.22"/></g></g></g></svg>