<svg xmlns="http://www.w3.org/2000/svg" xmlns:xlink="http://www.w3.org/1999/xlink" viewBox="0 0 0.73 1.68"><defs><style>.cls-1{mask:url(#mask);}.cls-2,.cls-4,.cls-9{mix-blend-mode:multiply;}.cls-2{fill:url(#Áåçûìÿííûé_ãðàäèåíò_221);}.cls-3{mask:url(#mask-2);}.cls-4{fill:url(#Áåçûìÿííûé_ãðàäèåíò_221-2);}.cls-5{isolation:isolate;}.cls-6{mask:url(#mask-3);}.cls-13,.cls-7{opacity:0.5;}.cls-7{fill:url(#Áåçûìÿííûé_ãðàäèåíò_132);}.cls-8{fill:url(#Áåçûìÿííûé_ãðàäèåíò_107);}.cls-9{fill:#bd6f95;opacity:0.65;}.cls-10{fill:url(#Áåçûìÿííûé_ãðàäèåíò_107-2);}.cls-11{fill:#fff;opacity:0.53;mix-blend-mode:soft-light;}.cls-12{mask:url(#mask-4);}.cls-13{fill:url(#Áåçûìÿííûé_ãðàäèåíò_132-2);}.cls-14{fill:url(#Áåçûìÿííûé_ãðàäèåíò_121);}.cls-15,.cls-16,.cls-17,.cls-18{opacity:0.8;mix-blend-mode:color-dodge;}.cls-15{fill:url(#Áåçûìÿííûé_ãðàäèåíò_117);}.cls-16{fill:url(#Áåçûìÿííûé_ãðàäèåíò_117-2);}.cls-17{fill:url(#Áåçûìÿííûé_ãðàäèåíò_117-3);}.cls-18{fill:url(#Áåçûìÿííûé_ãðàäèåíò_117-4);}.cls-19{filter:url(#luminosity-noclip-4);}.cls-20{filter:url(#luminosity-noclip-3);}.cls-21{filter:url(#luminosity-noclip-2);}.cls-22{filter:url(#luminosity-noclip);}</style><filter id="luminosity-noclip" x="3.99" y="-8211.72" width="0.73" height="32766" filterUnits="userSpaceOnUse" color-interpolation-filters="sRGB"><feFlood flood-color="#fff" result="bg"/><feBlend in="SourceGraphic" in2="bg"/></filter><mask id="mask" x="3.99" y="-8211.72" width="0.73" height="32766" maskUnits="userSpaceOnUse"><g class="cls-22"/></mask><linearGradient id="Áåçûìÿííûé_ãðàäèåíò_221" x1="4.36" y1="5.41" x2="4.36" y2="3.85" gradientUnits="userSpaceOnUse"><stop offset="0" stop-color="gray"/><stop offset="1" stop-color="#fff"/></linearGradient><filter id="luminosity-noclip-2" x="4.02" y="-8211.72" width="0.68" height="32766" filterUnits="userSpaceOnUse" color-interpolation-filters="sRGB"><feFlood flood-color="#fff" result="bg"/><feBlend in="SourceGraphic" in2="bg"/></filter><mask id="mask-2" x="4.02" y="-8211.72" width="0.68" height="32766" maskUnits="userSpaceOnUse"><g class="cls-21"/></mask><linearGradient id="Áåçûìÿííûé_ãðàäèåíò_221-2" x1="4.36" y1="5.41" x2="4.36" y2="3.87" xlink:href="#Áåçûìÿííûé_ãðàäèåíò_221"/><filter id="luminosity-noclip-3" x="3.99" y="3.85" width="0.73" height="1.55" filterUnits="userSpaceOnUse" color-interpolation-filters="sRGB"><feFlood flood-color="#fff" result="bg"/><feBlend in="SourceGraphic" in2="bg"/></filter><mask id="mask-3" x="0" y="0.13" width="0.73" height="1.55" maskUnits="userSpaceOnUse"><g class="cls-20"><g transform="translate(-3.99 -3.72)"><g class="cls-1"><path class="cls-2" d="M4.73,5a.38.38,0,0,0-.28-.36l.07-.83H4.21l0,.84A.37.37,0,0,0,4,5a.39.39,0,0,0,.19.32h0l0,0h.4l0,0h0A.38.38,0,0,0,4.73,5Z"/></g></g></g></mask><linearGradient id="Áåçûìÿííûé_ãðàäèåíò_132" x1="4.36" y1="5.41" x2="4.36" y2="3.85" gradientUnits="userSpaceOnUse"><stop offset="0" stop-color="#cfffe8"/><stop offset="1" stop-color="#4aefb1"/></linearGradient><linearGradient id="Áåçûìÿííûé_ãðàäèåíò_107" x1="0.36" y1="0.26" x2="0.36" y2="0.05" gradientUnits="userSpaceOnUse"><stop offset="0" stop-color="#e77231"/><stop offset="0.99" stop-color="#9c3536"/></linearGradient><linearGradient id="Áåçûìÿííûé_ãðàäèåíò_107-2" x1="0.37" y1="0.09" x2="0.37" y2="0" xlink:href="#Áåçûìÿííûé_ãðàäèåíò_107"/><filter id="luminosity-noclip-4" x="4.02" y="3.87" width="0.68" height="1.54" filterUnits="userSpaceOnUse" color-interpolation-filters="sRGB"><feFlood flood-color="#fff" result="bg"/><feBlend in="SourceGraphic" in2="bg"/></filter><mask id="mask-4" x="0.03" y="0.15" width="0.68" height="1.54" maskUnits="userSpaceOnUse"><g class="cls-19"><g transform="translate(-3.99 -3.72)"><g class="cls-3"><path class="cls-4" d="M4.7,5v0a.37.37,0,0,1-.2.29h0l0,0H4.16l0,0A.37.37,0,0,1,4,5.08s0,0,0,0a.35.35,0,0,1,.24-.34l0-.83H4.5l-.06.82A.36.36,0,0,1,4.7,5Z"/></g></g></g></mask><linearGradient id="Áåçûìÿííûé_ãðàäèåíò_132-2" x1="4.36" y1="5.41" x2="4.36" y2="3.87" xlink:href="#Áåçûìÿííûé_ãðàäèåíò_132"/><linearGradient id="Áåçûìÿííûé_ãðàäèåíò_121" x1="4.36" y1="5.37" x2="4.36" y2="5.08" gradientUnits="userSpaceOnUse"><stop offset="0" stop-color="#f48ba9"/><stop offset="1" stop-color="#ff1591"/></linearGradient><linearGradient id="Áåçûìÿííûé_ãðàäèåíò_117" x1="0.43" y1="0.97" x2="0.43" y2="0.16" gradientUnits="userSpaceOnUse"><stop offset="0"/><stop offset="1" stop-color="#3ed477"/></linearGradient><linearGradient id="Áåçûìÿííûé_ãðàäèåíò_117-2" x1="0.26" y1="0.97" x2="0.26" y2="0.15" xlink:href="#Áåçûìÿííûé_ãðàäèåíò_117"/><linearGradient id="Áåçûìÿííûé_ãðàäèåíò_117-3" x1="4.5" y1="5.33" x2="4.5" y2="4.74" xlink:href="#Áåçûìÿííûé_ãðàäèåíò_117"/><linearGradient id="Áåçûìÿííûé_ãðàäèåíò_117-4" x1="4.12" y1="5.35" x2="4.12" y2="4.98" xlink:href="#Áåçûìÿííûé_ãðàäèåíò_117"/></defs><g class="cls-5"><g id="Layer_2" data-name="Layer 2"><g id="witch"><g class="cls-6"><path class="cls-7" d="M4.73,5a.38.38,0,0,0-.28-.36l.07-.83H4.21l0,.84A.37.37,0,0,0,4,5a.39.39,0,0,0,.19.32h0l0,0h.4l0,0h0A.38.38,0,0,0,4.73,5Z" transform="translate(-3.99 -3.72)"/></g><polygon class="cls-8" points="0.24 0.26 0.21 0.05 0.51 0.08 0.49 0.26 0.24 0.26"/><polygon class="cls-9" points="0.51 0.1 0.28 0.12 0.28 0.26 0.24 0.26 0.21 0.05 0.51 0.08 0.51 0.1"/><polygon class="cls-10" points="0.18 0 0.2 0.09 0.53 0.09 0.55 0 0.18 0"/><polygon class="cls-11" points="0.19 0 0.54 0.01 0.51 0.08 0.42 0.08 0.42 0.02 0.19 0"/><g class="cls-12"><path class="cls-13" d="M4.7,5v0a.37.37,0,0,1-.2.29h0l0,0H4.16l0,0A.37.37,0,0,1,4,5.08s0,0,0,0a.35.35,0,0,1,.24-.34l0-.83H4.5l-.06.82A.36.36,0,0,1,4.7,5Z" transform="translate(-3.99 -3.72)"/></g><path class="cls-14" d="M4.7,5.08a.37.37,0,0,1-.2.29H4.19A.37.37,0,0,1,4,5.08Z" transform="translate(-3.99 -3.72)"/><polygon class="cls-15" points="0.41 0.16 0.48 0.16 0.43 0.97 0.39 0.97 0.41 0.16"/><polygon class="cls-16" points="0.23 0.16 0.27 0.97 0.29 0.97 0.26 0.15 0.23 0.16"/><path class="cls-17" d="M4.36,4.75h.15a.44.44,0,0,1,0,.59h0A.65.65,0,0,0,4.36,4.75Z" transform="translate(-3.99 -3.72)"/><path class="cls-18" d="M4.1,5H4a.45.45,0,0,0,.17.37A.42.42,0,0,1,4.1,5Z" transform="translate(-3.99 -3.72)"/><path class="cls-11" d="M4.38,5.2a0,0,0,0,1-.1,0,0,0,0,0,1,.1,0A0,0,0,0,1,4.38,5.2Z" transform="translate(-3.99 -3.72)"/><path class="cls-11" d="M4.42,5.13h0Z" transform="translate(-3.99 -3.72)"/><path class="cls-11" d="M4.48,5.28a0,0,0,0,1,0,0,0,0,0,0,1,0,0,0,0,0,0,1,0,0A0,0,0,0,1,4.48,5.28Z" transform="translate(-3.99 -3.72)"/></g></g></g></svg>