<svg xmlns="http://www.w3.org/2000/svg" xmlns:xlink="http://www.w3.org/1999/xlink" viewBox="0 0 1.87 1.59"><defs><style>.cls-1{mask:url(#mask);filter:url(#luminosity-noclip-4);}.cls-2,.cls-4,.cls-6{mix-blend-mode:multiply;}.cls-2{fill:url(#Áåçûìÿííûé_ãðàäèåíò_218);}.cls-3{mask:url(#mask-2);filter:url(#luminosity-noclip-5);}.cls-4{fill:url(#Áåçûìÿííûé_ãðàäèåíò_218-2);}.cls-5{mask:url(#mask-3);filter:url(#luminosity-noclip-6);}.cls-6{fill:url(#Áåçûìÿííûé_ãðàäèåíò_218-3);}.cls-7{isolation:isolate;}.cls-8{mask:url(#mask-4);}.cls-9{fill:url(#Áåçûìÿííûé_ãðàäèåíò_132);}.cls-10{mask:url(#mask-5);}.cls-11{fill:url(#Áåçûìÿííûé_ãðàäèåíò_132-2);}.cls-12{mask:url(#mask-6);}.cls-13{fill:url(#Áåçûìÿííûé_ãðàäèåíò_132-3);}.cls-14{fill:url(#Áåçûìÿííûé_ãðàäèåíò_147);}.cls-15,.cls-16,.cls-17{opacity:0.8;mix-blend-mode:color-dodge;}.cls-15{fill:url(#Áåçûìÿííûé_ãðàäèåíò_117);}.cls-16{fill:url(#Áåçûìÿííûé_ãðàäèåíò_117-2);}.cls-17{fill:url(#Áåçûìÿííûé_ãðàäèåíò_117-3);}.cls-18{filter:url(#luminosity-noclip-3);}.cls-19{filter:url(#luminosity-noclip-2);}.cls-20{filter:url(#luminosity-noclip);}</style><filter id="luminosity-noclip" x="0" y="-8211.2" width="1.87" height="32766" filterUnits="userSpaceOnUse" color-interpolation-filters="sRGB"><feFlood flood-color="#fff" result="bg"/><feBlend in="SourceGraphic" in2="bg"/></filter><mask id="mask" x="0" y="-8211.2" width="1.87" height="32766" maskUnits="userSpaceOnUse"><g class="cls-20"/></mask><linearGradient id="Áåçûìÿííûé_ãðàäèåíò_218" x1="0.93" y1="1.59" x2="0.93" y2="0.05" gradientUnits="userSpaceOnUse"><stop offset="0" stop-color="gray"/><stop offset="1" stop-color="#fff"/></linearGradient><filter id="luminosity-noclip-2" x="0.12" y="-8211.2" width="1.65" height="32766" filterUnits="userSpaceOnUse" color-interpolation-filters="sRGB"><feFlood flood-color="#fff" result="bg"/><feBlend in="SourceGraphic" in2="bg"/></filter><mask id="mask-2" x="0.12" y="-8211.2" width="1.65" height="32766" maskUnits="userSpaceOnUse"><g class="cls-19"/></mask><linearGradient id="Áåçûìÿííûé_ãðàäèåíò_218-2" x1="0.94" y1="1.59" x2="0.94" y2="0.05" xlink:href="#Áåçûìÿííûé_ãðàäèåíò_218"/><filter id="luminosity-noclip-3" x="0.64" y="-8211.2" width="0.61" height="32766" filterUnits="userSpaceOnUse" color-interpolation-filters="sRGB"><feFlood flood-color="#fff" result="bg"/><feBlend in="SourceGraphic" in2="bg"/></filter><mask id="mask-3" x="0.64" y="-8211.2" width="0.61" height="32766" maskUnits="userSpaceOnUse"><g class="cls-18"/></mask><linearGradient id="Áåçûìÿííûé_ãðàäèåíò_218-3" x1="0.94" y1="0.17" x2="0.94" y2="0" xlink:href="#Áåçûìÿííûé_ãðàäèåíò_218"/><filter id="luminosity-noclip-4" x="0" y="0.05" width="1.87" height="1.55" filterUnits="userSpaceOnUse" color-interpolation-filters="sRGB"><feFlood flood-color="#fff" result="bg"/><feBlend in="SourceGraphic" in2="bg"/></filter><mask id="mask-4" x="0" y="0.05" width="1.87" height="1.55" maskUnits="userSpaceOnUse"><g class="cls-1"><polygon class="cls-2" points="0.74 0.05 0.8 0.7 0 1.59 1.87 1.59 1.1 0.7 1.15 0.05 0.74 0.05"/></g></mask><linearGradient id="Áåçûìÿííûé_ãðàäèåíò_132" x1="0.93" y1="1.59" x2="0.93" y2="0.05" gradientUnits="userSpaceOnUse"><stop offset="0" stop-color="#cfffe8"/><stop offset="1" stop-color="#4aefb1"/></linearGradient><filter id="luminosity-noclip-5" x="0.12" y="0.05" width="1.65" height="1.55" filterUnits="userSpaceOnUse" color-interpolation-filters="sRGB"><feFlood flood-color="#fff" result="bg"/><feBlend in="SourceGraphic" in2="bg"/></filter><mask id="mask-5" x="0.12" y="0.05" width="1.65" height="1.55" maskUnits="userSpaceOnUse"><g class="cls-3"><polygon class="cls-4" points="0.8 0.05 0.86 0.7 0.12 1.58 1.76 1.59 1.03 0.7 1.07 0.05 0.8 0.05"/></g></mask><linearGradient id="Áåçûìÿííûé_ãðàäèåíò_132-2" x1="0.94" y1="1.59" x2="0.94" y2="0.05" xlink:href="#Áåçûìÿííûé_ãðàäèåíò_132"/><filter id="luminosity-noclip-6" x="0.64" y="0" width="0.61" height="0.17" filterUnits="userSpaceOnUse" color-interpolation-filters="sRGB"><feFlood flood-color="#fff" result="bg"/><feBlend in="SourceGraphic" in2="bg"/></filter><mask id="mask-6" x="0.64" y="0" width="0.61" height="0.17" maskUnits="userSpaceOnUse"><g class="cls-5"><polygon class="cls-6" points="0.64 0 0.68 0.17 1.19 0.17 1.24 0 0.64 0"/></g></mask><linearGradient id="Áåçûìÿííûé_ãðàäèåíò_132-3" x1="0.94" y1="0.17" x2="0.94" y2="0" xlink:href="#Áåçûìÿííûé_ãðàäèåíò_132"/><linearGradient id="Áåçûìÿííûé_ãðàäèåíò_147" x1="0.94" y1="1.59" x2="0.94" y2="0.42" gradientUnits="userSpaceOnUse"><stop offset="0" stop-color="#e90088"/><stop offset="1" stop-color="#de3129"/></linearGradient><linearGradient id="Áåçûìÿííûé_ãðàäèåíò_117" x1="0.94" y1="0.16" x2="0.94" y2="0.01" gradientUnits="userSpaceOnUse"><stop offset="0"/><stop offset="1" stop-color="#3ed477"/></linearGradient><linearGradient id="Áåçûìÿííûé_ãðàäèåíò_117-2" x1="1.36" y1="1.59" x2="1.36" y2="0.2" xlink:href="#Áåçûìÿííûé_ãðàäèåíò_117"/><linearGradient id="Áåçûìÿííûé_ãðàäèåíò_117-3" x1="0.5" y1="1.58" x2="0.5" y2="0.2" xlink:href="#Áåçûìÿííûé_ãðàäèåíò_117"/></defs><g class="cls-7"><g id="Layer_2" data-name="Layer 2"><g id="witch"><g class="cls-8"><polygon class="cls-9" points="0.74 0.05 0.8 0.7 0 1.59 1.87 1.59 1.1 0.7 1.15 0.05 0.74 0.05"/></g><g class="cls-10"><polygon class="cls-11" points="0.8 0.05 0.86 0.7 0.12 1.58 1.76 1.59 1.03 0.7 1.07 0.05 0.8 0.05"/></g><g class="cls-12"><polygon class="cls-13" points="0.64 0 0.68 0.17 1.19 0.17 1.24 0 0.64 0"/></g><polygon class="cls-14" points="0.83 0.42 1.05 0.42 1.03 0.7 1.76 1.59 0.12 1.58 0.86 0.7 0.83 0.42"/><polygon class="cls-15" points="0.67 0.01 1.22 0.01 1.18 0.16 1.07 0.16 1.08 0.04 0.67 0.01"/><polygon class="cls-16" points="1.02 0.2 1 0.73 1.43 1.57 1.73 1.59 1.05 0.68 1.11 0.2 1.02 0.2"/><polygon class="cls-17" points="0.77 0.2 0.82 0.7 0.1 1.58 0.49 1.58 0.9 0.67 0.86 0.22 0.77 0.2"/></g></g></g></svg>