<svg xmlns="http://www.w3.org/2000/svg" xmlns:xlink="http://www.w3.org/1999/xlink" viewBox="0 0 0.66 1.12"><defs><style>.cls-1{mask:url(#mask);}.cls-2,.cls-6{mix-blend-mode:multiply;}.cls-2{fill:url(#Áåçûìÿííûé_ãðàäèåíò_215);}.cls-3{isolation:isolate;}.cls-10,.cls-4{opacity:0.5;}.cls-4{fill:url(#Áåçûìÿííûé_ãðàäèåíò_158);}.cls-5{fill:url(#Áåçûìÿííûé_ãðàäèåíò_107);}.cls-6{fill:#bd6f95;opacity:0.65;}.cls-7{fill:url(#Áåçûìÿííûé_ãðàäèåíò_107-2);}.cls-8{fill:#fff;opacity:0.53;mix-blend-mode:soft-light;}.cls-9{mask:url(#mask-2);}.cls-10{fill:url(#Áåçûìÿííûé_ãðàäèåíò_132);}.cls-11{fill:url(#Áåçûìÿííûé_ãðàäèåíò_125);}.cls-12,.cls-13,.cls-14,.cls-15{opacity:0.8;mix-blend-mode:color-dodge;}.cls-12{fill:url(#Áåçûìÿííûé_ãðàäèåíò_117);}.cls-13{fill:url(#Áåçûìÿííûé_ãðàäèåíò_117-2);}.cls-14{fill:url(#Áåçûìÿííûé_ãðàäèåíò_117-3);}.cls-15{fill:url(#Áåçûìÿííûé_ãðàäèåíò_117-4);}.cls-16{filter:url(#luminosity-noclip-2);}.cls-17{filter:url(#luminosity-noclip);}</style><filter id="luminosity-noclip" x="0.08" y="-8208.07" width="0.61" height="32766" filterUnits="userSpaceOnUse" color-interpolation-filters="sRGB"><feFlood flood-color="#fff" result="bg"/><feBlend in="SourceGraphic" in2="bg"/></filter><mask id="mask" x="0.08" y="-8208.07" width="0.61" height="32766" maskUnits="userSpaceOnUse"><g class="cls-17"/></mask><linearGradient id="Áåçûìÿííûé_ãðàäèåíò_215" x1="0.39" y1="1.81" x2="0.39" y2="0.83" gradientUnits="userSpaceOnUse"><stop offset="0" stop-color="gray"/><stop offset="1" stop-color="#fff"/></linearGradient><linearGradient id="Áåçûìÿííûé_ãðàäèåíò_158" x1="0.39" y1="1.81" x2="0.39" y2="0.81" gradientUnits="userSpaceOnUse"><stop offset="0" stop-color="#f4ffbd"/><stop offset="1" stop-color="#abefb1"/></linearGradient><linearGradient id="Áåçûìÿííûé_ãðàäèåíò_107" x1="0.33" y1="0.24" x2="0.33" y2="0.05" gradientUnits="userSpaceOnUse"><stop offset="0" stop-color="#e77231"/><stop offset="0.99" stop-color="#9c3536"/></linearGradient><linearGradient id="Áåçûìÿííûé_ãðàäèåíò_107-2" x1="0.33" y1="0.08" x2="0.33" y2="0" xlink:href="#Áåçûìÿííûé_ãðàäèåíò_107"/><filter id="luminosity-noclip-2" x="0.08" y="0.83" width="0.61" height="0.98" filterUnits="userSpaceOnUse" color-interpolation-filters="sRGB"><feFlood flood-color="#fff" result="bg"/><feBlend in="SourceGraphic" in2="bg"/></filter><mask id="mask-2" x="0.03" y="0.13" width="0.61" height="0.98" maskUnits="userSpaceOnUse"><g class="cls-16"><g transform="translate(-0.06 -0.69)"><g class="cls-1"><path class="cls-2" d="M.69,1.48v0a.34.34,0,0,1-.17.26l0,0H.21l0,0a.33.33,0,0,1-.15-.25.06.06,0,0,1,0,0,.33.33,0,0,1,.21-.31l0-.2V.83H.52L.49,1l0,.17A.3.3,0,0,1,.69,1.48Z"/></g></g></g></mask><linearGradient id="Áåçûìÿííûé_ãðàäèåíò_132" x1="0.39" y1="1.81" x2="0.39" y2="0.83" gradientUnits="userSpaceOnUse"><stop offset="0" stop-color="#cfffe8"/><stop offset="1" stop-color="#4aefb1"/></linearGradient><linearGradient id="Áåçûìÿííûé_ãðàäèåíò_125" x1="0.39" y1="1.78" x2="0.39" y2="0.97" gradientUnits="userSpaceOnUse"><stop offset="0" stop-color="#bbd400"/><stop offset="1" stop-color="#2dff15"/></linearGradient><linearGradient id="Áåçûìÿííûé_ãðàäèåíò_117" x1="0.39" y1="0.47" x2="0.39" y2="0.14" gradientUnits="userSpaceOnUse"><stop offset="0"/><stop offset="1" stop-color="#3ed477"/></linearGradient><linearGradient id="Áåçûìÿííûé_ãðàäèåíò_117-2" x1="0.23" y1="0.47" x2="0.23" y2="0.14" xlink:href="#Áåçûìÿííûé_ãðàäèåíò_117"/><linearGradient id="Áåçûìÿííûé_ãðàäèåíò_117-3" x1="0.51" y1="1.74" x2="0.51" y2="1.21" xlink:href="#Áåçûìÿííûé_ãðàäèåíò_117"/><linearGradient id="Áåçûìÿííûé_ãðàäèåíò_117-4" x1="0.17" y1="1.76" x2="0.17" y2="1.43" xlink:href="#Áåçûìÿííûé_ãðàäèåíò_117"/></defs><g class="cls-3"><g id="Layer_2" data-name="Layer 2"><g id="witch"><path class="cls-4" d="M.72,1.48a.32.32,0,0,0-.25-.32L.53.81H.25l0,.35a.32.32,0,0,0-.23.32.31.31,0,0,0,.16.28h0l0,.05H.55l0,0h0A.35.35,0,0,0,.72,1.48Z" transform="translate(-0.06 -0.69)"/><polygon class="cls-5" points="0.21 0.24 0.19 0.05 0.46 0.07 0.44 0.24 0.21 0.24"/><polygon class="cls-6" points="0.46 0.09 0.25 0.11 0.25 0.24 0.21 0.24 0.19 0.05 0.46 0.07 0.46 0.09"/><polygon class="cls-7" points="0.16 0 0.18 0.08 0.48 0.08 0.5 0 0.16 0"/><polygon class="cls-8" points="0.17 0 0.48 0.01 0.46 0.07 0.38 0.07 0.38 0.02 0.17 0"/><g class="cls-9"><path class="cls-10" d="M.69,1.48v0a.34.34,0,0,1-.17.26l0,0H.21l0,0a.33.33,0,0,1-.15-.25.06.06,0,0,1,0,0,.33.33,0,0,1,.21-.31l0-.2V.83H.52L.49,1l0,.17A.3.3,0,0,1,.69,1.48Z" transform="translate(-0.06 -0.69)"/></g><path class="cls-11" d="M.69,1.48v0a.34.34,0,0,1-.17.26H.24a.33.33,0,0,1-.15-.25.06.06,0,0,1,0,0,.33.33,0,0,1,.21-.31l0-.2L.49,1l0,.17A.3.3,0,0,1,.69,1.48Z" transform="translate(-0.06 -0.69)"/><polygon class="cls-12" points="0.37 0.14 0.43 0.14 0.39 0.47 0.35 0.47 0.37 0.14"/><polygon class="cls-13" points="0.21 0.14 0.24 0.47 0.26 0.47 0.23 0.14 0.21 0.14"/><path class="cls-14" d="M.39,1.21H.52a.4.4,0,0,1,0,.53h0A.62.62,0,0,0,.39,1.21Z" transform="translate(-0.06 -0.69)"/><path class="cls-15" d="M.15,1.43h0a.4.4,0,0,0,.15.33A.35.35,0,0,1,.15,1.43Z" transform="translate(-0.06 -0.69)"/><path class="cls-8" d="M.41,1.63a0,0,0,0,1,0,0,0,0,0,0,1,0,0,0,0,0,0,1,0,0A0,0,0,0,1,.41,1.63Z" transform="translate(-0.06 -0.69)"/><path class="cls-8" d="M.44,1.56a0,0,0,0,1,0,0h0a0,0,0,0,1,0,0S.44,1.55.44,1.56Z" transform="translate(-0.06 -0.69)"/><path class="cls-8" d="M.5,1.7a0,0,0,0,1,0,0,0,0,0,0,1,0,0,0,0,0,0,1,0,0A0,0,0,0,1,.5,1.7Z" transform="translate(-0.06 -0.69)"/></g></g></g></svg>