<svg xmlns="http://www.w3.org/2000/svg" xmlns:xlink="http://www.w3.org/1999/xlink" viewBox="0 0 2.47 3.32"><defs><style>.cls-1{mask:url(#mask);filter:url(#luminosity-noclip-3);}.cls-2,.cls-4{mix-blend-mode:multiply;}.cls-2{fill:url(#Áåçûìÿííûé_ãðàäèåíò_7);}.cls-3{mask:url(#mask-2);filter:url(#luminosity-noclip-4);}.cls-4{fill:url(#Áåçûìÿííûé_ãðàäèåíò_7-2);}.cls-5{isolation:isolate;}.cls-6{fill:url(#Áåçûìÿííûé_ãðàäèåíò_20);}.cls-7{fill:url(#Áåçûìÿííûé_ãðàäèåíò_20-2);}.cls-8{mask:url(#mask-3);}.cls-9{fill:url(#Áåçûìÿííûé_ãðàäèåíò_257);}.cls-10{mask:url(#mask-4);}.cls-11{fill:url(#Áåçûìÿííûé_ãðàäèåíò_257-2);}.cls-12,.cls-13{opacity:0.39;}.cls-12{fill:url(#Áåçûìÿííûé_ãðàäèåíò_259);}.cls-14{fill:#c6004c;}.cls-15{fill:#fff;}.cls-16{fill:#f1e4dc;opacity:0.4;mix-blend-mode:soft-light;}.cls-17,.cls-18{mix-blend-mode:color-dodge;}.cls-17{fill:url(#Áåçûìÿííûé_ãðàäèåíò_251);}.cls-18{fill:url(#Áåçûìÿííûé_ãðàäèåíò_251-2);}.cls-19{filter:url(#luminosity-noclip-2);}.cls-20{filter:url(#luminosity-noclip);}</style><filter id="luminosity-noclip" x="0.03" y="-8207.7" width="2.44" height="32766" filterUnits="userSpaceOnUse" color-interpolation-filters="sRGB"><feFlood flood-color="#fff" result="bg"/><feBlend in="SourceGraphic" in2="bg"/></filter><mask id="mask" x="0.03" y="-8207.7" width="2.44" height="32766" maskUnits="userSpaceOnUse"><g class="cls-20"/></mask><radialGradient id="Áåçûìÿííûé_ãðàäèåíò_7" cx="1.54" cy="1.38" r="2.24" gradientUnits="userSpaceOnUse"><stop offset="0" stop-color="#666"/><stop offset="0.13" stop-color="#6b6b6b"/><stop offset="0.3" stop-color="#7b7b7b"/><stop offset="0.49" stop-color="#959595"/><stop offset="0.69" stop-color="#b9b9b9"/><stop offset="0.9" stop-color="#e7e7e7"/><stop offset="1" stop-color="#fff"/></radialGradient><filter id="luminosity-noclip-2" x="0.29" y="-8207.7" width="2.18" height="32766" filterUnits="userSpaceOnUse" color-interpolation-filters="sRGB"><feFlood flood-color="#fff" result="bg"/><feBlend in="SourceGraphic" in2="bg"/></filter><mask id="mask-2" x="0.29" y="-8207.7" width="2.18" height="32766" maskUnits="userSpaceOnUse"><g class="cls-19"/></mask><radialGradient id="Áåçûìÿííûé_ãðàäèåíò_7-2" cx="1.38" cy="1.68" r="1.04" xlink:href="#Áåçûìÿííûé_ãðàäèåíò_7"/><linearGradient id="Áåçûìÿííûé_ãðàäèåíò_20" x1="0.17" y1="3.25" x2="1.98" y2="3.25" gradientUnits="userSpaceOnUse"><stop offset="0" stop-color="#f3d5c9"/><stop offset="1" stop-color="#f3ccad"/></linearGradient><linearGradient id="Áåçûìÿííûé_ãðàäèåíò_20-2" x1="0.83" y1="2.92" x2="1.42" y2="2.92" xlink:href="#Áåçûìÿííûé_ãðàäèåíò_20"/><filter id="luminosity-noclip-3" x="0.03" y="0.23" width="2.44" height="2.44" filterUnits="userSpaceOnUse" color-interpolation-filters="sRGB"><feFlood flood-color="#fff" result="bg"/><feBlend in="SourceGraphic" in2="bg"/></filter><mask id="mask-3" x="0.03" y="0.23" width="2.44" height="2.44" maskUnits="userSpaceOnUse"><g class="cls-1"><path class="cls-2" d="M2.47,1.45A1.22,1.22,0,0,1,0,1.45a1.21,1.21,0,0,1,0-.19,1.22,1.22,0,0,1,2.43.14Z"/></g></mask><radialGradient id="Áåçûìÿííûé_ãðàäèåíò_257" cx="1.54" cy="1.38" r="2.24" gradientUnits="userSpaceOnUse"><stop offset="0" stop-color="#2dffbd"/><stop offset="0.2" stop-color="#2ffeb8"/><stop offset="0.45" stop-color="#33faa8"/><stop offset="0.72" stop-color="#3af38e"/><stop offset="1" stop-color="#43eb6d"/></radialGradient><filter id="luminosity-noclip-4" x="0.29" y="0.69" width="2.18" height="1.98" filterUnits="userSpaceOnUse" color-interpolation-filters="sRGB"><feFlood flood-color="#fff" result="bg"/><feBlend in="SourceGraphic" in2="bg"/></filter><mask id="mask-4" x="0.29" y="0.69" width="2.18" height="1.98" maskUnits="userSpaceOnUse"><g class="cls-3"><path class="cls-4" d="M.29,2.21A1.22,1.22,0,1,0,2.21.69S2.29,2.82.29,2.21Z"/></g></mask><radialGradient id="Áåçûìÿííûé_ãðàäèåíò_257-2" cx="1.38" cy="1.68" r="1.04" xlink:href="#Áåçûìÿííûé_ãðàäèåíò_257"/><radialGradient id="Áåçûìÿííûé_ãðàäèåíò_259" cx="1.25" cy="1.45" r="0.22" gradientUnits="userSpaceOnUse"><stop offset="0" stop-color="#ee666d"/><stop offset="1" stop-color="#910025"/></radialGradient><radialGradient id="Áåçûìÿííûé_ãðàäèåíò_251" cx="-29.14" cy="-103.52" r="0.2" gradientTransform="matrix(3.98, -0.17, 0.11, 2.49, 128.56, 255.27)" gradientUnits="userSpaceOnUse"><stop offset="0" stop-color="#333b00"/><stop offset="0.26" stop-color="#2f3700"/><stop offset="0.52" stop-color="#252b00"/><stop offset="0.79" stop-color="#131600"/><stop offset="1"/></radialGradient><radialGradient id="Áåçûìÿííûé_ãðàäèåíò_251-2" cx="6.59" cy="-143.18" r="0.2" gradientTransform="matrix(2.59, -3.29, 2.56, 2.02, 349.75, 311.21)" xlink:href="#Áåçûìÿííûé_ãðàäèåíò_251"/></defs><g class="cls-5"><g id="Layer_2" data-name="Layer 2"><g id="witch"><path class="cls-6" d="M2,3.25a2.89,2.89,0,0,1-.9.07,3,3,0,0,1-.91-.07,2.8,2.8,0,0,1,.91-.08A2.71,2.71,0,0,1,2,3.25Z"/><polygon class="cls-7" points="0.83 3.25 1.01 2.6 1.36 2.63 1.42 3.25 0.83 3.25"/><g class="cls-8"><path class="cls-9" d="M2.47,1.45A1.22,1.22,0,0,1,0,1.45a1.21,1.21,0,0,1,0-.19,1.22,1.22,0,0,1,2.43.14Z"/></g><g class="cls-10"><path class="cls-11" d="M.29,2.21A1.22,1.22,0,1,0,2.21.69S2.29,2.82.29,2.21Z"/></g><path class="cls-12" d="M1.47,1.45a.22.22,0,1,1-.22-.22A.22.22,0,0,1,1.47,1.45Z"/><g class="cls-13"><path class="cls-14" d="M1.47,1.41v0a2.19,2.19,0,0,1,.59-.2c.15,0,.3-.25.3-.25h0s-.15.27-.32.27A2.5,2.5,0,0,0,1.47,1.41Z"/></g><g class="cls-13"><path class="cls-14" d="M1.43,1.32l0,0A3.23,3.23,0,0,1,1.76.89.73.73,0,0,0,1.94.45H2a.74.74,0,0,1-.19.46A4.55,4.55,0,0,0,1.43,1.32Z"/></g><g class="cls-13"><path class="cls-14" d="M1.28,1.24a.32.32,0,0,1,0-.37C1.45.7,1.21.24,1.2.24l0,0s.26.48.11.67a.29.29,0,0,0,0,.34Z"/></g><g class="cls-13"><path class="cls-14" d="M.14,1.92h0a1.15,1.15,0,0,1,.33-.34A1.39,1.39,0,0,1,1,1.48v0a1.46,1.46,0,0,0-.58.08A1.1,1.1,0,0,0,.14,1.92Z"/></g><g class="cls-13"><path class="cls-14" d="M.75,2.56h0a1.72,1.72,0,0,1,.22-.64,3,3,0,0,0,.21-.25h0A1.44,1.44,0,0,1,1,1.93,1.9,1.9,0,0,0,.75,2.56Z"/></g><g class="cls-13"><path class="cls-14" d="M1.66,2.61S1.32,2.16,1.4,2s-.11-.28-.11-.29v0s.22.12.13.32.25.61.25.62Z"/></g><g class="cls-13"><path class="cls-14" d="M2.36,2A1,1,0,0,1,1.9,1.8a1.1,1.1,0,0,0-.32-.25H1.45v0h.13a1.06,1.06,0,0,1,.35.26.87.87,0,0,0,.43.16Z"/></g><g class="cls-13"><path class="cls-14" d="M1.07,1.31a.26.26,0,0,0-.18-.06C.75,1.25.68,1.1.63,1S.28.9.16.91v0S.6.83.66,1s.12.25.23.25a.29.29,0,0,1,.2.06Z"/></g><path class="cls-15" d="M.82,1c-.11.2-.31.3-.43.23S.26,1,.38.77.69.46.81.54.94.83.82,1Z"/><path class="cls-16" d="M2.15,2.21c-.09.13-.22.19-.3.14s-.08-.21,0-.34.22-.19.3-.14S2.24,2.08,2.15,2.21Z"/><path class="cls-15" d="M.49,1.57c0,.11,0,.21-.11.22s-.13-.08-.14-.2,0-.21.1-.22S.48,1.45.49,1.57Z"/><path class="cls-17" d="M2.08,2.2c0,.28-.34.52-.78.54S.49,2.55.47,2.27s.34-.52.79-.54S2.07,1.93,2.08,2.2Z"/><path class="cls-18" d="M1.26.12a.77.77,0,0,1,0,1.07.77.77,0,0,1-1,.25A.77.77,0,0,1,.22.37.77.77,0,0,1,1.26.12Z"/></g></g></g></svg>