<svg xmlns="http://www.w3.org/2000/svg" viewBox="0 0 10.77 14.24"><defs><style>.cls-1{isolation:isolate;}.cls-2{opacity:0.44;mix-blend-mode:color-dodge;}.cls-3{mix-blend-mode:soft-light;}.cls-4{fill:#fff;}</style></defs><g class="cls-1"><g id="Layer_2" data-name="Layer 2"><g id="witch"><g class="cls-2"><g class="cls-3"><g class="cls-3"><path class="cls-4" d="M6.62,7.34a.08.08,0,0,1,.15,0,.08.08,0,0,1-.08.07A.08.08,0,0,1,6.62,7.34Z"/><path class="cls-4" d="M7.09,6.44s0,0,0,0a0,0,0,0,1,.05,0,.05.05,0,0,1-.05,0A.06.06,0,0,1,7.09,6.44Z"/><path class="cls-4" d="M9.52,7.64a.06.06,0,0,1,.06,0s0,0,0,.06a0,0,0,0,1,0,0A0,0,0,0,1,9.52,7.64Z"/><path class="cls-4" d="M6.78,1.58a0,0,0,0,1,0-.05.06.06,0,0,1,0,.06s0,0-.06,0S6.77,1.61,6.78,1.58Z"/><path class="cls-4" d="M8.55,5.7a.05.05,0,0,1,0,0,.06.06,0,0,1,.05.06,0,0,0,0,1-.05,0A0,0,0,0,1,8.55,5.7Z"/><path class="cls-4" d="M4.05,7.73a.05.05,0,1,1,.1,0,.05.05,0,0,1-.1,0A0,0,0,0,1,4.05,7.73Z"/><path class="cls-4" d="M6.31,6.4a.06.06,0,0,1,.06-.05,0,0,0,0,1,0,.05,0,0,0,0,1,0,0A.05.05,0,0,1,6.31,6.4Z"/><path class="cls-4" d="M3.27,2.87a.07.07,0,0,1,.06,0s0,0,0,0a0,0,0,0,1-.05.05A.06.06,0,0,1,3.27,2.87Z"/><path class="cls-4" d="M9.48,7.48a0,0,0,0,1,.06,0,0,0,0,0,1,0,0,0,0,0,0,1-.05,0A.06.06,0,0,1,9.48,7.48Z"/><path class="cls-4" d="M6.8,5.25a0,0,0,0,1,0,0,0,0,0,0,1,.05,0,.06.06,0,0,1-.06,0S6.79,5.28,6.8,5.25Z"/><path class="cls-4" d="M10.67,6s0,0,.05,0a0,0,0,0,1,0,.05.06.06,0,0,1-.06,0S10.66,6,10.67,6Z"/><path class="cls-4" d="M5.5,3s0,0,0,0A0,0,0,0,1,5.6,3a.06.06,0,0,1-.06,0S5.49,3,5.5,3Z"/><path class="cls-4" d="M5.78.62a0,0,0,0,1,.1,0,0,0,0,0,1,0,.05A.05.05,0,0,1,5.78.62Z"/><path class="cls-4" d="M6.9,2.14a0,0,0,0,1,0-.05.05.05,0,0,1,0,.05.06.06,0,0,1-.06,0S6.89,2.17,6.9,2.14Z"/><path class="cls-4" d="M6.52,3.3a.06.06,0,0,1,.06,0s0,0,0,0a0,0,0,0,1,0,.05A.05.05,0,0,1,6.52,3.3Z"/><path class="cls-4" d="M2.77,6.67a.05.05,0,0,1,0,0,.06.06,0,0,1,.05.06,0,0,0,0,1-.05,0A0,0,0,0,1,2.77,6.67Z"/><path class="cls-4" d="M3.89,1.64a.05.05,0,0,1,0,0A.06.06,0,0,1,4,1.65a0,0,0,0,1-.05,0A0,0,0,0,1,3.89,1.64Z"/><path class="cls-4" d="M3.34.05a0,0,0,0,1,.05,0,.05.05,0,0,1,0,.05A.06.06,0,0,1,3.38.1S3.34.07,3.34.05Z"/><path class="cls-4" d="M6.27,8.59a.05.05,0,0,1,.05-.05.06.06,0,0,1,0,.06,0,0,0,0,1,0,0A0,0,0,0,1,6.27,8.59Z"/><path class="cls-4" d="M7.1,7.83a.14.14,0,0,1,.16-.14.15.15,0,1,1,0,.29A.14.14,0,0,1,7.1,7.83Z"/><path class="cls-4" d="M7.3,4.68a.15.15,0,0,1,.15-.14.15.15,0,0,1,.14.16.15.15,0,0,1-.16.14A.15.15,0,0,1,7.3,4.68Z"/><path class="cls-4" d="M3.5,8.9a.15.15,0,1,1,.14.15A.15.15,0,0,1,3.5,8.9Z"/></g><g class="cls-3"><path class="cls-4" d="M4.92,8.77A.08.08,0,0,1,5,8.7a.08.08,0,0,1,0,.15A.08.08,0,0,1,4.92,8.77Z"/><path class="cls-4" d="M5.39,7.88a.05.05,0,0,1,.05,0,0,0,0,0,1,0,.1A.05.05,0,0,1,5.39,7.88Z"/><path class="cls-4" d="M5.75,5.87a0,0,0,0,1,0,0,.06.06,0,0,1,0,.06,0,0,0,0,1-.06,0A0,0,0,0,1,5.75,5.87Z"/><path class="cls-4" d="M4.76.92a0,0,0,0,1,0-.05.05.05,0,0,1,.05.05A.06.06,0,0,1,4.8,1,0,0,0,0,1,4.76.92Z"/><path class="cls-4" d="M9.39,4.75a.06.06,0,0,1,.06,0s.05,0,0,0a0,0,0,0,1-.1,0Z"/><path class="cls-4" d="M8.63,5.09a0,0,0,1,1,.1,0,.06.06,0,0,1-.06,0S8.63,5.11,8.63,5.09Z"/><path class="cls-4" d="M9.34,6.38a.06.06,0,0,1,.06,0,0,0,0,0,1,0,0,0,0,0,0,1,0,0A.05.05,0,0,1,9.34,6.38Z"/><path class="cls-4" d="M5.38,6.67a.05.05,0,0,1,0,0,.06.06,0,0,1,.05.06s0,.05-.05,0A0,0,0,0,1,5.38,6.67Z"/><path class="cls-4" d="M5.83,3.6a0,0,0,0,1,.1,0,0,0,0,0,1,0,0A.05.05,0,0,1,5.83,3.6Z"/><path class="cls-4" d="M8.51,2.33a0,0,0,0,1,.05-.05.06.06,0,0,1,0,.06.07.07,0,0,1-.06,0A0,0,0,0,1,8.51,2.33Z"/><path class="cls-4" d="M5.4,9.26a.15.15,0,0,1,.16-.14.15.15,0,0,1,.14.16.15.15,0,0,1-.3,0Z"/><path class="cls-4" d="M3.43,11a.13.13,0,0,1,.15-.13.14.14,0,0,1,.14.15.14.14,0,0,1-.16.14A.14.14,0,0,1,3.43,11Z"/><path class="cls-4" d="M8.36,4.34a.15.15,0,0,1,.16-.14.15.15,0,0,1,0,.3A.15.15,0,0,1,8.36,4.34Z"/></g><g class="cls-3"><path class="cls-4" d="M7.76,8.21a.08.08,0,1,1,.07.08A.08.08,0,0,1,7.76,8.21Z"/><path class="cls-4" d="M8.23,7.32a0,0,0,1,1,.1,0,.06.06,0,0,1-.06,0S8.23,7.34,8.23,7.32Z"/><path class="cls-4" d="M8.24,8.7a.15.15,0,1,1,.14.15A.13.13,0,0,1,8.24,8.7Z"/></g></g><g class="cls-3"><g class="cls-3"><path class="cls-4" d="M3.85,10.37a.08.08,0,1,1,.07.08A.08.08,0,0,1,3.85,10.37Z"/><path class="cls-4" d="M4.32,9.48a0,0,0,0,1,0-.05.06.06,0,0,1,0,.06s0,0,0,0A0,0,0,0,1,4.32,9.48Z"/><path class="cls-4" d="M6.75,10.67a0,0,0,0,1,.06,0,0,0,0,0,1,0,0,0,0,0,0,1,0,.05A.06.06,0,0,1,6.75,10.67Z"/><path class="cls-4" d="M4,4.62a.06.06,0,0,1,.06,0s.05,0,0,0a0,0,0,0,1,0,0A.05.05,0,0,1,4,4.62Z"/><path class="cls-4" d="M5.78,8.73s0-.05,0,0a0,0,0,0,1,0,.05.05.05,0,0,1,0,0A.06.06,0,0,1,5.78,8.73Z"/><path class="cls-4" d="M1.28,10.76a0,0,0,0,1,.05,0,0,0,0,0,1,0,0,.05.05,0,0,1,0,.05A.06.06,0,0,1,1.28,10.76Z"/><path class="cls-4" d="M3.54,9.43a.06.06,0,0,1,.06,0s0,0,0,.06a0,0,0,0,1-.05,0A0,0,0,0,1,3.54,9.43Z"/><path class="cls-4" d="M.5,5.91a.06.06,0,0,1,.06,0,0,0,0,0,1,0,.06,0,0,0,0,1,0,0A0,0,0,0,1,.5,5.91Z"/><path class="cls-4" d="M6.71,10.52a.05.05,0,0,1,.1,0,0,0,0,1,1-.1,0Z"/><path class="cls-4" d="M4,8.29a0,0,0,0,1,0,0,.05.05,0,0,1,0,0,.06.06,0,0,1-.06.05S4,8.32,4,8.29Z"/><path class="cls-4" d="M7.9,9A0,0,0,0,1,8,9,.05.05,0,0,1,8,9a.06.06,0,0,1-.06.05S7.89,9,7.9,9Z"/><path class="cls-4" d="M2.72,6a.06.06,0,0,1,.06,0s.05,0,0,0a0,0,0,0,1,0,0A.05.05,0,0,1,2.72,6Z"/><path class="cls-4" d="M3,3.65s0,0,.05,0a0,0,0,0,1,0,.1A.06.06,0,0,1,3,3.65Z"/><path class="cls-4" d="M4.12,5.17s0,0,.06,0,.05,0,0,0a0,0,0,0,1,0,.05A.06.06,0,0,1,4.12,5.17Z"/><path class="cls-4" d="M3.75,6.33a.06.06,0,0,1,.06,0,.07.07,0,0,1,0,.06s0,0-.05,0A0,0,0,0,1,3.75,6.33Z"/><path class="cls-4" d="M0,9.71a.05.05,0,0,1,.05-.05,0,0,0,0,1,.05.05.05.05,0,0,1,0,0A.05.05,0,0,1,0,9.71Z"/><path class="cls-4" d="M1.12,4.67s0,0,0,0a0,0,0,0,1,0,.1A.06.06,0,0,1,1.12,4.67Z"/><path class="cls-4" d="M.57,3.08A0,0,0,0,1,.62,3a.06.06,0,0,1,.05.06s0,.05-.06,0A0,0,0,0,1,.57,3.08Z"/><path class="cls-4" d="M3.5,11.63a.05.05,0,0,1,0-.05.05.05,0,0,1,0,.1A.05.05,0,0,1,3.5,11.63Z"/><path class="cls-4" d="M4.33,10.86a.15.15,0,0,1,.16-.14.15.15,0,1,1,0,.3A.15.15,0,0,1,4.33,10.86Z"/><path class="cls-4" d="M4.52,7.72a.15.15,0,0,1,.16-.14.14.14,0,0,1,.14.15.14.14,0,0,1-.16.14A.15.15,0,0,1,4.52,7.72Z"/><path class="cls-4" d="M.73,11.93a.16.16,0,0,1,.16-.14.15.15,0,0,1,0,.3A.16.16,0,0,1,.73,11.93Z"/></g><g class="cls-3"><path class="cls-4" d="M2.15,11.8a.08.08,0,0,1,.08-.07.08.08,0,0,1,.07.08.08.08,0,0,1-.15,0Z"/><path class="cls-4" d="M2.62,10.91a.05.05,0,0,1,0-.05.06.06,0,0,1,.05.06s0,.05-.05,0A0,0,0,0,1,2.62,10.91Z"/><path class="cls-4" d="M3,8.91a.05.05,0,0,1,.1,0A.06.06,0,0,1,3,9S3,8.93,3,8.91Z"/><path class="cls-4" d="M2,4s0-.05.05,0a0,0,0,0,1,0,0A.06.06,0,0,1,2,4,.07.07,0,0,1,2,4Z"/><path class="cls-4" d="M6.62,7.78s0,0,.06,0a0,0,0,0,1,0,0,0,0,0,0,1,0,0A.06.06,0,0,1,6.62,7.78Z"/><path class="cls-4" d="M5.86,8.12a0,0,0,0,1,0,0,.06.06,0,0,1,0,.06s0,0-.06,0A0,0,0,0,1,5.86,8.12Z"/><path class="cls-4" d="M6.57,9.41a.06.06,0,0,1,.06-.05s0,0,0,.06a0,0,0,0,1,0,0A0,0,0,0,1,6.57,9.41Z"/><path class="cls-4" d="M2.61,9.71a.05.05,0,0,1,.1,0,0,0,0,0,1-.1,0Z"/><path class="cls-4" d="M3.06,6.63a.05.05,0,0,1,0,0,.06.06,0,0,1,.05.06s0,.05-.05,0A0,0,0,0,1,3.06,6.63Z"/><path class="cls-4" d="M5.74,5.36a0,0,0,0,1,0,0,0,0,0,0,1,0,0,.06.06,0,0,1-.06,0A0,0,0,0,1,5.74,5.36Z"/><path class="cls-4" d="M2.63,12.29a.15.15,0,0,1,.16-.14.15.15,0,1,1,0,.3A.15.15,0,0,1,2.63,12.29Z"/><path class="cls-4" d="M.65,14.08a.16.16,0,0,1,.16-.14A.15.15,0,0,1,1,14.1a.15.15,0,0,1-.16.14A.16.16,0,0,1,.65,14.08Z"/><path class="cls-4" d="M5.59,7.38a.14.14,0,0,1,.16-.14.14.14,0,0,1,.13.16.13.13,0,0,1-.15.13A.14.14,0,0,1,5.59,7.38Z"/></g><g class="cls-3"><path class="cls-4" d="M5,11.24a.08.08,0,0,1,.08-.07.08.08,0,1,1,0,.15A.08.08,0,0,1,5,11.24Z"/><path class="cls-4" d="M5.46,10.35a0,0,0,0,1,0,0,.06.06,0,0,1,0,.06s0,0-.06,0A0,0,0,0,1,5.46,10.35Z"/><path class="cls-4" d="M5.47,11.73a.15.15,0,1,1,.14.16A.15.15,0,0,1,5.47,11.73Z"/></g></g></g></g></g></g></svg>