<svg xmlns="http://www.w3.org/2000/svg" xmlns:xlink="http://www.w3.org/1999/xlink" viewBox="0 0 7.36 18.47"><defs><style>.cls-1{isolation:isolate;}.cls-2{fill:url(#Áåçûìÿííûé_ãðàäèåíò_80);}.cls-3{fill:#42151f;}.cls-4{fill:url(#Áåçûìÿííûé_ãðàäèåíò_80-2);}.cls-5{fill:url(#Áåçûìÿííûé_ãðàäèåíò_107);}.cls-6{fill:url(#Áåçûìÿííûé_ãðàäèåíò_80-3);}.cls-7{fill:url(#Áåçûìÿííûé_ãðàäèåíò_80-4);}.cls-8{fill:url(#Áåçûìÿííûé_ãðàäèåíò_80-5);}.cls-9{fill:#bd6f95;opacity:0.65;mix-blend-mode:multiply;}.cls-10,.cls-14{fill:#fff;mix-blend-mode:soft-light;}.cls-10{opacity:0.53;}.cls-11{fill:url(#Áåçûìÿííûé_ãðàäèåíò_107-2);}.cls-12{fill:url(#Áåçûìÿííûé_ãðàäèåíò_107-3);}.cls-13{fill:url(#Áåçûìÿííûé_ãðàäèåíò_107-4);}.cls-14{opacity:0.59;}</style><linearGradient id="Áåçûìÿííûé_ãðàäèåíò_80" x1="1.13" y1="18.18" x2="1.13" y2="17.74" gradientUnits="userSpaceOnUse"><stop offset="0" stop-color="#822717"/><stop offset="0.99" stop-color="#700c26"/></linearGradient><linearGradient id="Áåçûìÿííûé_ãðàäèåíò_80-2" x1="5.46" y1="18.18" x2="5.46" y2="17.74" xlink:href="#Áåçûìÿííûé_ãðàäèåíò_80"/><linearGradient id="Áåçûìÿííûé_ãðàäèåíò_107" x1="4.11" y1="18.03" x2="4.11" gradientUnits="userSpaceOnUse"><stop offset="0" stop-color="#e77231"/><stop offset="0.99" stop-color="#9c3536"/></linearGradient><linearGradient id="Áåçûìÿííûé_ãðàäèåíò_80-3" x1="6.55" y1="17.61" x2="6.55" y2="0.59" xlink:href="#Áåçûìÿííûé_ãðàäèåíò_80"/><linearGradient id="Áåçûìÿííûé_ãðàäèåíò_80-4" x1="6.43" y1="18.47" x2="6.43" y2="18.03" xlink:href="#Áåçûìÿííûé_ãðàäèåíò_80"/><linearGradient id="Áåçûìÿííûé_ãðàäèåíò_80-5" x1="1.74" y1="18.47" x2="1.74" y2="18.03" xlink:href="#Áåçûìÿííûé_ãðàäèåíò_80"/><linearGradient id="Áåçûìÿííûé_ãðàäèåíò_107-2" x1="1.23" y1="3.71" x2="7.01" y2="3.71" xlink:href="#Áåçûìÿííûé_ãðàäèåíò_107"/><linearGradient id="Áåçûìÿííûé_ãðàäèåíò_107-3" x1="1.35" y1="7.89" x2="6.92" y2="7.89" xlink:href="#Áåçûìÿííûé_ãðàäèåíò_107"/><linearGradient id="Áåçûìÿííûé_ãðàäèåíò_107-4" x1="1.51" y1="13.65" x2="6.8" y2="13.65" xlink:href="#Áåçûìÿííûé_ãðàäèåíò_107"/></defs><g class="cls-1"><g id="Layer_2" data-name="Layer 2"><g id="witch"><polygon class="cls-2" points="1.43 17.74 1.18 18.18 0.96 18.18 0.83 17.74 1.43 17.74"/><polygon class="cls-3" points="0.96 18.18 0.83 18.17 0.57 17.74 0.83 17.74 0.96 18.18"/><polygon class="cls-4" points="5.76 17.74 5.51 18.18 5.29 18.18 5.17 17.74 5.76 17.74"/><polygon class="cls-3" points="5.29 18.18 5.17 18.17 4.91 17.74 5.17 17.74 5.29 18.18"/><polygon class="cls-5" points="1.14 18.03 0.85 0 7.36 0.06 6.97 18.03 1.14 18.03"/><polygon class="cls-3" points="1.63 17.61 1.14 0.42 7.07 0.62 6.72 17.61 1.63 17.61"/><polygon class="cls-3" points="0.85 0 0 0.42 0.56 17.89 1.14 18.03 0.85 0"/><polygon class="cls-6" points="6.14 0.59 6.03 17.61 6.72 17.61 7.07 0.62 6.14 0.59"/><polygon class="cls-7" points="6.72 18.03 6.39 18.47 6.2 18.47 6.13 18.03 6.72 18.03"/><polygon class="cls-3" points="6.2 18.47 6.08 18.45 5.87 18.03 6.13 18.03 6.2 18.47"/><polygon class="cls-8" points="2.04 18.03 1.8 18.47 1.57 18.47 1.45 18.03 2.04 18.03"/><polygon class="cls-3" points="1.57 18.47 1.45 18.46 1.19 18.03 1.45 18.03 1.57 18.47"/><polygon class="cls-9" points="7.07 0.62 6.13 1.25 1.2 2.29 1.14 0.42 7.07 0.62"/><polygon class="cls-9" points="7 3.86 6.11 4.41 1.31 6.47 1.24 3.89 7 3.86"/><polygon class="cls-9" points="6.91 8.11 1.36 8.05 1.43 10.56 6.08 8.68 6.91 8.11"/><polygon class="cls-9" points="6.83 13.87 1.52 13.81 1.55 14.9 6.06 14.17 6.83 13.87"/><polygon class="cls-10" points="1.14 18.03 0.85 0 3.72 0.09 0.96 0.05 0.96 4.79 1.1 5.47 0.99 6.06 1.14 18.03"/><polygon class="cls-10" points="1.63 17.61 4.91 17.66 5.17 17.77 5.38 17.65 5.87 17.65 6.2 17.96 6.34 17.65 6.72 17.61 1.63 17.61"/><polygon class="cls-11" points="1.23 3.53 7.01 3.58 7 3.86 1.24 3.89 1.23 3.53"/><polygon class="cls-10" points="5.88 3.6 6.86 3.6 6.86 3.86 5.88 3.82 5.88 3.6"/><polygon class="cls-10" points="5.82 3.6 5.4 3.6 5.44 3.83 5.79 3.83 5.82 3.6"/><polygon class="cls-9" points="1.24 3.89 3.06 3.88 3.12 3.57 3.14 3.84 4.65 3.83 4.7 3.63 4.75 3.83 5.1 3.87 1.24 3.89"/><polygon class="cls-12" points="6.92 7.68 1.35 7.67 1.36 8.05 6.91 8.11 6.92 7.68"/><polygon class="cls-10" points="5.34 7.75 6.71 7.75 6.71 8.08 5.38 8.05 5.34 7.75"/><polygon class="cls-9" points="1.59 8.05 1.54 7.75 3.38 7.75 3.47 8 3.51 7.75 4.88 7.75 4.94 7.97 4.94 7.68 1.35 7.67 1.36 8.05 1.59 8.05"/><polygon class="cls-13" points="6.8 13.44 1.51 13.53 1.52 13.81 6.79 13.87 6.8 13.44"/><rect class="cls-10" x="5.47" y="13.51" width="1.2" height="0.28"/><path class="cls-14" d="M5.9,17c-.53,0-1.4-1-1.25-1.19a6.78,6.78,0,0,1-1.36-2h-.1s.11.51,0,.68-.58-.69-.58-.69H2.48s-.17.3-.39.29a.93.93,0,0,1-.46-.3H1.52s2.29,3.43,3.77,3.8H5.5s-.94-.62-.86-1,1.28,1,1.28,1h.79S6.37,17.37,5.9,17ZM2.48,14.53c.21,0,1.29,1.25,1.16,1.38S2.25,14.53,2.48,14.53Zm1.45.85c-.15,0-.63-.75-.49-.79S4.07,15.38,3.93,15.38Z"/><path class="cls-14" d="M4.43,8.25a.23.23,0,0,1-.16-.17s-.41.51-.6.43-.11-.43-.11-.43H3.47a1.59,1.59,0,0,1-.73,1.14,6.68,6.68,0,0,1-1.34.55V9.9s1.46-.7,1.28-.39-1,.49-1.22.54A5,5,0,0,0,4.89,8.11C4.81,8.14,4.53,8.28,4.43,8.25ZM2.8,9.3c0-.07.35-.35.42-.29S2.8,9.38,2.8,9.3Zm1.36-.85c.07,0-.15.25-.2.19S4.09,8.45,4.16,8.45Zm-.58.69c0-.07.66-.52.66-.44S3.58,9.21,3.58,9.14Z"/></g></g></g></svg>