<svg xmlns="http://www.w3.org/2000/svg" xmlns:xlink="http://www.w3.org/1999/xlink" viewBox="0 0 12.2 5.01"><defs><style>.cls-1{isolation:isolate;}.cls-2,.cls-5,.cls-9{fill:#bd6f95;}.cls-2{opacity:0.65;}.cls-2,.cls-3,.cls-5,.cls-9{mix-blend-mode:multiply;}.cls-3{fill:#843b4d;opacity:0.42;}.cls-4{fill:#42151f;}.cls-5{opacity:0.38;}.cls-6{fill:url(#Áåçûìÿííûé_ãðàäèåíò_107);}.cls-7,.cls-8{fill:#fff;mix-blend-mode:soft-light;}.cls-8{opacity:0.53;}.cls-9{opacity:0.23;}.cls-10{fill:url(#Áåçûìÿííûé_ãðàäèåíò_107-2);}</style><linearGradient id="Áåçûìÿííûé_ãðàäèåíò_107" y1="3.55" x2="11.52" y2="3.55" gradientUnits="userSpaceOnUse"><stop offset="0" stop-color="#e77231"/><stop offset="0.99" stop-color="#9c3536"/></linearGradient><linearGradient id="Áåçûìÿííûé_ãðàäèåíò_107-2" y1="0.34" x2="11.52" y2="0.34" xlink:href="#Áåçûìÿííûé_ãðàäèåíò_107"/></defs><g class="cls-1"><g id="Layer_2" data-name="Layer 2"><g id="witch"><polygon class="cls-2" points="0.31 3.89 0.93 5.01 11.99 5 12.2 4.37 11.53 3.21 11.53 3.62 0.31 3.89"/><polygon class="cls-3" points="3.03 3.41 3.03 3.4 3.03 3.39 3.03 3.41"/><polygon class="cls-4" points="0.3 3.89 0.98 4.74 1.38 4.74 1.24 3.86 0.3 3.89"/><polygon class="cls-4" points="11.21 3.89 10.53 4.74 10.13 4.74 10.27 3.86 11.21 3.89"/><polygon class="cls-4" points="10.13 4.74 10.06 4.51 10.13 3.89 10.27 3.89 10.13 4.74"/><polygon class="cls-4" points="1.38 4.74 1.49 4.55 1.49 3.89 1.24 3.89 1.38 4.74"/><polygon class="cls-5" points="0.56 4.21 1.31 4.3 1.24 3.86 0.3 3.89 0.56 4.21"/><polygon class="cls-5" points="10.21 4.21 10.73 4.49 11.21 3.89 10.27 3.89 10.13 3.89 10.11 4.05 10.21 4.21"/><polygon class="cls-6" points="0 3.39 0 3.89 11.52 3.89 11.52 3.22 0 3.39"/><polygon class="cls-7" points="0 3.89 0 3.39 11.52 3.22 11.52 3.29 0.05 3.45 0 3.89"/><polygon class="cls-8" points="0.21 3.45 0.21 3.81 2.24 3.81 2.27 3.4 0.21 3.45"/><polygon class="cls-8" points="2.38 3.4 2.38 3.81 2.75 3.81 2.8 3.4 2.38 3.4"/><polygon class="cls-9" points="10.78 3.3 10.78 3.77 0.49 3.88 11.42 3.86 11.42 3.29 10.78 3.3"/><polygon class="cls-2" points="0.3 0.67 0.92 1.8 11.98 1.78 12.19 1.16 11.52 0 11.52 0.41 0.3 0.67"/><polygon class="cls-4" points="0.3 0.67 0.98 1.52 1.38 1.52 1.24 0.65 0.3 0.67"/><polygon class="cls-4" points="11.21 0.67 10.53 1.52 10.13 1.52 10.27 0.65 11.21 0.67"/><polygon class="cls-4" points="10.13 1.52 10.06 1.3 10.13 0.67 10.27 0.67 10.13 1.52"/><polygon class="cls-4" points="1.38 1.52 1.49 1.34 1.49 0.67 1.24 0.67 1.38 1.52"/><polygon class="cls-5" points="0.56 0.99 1.31 1.08 1.24 0.65 0.3 0.67 0.56 0.99"/><polygon class="cls-5" points="10.21 1 10.73 1.27 11.21 0.67 10.27 0.67 10.13 0.67 10.11 0.83 10.21 1"/><rect class="cls-10" width="11.52" height="0.67"/><polygon class="cls-7" points="0 0.67 0 0 11.52 0 11.52 0.07 0.07 0.07 0 0.67"/><polygon class="cls-8" points="0.21 0.07 0.21 0.59 2.24 0.59 2.29 0.07 0.21 0.07"/><polygon class="cls-8" points="2.38 0.07 2.38 0.59 2.75 0.59 2.82 0.07 2.38 0.07"/><polygon class="cls-9" points="10.78 0.08 10.78 0.56 0.49 0.67 11.42 0.65 11.42 0.07 10.78 0.08"/><polygon class="cls-2" points="0 3.89 5.38 3.77 5.38 3.41 5.49 3.78 9.07 3.7 9.13 3.41 9.18 3.79 10.06 3.81 10.13 3.39 10.21 3.88 0 3.89"/><polygon class="cls-2" points="0 0.67 7.16 0.65 7.16 0.15 7.26 0.59 9.61 0.58 9.73 0.33 9.73 0.57 11.52 0.67 0 0.67"/></g></g></g></svg>