<svg xmlns="http://www.w3.org/2000/svg" xmlns:xlink="http://www.w3.org/1999/xlink" viewBox="0 0 34.9 98.12"><defs><style>.cls-1{isolation:isolate;}.cls-2{fill:url(#Áåçûìÿííûé_ãðàäèåíò_14);}.cls-3{fill:url(#Áåçûìÿííûé_ãðàäèåíò_11);}.cls-4{fill:#b73b74;opacity:0.4;mix-blend-mode:multiply;}.cls-5{fill:url(#Áåçûìÿííûé_ãðàäèåíò_11-2);}.cls-6{fill:url(#Áåçûìÿííûé_ãðàäèåíò_11-3);}</style><linearGradient id="Áåçûìÿííûé_ãðàäèåíò_14" x1="18.27" y1="74.36" x2="14.7" y2="9.77" gradientUnits="userSpaceOnUse"><stop offset="0.03" stop-color="#703e5f"/><stop offset="0.57" stop-color="#462244"/><stop offset="0.99" stop-color="#2a1032"/></linearGradient><linearGradient id="Áåçûìÿííûé_ãðàäèåíò_11" x1="42.06" y1="55.44" x2="25.09" y2="68.81" gradientUnits="userSpaceOnUse"><stop offset="0" stop-color="#ffebb3"/><stop offset="1" stop-color="#ffc18a"/></linearGradient><linearGradient id="Áåçûìÿííûé_ãðàäèåíò_11-2" x1="-481.7" y1="-3034.19" x2="-481.21" y2="-3029.22" gradientTransform="matrix(-0.9, -0.44, -0.44, 0.9, -1755.29, 2592.44)" xlink:href="#Áåçûìÿííûé_ãðàäèåíò_11"/><linearGradient id="Áåçûìÿííûé_ãðàäèåíò_11-3" x1="36.51" y1="54.68" x2="18.48" y2="62.06" xlink:href="#Áåçûìÿííûé_ãðàäèåíò_11"/></defs><g class="cls-1"><g id="Layer_2" data-name="Layer 2"><g id="game"><path class="cls-2" d="M18,61.81V62L16.86,62V60.52l.34-49.65.06-9.29S16.16,1,15.9,1.9c-.06.2-.16,3.6-.29,8.78-.33,14.06-.83,41.23-1,53.17,0,.25,0,.5,0,.74v.7c0,.17,0,.34,0,.51,0,.51,0,1,0,1.4,0,.61,0,1.12,0,1.51,0,.65,0,1,0,1l-.34-1v-.38c0-.3,0-.78,0-1.41v-.51c0-.2,0-.42,0-.64v-.54c0-.21,0-.43,0-.65h0c-.08-10.58-.22-38.87.44-54,.25-5.87.63-9.77,1.17-9.92L18,0V61.81Z"/><path class="cls-3" d="M34.9,53.63c0,2.19-4.88,2.92-4.88,2.92h0a2.14,2.14,0,0,0-.66.31l-.09.06,0,0-.1.07a9.49,9.49,0,0,0-1,.79L28,58c-.22.2-.44.43-.69.7l-.09.09-.39.45-.09.1-.22.26c-.06.06-.11.13-.16.19-.56.68-1.18,1.49-1.86,2.47l-.12.17-.13.18-.59.88-.12.18-.25.39c-.12.19-.25.38-.37.58h0l-.56.89-.84,1.41-.16.27-.3.52-.06.1c0,.09-.1.18-.16.27l-.26.47h0l-.09.15-.13.23-.07.13-.14.25,0,0-.3.54c-.2.38-.41.77-.63,1.16v0h0l0,0-.31.59-.34.65,0,.05c-.06.11-.12.23-.17.34-.18.33-.36.68-.54,1s-.23.47-.36.71v0c-.07.12-.13.25-.19.38s-.23.51-.34.77-.11.26-.16.39h0a2.44,2.44,0,0,1-.1.24l-.09.25a.36.36,0,0,1,0,.09l-.15.4v0c0,.09-.07.17-.1.26l-.11.32c0,.14-.1.28-.14.42-.14.42-.28.84-.41,1.27,0,.1-.06.21-.1.31a2.17,2.17,0,0,1-.07.24l-.09.31c-.21.72-.4,1.44-.58,2.14,0,.14-.07.28-.11.42h0c-.82,3.26-1.33,6.06-1.38,6.38v0h0s2.39,8.57-.7,8.93S9.3,92.44,9.3,92.44s-5.79,1.92-5.11-.26a6.21,6.21,0,0,1,.94-1.72,15.7,15.7,0,0,1,2.72-2.74s.1-.27.63-1.5l0,0,.55-1.27c.87-2,2.36-5.25,4.87-10.72l.3-.64h0c.08-.18.17-.36.25-.53h0l0-.07c.16-.34.32-.69.49-1s.17-.36.25-.53l.07-.14.23-.47c.28-.55.55-1.1.82-1.62S17,68,17.3,67.38l.48-.88.46-.86.9-1.59L19.76,63l.12-.21c.05-.08.09-.16.14-.23h0l.38-.64A80.69,80.69,0,0,1,24.94,55s0-.09,0-.24,0-.12,0-.2,0-.15,0-.24a1.09,1.09,0,0,0,0-.18c.05-.78.14-2,.31-3.08a1.11,1.11,0,0,1,0-.17A6.49,6.49,0,0,1,26,48.46a.64.64,0,0,1,.34-.25c.5-.1.95.3,1.36.84l.09.13c.55.77,1,1.76,1.36,1.93.64.31,4.89-.5,5.64,2A1.58,1.58,0,0,1,34.9,53.63Z"/><path class="cls-4" d="M34.9,53.63c0,2.19-4.88,2.92-4.88,2.92h0a2.14,2.14,0,0,0-.66.31l-.09.06,0,0-.1.07a9.49,9.49,0,0,0-1,.79L28,58c-.22.2-.44.43-.69.7l-.09.09-.39.45-.09.1-.22.26c-.06.06-.11.13-.16.19-.56.68-1.18,1.49-1.86,2.47l-.12.17-.13.18-.59.88-.12.18-.25.39c-.12.19-.25.38-.37.58h0l-.56.89-.84,1.41-.16.27-.3.52-.06.1c0,.09-.1.18-.16.27l-.26.47h0l-.09.15-.13.23-.07.13-.14.25,0,0-.3.54c-.2.38-.41.77-.63,1.16v0l0,0-.31.59-.34.65,0,.05-.17.34c-.18.33-.36.68-.54,1s-.23.47-.36.71v0c-.07.12-.13.25-.19.38s-.23.51-.34.77-.11.26-.16.39h0a2.44,2.44,0,0,1-.1.24l-.09.25a.36.36,0,0,1,0,.09l-.15.4v0c0,.09-.07.17-.1.26l-.11.32c0,.14-.1.28-.14.42-.14.42-.28.84-.41,1.27,0,.1-.06.21-.1.31a2.17,2.17,0,0,1-.07.24l-.09.31c-.21.72-.4,1.44-.58,2.14,0,.14-.07.28-.11.42h0a63.78,63.78,0,0,0-1.38,6.38v0h0s2.39,8.57-.7,8.93S9.3,92.44,9.3,92.44s-5.79,1.92-5.11-.26a6.21,6.21,0,0,1,.94-1.72,2.08,2.08,0,0,0,0,1.3c.75,1.48,3.22-.31,4.75-1.62s3.15-8,6.22-14.87l.18-.39.33-.71.21-.44c.23-.48.46-1,.7-1.41s.43-.85.66-1.26q.6-1.14,1.23-2.22l.46-.78c.16-.28.33-.55.5-.83.42-.7.84-1.38,1.26-2,.2-.31.39-.62.59-.92l0,0,0,0c.13-.2.26-.39.38-.59,2.83-4.31,5.09-7.27,4.71-7.7A5.84,5.84,0,0,0,25,54.76h0c0-.06,0-.12,0-.2s0-.15,0-.24a1.09,1.09,0,0,0,0-.18c.05-.78.14-2,.31-3.08a3,3,0,0,0,.39,1.59c.86,1.21,2.9-.46,2.9-.46s-.16,1.37,1.85,2.17A4.53,4.53,0,0,0,34.9,53.63Z"/><path class="cls-5" d="M11.55,91.39c-1.41-1.5-2.1,5.13-.13,5.54S12.17,92.05,11.55,91.39Z"/><path class="cls-6" d="M29.18,48.44a2,2,0,0,1-.26.3l-.08.08-.09.07a1.1,1.1,0,0,1-.26.14h0a2.23,2.23,0,0,1-.66.14,2.11,2.11,0,0,0-1.71.65c-.11.12-.26.32-.46.58s-.22.3-.35.48c-.32.46-.72,1-1.16,1.71h0A96.08,96.08,0,0,0,19.24,61l-.36.7h0l-.17.34-.14.29c-.2.39-.38.78-.57,1.18s-.44,1-.66,1.44l-.39.92c-.12.28-.23.56-.34.84h0l-.06.14-.1.27c-.2.52-.39,1-.57,1.52s-.41,1.18-.6,1.76c-.06.17-.11.34-.17.51l-.06.18c-.06.21-.13.42-.19.63q-.19.6-.36,1.2h0l0,.08h0c-.08.27-.16.54-.23.81-1,3.62-1.65,6.67-2.38,9h0c-.17.55-.35,1.07-.54,1.53a3,3,0,0,1-.81,1.17,2.68,2.68,0,0,1-1,.53,3.82,3.82,0,0,1-1,.11l-.34,0c-1.73-.15-3.48-1.24-3.6-1.69h0a4.3,4.3,0,0,0-.48-1.85s0,0,0,0a.18.18,0,0,0-.07,0,1.19,1.19,0,0,0-.65,0h0l-.32,0-.07,0-.14,0H2.72l-.29.05h0l-.23,0-.23,0-.15,0a2.91,2.91,0,0,1-1-.07,1.1,1.1,0,0,1-.51-.33,1,1,0,0,1-.11-.15h0c0-.06,0-.12-.08-.19s0-.1,0-.16l0-.18c0-.05,0-.09,0-.14v-.26s0-.1,0-.15A.66.66,0,0,0,0,81H0s0-.08,0-.12,0-.07,0-.11,0-.08,0-.11,0-.08,0-.12S.16,80.18.2,80l.06-.21c0-.1,0-.19.08-.29s.12-.35.19-.52h0c.07-.18.15-.37.23-.55h0c0-.05.05-.11.08-.17A16.78,16.78,0,0,1,3,74.72a9,9,0,0,1,1-1,66.92,66.92,0,0,0,6.47-6.61h0l.62-.76.41-.52.21-.26h0l.09-.12c.15-.19.29-.38.43-.58s.32-.42.47-.64l.6-.87.08-.12h0l.08-.12,0,0,.3-.45.12-.19h0l.36-.58c.27-.43.53-.87.79-1.32l.13-.23L15.3,60l.33-.59c.13-.25.27-.5.4-.76l.16-.31c.38-.76.76-1.55,1.13-2.37.25-.54.49-1.1.73-1.68a60.78,60.78,0,0,0,2.47-7,41.44,41.44,0,0,0,.93-4.14,4.85,4.85,0,0,1,.46-1.82c.48-.52,3.94-3.49,6.08-2.75a.85.85,0,0,1,.22.09l.14.07.13.09a2,2,0,0,1,.53.57C30.8,42.08,30.11,47.12,29.18,48.44Z"/><path class="cls-4" d="M29.18,48.44a2,2,0,0,1-.26.3,1.22,1.22,0,0,1-.17.15,1.1,1.1,0,0,1-.26.14h0a2.34,2.34,0,0,1-.75,0,4.94,4.94,0,0,1-1.7-.59A6.87,6.87,0,0,1,22.37,43c1.33,1.5,5.68,3.9,6.33,2.82s1.06-6.34-.71-7.3a.85.85,0,0,1,.22.09l.14.07.13.09a2,2,0,0,1,.53.57C30.8,42.08,30.11,47.12,29.18,48.44Z"/><path class="cls-4" d="M11.25,85.39a3.05,3.05,0,0,1-2.77.83l-.32,0c-1.78-.31-3.54-1.37-3.61-1.7h0a4.3,4.3,0,0,0-.48-1.85s0,0,0,0c-.37-.38-2.2.4-3.27.07a1.1,1.1,0,0,1-.51-.33,1,1,0,0,1-.11-.15h0c0-.06,0-.12-.08-.19A2,2,0,0,1,0,81.51,5.24,5.24,0,0,1,0,81H0s0-.08,0-.12,0-.07,0-.11,0-.08,0-.11,0-.08,0-.12S.16,80.18.2,80l.06-.21c0-.1,0-.19.08-.29A3.33,3.33,0,0,0,1.5,81.06c1.78,1.25,6.18-3.4,6.18-3.4l-.24,4.58a7.27,7.27,0,0,0,1.61,2.68,2.19,2.19,0,0,0,1.46.63A2.1,2.1,0,0,0,11.25,85.39Z"/><path class="cls-4" d="M14.22,73.56l-2.36,9.29s2.57-4.5,2.56-5.52S14.22,73.56,14.22,73.56Z"/></g></g></g></svg>