<svg xmlns="http://www.w3.org/2000/svg" xmlns:xlink="http://www.w3.org/1999/xlink" viewBox="0 0 35.39 63.77"><defs><style>.cls-1{isolation:isolate;}.cls-2{fill:url(#Áåçûìÿííûé_ãðàäèåíò_423);}.cls-3{fill:#ff9a45;}.cls-4,.cls-5{fill:#68134c;}.cls-4{opacity:0.4;}.cls-4,.cls-5,.cls-7{mix-blend-mode:multiply;}.cls-5{opacity:0.24;}.cls-6{fill:url(#Áåçûìÿííûé_ãðàäèåíò_134);}.cls-7{fill:#479898;opacity:0.6;}.cls-8{fill:url(#Áåçûìÿííûé_ãðàäèåíò_261);}.cls-9{fill:#fff;}.cls-10{fill:url(#Áåçûìÿííûé_ãðàäèåíò_134-2);}</style><linearGradient id="Áåçûìÿííûé_ãðàäèåíò_423" x1="15.97" y1="10.7" x2="21.05" y2="4.13" gradientUnits="userSpaceOnUse"><stop offset="0" stop-color="#8c3832"/><stop offset="1" stop-color="#ac4a31"/></linearGradient><radialGradient id="Áåçûìÿííûé_ãðàäèåíò_134" cx="26.03" cy="38.66" r="21.29" gradientUnits="userSpaceOnUse"><stop offset="0" stop-color="#66d8a6"/><stop offset="0.99" stop-color="#479898"/></radialGradient><radialGradient id="Áåçûìÿííûé_ãðàäèåíò_261" cx="22.5" cy="44.96" r="42.62" gradientUnits="userSpaceOnUse"><stop offset="0" stop-color="#f687c2"/><stop offset="0.37" stop-color="#612492"/><stop offset="0.98" stop-color="#a85ace"/></radialGradient><radialGradient id="Áåçûìÿííûé_ãðàäèåíò_134-2" cx="21.42" cy="9.32" r="14.33" xlink:href="#Áåçûìÿííûé_ãðàäèåíò_134"/></defs><g class="cls-1"><g id="Layer_2" data-name="Layer 2"><g id="game"><path class="cls-2" d="M24,1.94l-.1.91-.76,6.73L23,11.08l-.07.63-.12,1-.19,1.69-.06.6-.07.63-.34,0-5.4-.35-1.77-.12-1.06-.06h0l-.52,0v0c0-.18-.2-1-.42-2.05l-.17-.85c0-.17-.07-.34-.1-.53-.19-1-.39-2.07-.58-3.14a39.31,39.31,0,0,1-.63-4.72V3.5c0-.21,0-.35.1-.38.65-.38,6.82-4,10-2.94a8.15,8.15,0,0,1,2,.82,2.68,2.68,0,0,1,.45.9A.16.16,0,0,1,24,1.94Z"/><path class="cls-3" d="M24,1.9a8,8,0,0,1-1.45.6l-.43.12-.44.13c-.5.14-1,.25-1.51.35a29.57,29.57,0,0,1-5.31.53H13.58c-.77,0-1.49-.06-2.17-.12,0-.21,0-.35.1-.38.65-.38,6.82-4,10-2.94a8.15,8.15,0,0,1,2,.82C24.16,1.42,23.92,1.7,24,1.9Z"/><path class="cls-3" d="M22.12,3a1.7,1.7,0,0,1-.55,1.35.66.66,0,0,1-.44.16c-.55,0-1-.67-1-1.51a2.09,2.09,0,0,1,.19-.9,1,1,0,0,1,.81-.61C21.68,1.46,22.12,2.13,22.12,3Z"/><path class="cls-4" d="M21.77,3.43a2,2,0,0,1-.2.89.66.66,0,0,1-.44.16c-.55,0-1-.67-1-1.51a2.09,2.09,0,0,1,.19-.9.77.77,0,0,1,.45-.16C21.32,1.91,21.77,2.59,21.77,3.43Z"/><ellipse class="cls-3" cx="14.21" cy="3.63" rx="0.62" ry="0.75"/><path class="cls-5" d="M18.82,10c0,2.08-1.33,5.72-3.06,5.72S12,8.28,12,6.2s3.81-.93,5.54-.93S18.82,7.88,18.82,10Z"/><path class="cls-5" d="M23.12,9.58,23,11.08l-.07.63-.12,1L19.17,13l-1,.06-4.26.25h-.07l-.26,0s-.39-.15-.69-.3l-.17-.85c0-.17-.07-.34-.1-.53-.19-1-.39-2.07-.58-3.14l.36.19A15.07,15.07,0,0,0,18.56,10h.25A16,16,0,0,0,23.12,9.58Z"/><path class="cls-6" d="M35.38,54.35c.23,4.86-3.4,7.24-7.5,8.38a35,35,0,0,1-10.19,1h-.33c-2.85.1-11.23,0-15.21-3.79A6.55,6.55,0,0,1,.89,58.34,7.29,7.29,0,0,1,0,54.1,20.46,20.46,0,0,1,2.2,46.55c.18-.38.38-.75.58-1.12s.4-.7.61-1,.48-.78.74-1.16A64.33,64.33,0,0,1,12,34.14a4,4,0,0,0,.29-.32c.18-.21.33-.38.44-.53a1.54,1.54,0,0,0,.2-.37A5.79,5.79,0,0,0,13,31.66c0-2.7-.44-8.77-.76-12.77-.06-.87-.12-1.63-.17-2.25,0-.27,0-.51-.07-.71-.05-.56-.07-.88-.07-.88H23.5l-.13,1.59c-.06.64-.13,1.44-.2,2.35-.39,4.94-1,12.89-.67,13.93A15.27,15.27,0,0,0,25,35.77c3.58,3.67,9.75,10.32,10.34,18.33C35.37,54.18,35.38,54.27,35.38,54.35Z"/><path class="cls-7" d="M17.89,60.64c-2.61.13-14.49.24-13.92-8C4.23,48.88,6,45.26,8,42.19c3.07-4.6,6.77-8,7-8.77.33-1.28-1.27-20-1.27-20l8.54.4s-1.73,18.44-1.39,19.72c.2.77,3.84,4.11,6.87,8.66,2,3.06,3.8,6.67,4.06,10.41C32.39,60.88,20.51,60.77,17.89,60.64Z"/><path class="cls-8" d="M17.89,60.64c-2.61.13-14.49.24-13.92-8C4.23,48.88,6,45.26,8,42.19H27.76c2,3.06,3.8,6.67,4.06,10.41C32.39,60.88,20.51,60.77,17.89,60.64Z"/><path class="cls-9" d="M33,53.12l-4.72.74c-.46-7.17-5.69-15.07-8.95-18.9l3.31-.43C26.26,38.21,32.43,44.85,33,52.86,33,53,33,53,33,53.12Z"/><path class="cls-7" d="M23.5,15.05l-.13,1.59c-.06.64-.13,1.44-.2,2.35l-1.35-.14c-1.29-.12-2.63-.21-3.93-.23s-2.53,0-3.72.1c-.68,0-1.34.1-2,.17-.06-.87-.12-1.63-.17-2.25,0-.27,0-.51-.07-.71-.05-.56-.07-.88-.07-.88Z"/><polygon class="cls-10" points="25.1 10.97 24.4 16.64 10.99 16.64 10.67 11.72 12.62 11.62 13.21 11.59 18.67 11.3 22.95 11.08 25.1 10.97"/><polygon class="cls-9" points="19.07 12.21 19.37 14.45 23.74 14.45 24.41 11.51 19.07 12.21"/><path class="cls-7" d="M34.12,56.11c0,.14,0,4.39-6.24,6.62a35,35,0,0,1-10.19,1h-.33c-2.58,0-9.29-.54-13.16-3.89a8.63,8.63,0,0,1-1.46-1.62,8,8,0,0,1-1.36-5.35A19.61,19.61,0,0,1,2.3,48.2a14.56,14.56,0,0,1,.57-1.56c.18-.47.38-.94.6-1.39s.47-1,.73-1.4c2.53-4.59,6.09-7.91,7.75-9.71a4,4,0,0,0,.29-.32,5.3,5.3,0,0,0,.44-.53,1.54,1.54,0,0,0,.2-.37A5.79,5.79,0,0,0,13,31.66l2.08.12,4.33.24-2.78.9a30.57,30.57,0,0,0-6.86,9.27A16,16,0,0,0,8.54,53.41c1.43,5,15.78,3.91,22.34,3.14C32.85,56.31,34.12,56.11,34.12,56.11Z"/><polygon class="cls-7" points="11.07 12.15 11.61 15.93 13.81 15.93 13.96 12.15 11.07 12.15"/></g></g></g></svg>