<svg xmlns="http://www.w3.org/2000/svg" xmlns:xlink="http://www.w3.org/1999/xlink" viewBox="0 0 28.44 65.7"><defs><style>.cls-1{isolation:isolate;}.cls-2{fill:#bf5425;}.cls-11,.cls-12,.cls-13,.cls-14,.cls-16,.cls-19,.cls-20,.cls-21,.cls-22,.cls-23,.cls-24,.cls-3,.cls-4,.cls-5,.cls-6,.cls-7{opacity:0.5;mix-blend-mode:multiply;}.cls-3{fill:url(#Áåçûìÿííûé_ãðàäèåíò_302);}.cls-4{fill:url(#Áåçûìÿííûé_ãðàäèåíò_302-2);}.cls-5{fill:url(#Áåçûìÿííûé_ãðàäèåíò_302-3);}.cls-6{fill:url(#Áåçûìÿííûé_ãðàäèåíò_302-4);}.cls-7{fill:url(#Áåçûìÿííûé_ãðàäèåíò_302-5);}.cls-8{fill:url(#Áåçûìÿííûé_ãðàäèåíò_338);}.cls-9{fill:url(#Áåçûìÿííûé_ãðàäèåíò_338-2);}.cls-10{fill:url(#Áåçûìÿííûé_ãðàäèåíò_338-3);}.cls-11{fill:url(#Áåçûìÿííûé_ãðàäèåíò_302-6);}.cls-12{fill:url(#Áåçûìÿííûé_ãðàäèåíò_302-7);}.cls-13{fill:url(#Áåçûìÿííûé_ãðàäèåíò_302-8);}.cls-14{fill:url(#Áåçûìÿííûé_ãðàäèåíò_302-9);}.cls-15{fill:#fa9d25;}.cls-16{fill:url(#Áåçûìÿííûé_ãðàäèåíò_302-10);}.cls-17{fill:url(#Áåçûìÿííûé_ãðàäèåíò_338-4);}.cls-18{fill:url(#Áåçûìÿííûé_ãðàäèåíò_338-5);}.cls-19{fill:url(#Áåçûìÿííûé_ãðàäèåíò_302-11);}.cls-20{fill:url(#Áåçûìÿííûé_ãðàäèåíò_302-12);}.cls-21{fill:url(#Áåçûìÿííûé_ãðàäèåíò_302-13);}.cls-22{fill:url(#Áåçûìÿííûé_ãðàäèåíò_302-14);}.cls-23{fill:url(#Áåçûìÿííûé_ãðàäèåíò_302-15);}.cls-24{fill:url(#Áåçûìÿííûé_ãðàäèåíò_302-16);}.cls-25{fill:url(#Áåçûìÿííûé_ãðàäèåíò_14);}.cls-26{fill:url(#Áåçûìÿííûé_ãðàäèåíò_14-2);}.cls-27{fill:url(#Áåçûìÿííûé_ãðàäèåíò_14-3);}.cls-28{fill:url(#Áåçûìÿííûé_ãðàäèåíò_14-4);}</style><linearGradient id="Áåçûìÿííûé_ãðàäèåíò_302" x1="-2979.72" y1="-315.28" x2="-2990.87" y2="-318.7" gradientTransform="matrix(-0.97, -0.24, -0.24, 0.97, -2967.52, -388.07)" gradientUnits="userSpaceOnUse"><stop offset="0" stop-color="#b77082"/><stop offset="1" stop-color="#d8918f"/></linearGradient><linearGradient id="Áåçûìÿííûé_ãðàäèåíò_302-2" x1="-2979.48" y1="-316.04" x2="-2990.63" y2="-319.47" xlink:href="#Áåçûìÿííûé_ãðàäèåíò_302"/><linearGradient id="Áåçûìÿííûé_ãðàäèåíò_302-3" x1="-2979.42" y1="-316.25" x2="-2990.57" y2="-319.67" xlink:href="#Áåçûìÿííûé_ãðàäèåíò_302"/><linearGradient id="Áåçûìÿííûé_ãðàäèåíò_302-4" x1="-2979.8" y1="-315" x2="-2990.95" y2="-318.43" xlink:href="#Áåçûìÿííûé_ãðàäèåíò_302"/><linearGradient id="Áåçûìÿííûé_ãðàäèåíò_302-5" x1="7.86" y1="22.74" x2="-4.25" y2="19.02" gradientTransform="matrix(1, 0, 0, 1, 0, 0)" xlink:href="#Áåçûìÿííûé_ãðàäèåíò_302"/><linearGradient id="Áåçûìÿííûé_ãðàäèåíò_338" x1="0.68" y1="9.06" x2="9.07" y2="19.86" gradientUnits="userSpaceOnUse"><stop offset="0" stop-color="#d76529"/><stop offset="1" stop-color="#e88117"/></linearGradient><linearGradient id="Áåçûìÿííûé_ãðàäèåíò_338-2" x1="10.98" y1="61.12" x2="12.85" y2="57.64" xlink:href="#Áåçûìÿííûé_ãðàäèåíò_338"/><linearGradient id="Áåçûìÿííûé_ãðàäèåíò_338-3" x1="1.06" y1="66.37" x2="6.79" y2="55.72" xlink:href="#Áåçûìÿííûé_ãðàäèåíò_338"/><linearGradient id="Áåçûìÿííûé_ãðàäèåíò_302-6" x1="-2855.35" y1="485.72" x2="-2864.48" y2="482.91" gradientTransform="matrix(-0.76, 0.28, 0.37, 0.93, -2350.56, 407.94)" xlink:href="#Áåçûìÿííûé_ãðàäèåíò_302"/><linearGradient id="Áåçûìÿííûé_ãðàäèåíò_302-7" x1="-2855.15" y1="485.09" x2="-2864.29" y2="482.28" gradientTransform="matrix(-0.76, 0.28, 0.37, 0.93, -2350.56, 407.94)" xlink:href="#Áåçûìÿííûé_ãðàäèåíò_302"/><linearGradient id="Áåçûìÿííûé_ãðàäèåíò_302-8" x1="-2855.1" y1="484.92" x2="-2864.24" y2="482.12" gradientTransform="matrix(-0.76, 0.28, 0.37, 0.93, -2350.56, 407.94)" xlink:href="#Áåçûìÿííûé_ãðàäèåíò_302"/><linearGradient id="Áåçûìÿííûé_ãðàäèåíò_302-9" x1="-2855.42" y1="485.94" x2="-2864.55" y2="483.14" gradientTransform="matrix(-0.76, 0.28, 0.37, 0.93, -2350.56, 407.94)" xlink:href="#Áåçûìÿííûé_ãðàäèåíò_302"/><linearGradient id="Áåçûìÿííûé_ãðàäèåíò_302-10" x1="18.77" y1="51.53" x2="15.6" y2="58.48" gradientTransform="matrix(1, 0, 0, 1, 0, 0)" xlink:href="#Áåçûìÿííûé_ãðàäèåíò_302"/><linearGradient id="Áåçûìÿííûé_ãðàäèåíò_338-4" x1="16.94" y1="44.84" x2="22.49" y2="34.52" xlink:href="#Áåçûìÿííûé_ãðàäèåíò_338"/><linearGradient id="Áåçûìÿííûé_ãðàäèåíò_338-5" x1="12.19" y1="43.52" x2="18.16" y2="32.41" xlink:href="#Áåçûìÿííûé_ãðàäèåíò_338"/><linearGradient id="Áåçûìÿííûé_ãðàäèåíò_302-11" x1="-480.29" y1="480.3" x2="-491.44" y2="476.88" gradientTransform="matrix(0.97, -0.24, 0.24, 0.97, 377.82, -550.5)" xlink:href="#Áåçûìÿííûé_ãðàäèåíò_302"/><linearGradient id="Áåçûìÿííûé_ãðàäèåíò_302-12" x1="-480.05" y1="479.54" x2="-491.2" y2="476.11" gradientTransform="matrix(0.97, -0.24, 0.24, 0.97, 377.82, -550.5)" xlink:href="#Áåçûìÿííûé_ãðàäèåíò_302"/><linearGradient id="Áåçûìÿííûé_ãðàäèåíò_302-13" x1="-479.99" y1="479.33" x2="-491.14" y2="475.91" gradientTransform="matrix(0.97, -0.24, 0.24, 0.97, 377.82, -550.5)" xlink:href="#Áåçûìÿííûé_ãðàäèåíò_302"/><linearGradient id="Áåçûìÿííûé_ãðàäèåíò_302-14" x1="-480.37" y1="480.58" x2="-491.52" y2="477.15" gradientTransform="matrix(0.97, -0.24, 0.24, 0.97, 377.82, -550.5)" xlink:href="#Áåçûìÿííûé_ãðàäèåíò_302"/><linearGradient id="Áåçûìÿííûé_ãðàäèåíò_302-15" x1="26.93" y1="32.95" x2="17.31" y2="30" gradientTransform="matrix(1, 0, 0, 1, 0, 0)" xlink:href="#Áåçûìÿííûé_ãðàäèåíò_302"/><linearGradient id="Áåçûìÿííûé_ãðàäèåíò_302-16" x1="22.96" y1="31.68" x2="18.12" y2="42.27" gradientTransform="matrix(1, 0, 0, 1, 0, 0)" xlink:href="#Áåçûìÿííûé_ãðàäèåíò_302"/><linearGradient id="Áåçûìÿííûé_ãðàäèåíò_14" x1="13.23" y1="55.28" x2="0.46" y2="-4.6" gradientUnits="userSpaceOnUse"><stop offset="0.03" stop-color="#703e5f"/><stop offset="0.57" stop-color="#462244"/><stop offset="0.99" stop-color="#2a1032"/></linearGradient><linearGradient id="Áåçûìÿííûé_ãðàäèåíò_14-2" x1="21.67" y1="53.48" x2="8.91" y2="-6.4" xlink:href="#Áåçûìÿííûé_ãðàäèåíò_14"/><linearGradient id="Áåçûìÿííûé_ãðàäèåíò_14-3" x1="17.86" y1="54.29" x2="5.09" y2="-5.58" xlink:href="#Áåçûìÿííûé_ãðàäèåíò_14"/><linearGradient id="Áåçûìÿííûé_ãðàäèåíò_14-4" x1="14.39" y1="55.03" x2="1.63" y2="-4.82" xlink:href="#Áåçûìÿííûé_ãðàäèåíò_14"/></defs><g class="cls-1"><g id="Layer_2" data-name="Layer 2"><g id="game"><path class="cls-2" d="M16.63,37c-.25,3.63-1.88,6.44-4.08,6.14l-.19,0-.23,0-.4-.07c-.16,0-.32-.06-.47-.09-4.72-1-2.37-3.37-.94-6.37a7.62,7.62,0,0,0,.82-2.66,14.65,14.65,0,0,0-.42-4.38,2,2,0,0,0-.05-.24s0,0,0-.08h0v0a36.07,36.07,0,0,0-1.11-3.6,0,0,0,0,0,0,0c-.63-1.7-1.19-2.87-1.19-2.87l.58,0,.27,0,1.58.12H11a5.11,5.11,0,0,1,.71.75l.07.08a15,15,0,0,1,1,1.38,0,0,0,0,0,0,0c.16.24.33.5.5.8l.45.78.23.43.15.29h0c.44.84.91,1.82,1.4,3,0,0,0,0,0,.05A13.38,13.38,0,0,1,16.36,33h0a8.75,8.75,0,0,1,.17,1A14.24,14.24,0,0,1,16.63,37Z"/><path class="cls-2" d="M17.89,19.16A17.26,17.26,0,0,0,14.13,22a7.25,7.25,0,0,0-.89,1.15s0,0,0,0A3,3,0,0,0,12.79,25a0,0,0,0,0,0,0,2,2,0,0,0,.3.83s-2.62,2.59-3.5-.19a1.34,1.34,0,0,0-.07-.18,0,0,0,0,0,0,0,7.11,7.11,0,0,0-3.15-2.59A38.05,38.05,0,0,0,1,20.68L0,20.38S1.92,19,2.6,19.17a.26.26,0,0,0,.15,0,.3.3,0,0,0,.08-.08c.5-.59,1.09-3.3,7.41-2.88a22.13,22.13,0,0,1,2.86.35c.34.06.66.13,1,.2a7.12,7.12,0,0,1,3.27,1.55l0,.05a1.7,1.7,0,0,1,.51.78s0,0,0,0A0,0,0,0,1,17.89,19.16Z"/><path class="cls-3" d="M15.51,17.63a15.17,15.17,0,0,0-3,4,16.51,16.51,0,0,0-.91,2.56s.69-6.38,2.67-7C15.53,16.76,15.51,17.63,15.51,17.63Z"/><polygon class="cls-4" points="10.82 23.28 11.14 16.59 9.94 16.65 10.82 23.28"/><polygon class="cls-5" points="10.19 22.64 8.43 16.98 7.25 17.39 10.19 22.64"/><path class="cls-6" d="M9.81,23.81s-2.67-5.42-5.35-5.15-2,1.13,0,1.48A8.49,8.49,0,0,1,9.81,23.81Z"/><path class="cls-7" d="M7.62,23.16l-1.25-.27A38.05,38.05,0,0,0,1,20.68l.18-.08C3.3,19.85,7.28,22.89,7.62,23.16Z"/><path class="cls-8" d="M17.87,19.12a7.84,7.84,0,0,0-2.36-1.49q-.55-.25-1.2-.48h0l-.25-.08c-.3-.09-.61-.18-.94-.25a9.58,9.58,0,0,0-2-.22h-.06a8.58,8.58,0,0,0-1,.05h0l-.11,0A7.54,7.54,0,0,0,8.43,17c-.31.1-.6.19-.86.3a1.75,1.75,0,0,0-.32.12A7.25,7.25,0,0,0,5,18.68a2.49,2.49,0,0,0-.85,1.4c0,.1,0,.15-.09.13A4.7,4.7,0,0,0,0,20.38S1.92,19,2.6,19.17a.1.1,0,0,0,.09,0c.5-.24-.27-4.4,6.64-3.94.6,0,1.17.1,1.69.18h0l.65.11c.51.1,1,.21,1.4.33s.66.2.95.31a7.85,7.85,0,0,1,3.28,2.14l0,.05A3.24,3.24,0,0,1,17.87,19.12Z"/><path class="cls-9" d="M15.64,65.11c-3.23,1.65-2.88-.48-3.28-2.65a5,5,0,0,0-.54-1.64,10.56,10.56,0,0,0-2.29-2.66A23.48,23.48,0,0,0,6.69,56l.13-.08.3-.18.64-.4.07,0L8,55.2a2.2,2.2,0,0,1,.4.09l.12,0a7.84,7.84,0,0,1,.89.35h0l.06,0a16.1,16.1,0,0,1,1.54.81l0,0,.06,0h0l.38.22h0c.35.22.74.47,1.15.75l0,0A8.4,8.4,0,0,1,14,58.75a3.49,3.49,0,0,1,.32.35C16.32,61.4,17.05,64.39,15.64,65.11Z"/><path class="cls-10" d="M11.09,56.58S10.87,59,9.53,58.16a2.17,2.17,0,0,1-.39-.29,4.27,4.27,0,0,0-3-.6A20.83,20.83,0,0,0,2.31,58c-.39.1-.63.18-.63.18v0c.05-.24.43-1.7.84-1.85,0,0,0,0,0,0s0-.06,0-.13h0c0-.62-.85-2.71,2.69-5A12.81,12.81,0,0,1,7.44,50l.07,0c2.16-.81,3-.08,3.16,0l0,0s-1.88,5.08.31,6.49l0,0Z"/><path class="cls-11" d="M8.75,50a13.79,13.79,0,0,0,.17,3.93A17.68,17.68,0,0,0,9.56,56S7.12,51.35,7.9,50.11C8.37,49.35,8.75,50,8.75,50Z"/><polygon class="cls-12" points="8.73 55.73 5.96 51.02 5.34 51.55 8.73 55.73"/><polygon class="cls-13" points="8.11 55.55 4.68 52.38 4.23 53.15 8.11 55.55"/><path class="cls-14" d="M8.42,56.5S4.61,53.88,3.3,55.15s-.58,1.59.65,1A5.19,5.19,0,0,1,8.42,56.5Z"/><path class="cls-15" d="M10.69,50A4.48,4.48,0,0,0,8.75,50a5.49,5.49,0,0,0-.85.16A5.69,5.69,0,0,0,6,51h0a6.21,6.21,0,0,0-.57.49l0,0a5.6,5.6,0,0,0-.66.83,7.91,7.91,0,0,0-.41.71.21.21,0,0,0,0,.06A5,5,0,0,0,3.61,55a2.35,2.35,0,0,0,.16,1.29c0,.08,0,.12,0,.12a2.69,2.69,0,0,0-2.09,1.75c.05-.24.43-1.7.84-1.85,0,0,0,0,0,0,.2-.35-1.61-2.47,2.27-4.95A11.59,11.59,0,0,1,7.44,50l.07,0a5.69,5.69,0,0,1,.71-.18l.22,0a3.18,3.18,0,0,1,2.23.27Z"/><path class="cls-16" d="M15.64,65.11c-3.23,1.65-2.88-.48-3.28-2.65v-.25s.23,2.27,1.7,2.25a1.69,1.69,0,0,0,1.73-2,7.19,7.19,0,0,0-1.46-3.07A2.34,2.34,0,0,0,14,59a10.81,10.81,0,0,0-1.36-1.43A8.4,8.4,0,0,1,14,58.75a3.49,3.49,0,0,1,.32.35C16.32,61.4,17.05,64.39,15.64,65.11Z"/><path class="cls-17" d="M18.13,46.7c1.56,3.23,4.18,5.69-2.21,6.6a2.76,2.76,0,0,1-2.12-.78c-1.69-1.64-2.53-5.58-1.67-9.49a13.73,13.73,0,0,1,.77-2.46.14.14,0,0,1,0-.06c.22-.51.43-1,.64-1.43s.45-.94.66-1.36a27.93,27.93,0,0,1,1.43-2.49h0c.34-.51.63-.92.88-1.23l.12-.15.07-.08a5.73,5.73,0,0,1,.71-.76h.26l1.57-.11.26,0,.59,0s-.56,1.18-1.19,2.88c0,.07-.05.13-.07.19l0,.08C18,38.3,17.08,41.52,17.31,44A8.06,8.06,0,0,0,18.13,46.7Z"/><path class="cls-18" d="M28.44,30.57s-.37.1-1,.29a38.27,38.27,0,0,0-5.42,2.22,7,7,0,0,0-3.15,2.61c0,.07-.05.13-.07.19l0,.08a1.44,1.44,0,0,1-2.19,1,5,5,0,0,1-1.28-.88,2,2,0,0,0,.3-.85h0c.34-2.53-4-5.21-4.93-5.76l-.18-.1v0a0,0,0,0,1,0,0,.66.66,0,0,1,.08-.22,2.5,2.5,0,0,1,.53-.67l0,0A7.06,7.06,0,0,1,14,27.05a20.44,20.44,0,0,1,4.21-.66c6.32-.43,6.92,2.28,7.42,2.87a.23.23,0,0,0,.07.07,0,0,0,0,1,0,0,.26.26,0,0,0,.15,0C26.52,29.19,28.41,30.55,28.44,30.57Z"/><path class="cls-19" d="M12.92,27.83a15.12,15.12,0,0,1,3,4,16.51,16.51,0,0,1,.91,2.56s-.7-6.38-2.67-7C12.91,27,12.92,27.83,12.92,27.83Z"/><polygon class="cls-20" points="17.62 33.48 17.3 26.79 18.5 26.85 17.62 33.48"/><polygon class="cls-21" points="18.25 32.84 20 27.17 21.19 27.59 18.25 32.84"/><path class="cls-22" d="M18.63,34S21.3,28.59,24,28.85s2,1.12,0,1.48A8.47,8.47,0,0,0,18.63,34Z"/><path class="cls-23" d="M27.49,30.86a38.27,38.27,0,0,0-5.42,2.22l-1.25.27c.34-.27,4.32-3.31,6.49-2.56Z"/><path class="cls-15" d="M28.44,30.57a4.72,4.72,0,0,0-4.09-.17c-.05,0-.06,0-.08-.13a2.51,2.51,0,0,0-.85-1.39,7.36,7.36,0,0,0-2.23-1.29l-.38-.14c-.25-.1-.52-.19-.81-.28a8.55,8.55,0,0,0-2.71-.38,10.39,10.39,0,0,0-3.16.55h0a10.34,10.34,0,0,0-1.2.48,8.62,8.62,0,0,0-2.25,1.39.66.66,0,0,0-.12.12,0,0,0,0,1,0,0,.73.73,0,0,1,.09-.18h0a4.84,4.84,0,0,1,.52-.7l0,0a7.36,7.36,0,0,1,2.35-1.69l.2-.09.43-.18a16.63,16.63,0,0,1,4.92-1c7.25-.49,6.06,4.11,6.74,3.94S28.41,30.55,28.44,30.57Z"/><path class="cls-24" d="M15.92,53.3a2.76,2.76,0,0,1-2.12-.78c-1.69-1.64-2.53-5.58-1.67-9.49a13.73,13.73,0,0,1,.77-2.46,18,18,0,0,0-.54,2.5A12.1,12.1,0,0,0,13.11,50a3.85,3.85,0,0,0,.66.93,2.07,2.07,0,0,0,.4.31,2,2,0,0,0,2.35-.46c2.19-1.37,1.37-4.41,1.37-4.41l.24.33C19.69,49.93,22.31,52.39,15.92,53.3Z"/><polygon class="cls-25" points="11.84 37.45 11.73 42.96 11.47 56.8 11.47 56.81 11.09 56.58 11.09 56.57 11.01 49.7 11.26 42.87 11.47 37.34 11.84 37.45"/><path class="cls-26" d="M14.18,26.44h0l-.43.17-.2.09-.23.09c0-.32,0-.64,0-1l-.06-2.65h0c0-.93,0-1.85-.05-2.76,0-.7,0-1.37,0-2.05h0l0-1.54c0-.1,0-.19,0-.28s0-.47,0-.7C13,13.16,13,10.7,12.93,8.6s-.1-3.8-.13-5c0-.6,0-1.08-.05-1.42s0-.59,0-.63a.51.51,0,0,0-.55-.42h0a1.41,1.41,0,0,0-.55.16V2.86l0,5.89,0,6.76v0L11,15.4h0V0l1.85.52c.07,0,.14.12.21.31a6.71,6.71,0,0,1,.27,1.31c.07.52.14,1.16.2,1.9.1,1.23.19,2.73.26,4.45.09,2.25.17,4.85.23,7.66,0,.19,0,.39,0,.59a1.82,1.82,0,0,1,0,.33,1.27,1.27,0,0,1,0,.2c0,.63,0,1.28,0,1.93,0,.93,0,1.88,0,2.83C14.15,23.48,14.17,25,14.18,26.44Z"/><path class="cls-27" d="M14.22,37.75l-.66,1.38c-.05-2.48-.11-5.08-.15-7.72l.8.79c0,1.73,0,3.45,0,5.1Z"/><path class="cls-28" d="M14.36,60.21v.3l-.27.8s0-.28,0-.8c0-.1,0-.7-.06-1.5a2.35,2.35,0,0,0,0-.26c-.07-1.8-.17-4.39-.18-4.71s0-.71,0-1.13c0-.12,0-.26,0-.39v0c0-.11,0-.22,0-.33a1.85,1.85,0,0,0,0-.23v-.6c0-.13,0-.27,0-.41,0-1.32,0-2.87-.08-4.57l.5,0c0,1.85,0,3.49,0,4.84,0,.24,0,.48,0,.7s0,.36,0,.53v1.35c0,.38.11,3.55.17,5.28,0,.11,0,.21,0,.31C14.35,59.86,14.36,60.16,14.36,60.21Z"/></g></g></g></svg>