<svg xmlns="http://www.w3.org/2000/svg" xmlns:xlink="http://www.w3.org/1999/xlink" viewBox="0 0 48.61 97.93"><defs><style>.cls-1{isolation:isolate;}.cls-2{fill:#720037;}.cls-2,.cls-9{opacity:0.5;}.cls-10,.cls-13,.cls-2,.cls-6,.cls-9{mix-blend-mode:multiply;}.cls-3{fill:#6cd3a0;}.cls-4{fill:#210a1e;}.cls-5{fill:url(#Áåçûìÿííûé_ãðàäèåíò_3);}.cls-6{fill:#4a1a5b;}.cls-13,.cls-6{opacity:0.4;}.cls-7{fill:url(#Áåçûìÿííûé_ãðàäèåíò_423);}.cls-8{fill:url(#Áåçûìÿííûé_ãðàäèåíò_423-2);}.cls-10,.cls-9{fill:#591a4a;}.cls-10{opacity:0.3;}.cls-11{fill:url(#Áåçûìÿííûé_ãðàäèåíò_363);}.cls-12{fill:#84aa31;}.cls-13{fill:#287775;}.cls-14{fill:url(#Áåçûìÿííûé_ãðàäèåíò_3-2);}.cls-15{fill:url(#Áåçûìÿííûé_ãðàäèåíò_367);}.cls-16{fill:url(#Áåçûìÿííûé_ãðàäèåíò_3-3);}.cls-17{fill:url(#Áåçûìÿííûé_ãðàäèåíò_367-2);}.cls-18{fill:url(#Áåçûìÿííûé_ãðàäèåíò_3-4);}.cls-19{fill:#2d0d29;}.cls-20{fill:url(#Áåçûìÿííûé_ãðàäèåíò_254);}.cls-21{fill:url(#Áåçûìÿííûé_ãðàäèåíò_254-2);}.cls-22{fill:#5b3957;}.cls-23{fill:#b55335;}</style><linearGradient id="Áåçûìÿííûé_ãðàäèåíò_3" x1="41.18" y1="70.94" x2="47.47" y2="8.85" gradientUnits="userSpaceOnUse"><stop offset="0" stop-color="#401839"/><stop offset="1" stop-color="#62ac31"/></linearGradient><linearGradient id="Áåçûìÿííûé_ãðàäèåíò_423" x1="24.09" y1="76.77" x2="16.94" y2="92.56" gradientUnits="userSpaceOnUse"><stop offset="0" stop-color="#8c3832"/><stop offset="1" stop-color="#ac4a31"/></linearGradient><linearGradient id="Áåçûìÿííûé_ãðàäèåíò_423-2" x1="41.76" y1="72.43" x2="16.86" y2="71.68" xlink:href="#Áåçûìÿííûé_ãðàäèåíò_423"/><radialGradient id="Áåçûìÿííûé_ãðàäèåíò_363" cx="26.81" cy="36.84" r="33.68" gradientUnits="userSpaceOnUse"><stop offset="0" stop-color="#62ac31"/><stop offset="0.89" stop-color="#401839"/></radialGradient><linearGradient id="Áåçûìÿííûé_ãðàäèåíò_3-2" x1="20.79" y1="37.3" x2="18.98" y2="49.61" xlink:href="#Áåçûìÿííûé_ãðàäèåíò_3"/><radialGradient id="Áåçûìÿííûé_ãðàäèåíò_367" cx="21" cy="45.93" r="3.55" gradientUnits="userSpaceOnUse"><stop offset="0" stop-color="#00e6bb"/><stop offset="0.02" stop-color="#02dfb7"/><stop offset="0.19" stop-color="#15a391"/><stop offset="0.36" stop-color="#247272"/><stop offset="0.52" stop-color="#304b59"/><stop offset="0.67" stop-color="#392f47"/><stop offset="0.8" stop-color="#3e1e3d"/><stop offset="0.89" stop-color="#401839"/></radialGradient><linearGradient id="Áåçûìÿííûé_ãðàäèåíò_3-3" x1="27.8" y1="39.3" x2="27.26" y2="50.51" xlink:href="#Áåçûìÿííûé_ãðàäèåíò_3"/><radialGradient id="Áåçûìÿííûé_ãðàäèåíò_367-2" cx="25.88" cy="47.74" r="2.51" xlink:href="#Áåçûìÿííûé_ãðàäèåíò_367"/><linearGradient id="Áåçûìÿííûé_ãðàäèåíò_3-4" x1="26.26" y1="73.05" x2="22.97" y2="55.27" xlink:href="#Áåçûìÿííûé_ãðàäèåíò_3"/><radialGradient id="Áåçûìÿííûé_ãðàäèåíò_254" cx="20.36" cy="46.01" r="2.73" gradientUnits="userSpaceOnUse"><stop offset="0" stop-color="#00ff91"/><stop offset="1" stop-color="#00c7ef"/></radialGradient><radialGradient id="Áåçûìÿííûé_ãðàäèåíò_254-2" cx="25.71" cy="47.53" r="1.64" xlink:href="#Áåçûìÿííûé_ãðàäèåíò_254"/></defs><g class="cls-1"><g id="Layer_2" data-name="Layer 2"><g id="game"><polygon class="cls-2" points="34.48 97.37 48.2 96.08 48.61 89.76 36.2 89.32 34.48 97.37"/><path class="cls-3" d="M17.42,64S6.64,62.62,6.07,62.83s-6.21,6-6.07,6.53,3.27,2.27,3.27,2.27Z"/><path class="cls-3" d="M33.71,61.74c.16,0,5.71-1.87,6.1-1.5,1.43,1.36-2.47,26.13,1,29.25,2.2,2,2.81.84,2.81.84L44.1,86s1.93,6.57.73,7.51-11.12-1.81-11.12-1.81l.13-17.56Z"/><path class="cls-4" d="M6.75,68.42c.6,0,32.14,3.25,32.14,3.25s1.19-9,.21-10.09c-.58-.65-8,.53-8,.53L15.27,65.83Z"/><path class="cls-5" d="M44.83,93.55q0,.17-.36.27c-1.33.49-5.86.28-7.79,0a2,2,0,0,1-.87-.25c-.28-.46-2.1-7.75-2.1-7.75l5-11.22s.08,11.63.89,14.79a1.72,1.72,0,0,0,.3.71,4.4,4.4,0,0,0,3.15,1h.22c.55,0,.73-3.65.73-3.65S45.11,92.54,44.83,93.55Z"/><path class="cls-6" d="M44.47,93.45c-1.33.49-5.86.28-7.79,0a20.38,20.38,0,0,1,2.93-4.06,1.72,1.72,0,0,0,.3.71,4.4,4.4,0,0,0,3.15,1C43.63,92.05,44.14,92.73,44.47,93.45Z"/><polygon class="cls-7" points="40.2 71.27 39.3 75.82 39.29 75.82 38.46 80.01 34.99 97.42 33.19 97.39 15.44 97.1 14.83 97.09 14.49 97.09 13.3 97.07 12.12 97.05 12.05 97.05 11.93 96.54 9.94 88.17 6.95 75.56 6.94 75.52 6.07 71.84 40.2 71.27"/><polygon class="cls-8" points="42.04 68.38 42 68.53 40.2 75.82 40.2 75.83 37.96 75.8 32.6 75.73 5.25 75.39 3.27 67.51 29.56 68.1 37.05 68.27 42.04 68.38"/><path class="cls-9" d="M11.93,96.54c.07.19.13.36.19.51h-.07Z"/><path class="cls-10" d="M39.29,75.82,38.87,78,38.46,80,35,97.42l-1.8,0v-5.2s0-10.41-14.8-10.41c-7.67,0-9,1-8.45,6.39L7.07,76.08,7,75.56v0Z"/><polygon class="cls-10" points="39.29 75.82 38.87 77.96 7.07 76.08 6.95 75.56 6.94 75.52 39.29 75.82"/><path class="cls-9" d="M16.07,67.8s-4.41,2.87-4.61,4,1.84,3.83,1.84,3.83l-2.81,0s-3.58-3.31-3.55-6.19,5.18-1.85,5.18-1.85Z"/><path class="cls-9" d="M41.43,69.28,40.2,75.82,38,75.8l-5.34,0,0,0c-.31-.3-3.38-3.37-3.33-4.28s.23-2.69.29-3.35c0-.14,0-.22,0-.22l7.47.39Z"/><path class="cls-3" d="M39.14,53.23v.06a.37.37,0,0,0,0,.11c0,.09,0,.17,0,.26s0,.09,0,.14v0l0,.25a.59.59,0,0,0,0,.13l0,.18a1.42,1.42,0,0,0,0,.2c0,.06,0,.11,0,.17l0,.13,0,.14,0,.13c0,.18-.1.35-.16.52a2.58,2.58,0,0,1-.08.26l-.15.38,0,.11,0,.07s0,.07,0,.11l-.1.2a.61.61,0,0,1,0,.12,12.43,12.43,0,0,1-.92,1.59l-.07.11-.08.1-.07.11-.39.52-.07.09c-.36.45-.74.87-1.11,1.26l-.64.63-.07.07c-.48.44-.93.82-1.32,1.12l-.4.31-.11.08c-.41.3-.69.48-.76.52h0s.53.2,1.19.5l.16.08.08,0,.16.08.17.08.2.11.18.09.23.13.17.11-9.41.44L25,65c-.32-.07-.64-.12-.93-.17l-.2,0-.32,0h-.13l-.12,0H22.4a15.45,15.45,0,0,0-2,.26l-.2,0-.15,0-.1,0-5-1.2h.37l.39,0h.51l.54,0H17l.31,0h.41l-.3,0-.12,0-.22,0-.2,0h0l-.39-.06a15.3,15.3,0,0,1-3.81-1,10.94,10.94,0,0,1-2.14-1.24l0,0c-6.73-5-3.3-15.58-3.3-15.58a10,10,0,0,0,1.56-.31h0a18.67,18.67,0,0,0,9-5.71,25.35,25.35,0,0,0,3.55-4.67l.51-1.43v0c0-.25-.09-.32-.09-.32A38.06,38.06,0,0,1,19,29.34C18.74,28.52,20.83,8,22.71,8.22c1.25.17.12,14.56-.18,19.09,0-.38.09-.79.14-1.23v0c.32-3.43,1.71-9,2.67-9.07s.38,2.86.66,6.15c0,.22,0,.43,0,.65h0c.24,2.81.32,5.36.32,5.36s.11-11,.86-19.5c.44-5,1.6-9,2.58-9.56,2.64-1.65,0,18.49,0,18.49s2.46-6.2,3.87-3.65c1.27,2.29-2.71,5.1-3.53,5.65.46-.29,1.89-1.06,2.21,0,.38,1.28-2.74,1.73-2.74,1.73s-.6,7.46-.25,8.39a.17.17,0,0,0,.06.09.12.12,0,0,0,.08,0h.11l0,0,0,0a3,3,0,0,0,.56-.51c.59-.64,2.18-1.48,2.4-1.19s-.36,3.61-.36,6.37v0c0,.39,0,.77,0,1.12a.53.53,0,0,1,0,.13v.1c0,.08,0,.16,0,.24s0,.13,0,.2,0,.13,0,.19a1.5,1.5,0,0,0,0,.2.06.06,0,0,0,0,0c0,.11,0,.21,0,.31l-.06.25,0,.14a1.38,1.38,0,0,1-.25.53l0,0,0,0c-.65.38-1,.34-1.2.24l.21.19.05,0,0,.05.06,0,0,0,.07.07.1.1.1.09.06.06c.12.12.24.25.38.38a.46.46,0,0,0,.07.07l.29.3c.05,0,.11.1.16.16.23.24.48.5.74.79s.47.51.71.79l.37.42.19.22.28.34L35,44l.09.12c.16.21.32.41.47.62l.26.34,0,0q.33.43.63.9l.18.26.23.37.27.43.11.19c.07.12.14.24.2.36l.08.13c.05.09.09.18.14.26s.15.29.22.43a.83.83,0,0,0,.07.13l0,.09.05.12a2,2,0,0,1,.1.21.61.61,0,0,1,.05.12l0,0,.09.21c0,.06.05.12.07.17l.05.14c0,.12.1.25.14.37s0,.07,0,.11.09.27.13.4l0,.13,0,.13a.56.56,0,0,1,0,.12l.06.25s0,.06,0,.09l.09.45,0,.22c0,.12,0,.24,0,.37a.49.49,0,0,0,0,.12v.22A5,5,0,0,1,39.14,53.23Z"/><path class="cls-11" d="M39.89,53.52v.17a2.28,2.28,0,0,0,0,.26s0,.09,0,.14v0l0,.25a.68.68,0,0,0,0,.14l0,.17c0,.07,0,.14,0,.2a.85.85,0,0,1,0,.17.7.7,0,0,1,0,.14l0,.13,0,.13-.15.53-.09.25c0,.13-.09.26-.14.38a.61.61,0,0,1,0,.12l0,.06,0,.11-.09.2,0,.12a12.38,12.38,0,0,1-.89,1.6l-.07.1-.07.11-.07.1c-.12.18-.25.35-.38.52l-.06.09A15.39,15.39,0,0,1,36.34,61c-.2.22-.41.43-.61.63l-.08.07c-.46.45-.89.82-1.27,1.13l-.38.3-.11.08c-.4.3-.67.48-.73.52h0s.51.19,1.15.5l.15.07.08,0,.15.08.17.08.19.11a1,1,0,0,1,.17.1l.22.13.19.12a2.72,2.72,0,0,1,1.08,1c.24.56-.09,3.94-.66,6.28h0a11.06,11.06,0,0,1-.47,1.49,9.53,9.53,0,0,0-.87,2.79l0,1.73s-2.82-3.56-2.82-5.11v-.08c0-1.54-.07-6.38-.07-6.38h-.06l-.16,0h0l-.13,0-.07,0-.08,0-.06,0-.35-.1h-.05l-.05,0-.11,0-2.09-.55L28,65.73l-.33-.08-.13,0-.3-.07-.16,0-.3-.06-.56-.12-.89-.17-.19,0-.32,0-.12,0h-.43L24,65h-.28a16.49,16.49,0,0,0-1.92.26l-.19,0-.15,0-.75.15-.18,0-1.05.22-.14,0-.08,0-.67.16L18.3,66l-1.07.25-.61.15-.15,0-.76.19h0c-2.53.64-4.76,1.26-5.36,1.46-1.36.46-4.19,1.55-4.19,2.65s5.42,4.1,7.4,5.28a1,1,0,0,1,.17.1c1.71,1-.92,9.69-1.24,10.74a.37.37,0,0,1,0,.1s0,0,0-.11c.11-.88.72-6.6-1.8-9.67a5,5,0,0,0-.68-.7c-3.56-3-9.12-6-9.12-7.2a1.58,1.58,0,0,1,.38-.79,18.76,18.76,0,0,1,2.61-2.58h0a12.26,12.26,0,0,1,3.2-2.19c.27,0,2,.07,4,.16l.74,0h.25l1,0,.82,0,.38,0,.38,0h.09l1,.05h.54l.33,0h.31l.39,0h.49l.51,0h.89l-.3,0h-.11l-.21,0-.19,0h0l-.38-.06a14.21,14.21,0,0,1-3.64-1.05h0a10.2,10.2,0,0,1-2.1-1.24l0,0C5.68,56.8,9,46.23,9,46.23a9.18,9.18,0,0,0,1.5-.31h0a18,18,0,0,0,8.7-5.71,26,26,0,0,0,3.43-4.67l.15-.3a2.88,2.88,0,0,0,.33-1.13v0a.47.47,0,0,0-.08-.32,37.52,37.52,0,0,1-2.55-4.1c-.28-.82.81-21.61,2.63-21.43h0c1.51.45.75,19.12.47,21.5,0-.21.12-1,.24-2.11h0c0-.38.09-.79.14-1.22v0c.38-3.35,1-8,1.86-8.06s1.09,2,1.36,5.14c0,.22,0,.44.05.65h0c.24,2.82.32,5.37.32,5.37s.11-11,.82-19.51c.43-5,1.06-9.15,2-9.76,2.56-1.64.46,18.69.46,18.69s2.37-6.2,3.74-3.65c1.23,2.3-2.62,5.1-3.42,5.65.45-.28,1.84-1.06,2.14,0,.37,1.27-2.64,1.73-2.64,1.73s-.58,7.45-.24,8.39a.19.19,0,0,0,.05.09l.08,0h.11l0,0,0,0a2.45,2.45,0,0,0,.54-.51c.57-.64,1.22-1.56,1.43-1.27a31.69,31.69,0,0,1,.54,6.45h0c0,.39,0,.75,0,1.1V37s0,.06,0,.09,0,.16,0,.24l0,.2a1.11,1.11,0,0,1,0,.19,1.23,1.23,0,0,1,0,.2v0c0,.11,0,.21-.05.31a2,2,0,0,1,0,.26l0,.13a1.19,1.19,0,0,1-.24.53l0,0,0,0c-.63.39-1,.34-1.16.24l.21.2,0,0,.05.05.06.06,0,0,.07.07.09.09.1.1.06.05.37.39.07.07.28.29.14.16c.23.24.47.51.72.79s.46.51.69.79l.36.43.18.22.27.34c.19.22.37.46.55.7l.09.12.45.61c.09.11.17.23.25.34l0,0c.21.29.41.6.61.9l.17.27c.08.12.15.24.22.36s.18.29.26.44l.11.18.2.36.07.14c0,.08.09.17.14.26l.21.42.06.14,0,.08.06.12.09.21a.61.61,0,0,1,0,.12l0,0,.09.22a1.11,1.11,0,0,1,.07.16l0,.14.14.38,0,.1c.05.14.09.27.13.4a.5.5,0,0,0,0,.13l0,.13,0,.13.06.24a.29.29,0,0,1,0,.09,3.58,3.58,0,0,1,.09.45l0,.22c0,.12,0,.25,0,.37a.49.49,0,0,1,0,.12V53C39.9,53.16,39.9,53.34,39.89,53.52Z"/><path class="cls-12" d="M30.69,22.62s-.58,7.45-.24,8.39a.19.19,0,0,0,.05.09l.08,0h.11l0,0,0,0a2.45,2.45,0,0,0,.54-.51c.57-.64,1.22-1.56,1.43-1.27a31.69,31.69,0,0,1,.54,6.45h0c0,.39,0,.75,0,1.1V37s0,.06,0,.09,0,.16,0,.24l0,.2a1.11,1.11,0,0,1,0,.19,1.23,1.23,0,0,1,0,.2v0c0,.11,0,.21-.05.31a2,2,0,0,1,0,.26l0,.13a1.19,1.19,0,0,1-.24.53l0,0,0,0c-.63.39-1,.34-1.16.24l.21.2,0,0,.05.05.06.06c-2.32-.88-5.8-6.84-5.8-6.84l-2.85,1-.17.06a.47.47,0,0,0-.08-.32,37.52,37.52,0,0,1-2.55-4.1c-.28-.82.81-21.61,2.63-21.43h0l.05,0c1.31.71.94,14.83.66,19.36h0c0,.5-.06.88-.09,1.12,0-.22.12-1.13.23-2.35v0c.31-3.42.9-9.27,1.82-9.36s1.13,3.15,1.4,6.44c0,.22,0,.44.05.65h0c.24,2.82.32,5.37.32,5.37s.11-11,.82-19.51c.43-5,1.06-9.15,2-9.76,2.56-1.64.46,18.69.46,18.69s2.37-6.2,3.74-3.65c1.23,2.3-2.62,5.1-3.42,5.65.45-.28,1.84-1.06,2.14,0C33.7,22.16,30.69,22.62,30.69,22.62Z"/><path class="cls-13" d="M39.89,53.52v.17a2.28,2.28,0,0,0,0,.26s0,.09,0,.14v0l0,.25a.68.68,0,0,0,0,.14l0,.17c0,.07,0,.14,0,.2a.85.85,0,0,1,0,.17.7.7,0,0,1,0,.14l0,.13,0,.13-.15.53-.09.25c0,.13-.09.26-.14.38a.61.61,0,0,1,0,.12l0,.06,0,.11-.09.2,0,.12a12.38,12.38,0,0,1-.89,1.6l-.07.1-.07.11-.07.1c-.12.18-.25.35-.38.52l-.06.09A15.39,15.39,0,0,1,36.34,61c-.2.22-.41.43-.61.63l-.08.07c-.46.45-.89.82-1.27,1.13l-.38.3-.11.08c-.4.3-.67.48-.73.52h0s.51.19,1.15.5l.15.07.08,0,.15.08.17.08.19.11a1,1,0,0,1,.17.1l.22.13.19.12a35.33,35.33,0,0,1-3.9,1.76l-.16,0h0l-.13,0-.07,0-.08,0-.06,0-.35-.1h-.05l-.05,0-.11,0-2.09-.55L28,65.73l-.33-.08-.13,0-.3-.07-.16,0-.3-.06-.56-.12-.89-.17-.19,0-.32,0-.12,0h-.43L24,65h-.28a16.49,16.49,0,0,0-1.92.26l-.19,0-.15,0-.75.15-.18,0-1.05.22-.14,0-.08,0-.67.16L18.3,66l-1.07.25-.61.15-.15,0-.76.19h0a23.3,23.3,0,0,1-4.64-2.75l.74,0h.25l1,0,.82,0,.38,0,.38,0h.09l1,.05h.54l.33,0h.31l.39,0h.49l.51,0h.89l-.3,0h-.11l-.21,0-.19,0h0l-.38-.06a14,14,0,0,1-3.67-1.05,9.87,9.87,0,0,1-2.07-1.24l0,0C6.08,57,10,47,10,47s14.66,12,23.14,7.53-5.23-20.88-10.48-19l.48-1.43.17-.11c.79-.54,4-3.13,4-8.84,0-.34,0-.7,0-1.07.24,2.82.32,5.37.32,5.37s.11-11,.82-19.51c-.14,11.76.46,23.34.64,23.06l1.4-2a.19.19,0,0,0,.05.09l.08,0h.11l0,0,0,0a2.45,2.45,0,0,0,.54-.51c-1.12,2.53-1.72,6.34.36,7,1.18.35,1.54-.38,1.61-1.79h0v0c0,.39,0,.77,0,1.12V37s0,.06,0,.09,0,.16,0,.24l0,.2a1.11,1.11,0,0,1,0,.19,1.23,1.23,0,0,1,0,.2v0c0,.11,0,.21-.05.31a2,2,0,0,1,0,.26l0,.13a1.19,1.19,0,0,1-.24.53l0,0,0,0c-.63.39-1,.34-1.16.24l.21.2,0,0,.05.05.06.06,0,0,.07.07.09.09.1.1.06.05.37.39.07.07.28.29.14.16c.23.24.47.51.72.79l.69.79.36.43.18.22.27.34c.18.22.37.46.55.7l.09.12.45.61.25.34,0,0c.21.29.41.6.61.9l.17.27c.08.12.15.24.22.36s.18.29.26.44l.11.18.2.36.07.14c0,.08.09.17.14.26l.21.42.06.14,0,.08.06.12.09.21a.61.61,0,0,1,0,.12l0,0,.09.22a1.11,1.11,0,0,1,.07.16l0,.14.14.38,0,.1c.05.14.09.27.13.4a.5.5,0,0,0,0,.13l0,.13,0,.13.06.24a.29.29,0,0,1,0,.09,3.58,3.58,0,0,1,.09.45l0,.22c0,.12,0,.25,0,.37a.49.49,0,0,1,0,.12V53C39.9,53.16,39.9,53.34,39.89,53.52Z"/><path class="cls-14" d="M16.4,46.86c.46-.8,4-5.8,5.08-5.39s1.16,7.59,1.16,7.59S12.36,53.82,16.4,46.86Z"/><path class="cls-15" d="M16.81,46.23c.28-.88,4-5.8,5.08-5.39s.75,7.6.75,7.6S15.15,51.41,16.81,46.23Z"/><path class="cls-16" d="M24.58,48.83s3.4,2.76,5,2.69-2.6-7.36-3.76-7.59S24.58,48.83,24.58,48.83Z"/><path class="cls-17" d="M24.63,48.51s2.94,2.35,4.58,2.28-2.6-7.36-3.76-7.59S24.63,48.51,24.63,48.51Z"/><path class="cls-18" d="M20.93,59.18a6.43,6.43,0,0,1,2.81-1.83c.75,0,2.87,2.65,2.87,2.65a28.1,28.1,0,0,0-3.42-1.11A3.2,3.2,0,0,0,20.93,59.18Z"/><path class="cls-19" d="M20.93,59.18c0-.21,2.06-2.26,2.81-2.26S26.61,60,26.61,60a15.06,15.06,0,0,0-3.42-1.54A2.51,2.51,0,0,0,20.93,59.18Z"/><path class="cls-20" d="M22.41,46.55a1.69,1.69,0,1,1-1.69-1.68A1.69,1.69,0,0,1,22.41,46.55Z"/><path class="cls-21" d="M26.94,47.85a1,1,0,1,1-1-1A1,1,0,0,1,26.94,47.85Z"/><path class="cls-6" d="M12.49,86.88a.37.37,0,0,1,0,.1s0,0,0-.11c.11-.88.72-6.6-1.8-9.67,1.17-.09,2.39-.37,2.89-1.16a1,1,0,0,1,.17.1C15.44,77.16,12.81,85.83,12.49,86.88Z"/><path class="cls-6" d="M35.57,73.79a9.53,9.53,0,0,0-.87,2.79l0,1.73s-2.82-3.56-2.82-5.11v-.08a4.29,4.29,0,0,0,2.87.77Z"/><path class="cls-22" d="M10,65.9c0,.33-7.9,4.92-8.79,3.24a.72.72,0,0,1,.09-.63,10.24,10.24,0,0,1,2.61-2.58h0a9.59,9.59,0,0,1,2.76-1.56A3.45,3.45,0,0,1,10,65.9Z"/><path class="cls-13" d="M35,59c-.27,1.15-1,2-1.64,1.83s-.93-1.2-.66-2.36,1-2,1.63-1.84S35.25,57.86,35,59Z"/><path class="cls-13" d="M31.49,61.26c-.1.44-.32.77-.49.73s-.22-.43-.11-.87.32-.77.48-.73S31.59,60.82,31.49,61.26Z"/><path class="cls-13" d="M39.89,53.55v.14a2.28,2.28,0,0,0,0,.26s0,.09,0,.14v0l0,.25a.68.68,0,0,0,0,.14l0,.17c0,.07,0,.14,0,.2a.85.85,0,0,1,0,.17.7.7,0,0,1,0,.14l0,.13,0,.13-.15.53-.09.25c0,.13-.09.26-.14.38a.61.61,0,0,1,0,.12l0,.06,0,.11-.09.2,0,.12a12.38,12.38,0,0,1-.89,1.6l-.07.1-.07.11-.07.1c-.12.18-.25.35-.38.52l-.06.09A15.39,15.39,0,0,1,36.34,61a5.23,5.23,0,0,1-.64-2.54A4.75,4.75,0,0,1,39.89,53.55Z"/><ellipse class="cls-13" cx="11.46" cy="54.99" rx="1.83" ry="3.47"/><path class="cls-13" d="M15.46,59.07c0,.51-.2.93-.45.93s-.45-.42-.45-.93.2-.94.45-.94S15.46,58.55,15.46,59.07Z"/><path class="cls-13" d="M16.28,57.14a.21.21,0,1,1-.42,0,.21.21,0,1,1,.42,0Z"/><ellipse class="cls-13" cx="20.72" cy="57.28" rx="0.67" ry="0.93"/><path class="cls-4" d="M34.85,64.51s-7.37-1.27-7.21,1.14l-.13,0-.3-.07-.16,0-.3-.06-.56-.12-.89-.17-.19,0-.32,0-.12,0h-.43L24,65h-.28a16.49,16.49,0,0,0-1.92.26l-.19,0-.15,0-.75.15-.18,0-1.05.22-.14,0-.08,0s1.18-.74-2.39-1.62l.39,0h.49l.51,0h.89l-.3,0h-.11l-.21,0-.19,0h0l-.38-.06a14,14,0,0,1-3.67-1.05h0c3.72,1.15,16.58,1.12,20.08-.24l-.38.3-.11.08c-.4.3-.67.48-.73.52h0s.51.19,1.15.5l.15.07.08,0,.15.08Z"/><polygon class="cls-6" points="36.13 71.45 32.78 72.03 36 72.3 36.13 71.45"/><path class="cls-22" d="M36,72.3l-1.25.2L32.1,72l1,0h0L36,72.3Z"/><path class="cls-10" d="M31.67,92.08c0,1.61-.53,2.92-1.2,2.92s-1.2-1.31-1.2-2.92.54-2.92,1.2-2.92S31.67,90.47,31.67,92.08Z"/><ellipse class="cls-10" cx="31.65" cy="86.04" rx="0.32" ry="0.75"/><path class="cls-10" d="M34.52,86.12c0,.19-.07.35-.16.35s-.17-.16-.17-.35.08-.36.17-.36S34.52,85.92,34.52,86.12Z"/><ellipse class="cls-10" cx="36.04" cy="80.89" rx="0.82" ry="1.92"/><path class="cls-23" d="M15.76,87.19c.05.81-.12,1.47-.37,1.49s-.51-.63-.56-1.43.12-1.47.38-1.48S15.71,86.39,15.76,87.19Z"/><path class="cls-23" d="M17,83.47c0,.21-.06.39-.17.4s-.2-.16-.21-.38.06-.4.16-.4S17,83.25,17,83.47Z"/><path class="cls-23" d="M15.79,70.32s.15-1.9,1.48-2,9.51,0,9.67.09-.06,2.06-.41,2.06Z"/><polygon class="cls-9" points="14.83 97.09 14.49 97.09 13.83 97.08 13.3 92.08 13.32 92.17 13.32 92.17 14.83 97.09"/><polygon class="cls-23" points="15.44 97.1 14.83 97.09 13.32 92.17 15.44 97.1"/><path class="cls-23" d="M15.79,97.93l0-.05A.05.05,0,0,1,15.79,97.93Z"/></g></g></g></svg>