<svg xmlns="http://www.w3.org/2000/svg" xmlns:xlink="http://www.w3.org/1999/xlink" viewBox="0 0 133.65 157.61"><defs><style>.cls-1{isolation:isolate;}.cls-2{fill:#7d0334;opacity:0.6;}.cls-10,.cls-14,.cls-15,.cls-2,.cls-24{mix-blend-mode:multiply;}.cls-3{fill:url(#Áåçûìÿííûé_ãðàäèåíò_91);}.cls-4{fill:url(#Áåçûìÿííûé_ãðàäèåíò_91-2);}.cls-5{fill:url(#Áåçûìÿííûé_ãðàäèåíò_91-3);}.cls-6{fill:url(#Áåçûìÿííûé_ãðàäèåíò_91-4);}.cls-7{fill:url(#Áåçûìÿííûé_ãðàäèåíò_91-5);}.cls-8{fill:#750e2c;}.cls-9{fill:#6a1621;}.cls-10,.cls-14,.cls-15{opacity:0.5;}.cls-10{fill:url(#Áåçûìÿííûé_ãðàäèåíò_137);}.cls-11{fill:url(#Áåçûìÿííûé_ãðàäèåíò_91-6);}.cls-12{fill:url(#Áåçûìÿííûé_ãðàäèåíò_91-7);}.cls-13{fill:url(#Áåçûìÿííûé_ãðàäèåíò_74);}.cls-14{fill:url(#Áåçûìÿííûé_ãðàäèåíò_137-2);}.cls-15{fill:url(#Áåçûìÿííûé_ãðàäèåíò_137-3);}.cls-16{fill:url(#Áåçûìÿííûé_ãðàäèåíò_140);}.cls-17{fill:#ef882b;}.cls-18{fill:url(#Áåçûìÿííûé_ãðàäèåíò_141);}.cls-19{fill:#e88117;}.cls-20{fill:url(#Áåçûìÿííûé_ãðàäèåíò_74-2);}.cls-21{fill:url(#Áåçûìÿííûé_ãðàäèåíò_74-3);}.cls-22{fill:url(#Áåçûìÿííûé_ãðàäèåíò_74-4);}.cls-23{fill:url(#Áåçûìÿííûé_ãðàäèåíò_74-5);}.cls-24{opacity:0.2;fill:url(#Áåçûìÿííûé_ãðàäèåíò_182);}</style><linearGradient id="Áåçûìÿííûé_ãðàäèåíò_91" x1="92.97" y1="-50" x2="107.72" y2="198.29" gradientUnits="userSpaceOnUse"><stop offset="0.02" stop-color="#b6591b"/><stop offset="0.99" stop-color="#b13936"/></linearGradient><linearGradient id="Áåçûìÿííûé_ãðàäèåíò_91-2" x1="21.52" y1="-48.36" x2="36.27" y2="199.85" gradientTransform="translate(-6.73 15.87) rotate(0.4)" xlink:href="#Áåçûìÿííûé_ãðàäèåíò_91"/><linearGradient id="Áåçûìÿííûé_ãðàäèåíò_91-3" x1="42.25" y1="-45.14" x2="57.79" y2="216.43" xlink:href="#Áåçûìÿííûé_ãðàäèåíò_91"/><linearGradient id="Áåçûìÿííûé_ãðàäèåíò_91-4" x1="57.6" y1="-13.06" x2="62.82" y2="74.67" xlink:href="#Áåçûìÿííûé_ãðàäèåíò_91"/><linearGradient id="Áåçûìÿííûé_ãðàäèåíò_91-5" x1="51.48" y1="-22.28" x2="62.2" y2="5.8" xlink:href="#Áåçûìÿííûé_ãðàäèåíò_91"/><linearGradient id="Áåçûìÿííûé_ãðàäèåíò_137" x1="36.79" y1="110.99" x2="67.6" y2="59.48" gradientTransform="translate(-6.73 15.87) rotate(0.4)" gradientUnits="userSpaceOnUse"><stop offset="0" stop-color="#b06d57"/><stop offset="1" stop-color="#7c0037"/></linearGradient><linearGradient id="Áåçûìÿííûé_ãðàäèåíò_91-6" x1="53.37" y1="-26.22" x2="60.84" y2="99.65" gradientTransform="translate(-6.73 15.87) rotate(0.4)" xlink:href="#Áåçûìÿííûé_ãðàäèåíò_91"/><linearGradient id="Áåçûìÿííûé_ãðàäèåíò_91-7" x1="46.24" y1="36.63" x2="53.13" y2="152.59" xlink:href="#Áåçûìÿííûé_ãðàäèåíò_91"/><linearGradient id="Áåçûìÿííûé_ãðàäèåíò_74" x1="32.75" y1="-7.03" x2="74.57" y2="25.65" gradientTransform="translate(-6.73 15.87) rotate(0.4)" gradientUnits="userSpaceOnUse"><stop offset="0.02" stop-color="#c4601d"/><stop offset="0.99" stop-color="#bf3e3a"/></linearGradient><linearGradient id="Áåçûìÿííûé_ãðàäèåíò_137-2" x1="47.88" y1="-15.68" x2="60.21" y2="24.27" xlink:href="#Áåçûìÿííûé_ãðàäèåíò_137"/><linearGradient id="Áåçûìÿííûé_ãðàäèåíò_137-3" x1="50.68" y1="5.84" x2="59.94" y2="5.84" xlink:href="#Áåçûìÿííûé_ãðàäèåíò_137"/><radialGradient id="Áåçûìÿííûé_ãðàäèåíò_140" cx="53.17" cy="1.63" r="5.15" gradientTransform="translate(-6.73 15.87) rotate(0.4)" gradientUnits="userSpaceOnUse"><stop offset="0" stop-color="#e88117"/><stop offset="1" stop-color="#d76529"/></radialGradient><linearGradient id="Áåçûìÿííûé_ãðàäèåíò_141" x1="16.86" y1="-9.68" x2="26.59" y2="7.22" gradientTransform="matrix(1, 0, 0, 1, 0, 0)" xlink:href="#Áåçûìÿííûé_ãðàäèåíò_140"/><linearGradient id="Áåçûìÿííûé_ãðàäèåíò_74-2" x1="60.45" y1="128.7" x2="78.49" y2="169.04" gradientTransform="matrix(1, 0, 0, 1, 0, 0)" xlink:href="#Áåçûìÿííûé_ãðàäèåíò_74"/><linearGradient id="Áåçûìÿííûé_ãðàäèåíò_74-3" x1="52.47" y1="73.21" x2="73.29" y2="127.38" gradientTransform="matrix(1, 0, 0, 1, 0, 0)" xlink:href="#Áåçûìÿííûé_ãðàäèåíò_74"/><linearGradient id="Áåçûìÿííûé_ãðàäèåíò_74-4" x1="70.77" y1="124.08" x2="88.82" y2="164.42" gradientTransform="matrix(1, 0, 0, 1, 0, 0)" xlink:href="#Áåçûìÿííûé_ãðàäèåíò_74"/><linearGradient id="Áåçûìÿííûé_ãðàäèåíò_74-5" x1="74.67" y1="73.1" x2="88.8" y2="109.86" gradientTransform="matrix(1, 0, 0, 1, 0, 0)" xlink:href="#Áåçûìÿííûé_ãðàäèåíò_74"/><linearGradient id="Áåçûìÿííûé_ãðàäèåíò_182" x1="10.07" y1="80.63" x2="50.41" y2="79.35" gradientUnits="userSpaceOnUse"><stop offset="0" stop-color="#fff"/><stop offset="1" stop-color="#720037"/></linearGradient></defs><g class="cls-1"><g id="Layer_2" data-name="Layer 2"><g id="game"><polygon class="cls-2" points="132.2 147.7 132.2 157.61 93.75 156.38 93.71 156.38 93.59 156.37 93.47 156.37 87.95 156.19 4.68 153.51 6.84 153.45 13.17 153.27 16.96 153.17 18.15 153.14 25.04 152.95 26.45 152.92 26.45 145.84 34.93 145.99 36.34 146.02 87.89 146.92 92.17 147 93.58 147.02 93.64 147.02 114.32 147.39 132.2 147.7"/><polygon class="cls-3" points="114.37 155.01 109.33 155.34 109.32 155.34 105.38 154.87 105.41 150.23 97.95 151.13 97.92 155.93 98.32 156.07 93.71 156.37 93.47 156.37 87.95 156.33 87.95 156.19 87.92 150.17 87.92 150.07 87.89 146.92 87.88 143.79 87.85 138.56 87.59 92.77 87.55 85.22 87.55 85.2 87.53 82.2 87.36 51.48 87.36 51.47 87.31 44.98 87.31 43.87 87.14 12.07 87.14 11.77 87.11 8.05 87.11 7.82 87.09 4.61 95.19 4.66 113.5 4.77 113.51 8.14 113.51 8.24 114.32 147.39 114.37 155.01"/><polygon class="cls-4" points="26.48 149.06 18.18 149 18.15 153.32 12.07 153.59 6.09 153.43 5.63 2.07 35.74 2.27 36.35 149.13 36.37 152.51 26.45 152.95 26.48 149.06"/><polygon class="cls-5" points="93.6 150.16 87.12 150.06 74.67 149.88 70.38 149.82 66.57 149.78 6.53 148.93 5.6 6.8 92.67 8.04 93.6 150.16"/><polygon class="cls-6" points="117.25 1.42 117.2 8.19 115.79 8.16 113.51 8.14 95.16 7.92 87.11 7.82 35.76 7.2 34.35 7.18 22.68 7.04 16.54 6.96 5.65 6.83 5.61 6.83 4.23 6.82 0 6.76 0.04 0.1 0.04 0 38.6 0.47 117.25 1.42"/><polygon class="cls-7" points="93.76 1.45 93.73 7.33 92.95 7.32 91.7 7.3 81.58 7.1 77.14 7.02 48.82 6.47 48.04 6.46 41.61 6.34 38.22 6.27 32.21 6.16 32.19 6.16 31.43 6.15 29.1 6.1 29.12 0.3 29.12 0.22 50.38 0.62 93.76 1.45"/><polygon class="cls-8" points="117.25 1.42 117.2 8.19 115.79 8.18 113.51 8.15 113.48 8.15 113.48 8.23 114.32 147.39 114.37 155.01 109.33 155.34 109.32 155.34 105.38 154.87 105.41 150.23 97.95 151.13 97.92 155.93 98.32 156.07 93.75 156.38 93.71 156.38 93.71 156.37 93.64 147.02 92.68 9.93 92.68 9.9 92.67 8.13 92.67 8.03 95.16 8.05 95.16 7.92 95.19 4.66 95.21 1.29 101.64 1.33 117.25 1.42"/><polygon class="cls-9" points="13.2 148.97 18.18 149 18.15 153.27 13.17 153.47 13.2 148.97"/><polygon class="cls-9" points="36.39 149.13 36.37 152.51 26.45 152.92 26.48 149.06 36.39 149.13"/><polygon class="cls-9" points="5.6 6.8 5.58 9.88 92.65 11.89 92.7 8.13 5.6 6.8"/><polygon class="cls-9" points="88.77 143.79 87.23 143.78 74.51 143.59 70.38 143.51 66.11 143.46 11.5 142.63 10.83 50.98 10.82 50.34 10.74 47.52 10.73 45.55 87.77 11.79 87.78 13.6 88.73 138.56 88.77 143.79"/><polygon class="cls-10" points="88.73 138.56 30.58 137.53 30.31 101.56 11.13 91.63 30.23 91.76 30 61.11 10.83 50.98 9.58 50.32 29.92 50.46 88.07 51.49 88.73 138.56"/><polygon class="cls-11" points="90.06 43.91 90 51.51 9.58 50.32 9.63 42.73 90.06 43.91"/><polygon class="cls-12" points="89.8 85.22 89.74 92.81 88.12 92.78 73.22 92.56 70.38 92.52 46.9 92.17 8.84 91.61 9.36 85.61 61.9 85.36 70.38 85.31 73.03 85.3 88.26 85.22 89.8 85.22"/><polygon class="cls-9" points="11.06 85.59 30.15 81.18 88.31 82.21 88.29 85.2 11.06 85.59"/><polygon class="cls-13" points="10.51 9.95 10.77 41.78 86.82 42.94 86.03 11.76 10.51 9.95"/><path class="cls-14" d="M81.59,14.5l-45.81-.77-1.41,0-18.61-.31V38.54l10.56.18,8.16.13,1.41,0,46.38.76.16-25.11ZM80.12,37.1l-44.24-.76-1.41,0-2.58,0-14-.23L17.5,14.28l16.88.5,1.41.05,8.06.23.83,0,2.55.08,2.33.07L78,16.07l2.27.07Z"/><path class="cls-15" d="M53.17,22.13c0,3.1-2.11,5.6-4.66,5.58s-4.61-2.55-4.59-5.65,2.11-5.6,4.66-5.58S53.19,19,53.17,22.13Z"/><path class="cls-16" d="M51.22,19.59c0,3.1-2.11,5.6-4.66,5.58S42,22.63,42,19.53s2.11-5.61,4.67-5.59S51.25,16.49,51.22,19.59Z"/><path class="cls-17" d="M48.22,17.48a2.6,2.6,0,0,1-2.33,2.79,2.6,2.6,0,0,1-2.3-2.82,2.6,2.6,0,0,1,2.34-2.79A2.6,2.6,0,0,1,48.22,17.48Z"/><polygon class="cls-9" points="12.79 43.42 10.77 41.78 86.82 42.94 86.03 11.76 88.79 11.78 89.38 45.02 12.79 43.42"/><polygon class="cls-18" points="44.99 0.29 38.6 0.47 36.23 0.53 7.25 1.35 0.59 0.1 0.04 0 44.99 0.29"/><polygon class="cls-19" points="15.77 38.54 18.16 39.18 79.43 40.49 82.26 39.63 15.77 38.54"/><polygon class="cls-19" points="82.44 14.52 82.26 39.63 83.57 15.37 82.44 14.52"/><polygon class="cls-19" points="11.91 85.59 26.2 86.98 50.72 85.59 11.91 85.59"/><polygon class="cls-20" points="70.38 143.51 70.38 149.82 66.57 149.78 66.11 143.46 70.38 143.51"/><polygon class="cls-21" points="70.38 85.31 70.38 92.52 46.5 92.19 48.86 85.43 70.38 85.31"/><polygon class="cls-22" points="87.23 143.78 87.12 150.06 74.67 149.88 74.51 143.59 87.23 143.78"/><polygon class="cls-23" points="88.26 85.22 88.12 92.78 73.22 92.56 73.03 85.3 88.26 85.22"/><polygon class="cls-24" points="133.65 147.7 133.65 157.61 95.21 156.38 95.17 156.38 95.05 156.37 94.92 156.37 89.41 156.33 89.41 156.19 6.14 153.51 5.73 20.62 5.64 6.91 0.04 6.84 0.09 0.08 1.5 0.1 1.5 0 46.45 0.29 40.05 0.47 118.7 1.42 118.66 8.19 117.25 8.18 117.25 8.26 114.97 8.24 115.78 147.39 133.65 147.7"/></g></g></g></svg>