<svg xmlns="http://www.w3.org/2000/svg" xmlns:xlink="http://www.w3.org/1999/xlink" viewBox="0 0 65.98 108.11"><defs><style>.cls-1{fill:url(#Áåçûìÿííûé_ãðàäèåíò_67);}.cls-2{fill:url(#Áåçûìÿííûé_ãðàäèåíò_67-2);}.cls-3{fill:#ef7929;}.cls-4{fill:url(#Áåçûìÿííûé_ãðàäèåíò_67-3);}.cls-5{fill:url(#Áåçûìÿííûé_ãðàäèåíò_71);}.cls-6{fill:url(#Áåçûìÿííûé_ãðàäèåíò_67-4);}.cls-7{fill:url(#Áåçûìÿííûé_ãðàäèåíò_163);}.cls-8{fill:url(#Áåçûìÿííûé_ãðàäèåíò_67-5);}.cls-9{fill:url(#Áåçûìÿííûé_ãðàäèåíò_204);}.cls-10{fill:url(#Áåçûìÿííûé_ãðàäèåíò_163-2);}.cls-11{fill:#830c2f;}</style><linearGradient id="Áåçûìÿííûé_ãðàäèåíò_67" x1="0.09" y1="13.01" x2="62.8" y2="7.42" gradientUnits="userSpaceOnUse"><stop offset="0.02" stop-color="#bf3c2a"/><stop offset="0.99" stop-color="#6f0e1d"/></linearGradient><linearGradient id="Áåçûìÿííûé_ãðàäèåíò_67-2" x1="0.98" y1="22.97" x2="63.69" y2="17.38" xlink:href="#Áåçûìÿííûé_ãðàäèåíò_67"/><linearGradient id="Áåçûìÿííûé_ãðàäèåíò_67-3" x1="48.6" y1="6.98" x2="53.74" y2="2.49" xlink:href="#Áåçûìÿííûé_ãðàäèåíò_67"/><radialGradient id="Áåçûìÿííûé_ãðàäèåíò_71" cx="36.17" cy="81.03" r="33.91" gradientUnits="userSpaceOnUse"><stop offset="0.02" stop-color="#e14d15"/><stop offset="0.99" stop-color="#ba392d"/></radialGradient><linearGradient id="Áåçûìÿííûé_ãðàäèåíò_67-4" x1="-3.98" y1="82.26" x2="62.86" y2="23.79" xlink:href="#Áåçûìÿííûé_ãðàäèåíò_67"/><linearGradient id="Áåçûìÿííûé_ãðàäèåíò_163" x1="18.77" y1="93.27" x2="75.56" y2="121.49" xlink:href="#Áåçûìÿííûé_ãðàäèåíò_71"/><linearGradient id="Áåçûìÿííûé_ãðàäèåíò_67-5" x1="21.43" y1="83.97" x2="43.14" y2="115.37" xlink:href="#Áåçûìÿííûé_ãðàäèåíò_67"/><radialGradient id="Áåçûìÿííûé_ãðàäèåíò_204" cx="1637.06" cy="102.29" r="14.25" gradientTransform="translate(-1075.17) scale(0.67 1)" gradientUnits="userSpaceOnUse"><stop offset="0.02" stop-color="#fd7515"/><stop offset="0.99" stop-color="#f75728"/></radialGradient><linearGradient id="Áåçûìÿííûé_ãðàäèåíò_163-2" x1="-5.29" y1="-0.3" x2="29.78" y2="4.13" xlink:href="#Áåçûìÿííûé_ãðàäèåíò_71"/></defs><g id="Layer_2" data-name="Layer 2"><g id="game"><path class="cls-1" d="M49.41,9.93c0,2.52-3.78,4.68-9.15,5.58a34,34,0,0,1-3.65.4l-1.07,0h-.92c-.92,0-1.83,0-2.71-.1a30.46,30.46,0,0,1-3.15-.39c-5.25-.92-8.93-3.06-8.93-5.54v0c.05-2.15,2.85-4,7-5.09a30.52,30.52,0,0,1,5-.79c.89-.07,1.8-.1,2.73-.1.63,0,1.26,0,1.87.05l.34,0,.61,0,.31,0,.31,0,.27,0,.34,0,.29,0,1.47.22.29,0,.57.12.29.06.24,0,.27.06.24.06h0l.24.07.24.06h0l.21.06.35.1.16,0,.44.14.25.08.23.09.25.09.23.09c.32.13.62.26.9.4l.14.06.38.2.18.1c.24.14.47.28.68.42l.14.09.35.26.11.09.15.13.23.21h0l.12.12.11.12L48.6,8l.09.11.11.14a.86.86,0,0,0,.07.1s0,0,0,0a.86.86,0,0,1,.07.1l0,0a.41.41,0,0,1,.05.09,1.62,1.62,0,0,1,.1.18l0,.08a.54.54,0,0,1,.05.11V9a1.17,1.17,0,0,0,.05.11h0s0,.08,0,.13,0,0,0,.08a.09.09,0,0,1,0,.05,1.89,1.89,0,0,1,0,.23s0,0,0,.07,0,.1,0,.14v.15Z"/><path class="cls-2" d="M43.1,20c0,2.8-2.72,5.14-6.4,5.83a10.8,10.8,0,0,1-1.42.18h0c-.26,0-.53,0-.79,0a12.3,12.3,0,0,1-2.55-.27C28.41,25,25.86,22.69,25.86,20a5.46,5.46,0,0,1,2.9-4.51,9.4,9.4,0,0,1,1.59-.78,10.5,10.5,0,0,1,1.56-.47A12.57,12.57,0,0,1,34.48,14a11.19,11.19,0,0,1,2.11.19,11,11,0,0,1,1.67.42,9.46,9.46,0,0,1,2,.95A5.45,5.45,0,0,1,43.1,20Z"/><path class="cls-3" d="M0,2.27l.1,6.5L66,6.05l-.06-6s-6-.17-32.21.13C9.44.47,0,2.27,0,2.27Z"/><polygon class="cls-4" points="50.23 0.78 52.21 8.6 52.82 1.48 50.23 0.78"/><polygon class="cls-5" points="38.06 99.56 32.7 99.06 32 52.02 31.93 25.75 31.91 15.86 31.91 14.94 31.91 14.41 31.91 14.22 31.9 9.65 31.89 4.61 31.89 3.9 36.49 3.9 36.49 3.95 36.5 5.11 36.54 9.57 36.59 14.14 36.59 14.29 36.61 15.91 36.61 16.41 36.7 25.67 36.7 25.81 37.12 52.82 38.02 96 38.06 99.56"/><path class="cls-6" d="M40.26,15.51A5.45,5.45,0,0,1,43.1,20c0,2.8-2.72,5.14-6.4,5.83l.42,27L38,96H36.55l-1-43.42L35.05,26l.22,0h0a12.13,12.13,0,0,0,1.42-.32c1.81-.54,4.38-1.88,3.81-5.11-.34-1.94-2-3.26-3.9-4.15-.35-.17-.71-.32-1.07-.46a22.69,22.69,0,0,0-3.63-1c-.94-.18-1.56-.25-1.56-.25l1.56-.28L34.48,14l2.11.34,1.67.27s7.56-2.14,6.54-5.14c-.28-.83-1.22-1.72-3.14-2.65A21.17,21.17,0,0,0,36.5,5.1a30.74,30.74,0,0,0-4.61-.49,42.12,42.12,0,0,0-5,.18,30.52,30.52,0,0,1,5-.79V3.9h4.6V4l.34,0,.61,0,.31,0,.31,0,.27,0,.34,0,.29,0,1.47.22.29,0,.57.12.29.06.24,0,.27.06.24.06h0l.24.07.24.06h0l.21.06.35.1.16,0,.44.14.25.08.23.09.25.09.23.09c.32.13.62.26.9.4l.14.06.38.2.18.1c.24.14.47.28.68.42l.14.09.35.26.11.09.15.13.23.21h0l.12.12.11.12L48.6,8l.09.11.11.14a.86.86,0,0,0,.07.1s0,0,0,0a.86.86,0,0,1,.07.1l0,0a.41.41,0,0,1,.05.09,1.62,1.62,0,0,1,.1.18l0,.08a.54.54,0,0,1,.05.11V9a1.17,1.17,0,0,0,.05.11h0s0,.08,0,.13,0,0,0,.08a.09.09,0,0,1,0,.05,1.89,1.89,0,0,1,0,.23s0,0,0,.07,0,.1,0,.14v.15C49.41,12.45,45.63,14.61,40.26,15.51Z"/><polygon class="cls-7" points="55.67 101.8 16.19 101.8 35.29 94.69 36.42 95.08 36.43 95.08 55.67 101.8"/><path class="cls-8" d="M64.59,101.8v4.45s-8.29,1.86-29.47,1.86S6,106.25,6,106.25l1.27-4.45Z"/><path class="cls-9" d="M7.42,101.86s-1.15,1.08,7,1.08,19.93-1.31,19.93-1.31Z"/><path class="cls-10" d="M66,6.91,65.91.31S57.68,1.69,33.74,2.36,0,2.16,0,2.16L.1,8.77s9.78,1.44,33.72.77S66,6.91,66,6.91Z"/><polygon class="cls-3" points="49.84 0.71 52.82 1.48 52.27 7.54 54.36 1.49 49.84 0.71"/><path class="cls-11" d="M40.26,15.51A5.45,5.45,0,0,1,43.1,20c0,2.8-2.72,5.14-6.4,5.83l.42,27-1.55-.24L32,52l-.07-26.27C28.41,25,25.86,22.69,25.86,20a5.46,5.46,0,0,1,2.9-4.51c-5.25-.92-8.93-3.06-8.93-5.54v0L31.9,9.66l4.64-.09,8.26-.15,4.54-.08a1.89,1.89,0,0,1,0,.23s0,0,0,.07,0,.1,0,.14v.15C49.41,12.45,45.63,14.61,40.26,15.51Z"/></g></g></svg>