<svg xmlns="http://www.w3.org/2000/svg" xmlns:xlink="http://www.w3.org/1999/xlink" viewBox="0 0 68.97 24.41"><defs><style>.cls-1{fill:none;}.cls-2{isolation:isolate;}.cls-3{clip-path:url(#clip-path);}.cls-4{fill:#6d691f;}.cls-5{fill:url(#Áåçûìÿííûé_ãðàäèåíò_66);}.cls-11,.cls-6{opacity:0.62;}.cls-11,.cls-14,.cls-6{mix-blend-mode:multiply;}.cls-6{fill:url(#Áåçûìÿííûé_ãðàäèåíò_62);}.cls-7{fill:url(#Áåçûìÿííûé_ãðàäèåíò_60);}.cls-8{fill:url(#Áåçûìÿííûé_ãðàäèåíò_60-2);}.cls-9{fill:#990548;}.cls-10{fill:url(#Áåçûìÿííûé_ãðàäèåíò_66-2);}.cls-11{fill:url(#Áåçûìÿííûé_ãðàäèåíò_62-2);}.cls-12{fill:url(#Áåçûìÿííûé_ãðàäèåíò_60-3);}.cls-13{fill:url(#Áåçûìÿííûé_ãðàäèåíò_60-4);}.cls-14{opacity:0.5;fill:url(#Áåçûìÿííûé_ãðàäèåíò_133);}</style><clipPath id="clip-path" transform="translate(-9.76 -17.52)"><polygon class="cls-1" points="0 37.46 84.44 36.55 82.03 3.77 9.17 0 0 37.46"/></clipPath><linearGradient id="Áåçûìÿííûé_ãðàäèåíò_66" x1="74.06" y1="15.24" x2="9.85" y2="-5.41" gradientUnits="userSpaceOnUse"><stop offset="0" stop-color="#fce2b0"/><stop offset="1" stop-color="#fda996"/></linearGradient><linearGradient id="Áåçûìÿííûé_ãðàäèåíò_62" x1="-2043.9" y1="184.99" x2="-2044.45" y2="196.04" gradientTransform="matrix(-1, 0.01, 0.01, 1, -1987.99, -156.35)" gradientUnits="userSpaceOnUse"><stop offset="0" stop-color="#a74057"/><stop offset="1" stop-color="#d7aab8"/></linearGradient><linearGradient id="Áåçûìÿííûé_ãðàäèåíò_60" x1="16.09" y1="11.08" x2="15.24" y2="7.48" gradientUnits="userSpaceOnUse"><stop offset="0" stop-color="#ff8036"/><stop offset="0.28" stop-color="#ff8a34"/><stop offset="0.77" stop-color="#ffa630"/><stop offset="1" stop-color="#ffb62d"/></linearGradient><linearGradient id="Áåçûìÿííûé_ãðàäèåíò_60-2" x1="31.65" y1="7.4" x2="30.8" y2="3.8" xlink:href="#Áåçûìÿííûé_ãðàäèåíò_60"/><linearGradient id="Áåçûìÿííûé_ãðàäèåíò_66-2" x1="72.03" y1="21.54" x2="7.82" y2="0.89" xlink:href="#Áåçûìÿííûé_ãðàäèåíò_66"/><linearGradient id="Áåçûìÿííûé_ãðàäèåíò_62-2" x1="-2168.93" y1="712.03" x2="-2169.71" y2="727.83" gradientTransform="matrix(-0.99, 0.15, 0.15, 0.99, -2194.73, -353.15)" xlink:href="#Áåçûìÿííûé_ãðàäèåíò_62"/><linearGradient id="Áåçûìÿííûé_ãðàäèåíò_60-3" x1="12.9" y1="26.63" x2="9.49" y2="12.78" xlink:href="#Áåçûìÿííûé_ãðàäèåíò_60"/><linearGradient id="Áåçûìÿííûé_ãðàäèåíò_60-4" x1="31.6" y1="22.02" x2="28.19" y2="8.18" xlink:href="#Áåçûìÿííûé_ãðàäèåíò_60"/><linearGradient id="Áåçûìÿííûé_ãðàäèåíò_133" x1="48.88" y1="32.01" x2="49.3" y2="28.85" gradientUnits="userSpaceOnUse"><stop offset="0" stop-color="#a97278"/><stop offset="1" stop-color="#720037"/></linearGradient></defs><g class="cls-2"><g id="Layer_2" data-name="Layer 2"><g id="game"><g class="cls-3"><polygon class="cls-4" points="60.69 12 34.86 7.35 8.2 11.62 7.75 5.39 35.15 0.04 60.6 7.11 60.69 12"/><polygon class="cls-5" points="60.87 7.39 35.78 0.62 35.86 6.56 60.65 11.58 60.87 7.39"/><path class="cls-6" d="M70.63,24.92l-22-5.86-.81.68s14.68,4.74,14.29,4.82S47.84,20.2,47.84,20.2l-.17,3.21L70.41,29.1l-25.5-4.27-.1-7.31Z" transform="translate(-9.76 -17.52)"/><polygon class="cls-7" points="21.14 4.4 21.36 8.31 9.3 10.35 9.12 6.36 21.14 4.4"/><polygon class="cls-8" points="31.55 1.06 31.53 7.79 30.38 7.97 30.7 1.23 31.55 1.06"/><polygon class="cls-9" points="68.08 19.55 35.91 19.13 1.85 22.01 0 11.54 33.19 7.05 66.22 11.48 68.08 19.55"/><polygon class="cls-10" points="66.32 12.02 34.35 8.01 36.55 17.82 67.52 18.96 66.32 12.02"/><path class="cls-11" d="M76.08,29.54,48.43,26.71l-.79,1.22s22,3.63,21.54,3.8-21.4-3-21.4-3L48.7,34l28.58,2.48-31.61.16L43,24.58Z" transform="translate(-9.76 -17.52)"/><polygon class="cls-12" points="17.34 11.8 18.47 18.32 2.88 18.8 1.96 13.49 17.34 11.8"/><polygon class="cls-13" points="29.38 7.47 31.48 19.41 29.66 19.66 28.35 7.84 29.38 7.47"/><polygon class="cls-14" points="35.15 0.04 35.15 7.31 33.19 7.05 36.67 22.56 68.97 24.41 66.22 11.48 60.61 10.63 60.87 7.12 35.15 0.04"/></g></g></g></g></svg>