<svg xmlns="http://www.w3.org/2000/svg" xmlns:xlink="http://www.w3.org/1999/xlink" viewBox="0 0 89.2 91.4"><defs><style>.cls-1{isolation:isolate;}.cls-2{fill:#b27d8a;}.cls-3{fill:url(#Áåçûìÿííûé_ãðàäèåíò_122);}.cls-4{fill:#87636d;}.cls-5{fill:url(#Áåçûìÿííûé_ãðàäèåíò_120);}.cls-6{fill:#fff9bd;}.cls-7{fill:url(#Áåçûìÿííûé_ãðàäèåíò_122-2);}.cls-8{fill:url(#Áåçûìÿííûé_ãðàäèåíò_122-3);}.cls-9{fill:url(#Áåçûìÿííûé_ãðàäèåíò_120-2);}.cls-10{fill:url(#Áåçûìÿííûé_ãðàäèåíò_122-4);}.cls-11,.cls-12{opacity:0.4;}.cls-11,.cls-12,.cls-13{mix-blend-mode:screen;}.cls-11{fill:url(#Áåçûìÿííûé_ãðàäèåíò_384);}.cls-12{fill:url(#Áåçûìÿííûé_ãðàäèåíò_384-2);}.cls-13{fill:url(#Áåçûìÿííûé_ãðàäèåíò_384-3);}</style><radialGradient id="Áåçûìÿííûé_ãðàäèåíò_122" cx="-426.73" cy="59.29" r="37.93" gradientTransform="matrix(-1, 0, 0, 1, -384.38, 0)" gradientUnits="userSpaceOnUse"><stop offset="0.16" stop-color="#f3db8d"/><stop offset="0.2" stop-color="#efd390"/><stop offset="0.31" stop-color="#e8c198"/><stop offset="0.44" stop-color="#e2b49d"/><stop offset="0.61" stop-color="#dfada0"/><stop offset="1" stop-color="#deaba1"/></radialGradient><radialGradient id="Áåçûìÿííûé_ãðàäèåíò_120" cx="-427.45" cy="51.78" r="9.95" gradientTransform="matrix(-1, 0, 0, 1, -384.38, 0)" gradientUnits="userSpaceOnUse"><stop offset="0" stop-color="#fff"/><stop offset="1" stop-color="#ffeb88"/></radialGradient><radialGradient id="Áåçûìÿííûé_ãðàäèåíò_122-2" cx="-409.49" cy="85.43" r="9.65" xlink:href="#Áåçûìÿííûé_ãðàäèåíò_122"/><radialGradient id="Áåçûìÿííûé_ãðàäèåíò_122-3" cx="-418.9" cy="76.03" r="18.54" xlink:href="#Áåçûìÿííûé_ãðàäèåíò_122"/><radialGradient id="Áåçûìÿííûé_ãðàäèåíò_120-2" cx="-417.6" cy="68.24" r="10.35" xlink:href="#Áåçûìÿííûé_ãðàäèåíò_120"/><radialGradient id="Áåçûìÿííûé_ãðàäèåíò_122-4" cx="-440.23" cy="83.84" r="7.46" xlink:href="#Áåçûìÿííûé_ãðàäèåíò_122"/><radialGradient id="Áåçûìÿííûé_ãðàäèåíò_384" cx="395.94" cy="43.81" r="23.81" gradientTransform="translate(-250.89) scale(0.75 1)" gradientUnits="userSpaceOnUse"><stop offset="0" stop-color="#fd7e00"/><stop offset="0.05" stop-color="#e06f00"/><stop offset="0.15" stop-color="#ac5600"/><stop offset="0.26" stop-color="#7e3f00"/><stop offset="0.37" stop-color="#572b00"/><stop offset="0.48" stop-color="#371c00"/><stop offset="0.59" stop-color="#1f0f00"/><stop offset="0.71" stop-color="#0e0700"/><stop offset="0.84" stop-color="#030200"/><stop offset="1"/></radialGradient><radialGradient id="Áåçûìÿííûé_ãðàäèåíò_384-2" cx="377.13" cy="63.42" r="20.18" xlink:href="#Áåçûìÿííûé_ãðàäèåíò_384"/><radialGradient id="Áåçûìÿííûé_ãðàäèåíò_384-3" cx="44.6" cy="44.6" r="44.6" gradientTransform="translate(44.6 -18.47) rotate(45)" xlink:href="#Áåçûìÿííûé_ãðàäèåíò_384"/></defs><g class="cls-1"><g id="Layer_2" data-name="Layer 2"><g id="game"><path class="cls-2" d="M58.54,86.37c2.92.79,1.63,3.07-3.11,2.9s-7.17-.43-7.58-.63-6.93.59-6.93.59,5.46-.2,3.77,1.15S19.89,92,19.36,89.73s13.77-2,13.77-2l7.17-2.31Z"/><path class="cls-3" d="M36.14,66.93c.1,4.38.27,9.39.42,13.23.15,3.66.26,6.26.26,6.26s5,.23,8.94.35h0a37.92,37.92,0,0,0,4.7,0,4.19,4.19,0,0,0,1.14-.92c.08-2-3.66-4.83-3.75-5.09-.48-1.41-.9-4.43-.33-10.39S51.2,53.93,50.19,53c-.27-.26-.68-.19-1.16.07h0a1.82,1.82,0,0,0-.27.15c-1.28.8-2.87,2.55-3.35,2.58-.7,0-1.49,1.71-1.93,1.8s-4.94-1.13-6.62-.81a2,2,0,0,0-.32.1h0a.42.42,0,0,0-.18.13,3.34,3.34,0,0,0-.2,1.27h0C36,60,36.06,63.23,36.14,66.93Z"/><path class="cls-4" d="M43.48,57.68a14.72,14.72,0,0,1,0-3.92A9.12,9.12,0,0,1,44.1,51h-.62l-.62,7.25Z"/><path class="cls-5" d="M44,53.86s3.64-2.28,3.9-4.61-2-2.33-2.57-4.87a14.65,14.65,0,0,1,.05-5.27l-1.08-4A18.69,18.69,0,0,1,41.85,42c-1.93,3-2.17.6-2.39,1.32-1.08,3.63,1.27,6.6,1.62,8.14S41.24,54.21,44,53.86Z"/><path class="cls-6" d="M42.25,62.77c3.64-1.61,5-8.38,6.51-9.59-1.28.8-2.87,2.55-3.35,2.58-.7,0-1.49,1.71-1.93,1.8s-4.94-1.13-6.62-.81l-.32.1h0C36.27,57.06,38.42,64.46,42.25,62.77Z"/><path class="cls-7" d="M38.93,88.09s-16.3,1.86-15.2,0S33.61,87,33.61,87Z"/><path class="cls-2" d="M38.3,76.37s4.82,2,5.18,2.58-1.29,7.7-1.29,7.7H38.3Z"/><path class="cls-8" d="M27.17,86.84c-.09.27,11.85,1.68,12.54,1a.91.91,0,0,0,.3-.54,1.27,1.27,0,0,0-.12-.87,10.09,10.09,0,0,1-1-2v0a.14.14,0,0,1,0-.06,11.79,11.79,0,0,1-.37-1.32c-.8-3.4.41-5.08.08-5.93s.81-2.9.79-4.18a1.46,1.46,0,0,0-.05-.38c-.32-1.19-3.72-.39-4.91-.07s-3.92,1.24-5.16.81l-.1,0c-.36-.16-.49.27-.5,1a30.19,30.19,0,0,1-.91,5c-.16.61-1.68,1.82-1.38,2.64a.51.51,0,0,0,.14.23h0l1.23,1.3a4.14,4.14,0,0,1-.19,1.77C27.43,85.76,27.29,86.49,27.17,86.84Z"/><path class="cls-6" d="M29.24,73.37s2.1,3.2,2.65,3,5.88-4.09,6.6-4.08a1,1,0,0,1,.93.67h0a1.46,1.46,0,0,0-.05-.38c-.32-1.19-3.72-.39-4.91-.07s-3.92,1.24-5.16.81Z"/><path class="cls-4" d="M33.61,74a14.72,14.72,0,0,1,0-3.92,9.45,9.45,0,0,1,.61-2.75h-.61L33,74.61Z"/><path class="cls-9" d="M33.92,71.92s3.64-2.28,3.9-4.6-3.38-4-3.9-6.54A4.51,4.51,0,0,1,34.44,57l-2.32-3.38s1.62,3.47-.31,6.45S28.57,63,28.43,63.73s3.47,4,3.82,5.52S31.2,72.28,33.92,71.92Z"/><path class="cls-2" d="M30.11,78.39s.68,6.13-1,6.61-2.63-3.12-2.63-3.12a1.64,1.64,0,0,0,2.3.61C30.2,81.63,30.11,78.39,30.11,78.39Z"/><path class="cls-10" d="M58.61,87C58.8,84.61,46.54,85,46.4,85.84S58.32,90.47,58.61,87Z"/><ellipse class="cls-11" cx="44.6" cy="43.81" rx="17.77" ry="23.81"/><ellipse class="cls-12" cx="30.56" cy="63.42" rx="15.06" ry="20.18"/><circle class="cls-13" cx="44.6" cy="44.6" r="44.6" transform="translate(-18.47 44.6) rotate(-45)"/></g></g></g></svg>