<svg xmlns="http://www.w3.org/2000/svg" xmlns:xlink="http://www.w3.org/1999/xlink" viewBox="0 0 150.64 150.64"><defs><style>.cls-1{isolation:isolate;}.cls-2{fill:url(#Áåçûìÿííûé_ãðàäèåíò_122);}.cls-3{fill:url(#Áåçûìÿííûé_ãðàäèåíò_122-2);}.cls-4{fill:#fff9bd;}.cls-5{fill:#87636d;}.cls-6{fill:url(#Áåçûìÿííûé_ãðàäèåíò_120);}.cls-7{fill:#b27d8a;}.cls-8{mix-blend-mode:screen;fill:url(#Áåçûìÿííûé_ãðàäèåíò_384);}</style><radialGradient id="Áåçûìÿííûé_ãðàäèåíò_122" cx="6363.52" cy="116.75" r="12.38" gradientTransform="translate(-6278.43)" gradientUnits="userSpaceOnUse"><stop offset="0.16" stop-color="#f3db8d"/><stop offset="0.2" stop-color="#efd390"/><stop offset="0.31" stop-color="#e8c198"/><stop offset="0.44" stop-color="#e2b49d"/><stop offset="0.61" stop-color="#dfada0"/><stop offset="1" stop-color="#deaba1"/></radialGradient><radialGradient id="Áåçûìÿííûé_ãðàäèåíò_122-2" cx="6351.43" cy="94.97" r="34.77" xlink:href="#Áåçûìÿííûé_ãðàäèåíò_122"/><radialGradient id="Áåçûìÿííûé_ãðàäèåíò_120" cx="6353.77" cy="80.46" r="10.87" gradientTransform="translate(-6278.43)" gradientUnits="userSpaceOnUse"><stop offset="0" stop-color="#fff"/><stop offset="1" stop-color="#ffeb88"/></radialGradient><radialGradient id="Áåçûìÿííûé_ãðàäèåíò_384" cx="75.32" cy="75.32" r="75.32" gradientTransform="translate(75.32 -31.2) rotate(45)" gradientUnits="userSpaceOnUse"><stop offset="0" stop-color="#fd7e00"/><stop offset="0.05" stop-color="#e06f00"/><stop offset="0.15" stop-color="#ac5600"/><stop offset="0.26" stop-color="#7e3f00"/><stop offset="0.37" stop-color="#572b00"/><stop offset="0.48" stop-color="#371c00"/><stop offset="0.59" stop-color="#1f0f00"/><stop offset="0.71" stop-color="#0e0700"/><stop offset="0.84" stop-color="#030200"/><stop offset="1"/></radialGradient></defs><g class="cls-1"><g id="Layer_2" data-name="Layer 2"><g id="game"><path class="cls-2" d="M67.34,120.17s20.92,2.38,19.5,0-12.67-1.38-12.67-1.38Z"/><path class="cls-3" d="M82.43,118.55c.12.35-15.21,2.17-16.09,1.36a1.14,1.14,0,0,1-.39-.7,1.63,1.63,0,0,1,.15-1.11,12.69,12.69,0,0,0,1.22-2.54v0l0-.07c.15-.47.31-1,.47-1.71,1-4.36.07-19.51.49-20.6s-1-3.72-1-5.37a1.8,1.8,0,0,1,.06-.48c.41-1.53,4.77-.51,6.3-.09s5,1.59,6.62,1l.13,0c.46-.21.63.34.65,1.22,0,2,.41,18.78.57,19.38.2.79,2.15,2.34,1.77,3.4a.77.77,0,0,1-.18.29h0c-.37.38-1.57,1.67-1.57,1.67a5.22,5.22,0,0,0,.24,2.26C82.09,117.18,82.27,118.11,82.43,118.55Z"/><path class="cls-4" d="M80.37,88.28s-2.7,4.1-3.4,3.88-7.55-5.24-8.48-5.23a1.25,1.25,0,0,0-1.18.85h0a1.8,1.8,0,0,1,.06-.48c.41-1.53,4.77-.51,6.3-.09s5,1.59,6.62,1Z"/><path class="cls-5" d="M74.76,89.12a18.51,18.51,0,0,0,0-5A11.87,11.87,0,0,0,74,80.56h.79l.8,9.31Z"/><path class="cls-6" d="M74.6,84.33s-3.82-2.4-4.09-4.84,3.54-4.19,4.09-6.86-.55-4-.55-4l2.44-3.55s-1.7,3.64.33,6.77,3.4,3.06,3.54,3.83-3.64,4.19-4,5.8S77.46,84.7,74.6,84.33Z"/><path class="cls-7" d="M78.66,107.72s-.87,7.86,1.3,8.48,3.38-4,3.38-4a2.1,2.1,0,0,1-3,.77C78.54,111.87,78.66,107.72,78.66,107.72Z"/><circle class="cls-8" cx="75.32" cy="75.32" r="75.32" transform="translate(-31.2 75.32) rotate(-45)"/></g></g></g></svg>