<svg xmlns="http://www.w3.org/2000/svg" xmlns:xlink="http://www.w3.org/1999/xlink" viewBox="0 0 125.5 88.81"><defs><style>.cls-1{isolation:isolate;}.cls-2{fill:#7d0334;opacity:0.6;}.cls-13,.cls-17,.cls-2,.cls-9{mix-blend-mode:multiply;}.cls-3{fill:url(#Áåçûìÿííûé_ãðàäèåíò_69);}.cls-4{fill:url(#Áåçûìÿííûé_ãðàäèåíò_94);}.cls-5{fill:url(#Áåçûìÿííûé_ãðàäèåíò_59);}.cls-6,.cls-8{opacity:0.73;}.cls-12,.cls-18,.cls-20,.cls-6,.cls-8{mix-blend-mode:color-dodge;}.cls-6{fill:url(#Áåçûìÿííûé_ãðàäèåíò_80);}.cls-7{fill:url(#Áåçûìÿííûé_ãðàäèåíò_59-2);}.cls-8{fill:url(#Áåçûìÿííûé_ãðàäèåíò_80-2);}.cls-9{opacity:0.76;fill:url(#Áåçûìÿííûé_ãðàäèåíò_56);}.cls-10{fill:#e3deb1;}.cls-11{fill:url(#Áåçûìÿííûé_ãðàäèåíò_258);}.cls-12,.cls-18{fill:#fde8d1;}.cls-12,.cls-20{opacity:0.46;}.cls-13{opacity:0.4;fill:url(#Áåçûìÿííûé_ãðàäèåíò_55);}.cls-14{fill:url(#Áåçûìÿííûé_ãðàäèåíò_258-2);}.cls-15{fill:url(#Áåçûìÿííûé_ãðàäèåíò_258-3);}.cls-16{fill:url(#Áåçûìÿííûé_ãðàäèåíò_52);}.cls-17{fill:#8f0943;opacity:0.7;}.cls-19{fill:url(#Áåçûìÿííûé_ãðàäèåíò_164);}.cls-20{fill:url(#Áåçûìÿííûé_ãðàäèåíò_50);}</style><linearGradient id="Áåçûìÿííûé_ãðàäèåíò_69" x1="19.89" y1="7.27" x2="22.82" y2="13.93" gradientUnits="userSpaceOnUse"><stop offset="0.02" stop-color="#ffe08e"/><stop offset="0.99" stop-color="#b6332f"/></linearGradient><linearGradient id="Áåçûìÿííûé_ãðàäèåíò_94" x1="-4166.21" y1="-10633.47" x2="-4157.08" y2="-10629.01" gradientTransform="translate(11143.92 -2544.63) rotate(-81.57)" gradientUnits="userSpaceOnUse"><stop offset="0" stop-color="#953110"/><stop offset="1" stop-color="#4f233f"/></linearGradient><linearGradient id="Áåçûìÿííûé_ãðàäèåíò_59" x1="-4153.59" y1="-10632.65" x2="-4153.89" y2="-10626.98" gradientTransform="translate(11143.92 -2544.63) rotate(-81.57)" gradientUnits="userSpaceOnUse"><stop offset="0" stop-color="#fb923b"/><stop offset="1" stop-color="#be5e27"/></linearGradient><linearGradient id="Áåçûìÿííûé_ãðàäèåíò_80" x1="-4146.32" y1="-10635.89" x2="-4156.73" y2="-10620.66" gradientTransform="translate(11143.92 -2544.63) rotate(-81.57)" gradientUnits="userSpaceOnUse"><stop offset="0" stop-color="#a9805a"/><stop offset="1"/></linearGradient><linearGradient id="Áåçûìÿííûé_ãðàäèåíò_59-2" x1="-4151.53" y1="-10628.94" x2="-4149.91" y2="-10629.85" xlink:href="#Áåçûìÿííûé_ãðàäèåíò_59"/><linearGradient id="Áåçûìÿííûé_ãðàäèåíò_80-2" x1="-4154.37" y1="-10636.49" x2="-4155.97" y2="-10629.66" xlink:href="#Áåçûìÿííûé_ãðàäèåíò_80"/><linearGradient id="Áåçûìÿííûé_ãðàäèåíò_56" x1="-4155.88" y1="-10633.14" x2="-4154.48" y2="-10626.38" gradientTransform="translate(11143.92 -2544.63) rotate(-81.57)" gradientUnits="userSpaceOnUse"><stop offset="0" stop-color="#fff"/><stop offset="1" stop-color="#b37081"/></linearGradient><linearGradient id="Áåçûìÿííûé_ãðàäèåíò_258" x1="-1.24" y1="27.06" x2="25.11" y2="19.11" gradientUnits="userSpaceOnUse"><stop offset="0" stop-color="#060534"/><stop offset="0.16" stop-color="#13123b"/><stop offset="0.46" stop-color="#37354c"/><stop offset="0.86" stop-color="#6f6d69"/><stop offset="1" stop-color="#848273"/></linearGradient><linearGradient id="Áåçûìÿííûé_ãðàäèåíò_55" x1="34.15" y1="32.3" x2="52.22" y2="51.59" gradientUnits="userSpaceOnUse"><stop offset="0" stop-color="#880050"/><stop offset="1" stop-color="#fff"/></linearGradient><linearGradient id="Áåçûìÿííûé_ãðàäèåíò_258-2" x1="28.2" y1="12.62" x2="16.4" y2="12.21" xlink:href="#Áåçûìÿííûé_ãðàäèåíò_258"/><linearGradient id="Áåçûìÿííûé_ãðàäèåíò_258-3" x1="76.32" y1="52.1" x2="21.84" y2="57.12" xlink:href="#Áåçûìÿííûé_ãðàäèåíò_258"/><radialGradient id="Áåçûìÿííûé_ãðàäèåíò_52" cx="10.2" cy="44.45" r="47.86" gradientUnits="userSpaceOnUse"><stop offset="0" stop-color="#848273"/><stop offset="0.14" stop-color="#6f6d69"/><stop offset="0.54" stop-color="#37354c"/><stop offset="0.84" stop-color="#13123b"/><stop offset="1" stop-color="#060534"/></radialGradient><linearGradient id="Áåçûìÿííûé_ãðàäèåíò_164" x1="15258.67" y1="756.1" x2="15258.61" y2="756.25" gradientTransform="matrix(-1, 0.03, 0.03, 1, 15236.29, -1202.81)" gradientUnits="userSpaceOnUse"><stop offset="0.01" stop-color="#9d1e36"/><stop offset="0.98" stop-color="#b8363a"/></linearGradient><linearGradient id="Áåçûìÿííûé_ãðàäèåíò_50" x1="15285.81" y1="747.7" x2="15231.88" y2="788.41" gradientTransform="matrix(-1, 0.03, 0.03, 1, 15236.29, -1202.81)" gradientUnits="userSpaceOnUse"><stop offset="0.02" stop-color="#fff"/><stop offset="0.04" stop-color="#f9f9f9"/><stop offset="0.4" stop-color="#909090"/><stop offset="0.69" stop-color="#424242"/><stop offset="0.89" stop-color="#121212"/><stop offset="0.99"/></linearGradient></defs><g class="cls-1"><g id="Layer_2" data-name="Layer 2"><g id="game"><ellipse class="cls-2" cx="64.6" cy="86.73" rx="60.9" ry="2.08"/><path class="cls-3" d="M15.09,10S12.71,1.68,13.9.49s9.53,0,9.53,1.19-2.38,10.73-2.38,10.73Z"/><path class="cls-4" d="M19.74,9.13c2.36.36,4.19,1.21,4.09,1.9s-2.09,1-4.45.6-4.2-1.22-4.1-1.91S17.38,8.77,19.74,9.13Z"/><path class="cls-5" d="M23.53,1.38a.16.16,0,0,1,0,.07c.4.88-.46,6.07-.93,8.71-.05.29-.1.55-.14.77a7.49,7.49,0,0,1-3.77.14,9.82,9.82,0,0,1-3.05-.91c0-.32-1-7.52-1-8.62,0-.12,0-.21,0-.26C14.77.56,22.86.56,23.53,1.38Z"/><path class="cls-6" d="M23.53,1.38a.16.16,0,0,1,0,.07,2.5,2.5,0,0,1-1.78,1.63,5.5,5.5,0,0,1-1.73.29,6.71,6.71,0,0,1-1.17-.08h-.08A10.7,10.7,0,0,1,15.2,2a4.06,4.06,0,0,1-.48-.43c0-.12,0-.21,0-.26C14.77.56,22.86.56,23.53,1.38Z"/><path class="cls-7" d="M21,2.63c.52.08.9.4.85.72s-.5.52-1,.44-.9-.41-.86-.73S20.48,2.55,21,2.63Z"/><path class="cls-8" d="M16,3a6.79,6.79,0,0,0,2.72,1L18,10.62l-1.73-.26Z"/><path class="cls-9" d="M23.38,3.37a6.53,6.53,0,0,1-2.84.71L20.38,11l1.75,0Z"/><path class="cls-10" d="M33,36.4V61c-.1,1.76-.22,3.54-.37,5.28-.06.57-.11,1.14-.17,1.72s-.1,1-.16,1.54c-.16,1.41-.33,2.77-.53,4.09-.08.6-.18,1.18-.27,1.75-.2,1.17-.42,2.28-.67,3.31-.68,2.93-1.51,6.9-2.57,8.42-.17.23.15-2.2,0-2L13.9,86.28,5.56,87a6.15,6.15,0,0,1-.44-.68C2.48,81.91,1.1,71.19.46,61,0,53.42-.08,46.12.08,41.9c0-.11,0-.22,0-.33,0-.6.05-1.19.07-1.75v0c0-.56.06-1.11.09-1.63C1,32.94,5.66,28.52,12,26.92a15.34,15.34,0,0,1,1.93-.39c.22,0,.46-.08.69-.1L14.5,24.5l-.35-7.85H14.1L14,15.3l-.93,0-.4-6.45,10.37.5-.88,6.18-1,0L20.91,18h0l-1,8.49.17,0a18.39,18.39,0,0,1,5.51,1.63,14.85,14.85,0,0,1,4.77,3.49,12.23,12.23,0,0,1,1,1.27,11.17,11.17,0,0,1,1.09,2c0,.09.08.21.12.32a1.58,1.58,0,0,1,.09.26l0,.07A8.89,8.89,0,0,1,33,36.4Z"/><polygon class="cls-11" points="22.41 14.72 22.36 15.26 22.33 15.47 22.33 15.48 22.12 17.42 22.06 17.95 21.09 26.44 21.05 26.86 21.03 27.03 21 27.35 20.94 27.91 17.76 28.25 17.47 28.28 16.3 28.41 15.87 28.46 15.87 28.23 15.8 26.86 15.78 26.43 15.7 24.5 15.34 16.65 15.3 16.11 15.27 15.3 15.27 15.16 15.26 15.08 15.23 14.55 16.38 14.58 22.41 14.72"/><polygon class="cls-12" points="17.98 16.56 17.37 27.32 16.32 27.29 15.94 16.51 17.98 16.56"/><polygon class="cls-13" points="22.4 15.26 22.38 15.47 22.38 15.48 22.11 17.95 22.06 17.95 17.95 17.16 17.54 17.08 15.95 16.77 15.68 16.72 15.34 16.65 15.29 16.65 15.23 15.3 15.23 15.16 15.22 15.08 15.26 15.08 16.36 15.1 22.36 15.26 22.4 15.26"/><polygon class="cls-14" points="24.27 9.33 23.39 15.51 22.38 15.48 22.33 15.48 15.27 15.3 15.23 15.3 14.3 15.28 13.71 9 24.27 9.33"/><polygon class="cls-12" points="21.57 9.53 16.5 9.61 16.37 15.19 14.37 15.14 14.08 9.16 21.57 9.53"/><path class="cls-15" d="M34.57,45.48v2c0,1.35,0,2.81-.06,4.32,0,1,0,2.11-.09,3.19-.05,1.95-.15,3.95-.27,6-.09,1.76-.21,3.54-.37,5.28-.06.57-.11,1.14-.17,1.72s-.1,1-.16,1.54c-.16,1.41-.32,2.77-.53,4.09-.08.6-.18,1.18-.27,1.75-.2,1.17-.42,2.28-.67,3.31-.68,2.93-1.51,6.9-2.57,8.42a7,7,0,0,1-.51.65l-15.81-.65L10.63,87l15.73.26.05-.06c2.07-2.33,3.4-9.39,4.26-15.9.23-1.73.42-3.54.59-5.38.11-1.32.21-2.66.31-4,.1-1.68.19-3.37.26-5,0-.26,0-.54,0-.8,0-.06,0-.12,0-.17,0-.72.06-1.45.07-2.18.05-1.35.08-2.68.09-4,0-.74,0-1.46,0-2.16V44.69c0-1.39,0-2.64-.06-3.7,0-.47,0-.88-.05-1.26,0-.18,0-.36,0-.53v-.07c0-.46-.05-.9-.07-1.33,0-.15,0-.28,0-.41a1,1,0,0,0,0-.17c0-.16-.06-.33-.09-.48a8.72,8.72,0,0,0-.34-1.21,2,2,0,0,0-.14-.39,11.85,11.85,0,0,0-.82-1.68,13.43,13.43,0,0,0-4.17-4.19,17.39,17.39,0,0,0-5-2.21A1,1,0,0,0,21,27a19,19,0,0,0-3.61-.61c-.34,0-.7,0-1.06-.05l.21,0a7.93,7.93,0,0,1,.87-.06h.13a20.47,20.47,0,0,1,3.52.16l.17,0a18.54,18.54,0,0,1,5.52,1.63,14.91,14.91,0,0,1,4.76,3.49,12.23,12.23,0,0,1,1,1.27,11.17,11.17,0,0,1,1.09,2,2.38,2.38,0,0,1,.12.32,1.58,1.58,0,0,1,.09.26l0,.07a6.82,6.82,0,0,1,.26.88c.07.34.14.67.19,1,0,.56.07,1.14.1,1.76v.06c0,.16,0,.34,0,.52,0,.34,0,.69,0,1.06,0,.55,0,1.13.05,1.77C34.56,43.47,34.57,44.44,34.57,45.48Z"/><path class="cls-16" d="M32,44.69V47.6c0,.7,0,1.42,0,2.16,0,1.27,0,2.6-.09,4,0,.73,0,1.46-.07,2.18,0,0,0,.11,0,.17,0,.26,0,.54,0,.8-.07,1.67-.16,3.36-.26,5-.1,1.35-.2,2.69-.31,4-.17,1.84-.36,3.65-.59,5.38-.86,6.51-2.19,13.57-4.26,15.9l-.05.06-13.27-.16L6.75,87a8,8,0,0,1-.44-.68C3.67,81.91,2.29,71.19,1.65,61c-.48-7.56-.54-14.86-.38-19.08,0-.11,0-.22,0-.33,0-.6.05-1.19.07-1.75v0c0-.56.06-1.11.1-1.63.7-5.23,5.41-9.65,11.71-11.25a15.34,15.34,0,0,1,1.93-.39c.22,0,.46-.08.69-.1l.51-.05h.07c.36,0,.72,0,1.06.05A19,19,0,0,1,21,27a1,1,0,0,1,.17,0,17.39,17.39,0,0,1,5,2.21,13.43,13.43,0,0,1,4.17,4.19,11.85,11.85,0,0,1,.82,1.68,2,2,0,0,1,.14.39,8.72,8.72,0,0,1,.34,1.21c0,.15.07.32.09.48a1,1,0,0,1,0,.17c0,.13,0,.26,0,.41,0,.43.05.87.07,1.33v.07c0,.17,0,.35,0,.53,0,.38,0,.79.05,1.26C32,42.05,32,43.3,32,44.69Z"/><path class="cls-17" d="M7.77,83.83l18.6-.7c3.88-4.61,5.75-24,5.75-35.53,0,0-21.72-.53-28-.26C4.24,58.71,4.3,78.82,7.77,83.83Z"/><path class="cls-18" d="M3.15,36.93l7.07-.26c1.57-4.74,4-6.44,6.39-8.53C10.19,28.69,4.92,32.27,3.15,36.93Z"/><path class="cls-19" d="M9.45,42.78h.2A.44.44,0,0,0,9.45,42.78Z"/><path class="cls-20" d="M7.5,84.49l10.65-.4c-8.38-.42-9-8.08-9.65-24.15C8,47.89,8.78,41,10.22,36.67c1.57-4.74,4-6.44,6.39-8.53-6.42.55-11.69,4.13-13.46,8.79a9.25,9.25,0,0,0-.57,2.2c0,.48-.06,1-.09,1.52v0c0,.61-.06,1.25-.08,1.91C2.06,52.12,2.9,78.3,7.5,84.49Z"/></g></g></g></svg>