<svg xmlns="http://www.w3.org/2000/svg" xmlns:xlink="http://www.w3.org/1999/xlink" viewBox="0 0 13.99 46.98"><defs><style>.cls-1{isolation:isolate;}.cls-2{fill:url(#Áåçûìÿííûé_ãðàäèåíò_134);}.cls-3{fill:url(#Áåçûìÿííûé_ãðàäèåíò_423);}.cls-4{fill:#ff9a45;}.cls-5{fill:#ce783e;}.cls-6{fill:#68134c;opacity:0.24;}.cls-6,.cls-7{mix-blend-mode:multiply;}.cls-7{fill:#479898;opacity:0.6;}.cls-8{fill:url(#Áåçûìÿííûé_ãðàäèåíò_346);}.cls-9{fill:#fff;}.cls-10{fill:url(#Áåçûìÿííûé_ãðàäèåíò_134-2);}</style><radialGradient id="Áåçûìÿííûé_ãðàäèåíò_134" cx="12.36" cy="25.17" r="20.87" gradientUnits="userSpaceOnUse"><stop offset="0" stop-color="#66d8a6"/><stop offset="0.99" stop-color="#479898"/></radialGradient><linearGradient id="Áåçûìÿííûé_ãðàäèåíò_423" x1="5.01" y1="7.88" x2="8.41" y2="3.49" gradientUnits="userSpaceOnUse"><stop offset="0" stop-color="#8c3832"/><stop offset="1" stop-color="#ac4a31"/></linearGradient><radialGradient id="Áåçûìÿííûé_ãðàäèåíò_346" cx="11.6" cy="31.88" r="13.16" gradientUnits="userSpaceOnUse"><stop offset="0" stop-color="#3887c2"/><stop offset="1" stop-color="#612492"/></radialGradient><radialGradient id="Áåçûìÿííûé_ãðàäèåíò_134-2" cx="9.37" cy="6.57" r="11.29" xlink:href="#Áåçûìÿííûé_ãðàäèåíò_134"/></defs><g class="cls-1"><g id="Layer_2" data-name="Layer 2"><g id="game"><path class="cls-2" d="M13.89,46.66a4.1,4.1,0,0,1-1.2.19c-.55,0-1.25.08-2,.1-4,.11-10.15-.06-10.56-.7S1.56,21.43,2.18,14.1c.07-.81.12-1.42.15-1.76l0-.34,8.15-.12.06.46c0,.37.11,1,.2,1.73.4,3.29,1.17,9.81,1.85,16.16,0,.21.05.41.07.62.18,1.7.36,3.38.52,5,.35,3.44.62,6.48.73,8.46A6.82,6.82,0,0,1,13.89,46.66Z"/><path class="cls-3" d="M10.39,1.93a.43.43,0,0,1,0,.16L9.94,6.78,9.83,8l-.05.56-.07.72-.12,1.33-.05.48,0,.49-3.7-.29L4.67,11.2l-1-.08v0c0-.1-.07-.45-.16-.95v0c0-.19-.07-.41-.11-.65S3.27,9,3.23,8.8l-.06-.45c-.12-.76-.25-1.61-.37-2.44a36.62,36.62,0,0,1-.41-3.72V1.94c0-.14,0-.23.07-.25A52.53,52.53,0,0,1,9.1.81C9.86,1.16,10.35,1.56,10.39,1.93Z"/><path class="cls-4" d="M5.74,2.09c0,.32-.6.59-1.33.59s-1.32-.27-1.32-.59.6-.59,1.32-.59S5.74,1.76,5.74,2.09Z"/><path class="cls-5" d="M9.35,5.07a.7.7,0,0,1-.56.35C8.36,5.42,8,4.9,8,4.27a1.27,1.27,0,0,1,.43-1,1.45,1.45,0,0,0-.23.8c0,.63.35,1.15.79,1.15A.61.61,0,0,0,9.35,5.07Z"/><path class="cls-6" d="M9.57,4.27a1.45,1.45,0,0,1-.22.8A.61.61,0,0,1,9,5.2c-.44,0-.79-.52-.79-1.15a1.45,1.45,0,0,1,.23-.8.55.55,0,0,1,.35-.12C9.22,3.13,9.57,3.64,9.57,4.27Z"/><path class="cls-6" d="M7.17,7.08c0,1.64-.86,4.5-2,4.5S2.8,5.75,2.8,4.11s2.45-.73,3.57-.73S7.17,5.44,7.17,7.08Z"/><path class="cls-6" d="M9.94,6.78,9.83,8l-.05.56-.07.72L7.6,9.43l-.85.06L4,9.7H3.79l-.32-.16-.13-.08c0-.21-.07-.43-.11-.67l-.06-.45c-.12-.76-.25-1.61-.37-2.44L3,6.06A8.41,8.41,0,0,0,7,7.12h.17A8.76,8.76,0,0,0,9.94,6.78Z"/><path class="cls-7" d="M11.94,45.08c-.58.4-9.49.43-9.91-.35-.29-.52.58-15.36,1.16-24.73.27-4.36.48-7.54.48-7.54l5.85-.1s.31,3.33.71,7.85C11.08,29.81,12.34,44.81,11.94,45.08Z"/><path class="cls-4" d="M10.39,1.93a.43.43,0,0,1,0,.16c-.15.48-2.58.38-4.73.2C4.66,2.2,3.73,2.1,3.11,2l-.72-.09H2.33S2.35,0,5.12,0a9.94,9.94,0,0,1,4,.81C9.86,1.16,10.35,1.56,10.39,1.93Z"/><path class="cls-8" d="M11.94,45.08c-.58.4-9.49.43-9.91-.35-.29-.52.58-15.36,1.16-24.73l7,.21C11.08,29.81,12.34,44.81,11.94,45.08Z"/><path class="cls-7" d="M2.39,15S.06,45.81.91,46.25s6.14.38,6.14.38L5.3,15.4Z"/><polygon class="cls-9" points="9.6 15.81 11.4 45.18 13.19 45.18 10.39 15.81 9.6 15.81"/><path class="cls-7" d="M11,11.09s0,.47-.11,1.25c0,.47-.09,1.06-.14,1.73,0,0,0,.08,0,.12l-1.08-.12c-1-.09-2.06-.16-3.08-.17s-2.06,0-3,.09l-1.39.11H2.12c-.05-.69-.1-1.29-.14-1.77,0-.21,0-.4-.05-.56,0-.44-.06-.69-.06-.69Z"/><polygon class="cls-10" points="12.28 7.87 11.73 12.34 1.16 12.34 0.91 8.47 3.17 8.35 3.54 8.33 7.07 8.14 9.83 8 12.28 7.87"/><polygon class="cls-9" points="7.52 8.85 7.76 10.61 11.2 10.61 11.73 8.3 7.52 8.85"/><polygon class="cls-7" points="1.22 8.8 1.64 11.78 3.38 11.78 3.5 8.8 1.22 8.8"/></g></g></g></svg>