<svg xmlns="http://www.w3.org/2000/svg" xmlns:xlink="http://www.w3.org/1999/xlink" viewBox="0 0 181.79 267.54"><defs><style>.cls-1{isolation:isolate;}.cls-2,.cls-45,.cls-5{opacity:0.4;}.cls-2,.cls-33,.cls-34,.cls-35,.cls-36,.cls-37,.cls-38,.cls-39,.cls-40,.cls-41,.cls-42,.cls-43,.cls-44,.cls-45,.cls-5{mix-blend-mode:color-dodge;}.cls-2{fill:url(#Áåçûìÿííûé_ãðàäèåíò_377);}.cls-29,.cls-3,.cls-30,.cls-31,.cls-32,.cls-4{mix-blend-mode:screen;}.cls-3{fill:url(#Áåçûìÿííûé_ãðàäèåíò_384);}.cls-4{fill:url(#Áåçûìÿííûé_ãðàäèåíò_384-2);}.cls-5{fill:url(#Áåçûìÿííûé_ãðàäèåíò_180);}.cls-6{fill:#dddbe3;}.cls-7{fill:url(#Áåçûìÿííûé_ãðàäèåíò_100);}.cls-8,.cls-9{fill:#60458c;}.cls-20,.cls-8{opacity:0.2;}.cls-15,.cls-20,.cls-21,.cls-26,.cls-8,.cls-9{mix-blend-mode:multiply;}.cls-15,.cls-21,.cls-34,.cls-36,.cls-37,.cls-39,.cls-41,.cls-43,.cls-44,.cls-9{opacity:0.5;}.cls-10{fill:url(#Áåçûìÿííûé_ãðàäèåíò_100-2);}.cls-11{fill:#9e9889;}.cls-11,.cls-22{mix-blend-mode:soft-light;}.cls-12{fill:#9e98bb;}.cls-13{fill:#009f91;}.cls-14{fill:url(#Áåçûìÿííûé_ãðàäèåíò_254);}.cls-15{fill:#8e4566;}.cls-16{fill:url(#Áåçûìÿííûé_ãðàäèåíò_139);}.cls-17{fill:url(#Áåçûìÿííûé_ãðàäèåíò_139-2);}.cls-18{fill:url(#Áåçûìÿííûé_ãðàäèåíò_139-3);}.cls-19,.cls-20,.cls-21,.cls-26{fill:#7d6fa5;}.cls-22{fill:#fff8d9;opacity:0.7;}.cls-23{fill:url(#Áåçûìÿííûé_ãðàäèåíò_139-4);}.cls-24{fill:url(#Áåçûìÿííûé_ãðàäèåíò_139-5);}.cls-25{fill:#edebf7;}.cls-26{opacity:0.3;}.cls-27{fill:url(#Áåçûìÿííûé_ãðàäèåíò_139-6);}.cls-28{fill:url(#Áåçûìÿííûé_ãðàäèåíò_139-7);}.cls-29{fill:url(#Áåçûìÿííûé_ãðàäèåíò_406);}.cls-30{fill:url(#Áåçûìÿííûé_ãðàäèåíò_406-2);}.cls-31{fill:url(#Áåçûìÿííûé_ãðàäèåíò_178);}.cls-32{fill:url(#Áåçûìÿííûé_ãðàäèåíò_178-2);}.cls-33,.cls-34,.cls-35,.cls-36,.cls-37,.cls-38,.cls-39,.cls-40,.cls-41,.cls-42,.cls-43,.cls-44,.cls-45{fill-rule:evenodd;}.cls-33{fill:url(#Áåçûìÿííûé_ãðàäèåíò_149);}.cls-34{fill:url(#Áåçûìÿííûé_ãðàäèåíò_149-2);}.cls-35{fill:url(#Áåçûìÿííûé_ãðàäèåíò_149-3);}.cls-36{fill:url(#Áåçûìÿííûé_ãðàäèåíò_149-4);}.cls-37{fill:url(#Áåçûìÿííûé_ãðàäèåíò_149-5);}.cls-38{fill:url(#Áåçûìÿííûé_ãðàäèåíò_149-6);}.cls-39{fill:url(#Áåçûìÿííûé_ãðàäèåíò_149-7);}.cls-40{fill:url(#Áåçûìÿííûé_ãðàäèåíò_149-8);}.cls-41{fill:url(#Áåçûìÿííûé_ãðàäèåíò_149-9);}.cls-42{fill:url(#Áåçûìÿííûé_ãðàäèåíò_149-10);}.cls-43{fill:url(#Áåçûìÿííûé_ãðàäèåíò_149-11);}.cls-44{fill:url(#Áåçûìÿííûé_ãðàäèåíò_149-12);}.cls-45{fill:url(#Áåçûìÿííûé_ãðàäèåíò_377-2);}</style><radialGradient id="Áåçûìÿííûé_ãðàäèåíò_377" cx="420.4" cy="53.76" r="45.56" gradientTransform="matrix(1.04, 0, 0, 1.17, -366.48, 67.82)" gradientUnits="userSpaceOnUse"><stop offset="0" stop-color="#73ddff"/><stop offset="0.2" stop-color="#58aac4"/><stop offset="0.49" stop-color="#336271"/><stop offset="0.73" stop-color="#172d34"/><stop offset="0.91" stop-color="#060c0e"/><stop offset="1"/></radialGradient><radialGradient id="Áåçûìÿííûé_ãðàäèåíò_384" cx="535.4" cy="57.81" r="11.47" gradientTransform="matrix(0.05, -1.04, 1.17, 0.05, -12.57, 564.19)" gradientUnits="userSpaceOnUse"><stop offset="0" stop-color="#fd7e00"/><stop offset="0.05" stop-color="#e06f00"/><stop offset="0.15" stop-color="#ac5600"/><stop offset="0.26" stop-color="#7e3f00"/><stop offset="0.37" stop-color="#572b00"/><stop offset="0.48" stop-color="#371c00"/><stop offset="0.59" stop-color="#1f0f00"/><stop offset="0.71" stop-color="#0e0700"/><stop offset="0.84" stop-color="#030200"/><stop offset="1"/></radialGradient><radialGradient id="Áåçûìÿííûé_ãðàäèåíò_384-2" cx="476.2" cy="61.89" r="11.47" xlink:href="#Áåçûìÿííûé_ãðàäèåíò_384"/><radialGradient id="Áåçûìÿííûé_ãðàäèåíò_180" cx="458.36" cy="138.21" r="9.31" gradientTransform="matrix(0.05, -1.04, 1.17, 0.05, -12.57, 564.19)" gradientUnits="userSpaceOnUse"><stop offset="0" stop-color="#73ddff"/><stop offset="0.04" stop-color="#69cbea"/><stop offset="0.15" stop-color="#519cb4"/><stop offset="0.26" stop-color="#3b7284"/><stop offset="0.37" stop-color="#294f5b"/><stop offset="0.49" stop-color="#1a323a"/><stop offset="0.61" stop-color="#0f1c21"/><stop offset="0.73" stop-color="#060c0e"/><stop offset="0.86" stop-color="#020304"/><stop offset="1"/></radialGradient><radialGradient id="Áåçûìÿííûé_ãðàäèåíò_100" cx="38.02" cy="180.12" r="75.42" gradientUnits="userSpaceOnUse"><stop offset="0" stop-color="#7d7767"/><stop offset="0.19" stop-color="#6a586a"/><stop offset="0.34" stop-color="#5e466b"/><stop offset="0.84" stop-color="#47295e"/></radialGradient><radialGradient id="Áåçûìÿííûé_ãðàäèåíò_100-2" cx="67.26" cy="133.54" r="94.01" xlink:href="#Áåçûìÿííûé_ãðàäèåíò_100"/><radialGradient id="Áåçûìÿííûé_ãðàäèåíò_254" cx="77.07" cy="154.22" r="18.01" gradientUnits="userSpaceOnUse"><stop offset="0" stop-color="#00ff91"/><stop offset="1" stop-color="#00c7ef"/></radialGradient><radialGradient id="Áåçûìÿííûé_ãðàäèåíò_139" cx="53.41" cy="239.06" r="33.67" gradientUnits="userSpaceOnUse"><stop offset="0" stop-color="#dddbe3"/><stop offset="1" stop-color="#9f8bcc"/></radialGradient><radialGradient id="Áåçûìÿííûé_ãðàäèåíò_139-2" cx="42.51" cy="238.43" r="33.87" xlink:href="#Áåçûìÿííûé_ãðàäèåíò_139"/><radialGradient id="Áåçûìÿííûé_ãðàäèåíò_139-3" cx="52.6" cy="254.57" r="56.06" xlink:href="#Áåçûìÿííûé_ãðàäèåíò_139"/><radialGradient id="Áåçûìÿííûé_ãðàäèåíò_139-4" cx="23.98" cy="189.26" r="55.64" xlink:href="#Áåçûìÿííûé_ãðàäèåíò_139"/><radialGradient id="Áåçûìÿííûé_ãðàäèåíò_139-5" cx="57.1" cy="240.32" r="51.74" xlink:href="#Áåçûìÿííûé_ãðàäèåíò_139"/><radialGradient id="Áåçûìÿííûé_ãðàäèåíò_139-6" cx="102.4" cy="264.92" r="18.84" xlink:href="#Áåçûìÿííûé_ãðàäèåíò_139"/><radialGradient id="Áåçûìÿííûé_ãðàäèåíò_139-7" cx="109.38" cy="253.62" r="12.5" xlink:href="#Áåçûìÿííûé_ãðàäèåíò_139"/><linearGradient id="Áåçûìÿííûé_ãðàäèåíò_406" x1="115.72" y1="36.48" x2="115.73" y2="36.44" gradientUnits="userSpaceOnUse"><stop offset="0" stop-color="#005d07"/><stop offset="0.61" stop-color="#002203"/><stop offset="1"/></linearGradient><linearGradient id="Áåçûìÿííûé_ãðàäèåíò_406-2" x1="116.12" y1="36.58" x2="116.26" y2="36.27" xlink:href="#Áåçûìÿííûé_ãðàäèåíò_406"/><linearGradient id="Áåçûìÿííûé_ãðàäèåíò_178" x1="62.89" y1="121.84" x2="126.09" y2="-11.19" gradientUnits="userSpaceOnUse"><stop offset="0" stop-color="#00c288"/><stop offset="0.36" stop-color="#007753"/><stop offset="0.8" stop-color="#002218"/><stop offset="1"/></linearGradient><linearGradient id="Áåçûìÿííûé_ãðàäèåíò_178-2" x1="72.25" y1="126.29" x2="135.45" y2="-6.74" xlink:href="#Áåçûìÿííûé_ãðàäèåíò_178"/><radialGradient id="Áåçûìÿííûé_ãðàäèåíò_149" cx="262.25" cy="48.48" r="2.36" gradientTransform="translate(247.19 -77.38) rotate(124.74)" gradientUnits="userSpaceOnUse"><stop offset="0" stop-color="#68a5fb"/><stop offset="0.26" stop-color="#67a3f9"/><stop offset="0.4" stop-color="#649ef1"/><stop offset="0.51" stop-color="#5e95e3"/><stop offset="0.6" stop-color="#5689d0"/><stop offset="0.69" stop-color="#4c79b7"/><stop offset="0.77" stop-color="#3f6499"/><stop offset="0.84" stop-color="#304d74"/><stop offset="0.91" stop-color="#1f314a"/><stop offset="0.97" stop-color="#0c121c"/><stop offset="1"/></radialGradient><radialGradient id="Áåçûìÿííûé_ãðàäèåíò_149-2" cx="199.33" cy="66.88" r="0.85" xlink:href="#Áåçûìÿííûé_ãðàäèåíò_149"/><radialGradient id="Áåçûìÿííûé_ãðàäèåíò_149-3" cx="250.48" cy="36.33" r="1.09" xlink:href="#Áåçûìÿííûé_ãðàäèåíò_149"/><radialGradient id="Áåçûìÿííûé_ãðàäèåíò_149-4" cx="255.7" cy="54.34" r="1.09" xlink:href="#Áåçûìÿííûé_ãðàäèåíò_149"/><radialGradient id="Áåçûìÿííûé_ãðàäèåíò_149-5" cx="234.04" cy="81.59" r="1.09" xlink:href="#Áåçûìÿííûé_ãðàäèåíò_149"/><radialGradient id="Áåçûìÿííûé_ãðàäèåíò_149-6" cx="267.6" cy="3.59" r="1.09" xlink:href="#Áåçûìÿííûé_ãðàäèåíò_149"/><radialGradient id="Áåçûìÿííûé_ãðàäèåíò_149-7" cx="224.3" cy="85.17" r="1.09" xlink:href="#Áåçûìÿííûé_ãðàäèåíò_149"/><radialGradient id="Áåçûìÿííûé_ãðàäèåíò_149-8" cx="217.96" cy="50.16" r="2.46" xlink:href="#Áåçûìÿííûé_ãðàäèåíò_149"/><radialGradient id="Áåçûìÿííûé_ãðàäèåíò_149-9" cx="216.71" cy="55.88" r="0.82" xlink:href="#Áåçûìÿííûé_ãðàäèåíò_149"/><radialGradient id="Áåçûìÿííûé_ãðàäèåíò_149-10" cx="357.67" cy="117.91" r="3.85" gradientTransform="matrix(0.86, 0.51, -0.51, 0.86, -165.15, -146.45)" xlink:href="#Áåçûìÿííûé_ãðàäèåíò_149"/><radialGradient id="Áåçûìÿííûé_ãðàäèåíò_149-11" cx="322.16" cy="122.51" r="6.56" gradientTransform="matrix(0.86, 0.51, -0.51, 0.86, -165.15, -146.45)" xlink:href="#Áåçûìÿííûé_ãðàäèåíò_149"/><radialGradient id="Áåçûìÿííûé_ãðàäèåíò_149-12" cx="172.84" cy="110.46" r="2.13" gradientTransform="matrix(0.14, 0.99, -0.99, 0.14, 165.14, -174.72)" xlink:href="#Áåçûìÿííûé_ãðàäèåíò_149"/><radialGradient id="Áåçûìÿííûé_ãðàäèåíò_377-2" cx="230.33" cy="97.67" r="2.63" gradientTransform="translate(247.19 -77.38) rotate(124.74)" xlink:href="#Áåçûìÿííûé_ãðàäèåíò_377"/></defs><g class="cls-1"><g id="Layer_2" data-name="Layer 2"><g id="game"><ellipse class="cls-2" cx="69.99" cy="130.97" rx="47.31" ry="53.52" transform="translate(-63.98 195.05) rotate(-87.44)"/><path class="cls-3" d="M80.59,0C88,.35,93.81,5.94,93.52,12.51S87,24.13,79.53,23.8,66.31,17.88,66.6,11.31,73.16-.32,80.59,0Z"/><path class="cls-4" d="M82.63,61.63c7.44.33,13.22,5.93,12.93,12.5S89,85.75,81.57,85.42s-13.22-5.93-12.92-12.5S75.2,61.3,82.63,61.63Z"/><path class="cls-5" d="M171.28,86.37c6,.27,10.74,4.81,10.5,10.15s-5.33,9.44-11.36,9.17-10.74-4.81-10.5-10.15S165.25,86.1,171.28,86.37Z"/><polygon class="cls-6" points="9.47 182.84 0 184.41 24.14 192.09 133.66 188.65 138.95 184.41 131.09 180.46 9.47 182.84"/><polygon class="cls-6" points="33.7 233.86 27.96 234.81 42.61 239.47 109.04 237.38 112.25 234.81 107.49 232.41 33.7 233.86"/><path class="cls-7" d="M136.24,196.13c-.23.84-.51,1.71-.82,2.61a76.09,76.09,0,0,1-7.65,15.52c-7,11.09-17.73,22.33-31.32,27.74a45.6,45.6,0,0,1-16,3.3H60.13C30.94,245.09,10.8,216.72,4.58,199q-.51-1.48-.9-2.85a14.31,14.31,0,0,1,0-7.95c3.83-13.41,25.08-23.12,25.08-23.12v-3.37H24.65s-1.81-14.5-1.29-15.28c.16-.24,5.41-.45,12.59-.64,7.81-.2,17.91-.36,26.23-.47l7.78-.1,7.78.1c16,.22,38.49.61,38.82,1.11a1,1,0,0,1,.08.42c.16,2.51-1.33,14.5-1.37,14.85h-4.15v3.37a71.68,71.68,0,0,1,7,3.79c6.8,4.18,16.42,11.47,18.36,20.26A14.09,14.09,0,0,1,136.24,196.13Z"/><path class="cls-8" d="M134.14,196.11c-4.89,17.23-28,46.83-58.48,47.5-13.85-2-17.79-2.47-8.46-4.13,15.85-2.81,29.55-14.12,36.66-25.38l3.74-2.6.5-6.39A20.1,20.1,0,0,0,109,199v0c1-.5,2.07-1.28,1.9-2.33-.13-.78-1.28-2-2.65-3.24-3-11.64-14.57-22.3-33.94-26.42l-1.13-.05h-.65L28.8,165.06v-3.37l58.72,3.67-.29-18.53h29.41c.17,2.55-1.37,14.86-1.37,14.86h-4.15v3.37s.42.19,1.15.55c1.22.61,3.33,1.72,5.81,3.24C126.62,174.1,137.5,184.25,134.14,196.11Z"/><path class="cls-9" d="M111.12,165.06s4.2,2.22,4.93,2.59c-4.56,1.92-19.09,1.79-42.84,1.79a240.43,240.43,0,0,1-44.41-4.38v-3.37a323,323,0,0,0,41.31,2.37c30.81-.31,45.16-2.37,45.16-2.37h-4.15Z"/><path class="cls-10" d="M115.27,161.68h0s-1.44.22-4.15.52a354,354,0,0,1-42,1.86c-28.46-.3-40.32-2.38-40.32-2.38H24.65s-1.81-14.5-1.29-15.28c.16-.24,5.41-.45,12.59-.64,26.83.12,79.26.38,80.61.64C118.36,146.75,115.35,161.3,115.27,161.68Z"/><polygon class="cls-11" points="25.89 146.83 27.89 156.77 31.64 160.52 67.87 163.47 63.19 160.27 63.86 147.42 25.89 146.83"/><path class="cls-11" d="M30.14,168.84s-16.36,8.68-17.69,15.71,0,8.4,0,8.4,3.5-.13,4,1.33,3.13,3.34,3.13,3.34,4.71-9.8,9.22-15.93S39.16,165.46,30.14,168.84Z"/><path class="cls-11" d="M34.15,184.55c-3.49,6.79-1.34,6-.84,7.1s.61-.91,1.56-.75,3.28-3.56,3.28-3.56S35.17,182.56,34.15,184.55Z"/><path class="cls-11" d="M9.21,188.77c-1.06,2.07-.41,1.84-.25,2.17s.18-.28.47-.23,1-1.09,1-1.09S9.52,188.17,9.21,188.77Z"/><path class="cls-11" d="M18.7,201c-1.37,2.68-.52,2.37-.33,2.8s.24-.36.62-.3,1.29-1.4,1.29-1.4S19.1,200.2,18.7,201Z"/><path class="cls-11" d="M14.28,207.69c4.18,1.86,2.77,0,2.87-.64s-.64-.38-1.09-1.29-3-2.31-3-2.31S13.06,207.14,14.28,207.69Z"/><path class="cls-8" d="M117.14,201.78c-7.22,11-3.39,10.07-2.73,12s1.21-1.46,2.81-1,6.28-5.51,6.28-5.51S119.26,198.56,117.14,201.78Z"/><path class="cls-9" d="M119.94,180.38c-1.11-2-1.29-1.37-1.65-1.43s.13.31-.08.52.34,1.44.34,1.44S120.26,181,119.94,180.38Z"/><path class="cls-9" d="M124.2,185.68c-2.63-4.84-3-3.24-3.9-3.39s.3.74-.19,1.23.79,3.42.79,3.42S125,187.1,124.2,185.68Z"/><path class="cls-8" d="M101.46,173.9c-3.9,2.4-1.59,2.26-1.09,2.73s.67-.32,1.67-.18,3.59-1.15,3.59-1.15S102.6,173.19,101.46,173.9Z"/><path class="cls-11" d="M19.87,219.32c.36,5.59,6.87,4,7,5.09s1.89-.81,1.89-.81S19.51,213.61,19.87,219.32Z"/><path class="cls-11" d="M44.37,226.18a17.76,17.76,0,0,0,5.08,3.06l-3.14-3.91-3.23-1.52-2-4.31S39.44,221.86,44.37,226.18Z"/><path class="cls-8" d="M127.77,214.26c-7,11.09-17.73,22.33-31.32,27.74H71.52l-29.36-1.79-1.42-4.11S36,229,36,228.3s1.11.33,1.11.33S48.06,235.75,49,234s3.89-.44,3.89-.44,16,6.79,23.37.33c4.19-3.68,3.58-3.78,3.58-3.78l5.55-2.86,9.17-2,1.85.27,11.46-7.8S119.65,217.6,127.77,214.26Z"/><path class="cls-11" d="M82.24,223.24c5.45-2.9,9.32-12.14,2.41-11.58a12.43,12.43,0,0,0-2.17.36,10.87,10.87,0,0,1,4.08-1.08C94.27,210.32,88.58,221.85,82.24,223.24Z"/><path class="cls-9" d="M83.28,222.6a10.4,10.4,0,0,1-1,.64c-1.59-.59-2.52-.45-4-1.81-.19-.17.41-7,4.26-9.41l.48-.12c-4.43,3.07-4.2,9.14-4,9.3A5.21,5.21,0,0,0,83.28,222.6Z"/><path class="cls-8" d="M83.28,222.6a5.21,5.21,0,0,1-4.34-1.4c-.18-.16-.41-6.23,4-9.3a14,14,0,0,1,1.69-.24C91.11,211.14,88.15,219.18,83.28,222.6Z"/><path class="cls-8" d="M101,209.62c0,2-1.94,3.18-3.39,3.31-1.19.11-2-.5-1.28-2,1.25-2.45,2.77-3.75,3.73-3.5C100.66,207.58,101,208.28,101,209.62Z"/><path class="cls-9" d="M30.8,234.81s23.57,2.11,36.84,2.11S110,234.81,110,234.81l-1.25,1.13L67.7,242.49l-36.56-3.84Z"/><path class="cls-11" d="M101.53,209.62c0,2.21-2.43,3.46-3.89,3.31,1.45-.13,3.39-1.34,3.39-3.31,0-1.34-.37-2-.94-2.18C100.93,207.25,101.53,207.92,101.53,209.62Z"/><path class="cls-8" d="M100.09,151.34H92.32l-2.58,11.13s24.59-.56,25-1.22,1.79-13.19,1.79-13.19l-10.93,1Z"/><path class="cls-12" d="M116.56,146.41s-11,4.32-46.36,4.32-46.84-4.32-46.84-4.32c.33-.5,23-2.4,39-2.62l7.79-.1,7.78.1C93.84,144,116.23,145.91,116.56,146.41Z"/><path class="cls-13" d="M108.1,146.61s-5.52.94-12.53,1.74l-1.74.19a221.56,221.56,0,0,1-23.54,1c-10.48,0-18.33-.45-24-1l-1.71-.17c-7.8-.79-12.94-1.58-12.94-1.58.26-.47,19.69-2.44,31.72-2.65l5.87-.09,5.87.09C87.13,144.39,107.85,146.14,108.1,146.61Z"/><path class="cls-14" d="M95.57,148.35l-1.74.19a221.56,221.56,0,0,1-23.54,1c-10.48,0-18.33-.45-24-1l-1.71-.17c6.11-.48,12.86-.88,18.66-1l7.27-.11,7.27.11C83.33,147.53,89.72,147.89,95.57,148.35Z"/><polygon class="cls-12" points="115.22 146.83 115.13 147.03 114.45 148.37 112.94 151.34 112.94 148.45 108.1 148.45 104.81 148.83 100.08 150.73 87.29 150.35 110.7 147.4 113.27 147.08 115.22 146.83"/><path class="cls-15" d="M115.13,147l-.68,1.34c-.81-.17-2.72-.68-3.75-1l-.71-.19,3.28-.13,1.28-.05Z"/><path class="cls-6" d="M112.25,234.81v1.55l-1.33.2c-2.38.36-7.75,1.13-14.41,1.89-7.93.91-17.68,1.8-26.4,2-18.69.36-42.15-4.06-42.15-4.06v-1.55s23.46,4.41,42.15,4.06c8.08-.16,17.07-.94,24.66-1.78,6.75-.74,12.39-1.53,15.32-2Z"/><path class="cls-16" d="M112.25,236.36v7.79L71,246.67,28,244.15v-7.79s23.46,4.42,42.15,4.06S112.25,236.36,112.25,236.36Z"/><path class="cls-17" d="M112.25,235.64V245.7L71,248.23,28,245.7V234.81s23.46,6,42.15,5.61S112.25,235.64,112.25,235.64Z"/><path class="cls-18" d="M125.18,253.92,120.9,266h-7.38l.89-9.47-15.79-7.26L72,251.42l-30.72-2.15-15.79,7.26L26.4,266H19l-4.28-12.08,13-11.92h.2s27.65,3.29,43.59,3.3S112,243.63,112,243.63V242h.19Z"/><path class="cls-19" d="M26.36,265.51l0,.49h-2L23,255.3l17.2-7.47S65.65,250,71.52,250s4.44,3.84-2.4,3.84-28.29-2.09-28.29-2.09l-14,4.33Z"/><path class="cls-19" d="M117,255.27,115.94,266h-2.42l.3-9.47-14.35-4.78s-2.68.26-6.45.6l-1.35.12c-3.11.27-6.77.58-10.22.83-1.12.09-2.22.16-3.26.23-1.48.1-2.87.18-4.09.23h0c-1.14.05-2.13.08-2.92.08-.44,0-.86,0-1.25-.05-5.72-.43-6.63-3.75-1.25-3.79h.1c1.2,0,3.22-.09,5.68-.24l4.25-.27.67-.05c4.12-.28,8.65-.63,12.42-.93l1.76-.14,6.58-.54Z"/><path class="cls-20" d="M74.46,249.76l-.36,4h0c-1.14.05-2.13.08-2.92.08-.44,0-.86,0-1.25-.05L68.68,250h.1C70,250,72,249.91,74.46,249.76Z"/><path class="cls-20" d="M81.45,253.3c-1.12.09-2.22.16-3.26.23l.52-4,.67-.05-.73,3.86Z"/><path class="cls-20" d="M93.56,248.37l-.54,4-1.35.12.13-4v-.07Z"/><path class="cls-21" d="M110.94,235.94l0,.62-.13,6.32-13.71,2.19-22.62.22,22.05-1.22v-5.95l-1.74-1c6.75-.74,12.32-1.85,15.25-2.28Z"/><polygon class="cls-21" points="117.02 255.27 124.92 254.34 120.9 266 115.94 266 117.02 255.27"/><path class="cls-9" d="M136.24,196.13c-.23.84-.51,1.71-.82,2.61-5.57.93-17.19,2.74-31,4.22-10.75,1.15-22.84,2.1-34.5,2.28C44,205.63,15.49,201,4.58,199q-.51-1.48-.9-2.85a14.31,14.31,0,0,1,0-7.95c10.41,2.4,40.69,8.83,65.76,8.35,26.12-.5,57.9-5.82,67-7.42A14.09,14.09,0,0,1,136.24,196.13Z"/><polygon class="cls-19" points="22.96 255.3 15.9 254.34 19.02 266 24.35 266 22.96 255.3"/><polygon class="cls-22" points="30.02 236.92 29.13 240.95 39.95 242.55 40.83 238.29 30.02 236.92"/><path class="cls-6" d="M139,184.41V187s-38.68,6.1-69.47,6.69S0,187,0,187v-2.55s38.68,7.27,69.48,6.68S139,184.41,139,184.41Z"/><path class="cls-23" d="M139,185.77v9.49l-1,.17c-3.63.63-17,2.88-33.61,4.65-10.75,1.15-22.84,2.1-34.5,2.28C37.05,202.86,0,195.22,0,195.22V184.41s38.68,9.83,69.48,9.24S139,185.77,139,185.77Z"/><polygon class="cls-22" points="21.21 190.14 19.77 197.17 1.92 194.52 1.92 187.31 2.99 187.47 19.04 189.82 21.21 190.14"/><polygon class="cls-22" points="28.25 243.1 16.45 253.45 17.93 253.45 37.42 243.76 28.25 243.1"/><polygon class="cls-24" points="77.63 256.74 77.5 256.98 74.5 267.54 60.03 267.54 57.37 257.24 57.01 256.54 60.2 248.6 74.91 248.22 77.63 256.74"/><polygon class="cls-19" points="77.5 256.98 74.5 267.54 60.03 267.54 57.37 257.24 77.5 256.98"/><polygon class="cls-22" points="59.88 249.37 59.13 253.28 74.43 257.04 57.37 257.24 57.01 256.54 59.88 249.37"/><path class="cls-21" d="M138,186.94v8.49c-3.63.63-17,2.5-33.61,4.27v-1.52l4-1.85-4,.17,1.26-5.68-1.26-2L135,185Z"/><path class="cls-25" d="M31.51,190.62s6.79,1.79,7.91,2.23,11.63,0,11.63,0l-14.64-2.23Z"/><path class="cls-25" d="M76,193.46l9.46.22s4.3-1.19,4.13-1.17-11.87,0-11.87,0Z"/><polygon class="cls-26" points="22.96 255.3 24.35 266 26.4 266 26.83 256.08 40.83 251.75 40.16 247.83 22.96 255.3"/><polygon class="cls-27" points="100.14 247.83 99.47 251.75 113.82 256.53 113.52 266 115.94 266 117.02 255.27 100.14 247.83"/><polygon class="cls-28" points="104.13 249.59 107.75 252.39 111.08 252.65 107.53 250.61 104.13 249.59"/><path class="cls-29" d="M115.68,36.46h0Z"/><path class="cls-30" d="M116.65,36.32l-.87.13Z"/><path class="cls-31" d="M134.17,31.82c-.4,2.8-36,21.54-34.55,32,1,7.19,11.36,12.6,9.29,16.11s-23.32-5.12-38.4,18.63S91.18,118.1,97,120s-12.6,29.13-12.6,29.13H79.2s-14.08-26.29-17.69-27.2c-10.95-2.75-5.51,27.2-5.51,27.2H54.41S43.54,135.28,40.77,124c-3.23-13.15-.64-32.28,0-32.28s-.62,6.81,2.68,5.78,10.54-11.15,11-12,20.78-.71,20.2-11c-.11-1.9-18.61-19-4.3-28.25,5.18-3.33,29.2-7.42,45.4-9.8h.1l.87-.13.24,0c3-.46,10.29-1.78,11.18-3.56,1.12-2.24-.61-6.11-.61-6.11S134.58,29,134.17,31.82Z"/><path class="cls-32" d="M82,149.58s-14.06-23.68-9-27.2-12.8-6.35-12.07-19S98.12,81.64,101,83.12s1.16,8.07,1.16,8.07-.22-7.62-9.71-3.94-11.46,33.14-6,36.85-2.42,25.42-2.42,25.42Z"/><path class="cls-33" d="M56.58,112.45a2.36,2.36,0,1,1,3.28-.59A2.36,2.36,0,0,1,56.58,112.45Z"/><path class="cls-34" d="M78.17,49a.85.85,0,0,1,1-1.4.86.86,0,0,1,.21,1.19A.85.85,0,0,1,78.17,49Z"/><path class="cls-35" d="M74,108.66a1.09,1.09,0,0,1,1.24-1.79A1.09,1.09,0,0,1,74,108.66Z"/><path class="cls-36" d="M56.22,102.69a1.09,1.09,0,1,1,1.51-.27A1.09,1.09,0,0,1,56.22,102.69Z"/><path class="cls-37" d="M46.16,69.36a1.09,1.09,0,1,1,1.52-.27A1.1,1.1,0,0,1,46.16,69.36Z"/><path class="cls-38" d="M91.15,141.38a1.08,1.08,0,1,1,1.51-.27A1.09,1.09,0,0,1,91.15,141.38Z"/><path class="cls-39" d="M48.78,59.32A1.09,1.09,0,1,1,50.29,59,1.09,1.09,0,0,1,48.78,59.32Z"/><path class="cls-40" d="M80.38,75.18a2.45,2.45,0,1,1,3.42-.62A2.45,2.45,0,0,1,80.38,75.18Z"/><path class="cls-41" d="M77.32,69.56a.83.83,0,0,1-.2-1.15.82.82,0,1,1,1.35.94A.83.83,0,0,1,77.32,69.56Z"/><path class="cls-42" d="M85.65,139.37a3.85,3.85,0,1,1-1.35-5.27A3.86,3.86,0,0,1,85.65,139.37Z"/><path class="cls-43" d="M55.09,126.6a6.56,6.56,0,1,1-2.3-9A6.57,6.57,0,0,1,55.09,126.6Z"/><path class="cls-44" d="M80.34,14a2.13,2.13,0,1,1,1.82-2.41A2.13,2.13,0,0,1,80.34,14Z"/><path class="cls-45" d="M34.19,58.42a2.63,2.63,0,1,1,3.66-.67A2.63,2.63,0,0,1,34.19,58.42Z"/></g></g></g></svg>