<svg xmlns="http://www.w3.org/2000/svg" xmlns:xlink="http://www.w3.org/1999/xlink" viewBox="0 0 137.4 36.23"><defs><style>.cls-1{fill:url(#Áåçûìÿííûé_ãðàäèåíò_17);}.cls-2{fill:#68021d;}.cls-3{fill:#830c2f;}.cls-4{fill:url(#Áåçûìÿííûé_ãðàäèåíò_160);}.cls-5{fill:url(#Áåçûìÿííûé_ãðàäèåíò_160-2);}.cls-6{fill:url(#Áåçûìÿííûé_ãðàäèåíò_17-2);}.cls-7{fill:url(#Áåçûìÿííûé_ãðàäèåíò_17-3);}</style><linearGradient id="Áåçûìÿííûé_ãðàäèåíò_17" x1="-8864.7" y1="349.36" x2="-9171.36" y2="308.25" gradientTransform="matrix(-1.37, 0.1, 0.07, 1, -12257.73, 548.14)" gradientUnits="userSpaceOnUse"><stop offset="0" stop-color="#cf4c33"/><stop offset="1" stop-color="#ffa621"/></linearGradient><linearGradient id="Áåçûìÿííûé_ãðàäèåíò_160" x1="51.07" y1="47.28" x2="39.97" y2="10.26" gradientUnits="userSpaceOnUse"><stop offset="0" stop-color="#3ece8d"/><stop offset="1" stop-color="#ffa621"/></linearGradient><linearGradient id="Áåçûìÿííûé_ãðàäèåíò_160-2" x1="103.25" y1="43.45" x2="94.7" y2="11.28" xlink:href="#Áåçûìÿííûé_ãðàäèåíò_160"/><linearGradient id="Áåçûìÿííûé_ãðàäèåíò_17-2" x1="94.88" y1="10.86" x2="103.38" y2="7.22" gradientTransform="matrix(1, 0, 0, 1, 0, 0)" xlink:href="#Áåçûìÿííûé_ãðàäèåíò_17"/><linearGradient id="Áåçûìÿííûé_ãðàäèåíò_17-3" x1="6.13" y1="21.2" x2="59.57" y2="-1.63" gradientTransform="matrix(1, 0, 0, 1, 0, 0)" xlink:href="#Áåçûìÿííûé_ãðàäèåíò_17"/></defs><g id="Layer_2" data-name="Layer 2"><g id="game"><polygon class="cls-1" points="0 5.25 1.37 14.51 7.08 14.86 105.08 17.59 136.4 14.07 137.4 8.23 50.48 0.01 50.42 0 0 5.25"/><polygon class="cls-2" points="1.35 14.12 1.38 14.51 105.08 17.59 136.4 14.07 50.72 8.79 1.35 14.12"/><polygon class="cls-3" points="58.78 14.04 34.18 35.94 21.89 36.23 21.82 15.12 47.81 13.31 58.78 14.04"/><polygon class="cls-4" points="34.18 35.94 58.78 14.04 48.63 13.61 30.08 36.23 34.18 35.94"/><polygon class="cls-3" points="111.3 14.38 88.86 34.36 77.65 34.63 77.59 16.64 101.3 13.72 111.3 14.38"/><polygon class="cls-5" points="88.86 34.36 111.3 14.38 102.05 13.99 85.12 34.63 88.86 34.36"/><polygon class="cls-3" points="50.72 8.79 50.42 0 0 5.25 1.35 14.12 50.72 8.79"/><polygon class="cls-3" points="102.58 4.93 102.58 11.01 104 5.14 102.58 4.93"/><polygon class="cls-6" points="101.61 4.84 102.58 10.7 102.58 4.93 101.61 4.84"/><polygon class="cls-7" points="46.09 0.45 50.46 1.08 61.84 1.08 50.42 0 46.09 0.45"/></g></g></svg>