<svg xmlns="http://www.w3.org/2000/svg" xmlns:xlink="http://www.w3.org/1999/xlink" viewBox="0 0 83.93 63.48"><defs><style>.cls-1{isolation:isolate;}.cls-2{fill:url(#Áåçûìÿííûé_ãðàäèåíò_16);}.cls-3,.cls-7{fill:#a40040;}.cls-3{opacity:0.9;}.cls-10,.cls-11,.cls-12,.cls-14,.cls-16,.cls-17,.cls-20,.cls-21,.cls-22,.cls-23,.cls-26,.cls-3,.cls-4,.cls-6,.cls-7,.cls-8{mix-blend-mode:multiply;}.cls-14,.cls-4{fill:#b53356;}.cls-17,.cls-4{opacity:0.6;}.cls-5{fill:#4c0024;}.cls-12,.cls-6{fill:#7b0c3b;}.cls-6{opacity:0.61;}.cls-8{fill:url(#Áåçûìÿííûé_ãðàäèåíò_918);}.cls-9{fill:url(#Áåçûìÿííûé_ãðàäèåíò_1192);}.cls-10,.cls-11{fill:#773960;}.cls-10{opacity:0.33;}.cls-11{opacity:0.46;}.cls-12{opacity:0.5;}.cls-13{fill:#e8c0bf;}.cls-14{opacity:0.3;}.cls-15{fill:#ec7424;opacity:0.21;mix-blend-mode:screen;}.cls-16{opacity:0.25;fill:url(#Áåçûìÿííûé_ãðàäèåíò_450);}.cls-17{fill:#8d3356;}.cls-18{fill:#bf0018;}.cls-19{fill:#322bc1;}.cls-20,.cls-22{fill:#6545a4;}.cls-20{opacity:0.75;}.cls-21{fill:#9f008d;opacity:0.78;}.cls-22{opacity:0.39;}.cls-23{fill:#b000b3;}.cls-24{fill:#370001;}.cls-25{fill:url(#Áåçûìÿííûé_ãðàäèåíò_1014);}.cls-26{fill:#b21946;opacity:0.68;}.cls-27{fill:url(#Áåçûìÿííûé_ãðàäèåíò_1005);}</style><linearGradient id="Áåçûìÿííûé_ãðàäèåíò_16" x1="43.36" y1="14.25" x2="43.36" y2="51.09" gradientTransform="translate(0.51 -7.72) rotate(2.01)" gradientUnits="userSpaceOnUse"><stop offset="0" stop-color="#ce7033"/><stop offset="0.37" stop-color="#a0521b"/><stop offset="0.71" stop-color="#7d3a07"/><stop offset="0.89" stop-color="#6f3100"/></linearGradient><linearGradient id="Áåçûìÿííûé_ãðàäèåíò_918" x1="12.99" y1="75.75" x2="7.94" y2="80.81" gradientTransform="matrix(0.99, 0.29, -0.04, 1, 1.33, -43)" gradientUnits="userSpaceOnUse"><stop offset="0" stop-color="#480030"/><stop offset="1" stop-color="#b21946"/></linearGradient><linearGradient id="Áåçûìÿííûé_ãðàäèåíò_1192" x1="10.23" y1="72.28" x2="4.04" y2="89.75" gradientTransform="matrix(0.99, 0.29, -0.04, 1, 1.33, -43)" gradientUnits="userSpaceOnUse"><stop offset="0.02" stop-color="#d2d1d1"/><stop offset="1" stop-color="#907ba6"/></linearGradient><linearGradient id="Áåçûìÿííûé_ãðàäèåíò_450" x1="40.79" y1="53.94" x2="40.79" y2="16.65" gradientTransform="translate(0.51 -7.72) rotate(2.01)" gradientUnits="userSpaceOnUse"><stop offset="0" stop-color="#b53356"/><stop offset="0.38" stop-color="#da98a9"/><stop offset="0.69" stop-color="#f4e2e7"/><stop offset="0.83" stop-color="#fff"/></linearGradient><linearGradient id="Áåçûìÿííûé_ãðàäèåíò_1014" x1="50.55" y1="43.24" x2="50.55" y2="27.08" gradientTransform="matrix(1, -0.1, 0.09, 0.95, -4.48, 27.32)" gradientUnits="userSpaceOnUse"><stop offset="0" stop-color="#3395f4"/><stop offset="0.28" stop-color="#3374e4"/><stop offset="0.76" stop-color="#323fcb"/><stop offset="1" stop-color="#322bc1"/></linearGradient><linearGradient id="Áåçûìÿííûé_ãðàäèåíò_1005" x1="53.57" y1="22.91" x2="53.57" y2="11.25" gradientTransform="translate(3.42 3.26) rotate(-0.49)" gradientUnits="userSpaceOnUse"><stop offset="0" stop-color="#322bc1"/><stop offset="0.24" stop-color="#323fcb"/><stop offset="0.72" stop-color="#3374e4"/><stop offset="1" stop-color="#3395f4"/></linearGradient></defs><g class="cls-1"><g id="Layer_2" data-name="Layer 2"><g id="Ñëîé_1" data-name="Ñëîé 1"><path class="cls-2" d="M67.37,53.33h0l12.08-21a1.5,1.5,0,0,1,1-1.76l1-1.67s.09-1.76,1.18-2l1.27-2.21-.8-3L50.94,25.35l-28.33-18L1.28,37.1,1,40.57,27.81,53.21S32.28,59.59,39.35,57l25.79.33,1.53-2.65v0S66.73,53.08,67.37,53.33Z"/><path class="cls-3" d="M67.37,53.33h0l12.08-21a1.5,1.5,0,0,1,1-1.76l1-1.67s.09-1.76,1.18-2l1.27-2.21-.8-3L64.3,53.43,39,54.76c-6.31,4-9.42-3.15-9.42-3.15L1.28,37.1,1,40.57,27.81,53.21C32.29,60.72,39.35,57,39.35,57l25.79.33,1.53-2.65v0S66.73,53.08,67.37,53.33Z"/><polygon class="cls-4" points="24.23 51.51 23.91 48.71 27.85 46.03 28.92 48.05 24.94 51.84 24.23 51.51"/><path class="cls-3" d="M39,54.76c-6.31,4-9.42-3.15-9.42-3.15L1.28,37.1,1.21,38,1,40.57,27.81,53.21c4.48,7.51,11.77,3.73,11.77,3.73l25.56.35-.84-3.86Z"/><path class="cls-5" d="M42.31,54.67,42.49,57l.62,0L42,57.67l-2.56-.16s-8.26,2.24-12.12-4l-2.53-1.15L24.9,49l3.48-2.61,16.47,4.78Z"/><path class="cls-6" d="M30.07,50.42a8.29,8.29,0,0,0,8.12,2.17l-.93,2.83,1.33,2.29.88-.2L38.26,55l-.21-.46.58-1.95,4.44.08.29.55,1.25-1.72L26.3,44.59l1.4,2.33-2.14,1.63,4,1.78-.81.8-1.37,2.36.5.76L29,51.53Z"/><path class="cls-7" d="M42,57.67l-.49-2.86-3.49-.23.58-1.95.2-1.32-1.52,3.82a7.26,7.26,0,0,1-8-3.85l.8-.86.37-1-1.72,1.71L24.9,49l-.08,3.37,2.53,1.15s3,5.95,12.12,4Z"/><path class="cls-8" d="M10.55,45a28.31,28.31,0,0,0-.15-3.55c-.17-.84-2.65-10.12-2.65-10.12L9.81,44.61Z"/><path class="cls-9" d="M7,28.24s2.61,10.41,2.89,12a32.23,32.23,0,0,1,.18,4.87S.78,41.56.31,41.23,0,38.57,0,37.62A1.13,1.13,0,0,1,.23,37C1,36.07,3.77,32.56,7,28.24Z"/><path class="cls-10" d="M.31,41.23c.47.33,9.76,3.88,9.76,3.88s.06-2,0-3.62C10.1,42.3,0,37.55.1,37.24a1.42,1.42,0,0,0-.08.38C0,38.57-.06,41,.31,41.23Z"/><path class="cls-11" d="M.1,37.24a1.42,1.42,0,0,0-.08.38c0,1-.08,3.35.29,3.61s9.76,3.88,9.76,3.88a5.21,5.21,0,0,0-2.32-3.93l-1.59-.9C3.34,39.07,0,37.42.1,37.24Z"/><polygon class="cls-6" points="43.11 57.01 42.49 56.98 42.31 54.67 44.85 51.25 44.3 50.76 41.54 54.81 42.03 57.67 43.11 57.01"/><path class="cls-12" d="M41.54,54.81l-3.49-.23.58-1.95.2-1.32-1.75-.9L33.57,55a7,7,0,0,1-4.3-3.68l.8-.86.37-1-1.72,1.71L24.9,49l-.08,3.37,2.53,1.15s3,5.95,12.12,4l2.56.16Z"/><path class="cls-6" d="M28.72,51.13s3.65,6.63,9.54,3.91l-.21-.46.58-1.95-.19-2.57L33.3,48.37l-3.36,1.56Z"/><path class="cls-13" d="M3.67,36.69l-1.3-4.44,1.45.36L2.05,31.09,1.05,28A178.25,178.25,0,0,0,21.89,0s6,5.39,16.92,8.49S49.3,20.85,49.3,20.85,57,14.67,65.63,15.78a28.07,28.07,0,0,0,14.85-2l-.13,3.73-.57,1.19,1.13,0-.14,4L63.45,50.68s-7.35,1.46-12.6,1c-1.93-.18-9.63-.6-12.22,1,0,0-3.82-3.56-8.56-2.21,0,0-3.73-5.17-7.5-6.61S8.76,41,3.67,36.69Z"/><path class="cls-4" d="M42,41.26c-7.16-1.36-9.22,6.13-9.22,6.13-5.49-12.39-13-11-20.25-12.3A19.77,19.77,0,0,1,1.05,28l1,3.06,1.77,1.52-1.45-.36,1.24,5.11C5,40,30.07,50.42,30.07,50.42c3.4,3.44,8.56,2.21,8.56,2.21,17.28.61,24.82-2,24.82-2l-1.28-7.5C52.8,48.7,49.13,42.62,42,41.26Z"/><path class="cls-14" d="M63.45,50.68S73.94,24.14,80.77,22.76Z"/><path class="cls-4" d="M18.8,40.44a41.68,41.68,0,0,0,9.92.45c-4.87-5.41-10.64-4.83-16.22-5.8a17.72,17.72,0,0,1-6.41-2.55S12.65,39.45,18.8,40.44Z"/><path class="cls-4" d="M42,41.26a7.17,7.17,0,0,0-7.17,2.41c1.68,2.2,14.82,5.78,22.18,1.59C51.13,46.37,47.64,42.34,42,41.26Z"/><path class="cls-4" d="M49.3,20.85a10.59,10.59,0,0,0-.72-4c-.67-1.54-14.75,24-15.92,24.75a8,8,0,0,1-2.53,1,8.58,8.58,0,0,1,.14,2.52c-.25,2.75,2.18,4.94,2.18,4.94l1.38.77a5.19,5.19,0,0,1-1.08-3.5S32.46,43.74,49.3,20.85Z"/><path class="cls-15" d="M56.68,53.84C54.1,54,63.41,52.36,64,52.25s2.91-5.48,5.27-8.1-4.72,8.92-5,9.28Z"/><path class="cls-15" d="M72.94,38.85c-1.21,2.44,1.21-4.33,2.84-6.35S79,28.44,78.14,30,72.94,38.85,72.94,38.85Z"/><path class="cls-14" d="M74.55,36.23c2.63-4.48.6,1-1.09,5.07s-8,10.6-6.08,7.09S73.6,37.85,74.55,36.23Z"/><path class="cls-14" d="M50.31,54.17c5.31-.2,13.55-1,11.94-.12a21.17,21.17,0,0,1-7.32,1.84C52.71,56,46.53,54.31,50.31,54.17Z"/><path class="cls-14" d="M11.31,42.13c3.34,1.79,8.74,4.14,7.38,4.31a10.92,10.92,0,0,1-5.3-1.07C12,44.6,8.93,40.86,11.31,42.13Z"/><path class="cls-14" d="M80.48,13.78,62.17,43.18c-9.37,5.52-13-.56-20.2-1.92s-9.22,6.13-9.22,6.13c-5.49-12.39-13-11-20.25-12.3A19.77,19.77,0,0,1,1.05,28l1,3.06s-.54-1.66.73-.53,8,5.34,16.23,7.51,13.8,10.12,13.8,10.12C34.56,43.34,42.6,43,49.72,45a24.36,24.36,0,0,0,11.57.64,2.66,2.66,0,0,1,1.38.51,16.65,16.65,0,0,1,4.48-8.7C78.24,26,80.48,13.78,80.48,13.78Z"/><path class="cls-16" d="M40.71,37.21C42,34.8,50.78,20.13,54.53,17.78a27.07,27.07,0,0,0-5.23,3.07,12.43,12.43,0,0,0-6-10.4c2.22,1.59.09,4.2-5.68,14.1-5.46,9.36-9.08,15-12,13.7,2.59,1.63,5,4.36,7.13,9.14,0,0,2.06-7.49,9.22-6.13C40.41,40.88,39.31,39.78,40.71,37.21Z"/><path class="cls-17" d="M34.54,43c2-3.71,6.09-10.38,14.76-22.16A76.42,76.42,0,0,0,34.54,43Z"/><path class="cls-12" d="M35.09,48.43s3.16-5.17,12.53-3.23C47.62,45.2,39.13,43.58,35.09,48.43Z"/><path class="cls-12" d="M37.1,47.64S40,44.67,48.52,46s12.53.85,12.53.85a45.69,45.69,0,0,1-10-.23C46.74,45.86,41.27,45.64,37.1,47.64Z"/><path class="cls-14" d="M77.88,21.25l-8.7,13.38S74.92,27.57,77.88,21.25Z"/><path class="cls-14" d="M73.75,30.18,63.59,47.5S70.94,37.49,73.75,30.18Z"/><path class="cls-12" d="M71.56,31a11,11,0,0,0,1.34-1.34,34.52,34.52,0,0,0,3-4.84,6.09,6.09,0,0,0-1,1C74.66,26.17,71.56,31,71.56,31Z"/><path class="cls-12" d="M68.77,38.68A29.41,29.41,0,0,0,70.9,36.1c.53-.81,2.53-5.38,2.53-5.38Z"/><polygon class="cls-18" points="70.3 36.13 73.16 31.36 74.41 31.3 74.27 32.47 72.09 36.05 70.3 36.13"/><polygon class="cls-19" points="72.53 29.65 75.05 25.75 76.59 25.68 76.49 26.81 74.91 29.54 72.53 29.65"/><polygon class="cls-20" points="76.59 25.68 74.61 28.77 73.05 28.84 72.53 29.65 74.91 29.54 76.49 26.81 76.59 25.68"/><polygon class="cls-21" points="74.41 31.3 71.76 35.33 70.75 35.38 70.3 36.13 72.09 36.05 74.27 32.47 74.41 31.3"/><polygon class="cls-22" points="72.53 29.65 73.05 28.84 74.61 28.77 74.91 29.54 72.53 29.65"/><polygon class="cls-23" points="71.76 35.33 72.09 36.05 70.3 36.13 70.75 35.38 71.76 35.33"/><polygon class="cls-12" points="79.78 18.7 77.38 23.53 80.91 18.74 79.78 18.7"/><path class="cls-12" d="M2.37,32.25a37,37,0,0,0,13.78,6.89s-4.52-1-12.33-6.53Z"/><path class="cls-12" d="M13.84,37.34c2.28,1.12,12.23,3.29,15.35,7.76a16.81,16.81,0,0,0-7.62-5.34C16.49,38,13.84,37.34,13.84,37.34Z"/><path class="cls-12" d="M47.84,43.37A25.29,25.29,0,0,0,42,41.26a7.45,7.45,0,0,0-8.28,4C36.54,41.15,42,41.13,47.84,43.37Z"/><path class="cls-12" d="M28.72,40.89c-4.87-5.41-10.64-4.83-16.22-5.8a17.06,17.06,0,0,1-1.84-.45l.4.17C15.37,36.4,21.49,35.44,28.72,40.89Z"/><path class="cls-24" d="M82.61,26.9s-1,.19-1.14,2C81.47,28.91,81.2,26,82.61,26.9Z"/><path class="cls-24" d="M80.49,30.65s-1.18.16-1,1.73C79.51,32.38,78.29,29.92,80.49,30.65Z"/><path class="cls-24" d="M66.66,54.59s0-1.53.71-1.26C67.37,53.33,66.44,51.21,66.66,54.59Z"/><path class="cls-15" d="M81.47,28.91s-.28-2.86,1.14-2C82.61,26.9,80.51,25.25,81.47,28.91Z"/><path class="cls-15" d="M79.51,32.38s-.83-1.75.1-1.8C79.61,30.58,77.73,30.37,79.51,32.38Z"/><path class="cls-15" d="M67,52.71s-.38-.44-.3,2C66.66,54.7,65.9,51.28,67,52.71Z"/><path class="cls-12" d="M41.53,48.73s9.85-1.24,12.84-1.27c1.79,0,6.38,0,6.38,0l-2.23.42C56.06,48.15,41.53,48.73,41.53,48.73Z"/><path class="cls-25" d="M58.52,47.91l-2,.38S55.29,56.34,55,57.61s-4.14,5.67-4.14,5.67l-9.57.2-1-1.35s3.69-4.05,4.18-4.84,1.08-6.45,1.13-7.32,1.24-1.58,1.24-1.58S54.74,46.85,58.52,47.91Z"/><path class="cls-20" d="M50.88,63.28s3.87-4.4,4.14-5.67,1.53-9.32,1.53-9.32l2-.38c-1.89-.36-2.73-.28-2.87,0s-1.18,8.72-1.49,9.39-3.71,4.6-3.71,4.6l-10.15.19,1,1.35Z"/><polygon class="cls-22" points="50.45 61.94 50.88 63.28 41.31 63.48 40.3 62.13 50.45 61.94"/><path class="cls-20" d="M45.09,54.52c.14-1.5,2.73-4.6,5.31-4.71,4.57-.2,4.9,6.35,4.9,6.35l1.25-7.87,2-.38s-3.78-1.28-11.67.48c0,0-1.05.51-1.2,1.34S45.09,54.52,45.09,54.52Z"/><path class="cls-22" d="M45.34,57.12c4.42-1.43,6.49-.85,8.82.22a3.8,3.8,0,0,0-3.43-1.79A15.93,15.93,0,0,0,45.34,57.12Z"/><path class="cls-22" d="M47.33,48.71a15.77,15.77,0,0,1,7.05-.84C56.36,48.31,46,49.38,47.33,48.71Z"/><polygon class="cls-26" points="55.67 53.91 57.5 53.8 58.17 57.48 55.02 57.61 55.67 53.91"/><path class="cls-12" d="M65.24,15.74l-.88.08-7.57,4.26-2.24-3.81.05.48-.21,1.1,1.17,2.93-4.79,2.58-1.19,2.19,5.19-1.34L59,27.4Z"/><path class="cls-27" d="M49,23.75l1,.86,4-2.33,5.18,3.42,5.19-9.88.88-.08s-.18-1.55-.4-1.7a57.36,57.36,0,0,0-6.59.73c-1.38.22-3.48-.87-4.15-.67C52.57,14.56,49,23.75,49,23.75Z"/><path class="cls-20" d="M49,23.75l1,.86,4-2.33,5.18,3.42,5.19-9.88.88-.08s-.11-1.53-.4-1.7-1.23.43-1.84,1.16-5,9.61-5,9.61l-5-3.42Z"/><path class="cls-22" d="M59.72,23.39c-.16-2.17,3-6.19,3.85-6.78S59.85,25.11,59.72,23.39Z"/><path class="cls-22" d="M50.45,23.91c.38-1,2.58-2.52,2.58-2.52l1,.89S50.24,24.47,50.45,23.91Z"/></g></g></g></svg>