<svg xmlns="http://www.w3.org/2000/svg" xmlns:xlink="http://www.w3.org/1999/xlink" viewBox="0 0 58.05 42.58"><defs><style>.cls-1{isolation:isolate;}.cls-2{fill:url(#Áåçûìÿííûé_ãðàäèåíò_778);}.cls-3,.cls-4{fill:#7c6f09;}.cls-3{opacity:0.43;}.cls-12,.cls-13,.cls-14,.cls-18,.cls-20,.cls-23,.cls-25,.cls-3,.cls-30,.cls-34,.cls-4,.cls-6,.cls-7,.cls-9{mix-blend-mode:multiply;}.cls-4{opacity:0.57;}.cls-5{fill:#6f3100;}.cls-30,.cls-6{fill:#7b0c3b;}.cls-6{opacity:0.61;}.cls-7{fill:#a40040;}.cls-8{fill:#b29dad;}.cls-23,.cls-9{fill:#773960;}.cls-9{opacity:0.33;}.cls-10,.cls-21,.cls-27,.cls-28,.cls-30,.cls-31{opacity:0.5;}.cls-10,.cls-15,.cls-21,.cls-26,.cls-27,.cls-28,.cls-31,.cls-35,.cls-36,.cls-37,.cls-38,.cls-40{mix-blend-mode:screen;}.cls-10{fill:url(#Áåçûìÿííûé_ãðàäèåíò_63);}.cls-11{fill:#b55b74;}.cls-12,.cls-14{fill:#b53356;}.cls-12{opacity:0.3;}.cls-13{fill:#8d3356;}.cls-13,.cls-14{opacity:0.6;}.cls-15,.cls-19{fill:#f7d2ac;}.cls-15{opacity:0.49;}.cls-16{fill:#4f0c27;}.cls-17{fill:#c10422;}.cls-18{fill:#efc295;}.cls-20{fill:#c79095;}.cls-21{fill:url(#Áåçûìÿííûé_ãðàäèåíò_63-2);}.cls-22{fill:#fff;}.cls-23{opacity:0.68;}.cls-24{fill:url(#Áåçûìÿííûé_ãðàäèåíò_1197);}.cls-25{fill:#9f008d;opacity:0.78;}.cls-26{fill:#b21946;opacity:0.17;}.cls-27{fill:url(#Áåçûìÿííûé_ãðàäèåíò_63-3);}.cls-28{fill:url(#Áåçûìÿííûé_ãðàäèåíò_63-4);}.cls-29{fill:url(#Áåçûìÿííûé_ãðàäèåíò_1197-2);}.cls-31{fill:url(#Áåçûìÿííûé_ãðàäèåíò_63-5);}.cls-32{fill:url(#Áåçûìÿííûé_ãðàäèåíò_1285);}.cls-33{fill:url(#Áåçûìÿííûé_ãðàäèåíò_1285-2);}.cls-34{fill:#b000b3;}.cls-35{fill:url(#Áåçûìÿííûé_ãðàäèåíò_1143);}.cls-36{fill:url(#Áåçûìÿííûé_ãðàäèåíò_1143-2);}.cls-37{fill:url(#Áåçûìÿííûé_ãðàäèåíò_1143-3);}.cls-38{fill:url(#Áåçûìÿííûé_ãðàäèåíò_1143-4);}.cls-39{fill:#e0e2e7;}.cls-40{fill:#ac9c01;opacity:0.38;}</style><linearGradient id="Áåçûìÿííûé_ãðàäèåíò_778" x1="25.26" y1="-19.84" x2="25.26" y2="10.56" gradientTransform="translate(3.49 18.14) rotate(-3.9)" gradientUnits="userSpaceOnUse"><stop offset="0.12" stop-color="#ac9c01"/><stop offset="0.5" stop-color="#847a00"/><stop offset="0.81" stop-color="#6a6500"/><stop offset="1" stop-color="#605d00"/></linearGradient><linearGradient id="Áåçûìÿííûé_ãðàäèåíò_63" x1="49.87" y1="-0.19" x2="51.42" y2="-0.19" gradientTransform="translate(3.49 18.14) rotate(-3.9)" gradientUnits="userSpaceOnUse"><stop offset="0" stop-color="#d2beb3"/><stop offset="0.06" stop-color="#cdb9b2"/><stop offset="0.69" stop-color="#a18ca9"/><stop offset="1" stop-color="#907ba6"/></linearGradient><linearGradient id="Áåçûìÿííûé_ãðàäèåíò_63-2" x1="29.11" y1="5.35" x2="35.9" y2="5.35" xlink:href="#Áåçûìÿííûé_ãðàäèåíò_63"/><linearGradient id="Áåçûìÿííûé_ãðàäèåíò_1197" x1="8.27" y1="5.72" x2="8.96" y2="2.16" gradientTransform="translate(3.49 18.14) rotate(-3.9)" gradientUnits="userSpaceOnUse"><stop offset="0" stop-color="#480030"/><stop offset="0.16" stop-color="#4e0131"/><stop offset="0.38" stop-color="#5e0535"/><stop offset="0.62" stop-color="#7a0c3a"/><stop offset="0.89" stop-color="#9f1542"/><stop offset="1" stop-color="#b21946"/></linearGradient><linearGradient id="Áåçûìÿííûé_ãðàäèåíò_63-3" x1="22.08" y1="-5.83" x2="24.3" y2="-5.83" xlink:href="#Áåçûìÿííûé_ãðàäèåíò_63"/><linearGradient id="Áåçûìÿííûé_ãðàäèåíò_63-4" x1="25.28" y1="-8.79" x2="26.75" y2="-8.79" xlink:href="#Áåçûìÿííûé_ãðàäèåíò_63"/><linearGradient id="Áåçûìÿííûé_ãðàäèåíò_1197-2" x1="18.93" y1="-5.88" x2="19.59" y2="-9.27" xlink:href="#Áåçûìÿííûé_ãðàäèåíò_1197"/><linearGradient id="Áåçûìÿííûé_ãðàäèåíò_63-5" x1="42.16" y1="-13.16" x2="45.35" y2="-13.16" xlink:href="#Áåçûìÿííûé_ãðàäèåíò_63"/><linearGradient id="Áåçûìÿííûé_ãðàäèåíò_1285" x1="37.38" y1="-8.33" x2="37.38" y2="-11.36" gradientTransform="translate(3.49 18.14) rotate(-3.9)" gradientUnits="userSpaceOnUse"><stop offset="0" stop-color="#890029"/><stop offset="0.17" stop-color="#960225"/><stop offset="0.48" stop-color="#b9081c"/><stop offset="0.9" stop-color="#f0120c"/><stop offset="1" stop-color="#ff1408"/></linearGradient><linearGradient id="Áåçûìÿííûé_ãðàäèåíò_1285-2" x1="38.18" y1="-7.45" x2="38.18" y2="-8.47" xlink:href="#Áåçûìÿííûé_ãðàäèåíò_1285"/><linearGradient id="Áåçûìÿííûé_ãðàäèåíò_1143" x1="37.37" y1="-12.43" x2="37.37" y2="-13.29" gradientTransform="translate(3.49 18.14) rotate(-3.9)" gradientUnits="userSpaceOnUse"><stop offset="0"/><stop offset="0.13" stop-color="#160505"/><stop offset="0.41" stop-color="#4e1211"/><stop offset="0.8" stop-color="#a62724"/><stop offset="1" stop-color="#d6322e"/></linearGradient><linearGradient id="Áåçûìÿííûé_ãðàäèåíò_1143-2" x1="39.11" y1="-13.33" x2="39.11" y2="-14.14" xlink:href="#Áåçûìÿííûé_ãðàäèåíò_1143"/><linearGradient id="Áåçûìÿííûé_ãðàäèåíò_1143-3" x1="38.02" y1="-9.41" x2="38.02" y2="-11.31" xlink:href="#Áåçûìÿííûé_ãðàäèåíò_1143"/><linearGradient id="Áåçûìÿííûé_ãðàäèåíò_1143-4" x1="38.56" y1="-7.81" x2="38.56" y2="-8.44" xlink:href="#Áåçûìÿííûé_ãðàäèåíò_1143"/></defs><g class="cls-1"><g id="Layer_2" data-name="Layer 2"><g id="Ñëîé_1" data-name="Ñëîé 1"><path class="cls-2" d="M56,3.14,54.73,4.82l1,4.88,2.18-.16.14,2.58L34.66,42.58,4.34,41.23S-2.44,39,1.68,31l23-27.74S46.33,1.92,55.27,0Z"/><polygon class="cls-3" points="25.93 20.54 20.82 28.49 32.81 28.45 32.79 30.6 31.5 32.1 29.19 32.05 31.24 38.81 33.5 38.87 35.21 38.58 35.98 40.85 45.37 28.63 33.01 13.1 25.93 20.54"/><path class="cls-4" d="M56,3.14,55.27,0S42.94,17.67,31.49,29.87L1.68,31s-4.41,7.71,2.66,10.28l30.32,1.35L58.05,12.12l-.14-2.58-24,30.65L4.32,39.27s-2.93-1.7-.75-6.63H5.85l25.71-.31,22.62-25,.55-2.45Z"/><polygon class="cls-4" points="31.49 29.87 31.5 32.1 11.44 38.32 9.69 39.44 33.94 40.19 34.66 42.58 4.34 41.23 1.68 30.95 31.49 29.87"/><path class="cls-5" d="M10.92,32.42l-.09-1.8,21.9-28,.41,0,.11-.39s-7.73.42-8.63.7S2.62,28.77,1.28,30.87a8.17,8.17,0,0,0-.73,7.29,6.2,6.2,0,0,0,3.79,3.16c.43.07,4.24.34,4.48.33a1.4,1.4,0,0,0,.51-.2l0-2.16,1.77-1Z"/><path class="cls-6" d="M32.57,2.29l-22.49,28s-7.89-.42-8.8.63a8.17,8.17,0,0,0-.73,7.29,6.2,6.2,0,0,0,3.79,3.16c.43.07,4.24.34,4.48.33a1.4,1.4,0,0,0,.51-.2l0-2.16,1.77-1-.14-5.84-.09-1.8,21.9-28,.41,0,.11-.39ZM10.09,38.37l-1.42.85L5.1,39c-1.09-.67,1.47-.7,1.47-.7Z"/><path class="cls-7" d="M10.57,30.47l-.49-.23s-7.89-.42-8.8.63a8.17,8.17,0,0,0-.73,7.29,6.2,6.2,0,0,0,3.79,3.16c.43.07,4.24.34,4.48.33l-.15-2.43S5.43,39,5.1,39s-3.61-1.45-2-6.08l2.71-.09,4.87-.18-.26-2,.44-.08,21.9-28h-.21Z"/><path class="cls-4" d="M46.61,15.85s-1,.92-.83,1a9.92,9.92,0,0,0,1.8,0c.2-.07-.1-.4,2.17-.47s2.23,0,2.55.08.09,2.35.06,2.72a2.49,2.49,0,0,1-.1.56l1-1.29L53.7,18,54,15.1l-6.85.55Z"/><path class="cls-4" d="M46.43,16.47c1,0,2-.23,2.76-.3a15.45,15.45,0,0,1,3.42,0c.54.16-.09,3,.65,2.14a2.33,2.33,0,0,0,.73-2c-.14-.33-.4-1.07-.87-1.1s-2.25.11-2.25.11l-3.8.32Z"/><path class="cls-8" d="M46.43,16.47l.63,0a.59.59,0,0,1,.51-.39c.45-.09,4.37-.27,5.3-.21s.39,2.54.39,2.54l-.37.45a1.7,1.7,0,0,0,.9-.34A4.52,4.52,0,0,0,55,16.94c.21-.41.24-2.49-.36-2.83s-6,.17-6.76.43A2.45,2.45,0,0,0,46.43,16.47Z"/><path class="cls-9" d="M53.84,15a5.76,5.76,0,0,0-1,0c-.68,0,.68-1,.68-1H53.2l-.77,1c-1.72,0-4.42.22-5.07.34a1.05,1.05,0,0,0-.72.48,2.37,2.37,0,0,0-.21.69l.63,0a.59.59,0,0,1,.51-.39c.45-.09,4.37-.27,5.3-.21s.39,2.54.39,2.54l-.37.45a1.7,1.7,0,0,0,.9-.34,2,2,0,0,0,.32-.27C54.35,17.82,54.39,15.11,53.84,15Z"/><path class="cls-9" d="M47.57,16c.45-.09,4.37-.27,5.3-.21s.39,2.54.39,2.54l-.37.45a1.7,1.7,0,0,0,.9-.34A4.52,4.52,0,0,0,55,16.94a4.59,4.59,0,0,0,0-2.26,4.91,4.91,0,0,1,.05.73c0,1.24-.31,1.29-.63,1.5s-.82-.19-.92-.57-.23-1.49-3.42-1.28-3,1.36-3,1.36A.59.59,0,0,1,47.57,16Z"/><path class="cls-10" d="M53.6,14.93a2.85,2.85,0,0,0,1,0c.1,0,.21-.61.11-.71a.66.66,0,0,0-.8-.07C53.47,14.34,52.84,14.9,53.6,14.93Z"/><path class="cls-11" d="M54.73,4.82l1.34,5.55L33.5,38.87,6.77,38.15a4.7,4.7,0,0,1-1-5.31l4.87-.18.27-.24s15.6-.55,20.58-.32Z"/><path class="cls-12" d="M46.57,14.43l-2.18,2.63S42.46,16.62,42,20L32.06,31.45c6.13-1.4,15.57-13.24,18.11-18.21s4.92-8.27,4.29-8a.8.8,0,0,0-.18.13l-7,8.22S46.7,13.17,46.57,14.43Z"/><path class="cls-13" d="M32.79,30.6s0,.3.43.16A8.09,8.09,0,0,0,35.58,29a3.79,3.79,0,0,1,.69-1.49c.36-.32,1.57-1.42,1.65-1.42s.11.34,1.12-.42a5.74,5.74,0,0,0,1.74-1.93c.13-.35,0-.83.18-1.37s8-9.7,8-10,.13-1,.13-1Z"/><path class="cls-14" d="M31.5,32.1c-4.91-.23-20.57.31-20.57.31l-.28.25-4.87.18a4.7,4.7,0,0,0,1,5.31l3.5.09.12.41,23.11.22-1.44-7.42Z"/><polygon class="cls-15" points="32.57 11.1 45.9 10.56 38.27 20.16 25.4 20.04 32.57 11.1"/><path class="cls-16" d="M35.24,16.15c2.59-.12,4.41-3.36,1.16-3.46S31.66,16.31,35.24,16.15Z"/><path class="cls-17" d="M35.35,15.62c2-.08,3.36-2.55.89-2.63S32.63,15.74,35.35,15.62Z"/><path class="cls-16" d="M40.23,15a.89.89,0,0,0-.13-.14.49.49,0,0,1-.26-.44,2.8,2.8,0,0,0-.17-.63,2.53,2.53,0,0,0-.3-.59,2.25,2.25,0,0,0-1.27-.76,4.59,4.59,0,0,0-1.66-.09,7.25,7.25,0,0,0-1.5.35c-.67,0-1.81,0-2.24-.67A1.43,1.43,0,0,0,34,13c-.19.09-.37.19-.53.28a4.58,4.58,0,0,1-3.08,0,2.06,2.06,0,0,0,1.79.74l-.38.2a14,14,0,0,1-1.48.67s0,0,0,0a0,0,0,0,0,0,0,12.24,12.24,0,0,0,3.14-1.11c.26-.12.49-.24.73-.34a4.71,4.71,0,0,1,.71-.27,6.49,6.49,0,0,1,1.46-.32,3.18,3.18,0,0,1,2.46.55,2.8,2.8,0,0,1,.33.47,2.52,2.52,0,0,1,.21.54.72.72,0,0,0,.13.34,1,1,0,0,0,.27.24.52.52,0,0,1,.13.11l-.17.07-.41.15a2.08,2.08,0,0,0-.38.25c-.22.17-.43.33-.65.48a7.7,7.7,0,0,1-1.4.8,6.74,6.74,0,0,1-3.09.55,3.15,3.15,0,0,1-2.35-1,1.35,1.35,0,0,1-.24-.48.54.54,0,0,1,0-.44l.11-.15a.84.84,0,0,1,.27-.14,3,3,0,0,1,.76-.11,1.16,1.16,0,0,0-.74-.22,1.45,1.45,0,0,0-.51.09,1,1,0,0,0-.47.37.91.91,0,0,0-.07.82,1.58,1.58,0,0,0,.36.58,3.59,3.59,0,0,0,2.18.9,17,17,0,0,1-2,2,9.55,9.55,0,0,1-2.47,1.57,4.53,4.53,0,0,1-1.28.32,2.19,2.19,0,0,1-1.13-.16.75.75,0,0,1-.33-.83,1.87,1.87,0,0,1,.57-1.1c0-.07,0-.08,0-.07a1.65,1.65,0,0,0-.64.51,2.37,2.37,0,0,0-.41.65,1.53,1.53,0,0,0-.11.73,1,1,0,0,0,.36.63,1.7,1.7,0,0,0,.72.33,3.21,3.21,0,0,0,.83.08,4.26,4.26,0,0,0,1.71-.42A10.58,10.58,0,0,0,31.61,20a18.58,18.58,0,0,0,1.9-2.1c.27,0,.55,0,.84,0l.52,0h.22a9.74,9.74,0,0,0-.06,1.2,4.93,4.93,0,0,0,.22,1.39s0,0,0,0,0,0,0-.05a5.07,5.07,0,0,1,0-1.4,9.9,9.9,0,0,1,.32-1.41l0-.14A8.08,8.08,0,0,0,37,17.11a10.09,10.09,0,0,0,1.49-.79c.23-.15.45-.31.67-.47a2.35,2.35,0,0,1,.3-.19l.38-.12a1.19,1.19,0,0,0,.22-.08.44.44,0,0,0,.26-.26A.29.29,0,0,0,40.23,15Z"/><path class="cls-16" d="M35.51,15c1,0,1.65-1.25.44-1.29S34.18,15,35.51,15Z"/><path class="cls-18" d="M31.89,14.47c-.75.53,2.08-.5,4.38-.63s2.07,1.21,1.61,2-3.44,1.89-5.1,1.51-2.06-.9-2.21-1.23-.11.93.49,1.74,3.87,1.73,6.72.43c5-2.29,4.3-6.87.31-6.67a11.78,11.78,0,0,0-5.78,2.34C31.7,14.49,31.89,14.47,31.89,14.47Z"/><path class="cls-19" d="M36.19,14.16c.48,0,.82-.62.22-.64S35.54,14.19,36.19,14.16Z"/><path class="cls-18" d="M38.93,22a16,16,0,0,0,6.65-7.33c1.57-3.73,2.67-4.91,1.71-3.8S39,21.06,39,21.06Z"/><path class="cls-18" d="M31.45,22.56s-1,.94-.87,1a9.09,9.09,0,0,0,1.8,0c.19-.07-.08-.41,2.18-.47s2.23,0,2.54.09,0,2.42-.05,2.79a1.14,1.14,0,0,1-.16.52L38,25.17l.46-.34.41-3L32,22.36Z"/><path class="cls-20" d="M31.24,23.19A26.64,26.64,0,0,0,34,22.9a15.29,15.29,0,0,1,3.41.06c.53.18-.21,3.06.56,2.21a2.53,2.53,0,0,0,.82-2.08c-.12-.34-.35-1.1-.83-1.13s-2.25.1-2.25.1l-3.8.31Z"/><path class="cls-8" d="M31.24,23.19l.63,0a.62.62,0,0,1,.53-.4,52.74,52.74,0,0,1,5.3-.19c.93.07.28,2.61.28,2.61l-.39.47a1.88,1.88,0,0,0,.92-.35,4.87,4.87,0,0,0,1.26-1.57c.22-.42.35-2.56-.24-2.91s-5.94.14-6.77.41A2.64,2.64,0,0,0,31.24,23.19Z"/><path class="cls-9" d="M38.71,21.7a48,48,0,0,0-6.49.3,1.07,1.07,0,0,0-.74.48,3,3,0,0,0-.24.71l.63,0a.62.62,0,0,1,.53-.4,52.74,52.74,0,0,1,5.3-.19c.93.07.28,2.61.28,2.61l-.39.47a1.88,1.88,0,0,0,.92-.35,2.73,2.73,0,0,0,.33-.28C39.09,24.62,39.25,21.83,38.71,21.7Z"/><path class="cls-9" d="M32.4,22.75a52.74,52.74,0,0,1,5.3-.19c.93.07.28,2.61.28,2.61l-.39.47a1.88,1.88,0,0,0,.92-.35,4.87,4.87,0,0,0,1.26-1.57,4.89,4.89,0,0,0,.09-2.33,5.86,5.86,0,0,1,0,.76c-.07,1.27-.37,1.32-.69,1.54s-.81-.21-.91-.6-.16-1.52-3.35-1.33-3.06,1.39-3.06,1.39A.62.62,0,0,1,32.4,22.75Z"/><path class="cls-21" d="M34.56,21.79c4-.17,4.12-.23,4.57-.28s.79-.66.31-.74a11.94,11.94,0,0,0-3.64.13C33.78,21.22,31.16,21.94,34.56,21.79Z"/><path class="cls-22" d="M38.29,21.1c.71.12,1,.12,1.15,0s0-.33-1.07-.26S37.81,21,38.29,21.1Z"/><path class="cls-22" d="M54.08,14.19c-.5.25-.69.64-.13.42S54.82,13.84,54.08,14.19Z"/><path class="cls-22" d="M19.73,18.52c0-.22.47.12.28.81s-.27.26-.28-.08S19.72,18.68,19.73,18.52Z"/><path class="cls-8" d="M15.77,24.13c2.82.07,6.09-5.83,4-5.92C17.32,18.1,13.21,24.07,15.77,24.13Z"/><path class="cls-9" d="M15,23.22c.19-.7.23-.29.64.33s2.91-1.19,3.79-2.7c1.43-2.43.24-2.74.68-2.57s1.16,1.28-1.46,4.52S14.53,24.86,15,23.22Z"/><path class="cls-9" d="M16.83,22.37c.74-.06,2.94-2.94,2.17-3.12S15.43,22.49,16.83,22.37Z"/><path class="cls-23" d="M17.42,21c.86-1,2-1.84,1.62-1a5.62,5.62,0,0,1-2.16,2.43C16.17,22.6,17,21.46,17.42,21Z"/><path class="cls-9" d="M17.52,20.29c-.48.58.45.53,1,.09s.7-.9.54-1.09S18.29,19.36,17.52,20.29Z"/><path class="cls-9" d="M15,23.08c.17-.41.29,1.05,1.48.48s2.31-1.32,1.67-.56a3.55,3.55,0,0,1-2.35,1.22A.8.8,0,0,1,15,23.08Z"/><path class="cls-24" d="M5.77,25.16l.68-.84s2.66-2.54,10.16-2.12c0,0-.16.46.56,0a5.68,5.68,0,0,0,1.72-2,24.56,24.56,0,0,0-7.33.23c-3.18.6-4.12,1.53-4.42,1.9A12.59,12.59,0,0,0,5.59,24.7.53.53,0,0,0,5.77,25.16Z"/><path class="cls-25" d="M8.06,21.61a19.12,19.12,0,0,0-1.38,1.91,10.6,10.6,0,0,1,5.24-1.88,22.36,22.36,0,0,1,5.55,0s1.27-1,1.42-1.4A5.38,5.38,0,0,1,17,22.46c-1.21.67-.73,0-1-.16s-1,.53-1,1.15c0,0-3.75-.72-9.61,2.2l.4-.49a.56.56,0,0,1-.18-.48,14,14,0,0,1,1.58-2.35A4.28,4.28,0,0,1,8.06,21.61Z"/><path class="cls-9" d="M6.54,24.21a10.14,10.14,0,0,1,6.16-2.62c2.12-.12,2.57.55,2.57.55l-.24.7a16.65,16.65,0,0,0-5.18.09A8.12,8.12,0,0,0,6.54,24.21Z"/><path class="cls-26" d="M13.2,21.55c2.9-.21,5.35-1.05,4.79-1.25a18,18,0,0,0-6.58.19C8.46,21.1,8.43,21.9,13.2,21.55Z"/><path class="cls-8" d="M25.49,11.75c2.69,0,5.69-5.51,3.69-5.58C26.83,6.08,23,11.71,25.49,11.75Z"/><path class="cls-9" d="M24.7,10.9c.17-.66.22-.28.62.3s2.75-1.13,3.57-2.56c1.31-2.29.16-2.57.59-2.41s1.14,1.2-1.3,4.25S24.32,12.44,24.7,10.9Z"/><path class="cls-9" d="M26.47,10.09c.7-.06,2.74-2.77,2-2.94S25.13,10.21,26.47,10.09Z"/><path class="cls-23" d="M27,8.78c.79-.93,1.85-1.74,1.52-1a5.22,5.22,0,0,1-2,2.29C25.83,10.31,26.61,9.23,27,8.78Z"/><path class="cls-9" d="M27.07,8.13c-.44.55.44.5,1,.08s.66-.85.5-1S27.79,7.25,27.07,8.13Z"/><path class="cls-9" d="M24.74,10.77c.15-.39.3,1,1.43.44s2.18-1.25,1.57-.54a3.29,3.29,0,0,1-2.22,1.16A.75.75,0,0,1,24.74,10.77Z"/><path class="cls-27" d="M25.12,10.66c0-.49.76.1,1.81-.31s-.31.62-1,.81S25.1,10.91,25.12,10.66Z"/><path class="cls-28" d="M28.2,6.71c.49-.07.94.61.38,1.82s.58-.15.86-1.13-.14-1.26-.61-1.16S27.79,6.76,28.2,6.71Z"/><path class="cls-29" d="M16,12.78l.63-.79s2.49-2.41,9.67-2.06c0,0-.14.43.54,0a5.11,5.11,0,0,0,1.59-1.87,23.8,23.8,0,0,0-7,.26c-3,.59-3.9,1.46-4.18,1.81a11.58,11.58,0,0,0-1.43,2.21A.51.51,0,0,0,16,12.78Z"/><path class="cls-25" d="M18.06,9.44a17.3,17.3,0,0,0-1.28,1.79,10.05,10.05,0,0,1,5-1.79,21.78,21.78,0,0,1,5.29,0s1.2-.94,1.33-1.32a4.85,4.85,0,0,1-1.75,2.1c-1.13.64-.69,0-1-.14s-.95.5-.94,1.09c0,0-3.59-.66-9.12,2.11l.36-.45a.55.55,0,0,1-.18-.46,13.1,13.1,0,0,1,1.46-2.21A4.18,4.18,0,0,1,18.06,9.44Z"/><path class="cls-9" d="M16.66,11.88a9.66,9.66,0,0,1,5.84-2.5c2-.12,2.47.51,2.47.51l-.22.65a16.34,16.34,0,0,0-4.95.12A7.82,7.82,0,0,0,16.66,11.88Z"/><path class="cls-26" d="M23,9.34c2.76-.21,5.09-1,4.55-1.2a17.6,17.6,0,0,0-6.29.22C18.43,9,18.43,9.7,23,9.34Z"/><path class="cls-30" d="M1,31.44l2.12,1.49,7.58-.27.28-.25s18.18-.64,20.57-.31l.56-.65.47,2.42a4.39,4.39,0,0,0-1-.59c-.25,0-24.9.43-25.29.51s-.89,1.36-.89,1.36L2.87,36.72A4.14,4.14,0,0,0,5,39L4.25,41.3l-.51-.15L4.56,39s-3.2-1-1.8-5.81L.68,32Z"/><path class="cls-4" d="M44.05,4.47a7.46,7.46,0,0,1,1.1-3L46,1.38Z"/><path class="cls-4" d="M44,4.66c0-.28,1.49-.47,1.85-.37a2.78,2.78,0,0,1,.85.64l.36-.52s-.49-.36-.57-.6a15.1,15.1,0,0,1,2-3C48.71.65,49,1,49,1a2.91,2.91,0,0,0-.52.19c-.12.08-1.52,2.49-1.56,2.61s.28.51.29.55a3.23,3.23,0,0,1-.92,1.2C45.83,5.77,44.15,6.76,44,4.66Z"/><path class="cls-4" d="M46.88,4.25c-.1-.24-.16-.24.08-.69s1.15-1.93,1.42-2.36L49,1l-.51.07a2.06,2.06,0,0,0-.33-.17,14.76,14.76,0,0,0-2,.72c-.08.14-2.16,2.68-2,3.19s.7.61,1.41.58,1.06,0,1.55-1l-.21-.13Z"/><path class="cls-8" d="M48.35,1.11,49.18,1a1,1,0,0,0,0-.47,3.89,3.89,0,0,0-2.5.16A17.58,17.58,0,0,0,44,4.39c0,.34.34.73.34.73l2.4-.19.36-.52a5.37,5.37,0,0,1-.48-.49C46.43,3.72,48.35,1.11,48.35,1.11Z"/><path class="cls-9" d="M44.32,5.12l2.4-.19.36-.52a5.37,5.37,0,0,1-.48-.49c-.17-.2,1.75-2.81,1.75-2.81L49.18,1a1,1,0,0,0,0-.47A1.08,1.08,0,0,0,48,.77c-.28.3-1.86,3-2.05,3.23s-2,.55-1.82.14a1.34,1.34,0,0,0-.11.25C43.94,4.73,44.32,5.12,44.32,5.12Z"/><path class="cls-31" d="M45.57,1.93c-2.55,3.54,1.56,0,2.09-.73S46.74.51,46.42.87,45.83,1.56,45.57,1.93Z"/><path class="cls-9" d="M46.72,4.93a2.78,2.78,0,0,0-.85-.64c-.36-.1-1.86.09-1.85.37a1.45,1.45,0,0,0,.3.46Z"/><path class="cls-9" d="M48.49.81a15.1,15.1,0,0,0-2,3c.08.24.57.6.57.6a5.37,5.37,0,0,1-.48-.49c-.17-.2,1.75-2.81,1.75-2.81L49,1S48.71.65,48.49.81Z"/><path class="cls-22" d="M47.52,1.38c.28-.35.33-.48.25-.57s-.39,0-.53.55S47.33,1.62,47.52,1.38Z"/><path class="cls-12" d="M54.06,11.3C51.86,12.62,39.4,27.42,34.9,37.1,39.19,31.89,50,18.19,56.07,10.37,56,10.17,55.15,10.65,54.06,11.3Z"/><path class="cls-13" d="M32.17,35.09l-3.72.54-16.56.3,12.65-.82C26.31,35,32.17,35.09,32.17,35.09Z"/><path class="cls-13" d="M22.36,34.19s-11.88-.12-15.88.51A105.9,105.9,0,0,0,22.36,34.19Z"/><path class="cls-14" d="M19.12,37.05c6.12-.06,12.94-3.94,13-5.48l0-.12-.56.65c-4.91-.23-20.57.31-20.57.31l-.28.25-2.6.1C8.23,33.79,12.75,37.11,19.12,37.05Z"/><path class="cls-32" d="M38.69,7.35c1,.21,2.59-1,3-2.16s-.49-1.1-1.21-.89-.92,1.16-1.09,1.51S38.05,7.2,38.69,7.35Z"/><path class="cls-33" d="M40.51,8.09c-.61-.16.51-1.08,1-1S41.52,8.35,40.51,8.09Z"/><path class="cls-34" d="M38.69,7.35c.86.19,2.27-.81,2.82-1.83.07-.16.13-.3.17-.42s0,0,0,0a.29.29,0,0,0,0-.09c.09-.69-.51.1-1.09.76s-.47.83-1.07,1.08-1.15,0-.41-.42.3-.75.47-1.22c-.11.26-.19.51-.26.65C39.2,6.16,38.05,7.2,38.69,7.35Z"/><path class="cls-34" d="M40.51,8.09a1,1,0,0,0,1.12-.44c-.18.19-.51.3-.53.11s0-.67-.54-.23C40.32,7.76,40.22,8,40.51,8.09Z"/><path class="cls-4" d="M38.49,7.16c.07-.43.8.12,1.5-.26s1-1.38,1.32-1.55.54-.59.42-.8.35,0,0,.87a10.88,10.88,0,0,1-1.35,1.9c-.18.29-.17.48.09.28s-.22.43.31.43.95-.36,1-.58.22.65-.81,1-.79-.76-.74-1.11-.7.94-1.53.82S38.49,7.16,38.49,7.16Z"/><path class="cls-35" d="M39.76,2.4c-.44.12-.22.82.13.8s.52-.57.3-.75S40.08,2.32,39.76,2.4Z"/><path class="cls-36" d="M40.87,2c.51.08,1,.41,1.52-.06s.87-.76-.09-.57a11.89,11.89,0,0,0-2,.5C40.08,2,40.62,1.94,40.87,2Z"/><path class="cls-37" d="M39.78,5.22c-.14-.48.67-1,1.24-1s.75.22.47.34-.46.51-.73.79-.43.84-.63.81,0-.48-.12-.73S39.85,5.45,39.78,5.22Z"/><path class="cls-38" d="M41.17,7.26c.16-.21.51-.24.54,0a.47.47,0,0,1-.26.5A.29.29,0,0,1,41.17,7.26Z"/><path class="cls-39" d="M34.27,2.36c.23-.13.7.05.37.07S34.12,2.45,34.27,2.36Z"/><path class="cls-39" d="M42.13,1.61c-.36-.11.32-.25.58-.29S42.61,1.76,42.13,1.61Z"/><path class="cls-39" d="M39.83,2.57c-.19-.17.47-.27.42,0S39.94,2.67,39.83,2.57Z"/><path class="cls-39" d="M37.28,2.19c-.24-.16.6-.33.68-.1S37.8,2.55,37.28,2.19Z"/><path class="cls-39" d="M38.1,2.41c-.11,0,.13-.28.26-.2S38.3,2.49,38.1,2.41Z"/><path class="cls-39" d="M40.82,4.51c.21.12.45.12.53,0S40.68,4.42,40.82,4.51Z"/><path class="cls-39" d="M36.58,5.43c-.21,0-.09-.29.12-.18S36.74,5.44,36.58,5.43Z"/><path class="cls-40" d="M49.05,1.28C54.87.25,54.38.53,53,2.45s-5.07,7.72-3.22,3.17S47,1.64,49.05,1.28Z"/><path class="cls-40" d="M27.2,39.68c-2.32-.2,5.76-.34,6.41-.46s3.67-5,6.35-7.38-5.79,7.66-6.13,8S27.2,39.68,27.2,39.68Z"/><path class="cls-40" d="M43.85,27.29c-1.49,2.13,1.66-3.67,3.47-5.43s3.54-3.48,2.56-2.14S43.85,27.29,43.85,27.29Z"/><path class="cls-3" d="M46.05,25c2.65-3.83.71.67-1.41,4.2s-9.35,9.66-7,6.46S45,26.41,46.05,25Z"/><path class="cls-3" d="M20.35,40c5.26.08,13.61-.21,11.79.47a25.6,25.6,0,0,1-7.73,1.28C22.21,41.74,16.64,40,20.35,40Z"/></g></g></g></svg>