<svg xmlns="http://www.w3.org/2000/svg" viewBox="0 0 50.43 15.9"><defs><style>.cls-1{isolation:isolate;}.cls-2{fill:#213830;}.cls-3{fill:#951a49;}.cls-4{fill:#220c23;}.cls-5{fill:#296851;opacity:0.21;mix-blend-mode:screen;}.cls-6{opacity:0.43;}.cls-11,.cls-6{mix-blend-mode:multiply;}.cls-7{fill:#1d332c;}.cls-8{fill:#b84c49;}.cls-9{fill:#d17c65;}.cls-10{fill:#ceb4a1;opacity:0.79;}.cls-11{opacity:0.65;}.cls-12{fill:#be9cac;}</style></defs><g class="cls-1"><g id="Layer_2" data-name="Layer 2"><g id="Ñëîé_1" data-name="Ñëîé 1"><path class="cls-2" d="M4.18,4l.14,0s1.71.33,1.73.33a1.43,1.43,0,0,1,.66.16,1.5,1.5,0,0,1,.45.33c1.91.12,3.93.22,5.67.29C13.93,2.3,16.9,0,22.1,0,32.61,0,43.51,1,43.51,1c9.27.29,9.26,14.07-.23,14.86l-22.63-.1a8.28,8.28,0,0,1-7.42-4.36c-2.38.06-4.3.13-6.39.12a1.65,1.65,0,0,1-.93.36h-2C1,11.76.7,4,4.18,4Z"/><path class="cls-3" d="M7.56,11.56S12.25,8.4,8,4.91l4.86.24s4.78,2.18.4,6.29Z"/><path class="cls-4" d="M20.65,15.8h1A6.57,6.57,0,0,1,20.65,15.8Z"/><path class="cls-5" d="M21.59.68,19.26,3A11.84,11.84,0,0,0,15.7,4.55l-1.79,0C15.22,2.44,17.72.86,21.59.68Z"/><polygon class="cls-5" points="17.51 5.97 16.99 5.56 8.5 5.38 9.36 5.87 17.51 5.97"/><g class="cls-6"><path class="cls-4" d="M4.25,5.33,4.32,4l1.73.35a1.43,1.43,0,0,1,.66.16c1,.48,1.43,1.92,1.42,3.41l11-.57,8.93,2.12c1.15-4.37-.41-9.41-6-9.49,5.33.08,21.41,1,21.41,1,9.27.29,9.26,14.07-.23,14.86l-18.11-.08a7.62,7.62,0,0,0,2.21-3.57,8.58,8.58,0,0,1-5.74,3.56h-1a8.28,8.28,0,0,1-7.42-4.36c-2.38.06-4.3.12-6.39.12a1.65,1.65,0,0,1-.93.36h-2L4,10.42A5.77,5.77,0,0,1,4.25,5.33Z"/></g><path class="cls-7" d="M4.18,4C.7,4,1,11.76,3.89,11.92S7.17,4.07,4.18,4Z"/><path class="cls-8" d="M2.09,5.94l.05-1,1.39.19a1.31,1.31,0,0,1,.53.09c1.76.74,1.39,5.51-.64,5.71H3.3L1.8,11l.07-1.16A4.28,4.28,0,0,1,2.09,5.94Z"/><path class="cls-9" d="M2,4.94C-.75,5.05-.52,11,1.8,11S4.42,4.84,2,4.94Z"/><path class="cls-10" d="M41.8.84S30.89,0,26.68,0c0,0,5.16.68,4.94,7.43L47.1,8S47.78,2.78,41.8.84Z"/><g class="cls-11"><path class="cls-12" d="M35.57,5.38S35.73.83,31.76.19l1.42.08s3.19.57,3.19,5.07Z"/></g><g class="cls-11"><path class="cls-12" d="M38.38,5.54S38.55,1,34.58.36L39.77.7S43,1.27,43,5.76Z"/></g></g></g></g></svg>