<svg xmlns="http://www.w3.org/2000/svg" viewBox="0 0 25.25 28.43"><defs><style>.cls-1{isolation:isolate;}.cls-2{fill:#896278;}.cls-3{opacity:0.34;}.cls-3,.cls-6{mix-blend-mode:multiply;}.cls-4{fill:#4f2d41;}.cls-5{fill:#fcb393;}.cls-6{fill:#b53356;opacity:0.33;}.cls-7{fill:#fcc1ac;}.cls-8{fill:#b2a7bc;}</style></defs><g class="cls-1"><g id="Layer_2" data-name="Layer 2"><g id="Ñëîé_1" data-name="Ñëîé 1"><path class="cls-2" d="M0,24.6l.93,1.89a62.1,62.1,0,0,0,21.57,0l1-2.12s-3.68-1.23-11.74-1.16S0,24.6,0,24.6Z"/><g class="cls-3"><path class="cls-4" d="M0,24.6s8.52,1.86,23.48-.23l-.29,1.73,2.06.39s-15.62,4.37-25,0l.29-.12Z"/></g><path class="cls-5" d="M4.33,6.8,4,24.53s9.19.73,15.57-.56L18.73,6.8Z"/><path class="cls-6" d="M19.58,24l-.66-13.38C17.09,22.08,5.44,25.76,4.08,20.41L4,24.53S13.24,25.37,19.58,24Z"/><path class="cls-6" d="M7.74,5.86a10.44,10.44,0,0,0-2.46.82l-2,3.43L4.11,14l0,3.43A3.55,3.55,0,0,0,5,13.73c-.93-3-.45-4,.93-4.4.9-.24,2,1.1,1.9,3.85s1.58,1.94,1.34-.33.08-2.34.36-2-.08,2.31,1.09,2.23-.2-4.82,1.75-4.58.4,2.59,2,2.07.4-1.9,1.34-1.74.48,3,1.41,2.87.57-1.38.57-1.38.65.45-.41,2.6c-.73,1.49-.82,5.54-.18,7.75.65-6,2-14.2,2-14.2Z"/><path class="cls-7" d="M5.93,7.62c.9-.24,2,1.09,1.9,3.84s1.58,1.95,1.34-.32.08-2.35.36-2-.08,2.3,1.09,2.22-.2-4.81,1.75-4.57.4,2.59,2,2.06.4-1.9,1.34-1.74.48,3,1.41,2.87.57-1.37.57-1.37.65.45-.41,2.59-.79,9.51,1.07,9.23,1.28-2,.31-2.75-.83-7.25-.31-8.42,2.7-5.22-.5-5.55S4.27,3.17,3.46,7c0,0-1.58.85-1.09,2.23s1.21,3.8.81,5-.29,2.14.77,2.18S5.93,15,5,12,4.55,8,5.93,7.62Z"/><path class="cls-6" d="M6.36,6S5.21,4.73,10.69,4.35s6,.42,5.27.85c0,0,.57-.83-3-.56,0,0,1.39.51-1.68.69s-2-.43-2-.43S6.41,4.83,6.36,6Z"/><polygon class="cls-8" points="10.49 0 11.03 5.12 11.37 5.12 11.37 0 10.49 0"/></g></g></g></svg>