<svg xmlns="http://www.w3.org/2000/svg" viewBox="0 0 14.45 24.25"><defs><style>.cls-1{isolation:isolate;}.cls-2{fill:#b2a7bc;}.cls-3{fill:#fcb393;}.cls-4{fill:#b53356;opacity:0.33;mix-blend-mode:multiply;}.cls-5{fill:#fcc1ac;}.cls-6{fill:#ffecca;}</style></defs><g class="cls-1"><g id="Layer_2" data-name="Layer 2"><g id="Ñëîé_1" data-name="Ñëîé 1"><polygon class="cls-2" points="7.6 0 7.18 4.43 6.89 4.43 6.84 0.01 7.6 0"/><path class="cls-3" d="M13.29,5.58l1.16,17.86s-9.55,2-14.45-.3L1.33,5.71Z"/><path class="cls-4" d="M2.82,8.2c1.21-.27.91,4.1,2.81,4.34s2.26-5,2.92-5,.14,3.52.8,3.51.58-2.14.58-3,.8-.72.91.09c.05.4,1.71.05,2.58-.59V4.83L1.31,4.2,1.15,8A2.89,2.89,0,0,0,2.82,8.2Z"/><path class="cls-5" d="M13.73,4.42c.81,1.94-2.79,3.71-2.9,2.9s-.92-1-.91-.09.08,3-.58,3-.14-3.48-.8-3.51-1,5.21-2.92,5S4,7.09,2.81,7.36,1.14,6.35,1.11,4C1.1,3.37,13.42,3.66,13.73,4.42Z"/><path class="cls-4" d="M0,23.14.57,15.6c0,.34,0,.69,0,1,.12,11.28,13.63,3.14,13.18-3.73l.68,10.52S4.9,25.46,0,23.14Z"/><path class="cls-6" d="M1.11,4a48.34,48.34,0,0,0,12.62.43S6.81,3,1.11,4Z"/></g></g></g></svg>