<svg xmlns="http://www.w3.org/2000/svg" xmlns:xlink="http://www.w3.org/1999/xlink" viewBox="0 0 27.8 36.64"><defs><style>.cls-1{isolation:isolate;}.cls-2{opacity:0.69;}.cls-3{fill:#9a90b7;}.cls-4{fill:#9c8ca3;opacity:0.35;mix-blend-mode:screen;}.cls-5{fill:#a1aec8;}.cls-5,.cls-7,.cls-8{opacity:0.5;}.cls-5,.cls-6,.cls-7,.cls-8{mix-blend-mode:multiply;}.cls-6{fill:#9c4f79;opacity:0.7;}.cls-7{fill:#a192c8;}.cls-8{fill:url(#Áåçûìÿííûé_ãðàäèåíò_121);}.cls-9{fill:#5b7cfe;}.cls-10{fill:#5551d4;}</style><linearGradient id="Áåçûìÿííûé_ãðàäèåíò_121" x1="13.27" y1="33.99" x2="13.35" y2="35.95" gradientUnits="userSpaceOnUse"><stop offset="0" stop-color="#9a2caf"/><stop offset="1" stop-color="#7a1c91"/></linearGradient></defs><g class="cls-1"><g id="Layer_2" data-name="Layer 2"><g id="Ñëîé_1" data-name="Ñëîé 1"><g class="cls-2"><path class="cls-3" d="M27.37,32.32l-9.32-15a5.58,5.58,0,0,1-.82-2.92l.08-11.3H10.36L10.8,14A5.38,5.38,0,0,1,10,17.1L.44,32.31a2.83,2.83,0,0,0,2.4,4.33H25A2.83,2.83,0,0,0,27.37,32.32ZM24.82,34C23.36,35,3.27,35.3,2.46,33.55S12.37,18.3,12.72,15.94s-.86-12.15-.86-12.15l3.52-.28s0,9.34.25,12.16S26.28,33.11,24.82,34Z"/><path class="cls-4" d="M15.38,3.51l-3.52.28s1.2,9.78.86,12.15S1.66,31.79,2.46,33.55,23.36,35,24.82,34s-9-15.56-9.19-18.37S15.38,3.51,15.38,3.51Z"/><path class="cls-3" d="M13.35,0c3.07-.09,4.74.19,5.38.76s-.36,2.46-.9,2.9-5.2.71-6.67.47S9.34,3.48,9,2.36,9.43.8,10.34.46A14.36,14.36,0,0,1,13.35,0Z"/><path class="cls-5" d="M9.87,1.7a20.73,20.73,0,0,0,7.94-.37,8.7,8.7,0,0,1-.85,2c-.37.43-5.33.74-6.25.31S9.87,1.7,9.87,1.7Z"/><path class="cls-6" d="M10.11,1.18a23.69,23.69,0,0,0,3.58,0c2.36-.14,3.7-.25,3.7-.25A10.24,10.24,0,0,0,10.11,1.18Z"/><path class="cls-7" d="M17,.15l-.28.39s1.56,0,1.24.37a6.62,6.62,0,0,1-1.88.8l1-.14a2.72,2.72,0,0,0-1.59,1,2.15,2.15,0,0,1-.51.65c-.33.28-.69.57-.48.58A10.46,10.46,0,0,0,17,3.37a14.92,14.92,0,0,0,.85-2c.68-.2,1.07-.45.81-.68A4,4,0,0,0,17,.15Z"/><path class="cls-7" d="M13,3.71a2.28,2.28,0,0,1-1.09-.62c-.53-.48-.62-1.14-1.28-1.29l.67.06s-1.47-.28-1.48-.67.68-.33.68-.33L10.22.51s-.94.29-1.17.75c-.1.2.32.34.83.43a2.61,2.61,0,0,0,.4,1.6c.36.46.91.56,1.89.56S13.22,3.79,13,3.71Z"/><path class="cls-7" d="M11.3,10c.41.77,1.45,4.86.94,6.29S4.7,28.67,3.55,29.46s6.16-11.51,7-13.52S10.59,8.66,11.3,10Z"/><path class="cls-7" d="M16.06,13.26c-.38,1.66-.77,3.72,2.45,7.45s-1.19-3.39-1.37-5S16.52,11.29,16.06,13.26Z"/><path class="cls-8" d="M3.07,34.43c2.86.32,15,.82,19.61.37s-1.85,1-9.19,1.12S.33,34.13,3.07,34.43Z"/><path class="cls-9" d="M8.84,22.7c1.18-2,4.61-1.56,6.44-.93s3.41.39,3.75,1-.4,1.86-.4,1.86l-7.82.14Z"/><path class="cls-10" d="M2.65,33.46c.79,1.73,20.55,1.41,22,.49.89-.57-2.7-6.29-5.61-11.22a8.63,8.63,0,0,0-2.37.8c-1.9.87-6.21-2.62-7.82-.83C5.8,27.2,2.17,32.43,2.65,33.46Z"/></g></g></g></g></svg>