<svg xmlns="http://www.w3.org/2000/svg" xmlns:xlink="http://www.w3.org/1999/xlink" viewBox="0 0 177.09 171.94"><defs><style>.cls-1{isolation:isolate;}.cls-2{opacity:0.82;}.cls-3{opacity:0.67;}.cls-12,.cls-15,.cls-18,.cls-21,.cls-24,.cls-27,.cls-32,.cls-35,.cls-38,.cls-4,.cls-41,.cls-46,.cls-49,.cls-7{fill:#a6ffff;}.cls-4{opacity:0.71;}.cls-10,.cls-12,.cls-13,.cls-15,.cls-16,.cls-18,.cls-19,.cls-21,.cls-22,.cls-24,.cls-25,.cls-27,.cls-28,.cls-30,.cls-32,.cls-33,.cls-35,.cls-36,.cls-38,.cls-39,.cls-4,.cls-41,.cls-42,.cls-44,.cls-46,.cls-47,.cls-49,.cls-5,.cls-50,.cls-7,.cls-8{mix-blend-mode:screen;}.cls-5,.cls-6,.cls-7{opacity:0.72;}.cls-5{fill:url(#Áåçûìÿííûé_ãðàäèåíò_455);}.cls-8{opacity:0.81;fill:url(#Áåçûìÿííûé_ãðàäèåíò_455-2);}.cls-9{opacity:0.62;}.cls-10,.cls-22,.cls-25,.cls-36,.cls-39{opacity:0.61;}.cls-10{fill:url(#Áåçûìÿííûé_ãðàäèåíò_186);}.cls-11{opacity:0.68;}.cls-12{opacity:0.96;}.cls-13{opacity:0.58;fill:url(#Áåçûìÿííûé_ãðàäèåíò_455-3);}.cls-14{opacity:0.42;}.cls-15,.cls-20,.cls-33{opacity:0.74;}.cls-16{opacity:0.95;fill:url(#Áåçûìÿííûé_ãðàäèåíò_455-4);}.cls-17{opacity:0.41;}.cls-18{opacity:0.64;}.cls-19,.cls-27{opacity:0.3;}.cls-19{fill:url(#Áåçûìÿííûé_ãðàäèåíò_31680);}.cls-21{opacity:0.97;}.cls-22{fill:url(#Áåçûìÿííûé_ãðàäèåíò_186-2);}.cls-23{opacity:0.87;}.cls-24{opacity:0.73;}.cls-25{fill:url(#Áåçûìÿííûé_ãðàäèåíò_186-3);}.cls-26{opacity:0.79;}.cls-28,.cls-45{opacity:0.55;}.cls-28{fill:url(#Áåçûìÿííûé_ãðàäèåíò_455-5);}.cls-29{opacity:0.33;}.cls-30,.cls-47{opacity:0.34;}.cls-30{fill:url(#Áåçûìÿííûé_ãðàäèåíò_4841);}.cls-31{opacity:0.47;}.cls-32{opacity:0.59;}.cls-33{fill:url(#Áåçûìÿííûé_ãðàäèåíò_455-6);}.cls-34{opacity:0.39;}.cls-35{opacity:0.28;}.cls-36{fill:url(#Áåçûìÿííûé_ãðàäèåíò_186-4);}.cls-37,.cls-41{opacity:0.48;}.cls-38,.cls-42{opacity:0.7;}.cls-39{fill:url(#Áåçûìÿííûé_ãðàäèåíò_186-5);}.cls-40,.cls-50{opacity:0.4;}.cls-42{fill:url(#Áåçûìÿííûé_ãðàäèåíò_455-7);}.cls-43{opacity:0.49;}.cls-44,.cls-48{opacity:0.29;}.cls-44{fill:url(#Áåçûìÿííûé_ãðàäèåíò_455-8);}.cls-46{opacity:0.66;}.cls-47{fill:url(#Áåçûìÿííûé_ãðàäèåíò_455-9);}.cls-49{opacity:0.65;}.cls-50{fill:url(#Áåçûìÿííûé_ãðàäèåíò_455-10);}</style><radialGradient id="Áåçûìÿííûé_ãðàäèåíò_455" cx="-966.3" cy="-1073.13" r="2.18" gradientTransform="matrix(-0.25, -0.97, -0.97, 0.25, -1128.65, -590.2)" gradientUnits="userSpaceOnUse"><stop offset="0" stop-color="#ffd300"/><stop offset="0.12" stop-color="#c7a400"/><stop offset="0.24" stop-color="#927900"/><stop offset="0.37" stop-color="#665400"/><stop offset="0.5" stop-color="#413600"/><stop offset="0.62" stop-color="#241e00"/><stop offset="0.75" stop-color="#100d00"/><stop offset="0.88" stop-color="#040300"/><stop offset="1"/></radialGradient><radialGradient id="Áåçûìÿííûé_ãðàäèåíò_455-2" cx="-1271.28" cy="-719.65" r="3.28" gradientTransform="matrix(-0.93, -0.37, -0.37, 0.93, -1335.59, 350.02)" xlink:href="#Áåçûìÿííûé_ãðàäèåíò_455"/><radialGradient id="Áåçûìÿííûé_ãðàäèåíò_186" cx="-1431.54" cy="-1105.94" r="2.75" gradientTransform="matrix(-0.99, 0.17, 0.17, 0.99, -1149.57, 1426.87)" gradientUnits="userSpaceOnUse"><stop offset="0.26" stop-color="#ffca86"/><stop offset="0.4" stop-color="#cca16b"/><stop offset="0.7" stop-color="#5f4b32"/><stop offset="0.9" stop-color="#1b150e"/><stop offset="1"/></radialGradient><radialGradient id="Áåçûìÿííûé_ãðàäèåíò_455-3" cx="-838.22" cy="-1749.8" r="5.11" gradientTransform="matrix(-0.96, -0.26, -0.26, 0.96, -1138.3, 1527.27)" xlink:href="#Áåçûìÿííûé_ãðàäèåíò_455"/><radialGradient id="Áåçûìÿííûé_ãðàäèåíò_455-4" cx="-1358.18" cy="-1108.76" r="1.23" gradientTransform="matrix(-0.99, 0.17, 0.17, 0.99, -1149.57, 1426.87)" xlink:href="#Áåçûìÿííûé_ãðàäèåíò_455"/><radialGradient id="Áåçûìÿííûé_ãðàäèåíò_31680" cx="-770.1" cy="-1705.43" r="0.64" gradientTransform="matrix(-0.96, -0.26, -0.26, 0.96, -1138.3, 1527.27)" gradientUnits="userSpaceOnUse"><stop offset="0" stop-color="#ff0"/><stop offset="0.12" stop-color="#c7c700"/><stop offset="0.24" stop-color="#929200"/><stop offset="0.37" stop-color="#660"/><stop offset="0.5" stop-color="#414100"/><stop offset="0.62" stop-color="#242400"/><stop offset="0.75" stop-color="#101000"/><stop offset="0.88" stop-color="#040400"/><stop offset="1"/></radialGradient><radialGradient id="Áåçûìÿííûé_ãðàäèåíò_186-2" cx="-1301.44" cy="-719.36" r="5.82" gradientTransform="matrix(-0.93, -0.37, -0.37, 0.93, -1335.59, 350.02)" xlink:href="#Áåçûìÿííûé_ãðàäèåíò_186"/><radialGradient id="Áåçûìÿííûé_ãðàäèåíò_186-3" cx="-739.95" cy="-1717.62" r="5.7" gradientTransform="matrix(-0.96, -0.26, -0.26, 0.96, -1138.3, 1527.27)" xlink:href="#Áåçûìÿííûé_ãðàäèåíò_186"/><radialGradient id="Áåçûìÿííûé_ãðàäèåíò_455-5" cx="-1458.45" cy="-1088.59" r="2.33" gradientTransform="matrix(-0.99, 0.17, 0.17, 0.99, -1149.57, 1426.87)" xlink:href="#Áåçûìÿííûé_ãðàäèåíò_455"/><radialGradient id="Áåçûìÿííûé_ãðàäèåíò_4841" cx="2930.39" cy="89.23" r="0.22" gradientTransform="translate(-2893.36)" gradientUnits="userSpaceOnUse"><stop offset="0" stop-color="lime"/><stop offset="0.12" stop-color="#00c700"/><stop offset="0.24" stop-color="#009200"/><stop offset="0.37" stop-color="#060"/><stop offset="0.5" stop-color="#004100"/><stop offset="0.62" stop-color="#002400"/><stop offset="0.75" stop-color="#001000"/><stop offset="0.88" stop-color="#000400"/><stop offset="1"/></radialGradient><radialGradient id="Áåçûìÿííûé_ãðàäèåíò_455-6" cx="-719.97" cy="-1777.69" r="1.9" gradientTransform="matrix(-0.96, -0.26, -0.26, 0.96, -1138.3, 1527.27)" xlink:href="#Áåçûìÿííûé_ãðàäèåíò_455"/><radialGradient id="Áåçûìÿííûé_ãðàäèåíò_186-4" cx="-387.17" cy="-1955.27" r="2.36" gradientTransform="matrix(-0.88, -0.47, -0.47, 0.88, -1195.98, 1587)" xlink:href="#Áåçûìÿííûé_ãðàäèåíò_186"/><radialGradient id="Áåçûìÿííûé_ãðàäèåíò_186-5" cx="-354.58" cy="-1881.23" r="4.65" gradientTransform="matrix(-0.88, -0.47, -0.47, 0.88, -1195.98, 1587)" xlink:href="#Áåçûìÿííûé_ãðàäèåíò_186"/><radialGradient id="Áåçûìÿííûé_ãðàäèåíò_455-7" cx="-340.67" cy="-1953.36" r="1.9" gradientTransform="matrix(-0.88, -0.47, -0.47, 0.88, -1195.98, 1587)" xlink:href="#Áåçûìÿííûé_ãðàäèåíò_455"/><radialGradient id="Áåçûìÿííûé_ãðàäèåíò_455-8" cx="-466.52" cy="-1471.12" r="9.1" gradientTransform="matrix(-0.5, -0.86, -0.86, 0.5, -1460.31, 461.43)" xlink:href="#Áåçûìÿííûé_ãðàäèåíò_455"/><radialGradient id="Áåçûìÿííûé_ãðàäèåíò_455-9" cx="-1437.21" cy="-1090.51" r="3.81" gradientTransform="matrix(-0.99, 0.17, 0.17, 0.99, -1149.57, 1426.87)" xlink:href="#Áåçûìÿííûé_ãðàäèåíò_455"/><radialGradient id="Áåçûìÿííûé_ãðàäèåíò_455-10" cx="-981.5" cy="-1094.26" r="1.75" xlink:href="#Áåçûìÿííûé_ãðàäèåíò_455"/></defs><g class="cls-1"><g id="Layer_2" data-name="Layer 2"><g id="Ñëîé_1" data-name="Ñëîé 1"><g class="cls-2"><g class="cls-3"><path class="cls-4" d="M151,78.47a.21.21,0,1,0,.1.4.21.21,0,0,0-.1-.4Z"/><path class="cls-5" d="M150.55,76.56a2.18,2.18,0,1,0,2.65,1.57A2.18,2.18,0,0,0,150.55,76.56Z"/></g><g class="cls-6"><path class="cls-7" d="M112.07,154.61a0,0,0,0,0,0,.06,0,0,0,0,0,.06,0s0,0,0,0A0,0,0,0,0,112.07,154.61Z"/><path class="cls-8" d="M109.06,153.41a3.28,3.28,0,1,0,4.27-1.83A3.28,3.28,0,0,0,109.06,153.41Z"/></g><g class="cls-9"><path class="cls-4" d="M74,94.36a.05.05,0,0,0,.07,0s0,0,0-.07a.08.08,0,0,0-.07,0S74,94.33,74,94.36Z"/><circle class="cls-10" cx="74.02" cy="94.35" r="2.75"/></g><g class="cls-11"><path class="cls-12" d="M130.84,59.89a.22.22,0,0,0,.15.27.23.23,0,0,0,.28-.15.23.23,0,0,0-.16-.28A.22.22,0,0,0,130.84,59.89Z"/><path class="cls-13" d="M126.13,58.6A5.11,5.11,0,1,0,132.4,55,5.1,5.1,0,0,0,126.13,58.6Z"/></g><g class="cls-14"><path class="cls-15" d="M1.17,104s0,.06.07,0a.08.08,0,0,0,.05-.07.06.06,0,0,0-.07,0A.06.06,0,0,0,1.17,104Z"/><path class="cls-16" d="M0,104.21a1.23,1.23,0,0,0,2.42-.41,1.24,1.24,0,0,0-1.42-1A1.23,1.23,0,0,0,0,104.21Z"/></g><g class="cls-17"><path class="cls-18" d="M53.59,84.8a.07.07,0,1,0,.08,0A.07.07,0,0,0,53.59,84.8Z"/><path class="cls-19" d="M53,84.65a.63.63,0,0,0,.45.78.64.64,0,0,0,.33-1.23A.63.63,0,0,0,53,84.65Z"/></g><g class="cls-20"><path class="cls-21" d="M139.84,166.05a.16.16,0,0,0,.09.22.18.18,0,0,0,.22-.09.17.17,0,0,0-.09-.22A.16.16,0,0,0,139.84,166.05Z"/><path class="cls-22" d="M134.59,164a5.82,5.82,0,1,0,7.57-3.24A5.82,5.82,0,0,0,134.59,164Z"/></g><g class="cls-23"><path class="cls-24" d="M27.56,65.05a.24.24,0,0,0,.17.3.24.24,0,0,0,.29-.17.24.24,0,0,0-.17-.3A.24.24,0,0,0,27.56,65.05Z"/><path class="cls-25" d="M22.29,63.61a5.7,5.7,0,1,0,7-4A5.69,5.69,0,0,0,22.29,63.61Z"/></g><g class="cls-26"><path class="cls-27" d="M103.35,106.92a.13.13,0,0,0,.15.1.12.12,0,0,0,.1-.14.12.12,0,0,0-.14-.11A.13.13,0,0,0,103.35,106.92Z"/><path class="cls-28" d="M101.19,107.29a2.32,2.32,0,1,0,1.89-2.68A2.32,2.32,0,0,0,101.19,107.29Z"/></g><g class="cls-29"><path class="cls-30" d="M36.81,89.17a.22.22,0,0,0,.16.27.21.21,0,0,0,.27-.15.22.22,0,0,0-.16-.27A.22.22,0,0,0,36.81,89.17Z"/></g><g class="cls-31"><path class="cls-32" d="M24.26,1.89a.07.07,0,0,0,0,.08.06.06,0,0,0,.08-.05.07.07,0,0,0,0-.08A.07.07,0,0,0,24.26,1.89Z"/><path class="cls-33" d="M22.49,1.4A1.91,1.91,0,1,0,24.83.07,1.9,1.9,0,0,0,22.49,1.4Z"/></g><g class="cls-34"><path class="cls-35" d="M69.5,47.21a.12.12,0,1,0,.16-.05A.12.12,0,0,0,69.5,47.21Z"/><path class="cls-36" d="M67.52,46.15a2.36,2.36,0,1,0,3.2-1A2.37,2.37,0,0,0,67.52,46.15Z"/></g><g class="cls-37"><path class="cls-38" d="M5.81,97.06a.08.08,0,0,0,0,.11.09.09,0,0,0,.11,0,.1.1,0,0,0,0-.12S5.84,97,5.81,97.06Z"/><path class="cls-39" d="M1.79,94.9A4.65,4.65,0,1,0,8.08,93,4.65,4.65,0,0,0,1.79,94.9Z"/></g><g class="cls-40"><path class="cls-41" d="M27.69,26.94a.05.05,0,1,0,.07,0A0,0,0,0,0,27.69,26.94Z"/><path class="cls-42" d="M26.07,26.07a1.89,1.89,0,0,0,3.34,1.79,1.89,1.89,0,1,0-3.34-1.79Z"/></g><g class="cls-43"><path class="cls-7" d="M45.74,124.49a.21.21,0,0,0-.08.29.21.21,0,0,0,.29.07.2.2,0,0,0,.07-.28A.21.21,0,0,0,45.74,124.49Z"/><path class="cls-44" d="M41.26,116.8a9.11,9.11,0,1,0,12.45,3.29A9.11,9.11,0,0,0,41.26,116.8Z"/></g><g class="cls-45"><path class="cls-46" d="M82.17,108.61a.07.07,0,0,0,0,0s0,0,0-.06a0,0,0,0,0-.05,0S82.17,108.58,82.17,108.61Z"/><path class="cls-47" d="M78.47,109.25a3.81,3.81,0,1,0,3.1-4.4A3.79,3.79,0,0,0,78.47,109.25Z"/></g><g class="cls-48"><path class="cls-49" d="M175.32,88.05a.08.08,0,1,0,.1.06A.09.09,0,0,0,175.32,88.05Z"/><path class="cls-50" d="M174.9,86.43A1.75,1.75,0,1,0,177,87.69,1.74,1.74,0,0,0,174.9,86.43Z"/></g></g></g></g></g></svg>