<svg xmlns="http://www.w3.org/2000/svg" viewBox="0 0 81.83 67.07"><defs><style>.cls-1{isolation:isolate;}.cls-2{opacity:0.34;mix-blend-mode:multiply;}.cls-3{fill:#4f2d41;}</style></defs><g class="cls-1"><g id="Layer_2" data-name="Layer 2"><g id="Ñëîé_1" data-name="Ñëîé 1"><g class="cls-2"><path class="cls-3" d="M72.89,38.67a3.21,3.21,0,0,0-1.24-1.42c-1-.58-2.77-.63-4.68-.44a11,11,0,0,1,1.31-.5c.3-.09.6-.17.9-.23.56,0,1.14,0,1.73,0H71c.58,0,1.17,0,1.77.08a25.86,25.86,0,0,1,9.09,2.32S75,33.63,69.21,33a10.09,10.09,0,0,0-5.46,1.15c.73-1.19,1.49-2.36,2.27-3.5,1.5-1.24,3-2.41,4.23-3.38,2-1.57,3.48-2.64,3.48-2.64a22.23,22.23,0,0,0-4.5,1.55c4.44-5.91,8.45-10.22,8.45-10.22s-.89.24-2.26.77l.09-.09s-7.09,1.57-12.07,6.22c-.52.48-1,1-1.46,1.41C64.74,12,68.2,0,68.2,0c-5,6.46-7.35,17.32-8.51,26.89a12.45,12.45,0,0,0-1.54,2.79C56,10.33,47.34,13,47.34,13c6.42,3,9.22,10.73,10.42,17.81,0,.1,0,.2-.07.29-.93-4.55-2.61-9.32-5.6-12.47-7.4-7.78-13.4-8.43-13.4-8.43A36.56,36.56,0,0,1,47,16.86a17.19,17.19,0,0,0-5.87-2.66A35.11,35.11,0,0,1,55,30.53a7.35,7.35,0,0,0-2.24-2c-4.91-2.79-13.62-3-13.62-3a16.38,16.38,0,0,1,6.6,3.22,47.89,47.89,0,0,0-8.14-.53A26.49,26.49,0,0,1,43,29.6a6.81,6.81,0,0,0-4.16,2.08,13.16,13.16,0,0,1,6.82-.89L46,31l.22.12c.31.17.62.34.92.52l.75.47q1.2.76,2.28,1.59a13.66,13.66,0,0,0-3.09.14c-5.74.67-12.62,5.5-12.62,5.5a25.17,25.17,0,0,1,6.4-2,28.09,28.09,0,0,1,3.69-.4h.17l-.08,0a2.86,2.86,0,0,0-1.18,1.65H42.7l.46,1.93a13.43,13.43,0,0,0,.22,3l-10.52.1c-.12-.92-.21-1.46-.21-1.46a19.84,19.84,0,0,0-.57-3.21A66.49,66.49,0,0,0,29,31c-.18-.39-.35-.75-.51-1.11l-.15-.31-.33-.7-.17-.35c-.09-.2-.19-.39-.28-.58l-.15-.3-.25-.51c0-.09-.09-.17-.13-.26s-.15-.29-.21-.42l-.1-.19c-.07-.14-.14-.27-.19-.38l0-.07-.21-.4,1,0h.48l.08-2.26h.32l.53-1.47-24-.14L4.81,23h.37l.05,2.34,1.57,0-.06.11A82.88,82.88,0,0,0,1.08,38.85,46.69,46.69,0,0,0,.05,49c0-.13,0-.26,0-.39,0,1,0,2,0,3.13C0,58,.26,63.92.27,64l26.26.22c.92,1.38,4.22,5.7,6.19,0a1,1,0,0,1,.05-.16,1.86,1.86,0,0,0,.74.16l14.91-.14a1.37,1.37,0,0,0,.36,0,1.93,1.93,0,0,0,.46-.16l.14,1,19.25-.38L70,49.1l.2-2.24,0-.23c0,.18.1.35.14.52.08.38.15.75.22,1.11,0,.08,0,.17,0,.25.05.31.1.6.14.88a.59.59,0,0,0,0,.13c0,.34.08.66.11.95.1,1,.12,1.72.12,1.72,2.07-3.82,3.06-8.93,2.33-12.17l.38-1.34Z"/></g></g></g></g></svg>