<svg xmlns="http://www.w3.org/2000/svg" xmlns:xlink="http://www.w3.org/1999/xlink" viewBox="0 0 35.25 32.49"><defs><style>.cls-1{isolation:isolate;}.cls-2{fill:#6a5f07;}.cls-3{fill:#6a6907;}.cls-4{fill:url(#Áåçûìÿííûé_ãðàäèåíò_3);}.cls-5{fill:#7f790e;}.cls-6{fill:url(#Áåçûìÿííûé_ãðàäèåíò_531);}.cls-7{fill:#818600;opacity:0.38;}.cls-10,.cls-11,.cls-7,.cls-9{mix-blend-mode:multiply;}.cls-8{fill:#7f3b0d;}.cls-11,.cls-9{fill:#8d3160;}.cls-9{opacity:0.25;}.cls-10{fill:#b53356;opacity:0.6;}.cls-11{opacity:0.18;}</style><linearGradient id="Áåçûìÿííûé_ãðàäèåíò_3" x1="612.99" y1="-50.83" x2="612.99" y2="-80.93" gradientTransform="translate(-599.58 -17.88) rotate(9.23)" gradientUnits="userSpaceOnUse"><stop offset="0.01" stop-color="#4f4104"/><stop offset="1" stop-color="#838f09"/></linearGradient><linearGradient id="Áåçûìÿííûé_ãðàäèåíò_531" x1="479.69" y1="446.87" x2="491.35" y2="431.11" gradientTransform="matrix(0.8, -0.59, 0.59, 0.8, -631.3, -52.96)" gradientUnits="userSpaceOnUse"><stop offset="0" stop-color="#5d5605"/><stop offset="0.26" stop-color="#6e7007"/><stop offset="0.54" stop-color="#7d8708"/><stop offset="0.72" stop-color="#838f09"/></linearGradient></defs><g class="cls-1"><g id="Layer_2" data-name="Layer 2"><g id="Ñëîé_1" data-name="Ñëîé 1"><path class="cls-2" d="M15.8,18.8S10.73,8.72,0,7.15c0,0,7-.27,11.09,1.93S15.8,18.8,15.8,18.8Z"/><path class="cls-3" d="M16.52,28.3S19.17,9.59,9.9,4.46C9.9,4.46,19.34,2.21,16.52,28.3Z"/><path class="cls-2" d="M19.65,17.52S25.42,6.58,32.31,7.42C32.31,7.42,28.17,2.6,19.65,17.52Z"/><path class="cls-2" d="M19.55,19.77s9.77-7.58,15.7-4C35.25,15.79,33.46,9.69,19.55,19.77Z"/><path class="cls-4" d="M16.79,30.78S22.22,11.41,15.09,0C15.09,0,18.36,22.2,16.79,30.78Z"/><path class="cls-2" d="M18.57,30.44s-2.25-20,6.62-30.1C25.19.34,18.4,21.72,18.57,30.44Z"/><path class="cls-5" d="M16.93,28.18s1.25-11,5.44-14.91A22.63,22.63,0,0,1,32.31,8.2S20.68,19.14,16.93,28.18Z"/><path class="cls-5" d="M17.1,27.93S18.46,15,13.42,9,4,2.11,4,2.11A30.94,30.94,0,0,1,17.1,27.93Z"/><path class="cls-5" d="M20.29,24.38s4.36-10.41,15-12.7c0,0-7,.2-10.93,2.68S20.29,24.38,20.29,24.38Z"/><path class="cls-6" d="M22,21.19s-4.64-10.29.92-19.6c0,0-4.62,5.25-5.5,9.82S22,21.19,22,21.19Z"/><path class="cls-3" d="M23.67,25.89S11,11.84,1.15,15.65C1.15,15.65,5.49,7,23.67,25.89Z"/><path class="cls-2" d="M20.52,25.35S16.65,15,11.63,12.21A22.66,22.66,0,0,0,.75,9.7S14.69,17.49,20.52,25.35Z"/><path class="cls-5" d="M19.23,27.63s-1.37-12.91,3.67-19,9.41-6.84,9.41-6.84A31,31,0,0,0,19.23,27.63Z"/><path class="cls-7" d="M9.26,15.77c-7,.14-5.59,5.42-5.59,5.42s-.88-2.84.86-4.32A8,8,0,0,1,9,15.33a7.66,7.66,0,0,0-6.42-.61s1.74-1.46,5.51-.42,5.27.11,5.27.11C10.94,12.17,4,10.57,4,10.57c7.21,1.16,10.35,4.15,10.35,4.15A12.78,12.78,0,0,0,7.13,8.57c6.13,1.79,8,5.94,8,5.94-1.64-4.79-3.88-7.16-4.95-8.08a18.71,18.71,0,0,1,5.66,9l.31-1,.5.29a36.3,36.3,0,0,0-2.54-7.31,42.4,42.4,0,0,1,3.21,8.23,12.32,12.32,0,0,1-.23-4,42.08,42.08,0,0,0-.47-7c1.41,4.08.58,5.77.72,7.47a3.66,3.66,0,0,0,1.82,2.62,7.53,7.53,0,0,1,.43-7.07c-2,5.67,1,8.26,1,8.26.14-5.1,5.16-9.23,5.16-9.23a15.26,15.26,0,0,0-4.78,9.09L22.65,13l-1.08,2.8,1.16-.38c1.39-3.24,5-4.72,5-4.72-3.68,2.27-4.43,4.72-4.43,4.72L25.19,15A13.76,13.76,0,0,1,31,12.61,16.37,16.37,0,0,0,25.84,15h1.75c-3.94.33-5,1.33-5,1.33.78-.24,4.55-1.19,6.32-.46S30,21.51,30,21.51s.36-5-1.91-5.47a13.65,13.65,0,0,0-5.22.31c7.61,0,6.35,9.17,6.35,9.17-.15-1.64-.68-5.24-2.41-6.9a6.09,6.09,0,0,0-1.74-1.14,25.93,25.93,0,0,0-4.17,5.65c.36.35.73.69,1.1,1.07L20.9,23.15c-.41.76-.61,1.23-.61,1.23s0-.67.12-1.66l-.31-.28-.49.74c.59,1.3.91,2.17.91,2.17-.34-.46-.71-.91-1.1-1.37-.11,1.09-.17,2.21-.18,3.38a23.51,23.51,0,0,1-.17-2.65c-.15.95-.26,1.84-.35,2.7l-.36,0c0-.61,0-1.31-.05-2.08l-.56,1.06-.2,1.07-.53,0c0-.12,0-.24.06-.38,0-1-.09-2-.2-3,0,.58-.07,1.17-.13,1.79,0-.6.08-1.29.1-2.06-.12-1.06-.29-2.08-.5-3.06-1.2-1.11-2.47-2.18-3.76-3.19a4.38,4.38,0,0,0-1.12,1.28,20.21,20.21,0,0,0-1.32,5c.71-6.36,2.3-7.41,2.58-7.54l0,0,0,0c-4.77,1.8-4.12,7.1-4,7.92-1.27-7.07,1.72-7.85,2.56-7.94h0a3.66,3.66,0,0,0-3.7,3.82,8.16,8.16,0,0,1,.31-2.37,5.71,5.71,0,0,0-1.09.81,5.9,5.9,0,0,0-1.29,2A9.7,9.7,0,0,1,9.26,15.77Z"/><path class="cls-8" d="M3.93,16.35l27.8.21-.67,2.36-1,.42-.85,3.94a11.67,11.67,0,0,1-23-.93l-.41-3.13A3.19,3.19,0,0,0,5,19Z"/><path class="cls-9" d="M29.86,19.38a160.78,160.78,0,0,1-23.79-.1Z"/><path class="cls-10" d="M30,19.34S26.67,29.14,17.67,30,5.77,19.22,5.77,19.22l.41,3.13a11.67,11.67,0,0,0,23,.93Z"/><path class="cls-10" d="M5.86,19.93l.09.66-.18-1.37A3.19,3.19,0,0,0,5,19L3.93,16.35l2.21,1.89,23.72-.08,1.87-1.6-.67,2.36-1,.42-.13.59C28.59,20.2,18,20,5.86,19.93Z"/><path class="cls-11" d="M28.73,24.76s-.94-4.23-2.47-5.4l-1,0s-.46-2.29-5.78-2.92h2.67l7,1.39.34,3.69L29,23.84Z"/><path class="cls-11" d="M16.07,16.44a5.88,5.88,0,0,0-3.52,2.84l-.76,0A45.29,45.29,0,0,0,9.9,29.45l-.66-.57-.74-.95a15.87,15.87,0,0,1-1.1-8.16,7.29,7.29,0,0,0-.84,4.34s-.23-.83-.73-4.1,2.22-3.66,2.22-3.66h5.11Z"/><path class="cls-5" d="M15.43,16.41s-4.15-1.62-6.79.3.61,13.73.61,13.73,1-9.37,2.22-11.53A5.8,5.8,0,0,1,15.43,16.41Z"/><path class="cls-5" d="M20.08,16.49l.41-.13c1.58-.48,7.21-2.06,9.15-1,2.27,1.28,1.73,7.05-.35,11,0,0-.19-5.56-2.47-7.75S20.08,16.49,20.08,16.49Z"/><path class="cls-5" d="M13.57,16.49l-.41-.13C11.59,15.88,6,14.3,4,15.39c-2.27,1.28-1.73,7.05.35,11,0,0,.19-5.56,2.47-7.75S13.57,16.49,13.57,16.49Z"/><path class="cls-7" d="M20.08,16.49l.41-.13A29.39,29.39,0,0,1,27.58,15c-3.93.33-5,1.33-5,1.33.78-.24,4.55-1.19,6.32-.46S30,21.51,30,21.51s.36-5-1.91-5.47a13.65,13.65,0,0,0-5.22.31c7.61,0,6.35,9.17,6.35,9.17a1.11,1.11,0,0,1,0-.19,1.49,1.49,0,0,1,0-.21l0-.2c0-.09,0-.2,0-.3a1,1,0,0,0,0-.16c0-.16-.05-.33-.07-.51a.36.36,0,0,1,0-.11c0-.14-.06-.29-.08-.44a1,1,0,0,1,0-.17c0-.15-.06-.29-.1-.45l0-.14c0-.19-.1-.39-.15-.59a.14.14,0,0,1,0-.07l-.16-.52-.06-.16c-.05-.15-.1-.3-.16-.45l-.06-.14c-.08-.19-.16-.38-.25-.56s-.19-.35-.28-.51l-.09-.14-.24-.35a.64.64,0,0,1-.1-.13A4.88,4.88,0,0,0,26,18L26,18A12.44,12.44,0,0,0,20.08,16.49Z"/><path class="cls-7" d="M9.26,15.77c-7,.14-5.59,5.42-5.59,5.42s-.88-2.84.86-4.32A7.93,7.93,0,0,1,9,15.33c.78.14,1.55.32,2.22.48a10.53,10.53,0,0,1,4.25.6,6.44,6.44,0,0,0-2.84,1.22,4.57,4.57,0,0,0-.6.57,4.19,4.19,0,0,0-.52.71c-.05.1-.11.22-.16.34s0,.05,0,.08-.1.26-.15.41l0,.08c-.05.14-.09.3-.14.46l0,.06-.15.56,0,.11c-.1.41-.2.85-.29,1.31l0,.09c0,.23-.1.47-.14.71s-.1.55-.15.8c.71-6.36,2.3-7.41,2.58-7.54l0,0,0,0c-4.77,1.8-4.12,7.1-4,7.92-1.27-7.07,1.72-7.85,2.56-7.94h0a3.66,3.66,0,0,0-3.7,3.82c0-.22,0-.43,0-.63v-.06l.06-.59c0-.2,0-.36.08-.51l0-.12c0-.16.08-.32.12-.46a5.71,5.71,0,0,0-1.09.81,3.22,3.22,0,0,0-.39.43c-.08.1-.15.21-.23.32a.91.91,0,0,1-.11.16,4.53,4.53,0,0,0-.27.48c-.12.23-.2.41-.29.61A9.7,9.7,0,0,1,9.26,15.77Z"/></g></g></g></svg>