<svg xmlns="http://www.w3.org/2000/svg" viewBox="0 0 87.15 93.09"><defs><style>.cls-1{isolation:isolate;}.cls-2{opacity:0.34;mix-blend-mode:multiply;}.cls-3{fill:#4f2d41;}</style></defs><g class="cls-1"><g id="Layer_2" data-name="Layer 2"><g id="Ñëîé_1" data-name="Ñëîé 1"><g class="cls-2"><path class="cls-3" d="M67.86,46.29a44.58,44.58,0,0,1,19.29,4.9S74.5,41.34,63.93,40a13.68,13.68,0,0,0-2.12-.09,5.37,5.37,0,0,0-3.29-1.12,7.34,7.34,0,0,0-.94.14A17.19,17.19,0,0,1,61.1,37.7a40.48,40.48,0,0,1,19,3.58A60.53,60.53,0,0,0,65.6,34a22,22,0,0,1,13.49,1.64s-6.68-8.27-17.62-2.58l-.31,0a11.89,11.89,0,0,0-2.31,0c.67-.57,1.36-1.14,2.08-1.69A44.25,44.25,0,0,1,78.59,23a74.92,74.92,0,0,0-17.91,3c4.07-3.22,7.26-5.54,7.26-5.54a31.89,31.89,0,0,0-16,8.85A176,176,0,0,1,70.61,8.47a45.08,45.08,0,0,0-8.34,2.95A61,61,0,0,1,74.9,0s-10,1.76-21.56,15.68a26.07,26.07,0,0,0-2.56,3.75,34,34,0,0,0-4.09,4.72c2-9.4,6.14-18.38,14.23-22.85,0,0-8.77-2.08-13.48,11.82,1-7,1.9-11.76,1.9-11.76-2.25,2.25-3.76,5.71-4.75,9.84L43,10.87l-2.36.33a86.71,86.71,0,0,1,2.4,13.19c0,.71,0,1.41,0,2.12C41.52,15.3,38.55,4.39,32.8.1c0,0,2.78,8,5.64,18.67a20.16,20.16,0,0,0-1.84-2.36C27.18,6.18,19,4.88,19,4.88a49.18,49.18,0,0,1,11.19,9.37A53.75,53.75,0,0,0,11.63,4.88,239.19,239.19,0,0,1,27.3,23.19a72.9,72.9,0,0,0-10.19-1.32,21.6,21.6,0,0,0-2.2-.7s3.45,2.78,8,6.74a10.31,10.31,0,0,0-7.3,3.2,19.88,19.88,0,0,1,9.31-1.44c1.58,1.39,3.24,2.88,4.9,4.43-.57,0-1.17.1-1.85.18a23.36,23.36,0,0,0-3.09.6,5.25,5.25,0,0,0-1.36.39A60.36,60.36,0,0,0,9,42.55a38.23,38.23,0,0,1,7.8-2.65C8.16,43.12,0,49.47,0,49.47a44.07,44.07,0,0,1,16.15-4.71,37.88,37.88,0,0,0-2.8,12.05S19.07,48,25.42,45.15a1,1,0,0,0,.33-.11l.48-.19c1,.1,1.95.22,2.88.37l-.55.14a5.71,5.71,0,0,0-.88.3c-.33.14-.66.31-1,.48l-.31.18c-.23.12-.45.26-.68.4l-.34.22c-.23.14-.45.29-.67.45l-.3.21c-.27.2-.54.4-.8.61H22.07l.25,1.07-.16.14-.31.28-.54.5a48.18,48.18,0,0,0-5.08,5.74,26,26,0,0,1,6.59-4.54l1.4,6s.63.2,1.77.48a122.83,122.83,0,0,0,.9,20.26s.94-3.81,2.28-8.54l.35,2.24,0-.06,2,13.88,12.83-.26A13.8,13.8,0,0,0,45.13,87s0-.67.15-1.62l2.24,0a11.91,11.91,0,0,0,1.73,3.2,1.18,1.18,0,0,0,.11.15l.1.13c.31,1.35.56,2.26.56,2.26s.06-.55.16-1.41l.49.42a11.66,11.66,0,0,0,18.82-4.7s.06-.15.06-.15c.08-.25.16-.5.22-.75l0,.11a.77.77,0,0,0,0,.1c0,.24.07.47.1.69a.78.78,0,0,0,0,.14c0,.23,0,.45.06.63.05.52.06.85.06.85a15.83,15.83,0,0,0,1.81-7.56l.64-2.25H71.4a2.43,2.43,0,0,0-1-1.16,2.79,2.79,0,0,0-.74-.25A8.41,8.41,0,0,1,76,76.4s-1-3.27-7-1a19.23,19.23,0,0,1,7-3.07,33.08,33.08,0,0,0-7.51,1.2c2.59-2.82,4.57-4.68,4.57-4.68a22.94,22.94,0,0,0-9.6,4.77c2.34-2.89,5.8-6,9.6-5.55,0,0-3.06-3.54-9.31,4.89a29.65,29.65,0,0,1,9.31-10.51s-4.36.77-9.41,6.84l-.25.33C64.78,64.64,66,60.94,66,60.94a25.51,25.51,0,0,0-5,9.56,19.55,19.55,0,0,1,2.65-8.31,35.69,35.69,0,0,0-3,4.11L61.38,58c.76-.19,1.51-.4,2.27-.62l1.42-5,.18.14,1.51,1.25.5.42c.63.53,1.26,1.06,1.87,1.59l.07.06c4.65,4,8.64,7.82,8.64,7.82A124.08,124.08,0,0,0,67.86,46.29ZM31.4,30.53a20.17,20.17,0,0,0-3.46-1.72,37.26,37.26,0,0,0-8.7-6C24.17,24.69,27.63,28.31,31.4,30.53Zm3,2.52q.69,1,1.35,2a9,9,0,0,0-2.63-.92c-1-1.12-2-2.24-3.07-3.32A24,24,0,0,1,34.43,33.05Z"/></g></g></g></g></svg>