<svg xmlns="http://www.w3.org/2000/svg" viewBox="0 0 32.94 55.48"><defs><style>.cls-1{isolation:isolate;}.cls-2{opacity:0.34;mix-blend-mode:multiply;}.cls-3{fill:#4f2d41;}</style></defs><g class="cls-1"><g id="Layer_2" data-name="Layer 2"><g id="Ñëîé_1" data-name="Ñëîé 1"><g class="cls-2"><path class="cls-3" d="M32.94,32.41A33.22,33.22,0,0,0,28,33a15,15,0,0,0,2.25-6.42,13.31,13.31,0,0,0-2.49,1.09c2-4.43,4.12-9.51,4.85-12.87,0,0-1.56,2.48-3.4,5.86A130.46,130.46,0,0,0,31.5,5.79,39.31,39.31,0,0,0,21.91,19.9c.23-5.89.21-12.4-.68-16.65A111.34,111.34,0,0,0,19,20.52,21.07,21.07,0,0,0,12.9,12.1a51.79,51.79,0,0,0,1,14C11,19.91,6.62,11.33,0,0,0,0,6,16.31,12,28A146.41,146.41,0,0,0,2.87,14.56S6.31,21.18,10,27a51.06,51.06,0,0,0-6.9-7.09A95.77,95.77,0,0,0,10.43,31.4a20.93,20.93,0,0,0-9.28-3.32A15.57,15.57,0,0,0,9.33,37a15.48,15.48,0,0,0-4.57.8s1.62.5,3.78.95l.08.05L9,40.36l.53,2.23s.55.17,1.53.39c0,0,0,.11,0,.3l1.78,12.2,12.49-.24,1.11-12.37c.34-.08.69-.18,1-.28l1.16-4.11.43-.2A11.66,11.66,0,0,0,26,37.12,11.18,11.18,0,0,0,32.94,32.41Z"/></g></g></g></g></svg>