<svg xmlns="http://www.w3.org/2000/svg" xmlns:xlink="http://www.w3.org/1999/xlink" viewBox="0 0 194.13 143.77"><defs><style>.cls-1{isolation:isolate;}.cls-2{fill:#7c5970;}.cls-3{opacity:0.34;}.cls-11,.cls-15,.cls-16,.cls-17,.cls-20,.cls-25,.cls-3,.cls-6,.cls-8{mix-blend-mode:multiply;}.cls-4{fill:#4f2d41;}.cls-5{fill:#281528;}.cls-16,.cls-6{opacity:0.47;}.cls-7{fill:url(#Áåçûìÿííûé_ãðàäèåíò_52);}.cls-8{fill:#b53356;opacity:0.74;}.cls-9{fill:url(#Áåçûìÿííûé_ãðàäèåíò_108);}.cls-10,.cls-21,.cls-22{opacity:0.49;}.cls-10,.cls-19,.cls-21,.cls-22{mix-blend-mode:screen;}.cls-10{fill:url(#Áåçûìÿííûé_ãðàäèåíò_197);}.cls-11,.cls-25{fill:#773960;}.cls-11,.cls-20{opacity:0.53;}.cls-12{fill:#2b1033;}.cls-13{fill:#341a33;}.cls-14{fill:#493149;}.cls-15{fill:#3a3533;opacity:0.08;}.cls-16{fill:url(#linear-gradient);}.cls-18{fill:#5e4e4e;}.cls-19{opacity:0.68;}.cls-20{fill:url(#Áåçûìÿííûé_ãðàäèåíò_1107);}.cls-21{fill:url(#Áåçûìÿííûé_ãðàäèåíò_196);}.cls-22{fill:url(#Áåçûìÿííûé_ãðàäèåíò_1105);}.cls-23{fill:url(#Áåçûìÿííûé_ãðàäèåíò_127);}.cls-24{fill:url(#Áåçûìÿííûé_ãðàäèåíò_127-2);}.cls-25{opacity:0.32;}</style><linearGradient id="Áåçûìÿííûé_ãðàäèåíò_52" x1="110.37" y1="19.93" x2="149.94" y2="19.93" gradientUnits="userSpaceOnUse"><stop offset="0" stop-color="#9e2e46"/><stop offset="0.46" stop-color="#be503b"/><stop offset="0.84" stop-color="#d46733"/><stop offset="0.91" stop-color="#d56833"/></linearGradient><linearGradient id="Áåçûìÿííûé_ãðàäèåíò_108" x1="99.38" y1="113.35" x2="50.3" y2="3.39" gradientUnits="userSpaceOnUse"><stop offset="0" stop-color="#2b1033"/><stop offset="1" stop-color="#543d51"/></linearGradient><linearGradient id="Áåçûìÿííûé_ãðàäèåíò_197" x1="83.96" y1="74.86" x2="60.89" y2="33.78" gradientUnits="userSpaceOnUse"><stop offset="0"/><stop offset="0.15" stop-color="#070306"/><stop offset="0.36" stop-color="#1a0c15"/><stop offset="0.61" stop-color="#391c2e"/><stop offset="0.89" stop-color="#653051"/><stop offset="1" stop-color="#773960"/></linearGradient><linearGradient id="linear-gradient" x1="20.98" y1="45.63" x2="37.31" y2="45.63" gradientUnits="userSpaceOnUse"><stop offset="0" stop-color="#6f4d47"/><stop offset="0.63" stop-color="#4c3b38"/><stop offset="1" stop-color="#35302f"/></linearGradient><linearGradient id="Áåçûìÿííûé_ãðàäèåíò_1107" x1="80.35" y1="121.87" x2="80.35" y2="74.68" gradientUnits="userSpaceOnUse"><stop offset="0.13" stop-color="#fff"/><stop offset="0.22" stop-color="#f9f6f8"/><stop offset="0.37" stop-color="#e9dfe5"/><stop offset="0.54" stop-color="#ceb8c6"/><stop offset="0.75" stop-color="#aa839b"/><stop offset="0.98" stop-color="#7c4065"/><stop offset="1" stop-color="#773960"/></linearGradient><linearGradient id="Áåçûìÿííûé_ãðàäèåíò_196" x1="164.92" y1="27.4" x2="119.49" y2="31.34" gradientTransform="translate(-2.01 42.29) rotate(-4.79)" gradientUnits="userSpaceOnUse"><stop offset="0" stop-color="#773960"/><stop offset="0.32" stop-color="#462239"/><stop offset="0.61" stop-color="#200f1a"/><stop offset="0.85" stop-color="#090407"/><stop offset="1"/></linearGradient><linearGradient id="Áåçûìÿííûé_ãðàäèåíò_1105" x1="988.88" y1="114.34" x2="988.88" y2="66.3" gradientTransform="matrix(-0.68, -0.06, -0.15, 0.98, 719.23, 31.46)" gradientUnits="userSpaceOnUse"><stop offset="0"/><stop offset="0.15" stop-color="#090407"/><stop offset="0.39" stop-color="#200f1a"/><stop offset="0.68" stop-color="#462239"/><stop offset="1" stop-color="#773960"/></linearGradient><linearGradient id="Áåçûìÿííûé_ãðàäèåíò_127" x1="92.41" y1="92.2" x2="117.23" y2="132.86" gradientUnits="userSpaceOnUse"><stop offset="0" stop-color="#543d51"/><stop offset="1" stop-color="#2b1033"/></linearGradient><linearGradient id="Áåçûìÿííûé_ãðàäèåíò_127-2" x1="217.49" y1="91.19" x2="243.86" y2="134.39" gradientTransform="matrix(-1, 0, 0, 1, 285.12, 0)" xlink:href="#Áåçûìÿííûé_ãðàäèåíò_127"/></defs><g class="cls-1"><g id="Layer_2" data-name="Layer 2"><g id="Ñëîé_1" data-name="Ñëîé 1"><path class="cls-2" d="M0,122.56,6.14,135s70.7,14.3,142.37,0L155,121s-24.25-8.13-77.49-7.63S0,122.56,0,122.56Z"/><g class="cls-3"><path class="cls-4" d="M0,122.56S56.23,134.79,155,121l-1.9,11.41L194.13,135S59.72,154.74,1.65,135l1.93-.77Z"/></g><path class="cls-5" d="M99.51,112.6s10.77-13.16,22.19-19.93l1.56,23.7-9.6.4Z"/><g class="cls-6"><path class="cls-4" d="M29.82,138.49,26,126l13.94-3.09S22,122,15.75,121s37.25-7.56,70.47-6.8,59.91,6.44,56.51,6.8l-14.64,1.54,3.23,1.36-1,14.57h-1.36l.68-13.89-3.4-2-26.56,1.53.18,2.44-.18,14.41H98.39l-.9-14,.9-2.81s-24.64.64-29.62.26l-4.85,3.17,1.4,13.55H63.66l-2.29-13.46,6.07-3.39-23.81-1.4-14.82,3.83,2.43,11.87Z"/></g><path class="cls-5" d="M61.65,111.12S50.89,98,39.46,91.19l-2.15,24.87,9.79-.28Z"/><g class="cls-6"><path class="cls-4" d="M21,121.63c7.77.72,18.89,1.25,18.89,1.25l.88.71,2.84-.73,23.81,1.4.58.62.75-.49c5,.38,29.62-.26,29.62-.26l1.36,1.19-.09-1.23,26.56-1.53,1.1.67.77-.67,8.91-.94c-6.66-1.1-17.8-3.62-49.09-4.66C48.93,115.66,21,121.63,21,121.63Z"/></g><path class="cls-7" d="M110.37,36.24s12.76-27,17.7-32.58,20-3.32,21.58-2.49-3.85,4.56-9,4.36a94.39,94.39,0,0,0-10.49.41c-1.3,0-15.62,33.93-15.62,33.93Z"/><path class="cls-8" d="M130.16,5.94a94.39,94.39,0,0,1,10.49-.41,13.18,13.18,0,0,0,8.75-3.07c-3.83,3-19.3,1.76-20.27,2.44s-13.69,25.24-13.69,25.24l2.89.85C122.67,20.94,129.29,5.94,130.16,5.94Z"/><path class="cls-9" d="M140.73,71.65c0,33.37-27.06,50.22-60.43,50.22S19.87,105,19.87,71.65c0-17.86,6.06-32.4,18.22-43.85,0,0,23.27,1.43,38.79,1.43s45.2-.34,45.2-.34C134.61,40.34,140.73,53.73,140.73,71.65Z"/><path class="cls-10" d="M140.08,73.14c0,32-25.93,48.13-57.91,48.13S24.26,105.12,24.26,73.14c0-19.58,7.19-34.68,21.91-45.57,0,0,20.41.36,32.81.36,10.94,0,36.46-.13,36.46-.13C132.4,38.35,140.08,52.09,140.08,73.14Z"/><path class="cls-11" d="M32,34.46s39.51,21.07,96.09.63L126.5,33.3l-8.11-.52-85.58.65Z"/><polygon class="cls-12" points="47.07 35.32 51.21 34.72 52.79 35.65 55.28 34.86 54.13 31.12 44.02 32.19 47.07 35.32"/><path class="cls-13" d="M30.19,27.08v5.41c0,1.13,6.54,2.14,16.88,2.83l3-3-1,3.09,3.69.2L53,31.43l1.67,4.31c7.26.32,15.68.5,24.67.5,27.16,0,49.18-1.68,49.18-3.75V27.08Z"/><path class="cls-14" d="M128.56,27.08c0,2.07-22,1.21-49.18,1.21s-49.19.86-49.19-1.21h98.37Z"/><polygon class="cls-12" points="45.74 28.04 42.29 28.41 42.84 32.31 43.59 28.55 45.74 28.04"/><polygon class="cls-12" points="116.35 27.99 118.95 28.41 118.95 32.35 120.79 28.21 116.35 27.99"/><path class="cls-15" d="M73.38,31.89c0,.75-1.8,2.48-5.42,2.48s-7.69-1.73-7.69-2.48,5.4-1.5,9-1.5S73.38,31.14,73.38,31.89Z"/><path class="cls-15" d="M82,32.91c0,.92-3.07,2.18-5,2.18s-3.44-.74-3.44-1.66,1.54-1.66,3.44-1.66S82,32,82,32.91Z"/><path class="cls-15" d="M108.65,34.11c0-.67-1.31-2-2.71-2s-5.63,1.93-5.63,2.6,4.4.6,5.8.6S108.65,34.78,108.65,34.11Z"/><path class="cls-15" d="M48.94,32.1c0,.94-2.81,2.94-4.86,2.94s-5.87-1.5-5.87-2.43,3.82-.95,5.87-.95S48.94,31.17,48.94,32.1Z"/><path class="cls-15" d="M38.21,29.58c0-.47-1.89-1.08-2.7-1.08s-2.62-.46-2.62,0,1.8,1.67,2.62,1.67S38.21,30,38.21,29.58Z"/><path class="cls-15" d="M90.84,32c0-.74.81-1.33,1.79-1.33s4.9-1,4.9-.3-2.11,2.11-3.1,2.11S90.84,32.76,90.84,32Z"/><path class="cls-12" d="M36.83,31.77a1.24,1.24,0,1,1-1.21-1.51A1.4,1.4,0,0,1,36.83,31.77Z"/><polygon class="cls-16" points="33.62 32.88 33.62 35.26 34.21 35.54 33.91 36.11 35.4 36.5 22.59 53.34 20.98 59.98 37.31 36.92 37.31 35.3 36.46 35.08 36.08 31.29 33.62 32.88"/><path class="cls-2" d="M33.84,31.42c-4.61.69-9.24,4.26-12.42,9.34-4.27,6.81-4,15.13-.58,19.87.41-2.18.75-4.84,1.37-6.94a20.62,20.62,0,0,1,3-12.93,22.42,22.42,0,0,1,6.64-6.87c2.08-1.36,2.55-1.08,3.48-2.14C35.78,31.15,35,31.24,33.84,31.42Z"/><g class="cls-17"><path class="cls-18" d="M92.6,66.57s10.37-6.76,8.78-16C101.38,50.53,101.29,59.11,92.6,66.57Z"/><path class="cls-18" d="M109,64.68a23.48,23.48,0,0,0-5.13,1C105.3,65.85,109,64.68,109,64.68Z"/><path class="cls-18" d="M126.28,68.73C131,65.81,138.09,62,138.09,62,135.86,61.74,126.28,68.73,126.28,68.73Z"/><path class="cls-18" d="M134.9,55.2l1.42-3.73C135.51,51.47,134.9,55.2,134.9,55.2Z"/><path class="cls-18" d="M133.13,50.53c0-1.28-2.65-3.12-2.65-3.12C130.44,48,133.13,50.53,133.13,50.53Z"/><path class="cls-18" d="M60.52,62A20.69,20.69,0,0,0,61.28,72a15.7,15.7,0,0,1-4.79-6.24c1.07,4.24,3.28,6.39,5.27,7.48a13.47,13.47,0,0,0,3.59,5,13,13,0,0,1-2.85-4.66,8.71,8.71,0,0,0,3.22.77,14.75,14.75,0,0,1-3.56-1.74A38.9,38.9,0,0,1,60.52,62Z"/><path class="cls-18" d="M29.12,50.53l6.5-2.33C33.61,47.66,29.12,50.53,29.12,50.53Z"/><path class="cls-18" d="M30.93,45.64a21.64,21.64,0,0,0-2.44-3.5A9.21,9.21,0,0,0,30.93,45.64Z"/></g><g class="cls-19"><path class="cls-12" d="M92.61,66.57s10.37-6.77,8.78-16C101.39,50.53,100.88,58.55,92.61,66.57Z"/><path class="cls-12" d="M109,64.68a9.12,9.12,0,0,0-5.13,1C105.3,65.85,109,64.68,109,64.68Z"/><path class="cls-12" d="M126.28,68.73C131,65.81,138.1,62,138.1,62,134.9,61.66,126.28,68.73,126.28,68.73Z"/><path class="cls-12" d="M134.9,55.2l1.43-3.73C135.51,51.47,134.9,55.2,134.9,55.2Z"/><path class="cls-12" d="M133.14,50.53c0-1.28-2.65-3.12-2.65-3.12C130.45,48,133.14,50.53,133.14,50.53Z"/><path class="cls-12" d="M60.52,62A20.8,20.8,0,0,0,61.29,72a26.47,26.47,0,0,1-4.79-6.24c1.07,4.24,3.28,6.39,5.27,7.48a13.34,13.34,0,0,0,3.59,5c-1.24-1.21-1.77-2.91-2.85-4.66a8.56,8.56,0,0,0,3.22.76,12.93,12.93,0,0,1-3.34-1.8A44.59,44.59,0,0,1,60.52,62Z"/><path class="cls-12" d="M29.13,50.53l6.49-2.33C32.85,47.53,29.13,50.53,29.13,50.53Z"/><path class="cls-12" d="M30.94,45.63c-.11-1.19-2.44-3.49-2.44-3.49A9,9,0,0,0,30.94,45.63Z"/></g><path class="cls-20" d="M80.3,121.87c32.35,0,58.76-15.83,60.35-47.19-.06.41-.11.83-.16,1.27-3.63,31.57-116.65,31.66-120.43.19C22.39,106.53,48.46,121.87,80.3,121.87Z"/><path class="cls-21" d="M124.14,86.92c4.65-12.58-12.76-45.5-12.76-45.5s8.68-2.92,13.18-2.49S139.33,61.27,138,74,124.14,86.92,124.14,86.92Z"/><path class="cls-22" d="M34.85,88C28.74,58.29,45.33,41.86,45.33,41.86a12.34,12.34,0,0,0-6.54-1.18c-3.14.53-13.78,18-14,30.52A17.74,17.74,0,0,0,34.85,88Z"/><path class="cls-23" d="M92.6,120.66s10.77-13.15,22.19-19.92l1.56,23.69-9.6.41Z"/><path class="cls-24" d="M66.82,120.66s-10.77-13.15-22.19-19.92L42.47,125.6l9.8-.28Z"/><path class="cls-25" d="M21.43,84.71s5.4-1.37,8.28.29,8,11.11,9.12,13.44-5.2,3.63-3.21,5.66,4.88,6.52,6.85,2.64S43,98.52,44,98,56.9,92.6,63,93.37s15.58,7.24,15.45,10.26-3.19,2-5.87,4.93S67.88,113,72,114.31s6.83,6.83,8.39,1.75-2.91-7.83,1.82-9.32,5.73-5.47,8.67-.61,12.26,3.38,14.63.61,2-7.56,7.73-10.79,17.1-7.18,14.87-.67-2.4,7.89-5.77,6.56-3.48,4-1.51,5.7,4.89-4.41,7.77-5.72,3.65-10,6.34-12.28a47.36,47.36,0,0,0,4-3.78,46,46,0,0,1-23.21,28.89s-1.1-10.82-1.87-11.07-10.83,7.18-12.5,9.59,6.25,10.71,6.25,10.71l8.77.55-9.6.41-12.86-3.79s-11.62,3.8-28.26,0l-13.36,4.27-9.8.28s7.92-.19,9.83-1.85,4.31-10.47,4.2-12.25-10.87-7.42-11.17-7.92-1.78,9.59-1.78,9.59S25.8,105.29,21.43,84.71Z"/><path class="cls-25" d="M97.08,94.13c-3,.33-.61,6.23,1,7.71s5.13-4.32,8.31-5.56,6.75-1.25,6.5-4.7-.89-9.7-5.62-9.7-7.78,9.19-9.19,9.57S99.48,93.88,97.08,94.13Z"/><path class="cls-25" d="M114.22,82.5c-3.54-.59-2.66-2.19-1.27-4.28S117.92,83.13,114.22,82.5Z"/><path class="cls-25" d="M46.69,93.88c2.81,1.66,7.53-4.34,11.23-3.83s.59-2.82-1.43-5S50,86.79,47.58,89.44,44.53,92.6,46.69,93.88Z"/><path class="cls-25" d="M38.21,85.58c-3.51.81,2.88,5.36,4.08,5.61s4.15-2,4.4-4.11-2.4-7.24-4.4-7.75S41.86,84.74,38.21,85.58Z"/></g></g></g></svg>