<svg xmlns="http://www.w3.org/2000/svg" xmlns:xlink="http://www.w3.org/1999/xlink" viewBox="0 0 98.3 66.68"><defs><style>.cls-1{isolation:isolate;}.cls-2{fill:url(#Áåçûìÿííûé_ãðàäèåíò_18);}.cls-3{fill:#6d163f;}.cls-4{opacity:0.67;}.cls-5{fill:#6d0029;}.cls-6,.cls-9{opacity:0.49;}.cls-6,.cls-7,.cls-9{mix-blend-mode:multiply;}.cls-6{fill:url(#Áåçûìÿííûé_ãðàäèåíò_155);}.cls-7{fill:#9f008d;opacity:0.78;}.cls-8{fill:url(#Áåçûìÿííûé_ãðàäèåíò_18-2);}.cls-9{fill:url(#Áåçûìÿííûé_ãðàäèåíò_152);}.cls-10{fill:#3a2038;}</style><linearGradient id="Áåçûìÿííûé_ãðàäèåíò_18" x1="19.49" y1="2.45" x2="37.27" y2="73.83" gradientUnits="userSpaceOnUse"><stop offset="0.1" stop-color="#bb5924"/><stop offset="0.38" stop-color="#ad4a1b"/><stop offset="1" stop-color="#932d09"/></linearGradient><linearGradient id="Áåçûìÿííûé_ãðàäèåíò_155" x1="141.18" y1="34.27" x2="-37.98" y2="34.27" gradientUnits="userSpaceOnUse"><stop offset="0.44" stop-color="#92008d"/><stop offset="0.9" stop-color="#fff"/></linearGradient><linearGradient id="Áåçûìÿííûé_ãðàäèåíò_18-2" x1="64.79" y1="27.56" x2="76.08" y2="72.86" xlink:href="#Áåçûìÿííûé_ãðàäèåíò_18"/><linearGradient id="Áåçûìÿííûé_ãðàäèåíò_152" x1="118.97" y1="45.79" x2="9.32" y2="45.79" gradientUnits="userSpaceOnUse"><stop offset="0.28" stop-color="#92008d"/><stop offset="0.9" stop-color="#fff"/></linearGradient></defs><g class="cls-1"><g id="Layer_2" data-name="Layer 2"><g id="Ñëîé_1" data-name="Ñëîé 1"><path class="cls-2" d="M32.7,12.51a15.61,15.61,0,0,1-1.64-7.76C31.31.34,32-.07,32.7,0s4.66,1.06,4.9,1.47-1.88,1.14,0,1.63,2-.16,2-.73,2,.65,2.62,1.55S40.79,10,39.48,10.47c0,0,2.45-.82,3.76.57,0,0,2.53-1.3,5.23,3.68s5.89,14,13.24,24.77S67.59,64,51,66.26c0,0-45.11-.23-48.63-.75s-3.84-3.79,4-17.77,11.77-16.59,14.46-22.8,5.89-10.3,9.24-10.71C30.08,14.23,31.23,12,32.7,12.51Z"/><polygon class="cls-3" points="35.97 40.14 38.85 43.41 39.13 43.1 36.62 39.5 35.97 40.14"/><polygon class="cls-3" points="40.65 37.94 42.45 40.2 42.82 39.98 41.73 37.36 40.65 37.94"/><polygon class="cls-3" points="44.96 54.47 44.08 51.91 44.52 51.91 45.56 54.47 44.96 54.47"/><g class="cls-4"><path class="cls-5" d="M33.62,44.64S38.69,51.91,40,57.06L52,45.79l-7.19-9.32Z"/></g><path class="cls-6" d="M61.71,39.49C54.36,28.7,51.17,19.71,48.47,14.72S43.24,11,43.24,11c-1.31-1.39-3.76-.57-3.76-.57a1.3,1.3,0,0,0,.31-.19l.12-.11a2.4,2.4,0,0,0,.21-.23c.05,0,.09-.11.14-.17l.2-.27.15-.24q.09-.13.18-.3l.15-.27a3.59,3.59,0,0,0,.17-.34l.15-.29.16-.36.13-.3L41.7,7c0-.09.08-.19.11-.28l0-.09c.06-.16.12-.35.18-.53-.32,1.41-3.64,3.47-3.34,1.26a8.28,8.28,0,0,0,.87-4.49c-.18.35-.65.56-1.95.22-.92-.23-.88-.53-.63-.82-2.68,2.21-2.77,4.36-2.34,6-.4,2.16-1.17,2.62-1.89,2.13l-.06,0A5.82,5.82,0,0,1,31.09,6.7a15.79,15.79,0,0,0,.32,2.12.49.49,0,0,0,0,.15l.06.24a7,7,0,0,0,.18.69c0,.09.05.17.07.26s.13.41.2.6l.06.17.23.61.08.17a3.11,3.11,0,0,0,.14.31c0,.06,0,.1.06.15l.1.19,0,.07.05.08c-1.47-.49-2.62,1.72-2.62,1.72s.51-.09,1-.13c0,.19-.65.65,0,.38-1.76.73-2.26.81-2.37,2.61s1.69,3.6,1.69,3.6-1.3-4.25.44-5.56c.57-.43,1.28-.92,2-1.37,1.13-.4,2.28-.58,2.22.48a8.12,8.12,0,0,0-1.32,2.42c-.55,1.9.81,4.85.81,4.85a25.49,25.49,0,0,1,.5-5.13c.6-.31,2.07-4.36,5.77-4.27,3.12.06,2.62,2.27,3.39,2.74a21.44,21.44,0,0,1-.07,4,4.74,4.74,0,0,0,.68-4c.94-.2,2.11,3.34,2.94,9.08-.5,3-2.53,5.82-7.59,7.65-14,5.09-20-4.09-19.27-6.7a30.1,30.1,0,0,1-3.12,5.44c1.14-1.45,3.75-3.87,5.71,1.1C26,38,38.8,34.09,43.87,31l0,0a3.15,3.15,0,0,1,4.69,2.6c.14,2.59.2,5.34.17,8.22C48.61,57,3.84,55.13,8.72,43.72,8,45,7.2,46.27,6.38,47.74S4.8,50.6,4.14,51.86c-.32.62-.62,1.21-.9,1.78a1.19,1.19,0,0,0-.08.16c-.27.54-.52,1.05-.75,1.54l-.09.2c-.22.48-.43.94-.62,1.38l-.07.16c-.18.44-.36.87-.51,1.27l0,0A12.28,12.28,0,0,0,0,63v.15a2.89,2.89,0,0,0,.07.44,1.29,1.29,0,0,0,0,.19,1.85,1.85,0,0,0,.12.33l.09.19a2,2,0,0,0,.16.24l.15.17c.07.06.13.13.2.18a1.64,1.64,0,0,0,.22.14,1.43,1.43,0,0,0,.21.12l.31.13a1.52,1.52,0,0,0,.2.06,3.51,3.51,0,0,0,.58.13C5.89,66,51,66.26,51,66.26,67.59,64,69.07,50.28,61.71,39.49Z"/><path class="cls-7" d="M2.37,65.51C5.89,66,51,66.26,51,66.26c16.59-2.25,18.07-16,10.71-26.77S51.17,19.71,48.47,14.72,43.24,11,43.24,11c-1.31-1.39-3.76-.57-3.76-.57.76-.28,1.76-2.13,2.36-3.82-1,2.43-4.43,3.57-4.08,2.7s2.24-4,1.79-6.46c-.18.35-.65.56-1.95.22-.92-.23-.88-.53-.63-.82-5,4.1-1,8-1.44,8.64s-2.86.33-4.13-2.13a14.24,14.24,0,0,0,1.3,3.71c-1.47-.49-2.62,1.72-2.62,1.72s2.71-.48,1,.25-2.26.81-2.37,2.61,1.69,3.6,1.69,3.6-1.3-4.25.44-5.56,4.79-3.27,5-2.51-1.58,2.13-2.12,4,.81,4.85.81,4.85-.16-7,2.57-9.49,5.39-1.14,6.48.55.54,6.32.54,6.32c2.35-3.11-1.08-7.57-.1-6.43s10.17,14.09-3.87,19.18-20-4.09-19.27-6.7a30.1,30.1,0,0,1-3.12,5.44c1.14-1.45,3.75-3.87,5.71,1.1C26,38,38.8,34.09,43.87,31s9.31,2,12.75,8,1.8,22.13-3.76,23.6-23,3.1-30.24,2.45S.8,59.31,4.14,51.86C-1.34,62.37-.76,65,2.37,65.51Z"/><path class="cls-8" d="M75.74,35.16a17.07,17.07,0,0,0-2.28-5.48c-1.48-1.88-.9-3,2.61-4.28s1.23-.27,2.53,0,.9,0,1.72,0,1.39,2.24,1.39,2.81-4.17,6.95-4.17,6.95a4.12,4.12,0,0,1,3,1.06s1.22-1,5.72,2.7,12.09,10.7,12,17.9,0,9.86-12.75,9.82-26,.12-33.16,0-7.46-10.89-3.21-16S68.63,35.48,71.9,36.54C71.9,36.54,74.44,34.58,75.74,35.16Z"/><polygon class="cls-3" points="60.21 53.77 62.23 54.47 62.23 54.12 60.21 53.19 60.21 53.77"/><polygon class="cls-3" points="69.15 56 71.33 56.71 71.33 56.35 69.15 55.67 69.15 56"/><polygon class="cls-3" points="67.62 49.46 66.89 51.64 67.26 51.64 68.28 49.8 67.62 49.46"/><rect class="cls-3" x="92.42" y="51.97" width="0.38" height="1.87"/><polygon class="cls-3" points="89.2 45.43 90.56 47.44 90.84 47.44 90.02 45.43 89.2 45.43"/><polygon class="cls-3" points="89.53 49.77 90.84 49.46 89.53 50.28 89.53 49.77"/><polygon class="cls-3" points="94.16 48.15 93.23 48.7 93.23 48.97 94.54 48.15 94.16 48.15"/><g class="cls-4"><path class="cls-5" d="M60.76,55.75s2.6-5.62,3-6S73,52.24,73,52.24l-5.56,8Z"/></g><g class="cls-4"><polygon class="cls-5" points="89.2 47.17 92.23 46.19 95.01 51.75 91.49 52.73 89.2 47.17"/></g><path class="cls-7" d="M52.39,66.64c7.19.12,20.46,0,33.16,0S98.22,64,98.3,56.82s-7.52-14.23-12-17.9-5.72-2.7-5.72-2.7a4.12,4.12,0,0,0-3-1.06s2.44-3.74,3.59-5.75c-2.22,3.61-2.77,4-3.42,3.43s1.68-6.62,1.93-7.34a2.61,2.61,0,0,1-1-.1c-.54-.11-.46-.35-.44-.5-1.33,2.22-.78,7.78-1,9s-3.28-3.65-3.28-3.65a19,19,0,0,1,1.91,4.94c-1.3-.58-3.84,1.38-3.84,1.38s-5.15,1.64-4.74,4.91c0,0,3.8-4.54,6.25-5.6s6,.86,7.48,6.38c0,0,2.37-3.36-2.78-5.56s3.81-.57,5.77,3.19a4,4,0,0,0-3.11-3.4c-2.77-.54.66-.1,1.76.23S93.83,45.59,94.71,55s-19.24,8.51-25.56,7.31S56.65,66,50.55,64.61c-5.65-1.32-2.74-11.71-2.23-12.7C45,57.3,45.73,66.52,52.39,66.64Z"/><path class="cls-9" d="M86.29,38.92c-4.5-3.68-5.72-2.7-5.72-2.7a4.12,4.12,0,0,0-3-1.06l1.09-1.69.56-.89c.3-.46.6-.95.89-1.42.39-.63.76-1.24,1-1.75-1.59,2.35-3.38,1.89-2.83-.09.54-1.71,1.21-3.45,1.34-3.82a2.61,2.61,0,0,1-1-.1c-.54-.11-.46-.35-.44-.5a11.7,11.7,0,0,0-.92,5c-.91,3.57-2,2.43-3.41.35,0,0,0,.09.08.14.12.21.24.41.35.63a20.7,20.7,0,0,1,1.48,4.17c-1.3-.58-3.84,1.38-3.84,1.38s-.21,0-.31,0a1.91,1.91,0,0,1-.28.26c-1.34.54-4.47,2.1-4.15,4.68a40.14,40.14,0,0,1,3.72-3.83C74,36,77,36.16,78.89,38a12,12,0,0,1,2,4.28,3.18,3.18,0,0,0-.27-3.87c-.83-2.09-.22-1.48,1.1-.7a6.29,6.29,0,0,1,2.16,2.2,4.72,4.72,0,0,0-.85-2c1.46,2,11.17,18.08,4.32,20.1-7.19,2.12-17.65-4.9-23.21-5.39S44.74,55,51.51,48.35a23.13,23.13,0,0,0-2.33,2.34,12.93,12.93,0,0,0-2.7,6.84,1.23,1.23,0,0,0,0,.19c0,.3,0,.6-.05.9,0,.12,0,.25,0,.38s0,.51,0,.77l0,.48c0,.23.06.45.1.67s.06.36.1.54l.15.58.18.55a5.49,5.49,0,0,0,.21.51,5,5,0,0,0,.25.52c.08.15.17.3.26.44a4.21,4.21,0,0,0,.35.48,3.47,3.47,0,0,0,.3.37,5.62,5.62,0,0,0,.44.41c.12.1.22.2.35.29a3.81,3.81,0,0,0,.55.33c.13.07.24.15.38.21a5.38,5.38,0,0,0,.71.24l.36.11a6.8,6.8,0,0,0,1.23.14c7.19.12,20.46,0,33.16,0S98.22,64,98.3,56.82,90.78,42.59,86.29,38.92Zm-3.47-1.3.05,0,.08.09Z"/><path class="cls-10" d="M31.61,11.53s6.92-1.34,8.72-1.24C40.33,10.29,31.78,14.1,31.61,11.53Z"/><path class="cls-10" d="M74.89,35.07s1.41-2.28,4.41.36C79.3,35.43,76.08,35.64,74.89,35.07Z"/></g></g></g></svg>