<svg xmlns="http://www.w3.org/2000/svg" xmlns:xlink="http://www.w3.org/1999/xlink" viewBox="0 0 181.76 285.65"><defs><style>.cls-1{fill:none;}.cls-2{isolation:isolate;}.cls-3{opacity:0.34;}.cls-3,.cls-6,.cls-8{mix-blend-mode:multiply;}.cls-4{fill:#4f2d41;}.cls-5{fill:url(#Áåçûìÿííûé_ãðàäèåíò_97);}.cls-6,.cls-8{fill:#b53356;}.cls-7{fill:#3d0104;}.cls-8{opacity:0.74;}.cls-9{clip-path:url(#clip-path);}.cls-10{fill:#9a1b27;}.cls-11{fill:#590624;}.cls-12{fill:#c46017;}.cls-13{fill:#6a5f07;}.cls-14{fill:#443504;}.cls-15,.cls-22{fill:#a76017;}.cls-16{fill:#6b2324;}.cls-17{fill:#33090b;}.cls-18{opacity:0.42;}.cls-18,.cls-22{mix-blend-mode:screen;}.cls-19{clip-path:url(#clip-path-2);}.cls-20{fill:#b74d13;}.cls-21{fill:#592513;}.cls-22{opacity:0.24;}.cls-23{clip-path:url(#clip-path-3);}.cls-24{clip-path:url(#clip-path-4);}</style><linearGradient id="Áåçûìÿííûé_ãðàäèåíò_97" x1="76.05" y1="316.28" x2="76.05" y2="-7.17" gradientUnits="userSpaceOnUse"><stop offset="0" stop-color="#9e2e46"/><stop offset="0.52" stop-color="#942d30"/><stop offset="1" stop-color="#8c2c20"/></linearGradient><clipPath id="clip-path"><polygon class="cls-1" points="119.85 28.54 9.8 30.5 11.78 88.76 118.7 87.6 119.85 28.54"/></clipPath><clipPath id="clip-path-2"><polygon class="cls-1" points="17.81 266.93 115.21 266.93 116.23 214.63 16.04 214.63 17.81 266.93"/></clipPath><clipPath id="clip-path-3"><polygon class="cls-1" points="11.96 94.19 13.91 151.65 117.46 151.65 118.58 94.19 11.96 94.19"/></clipPath><clipPath id="clip-path-4"><polygon class="cls-1" points="15.8 207.7 116.38 207.22 117.33 158.4 14.13 158.41 15.8 207.7"/></clipPath></defs><g class="cls-2"><g id="Layer_2" data-name="Layer 2"><g id="Ñëîé_1" data-name="Ñëîé 1"><g class="cls-3"><polygon class="cls-4" points="61.79 6.38 147.02 14.81 181.76 8.9 181.28 278.92 121.67 285.65 61.79 6.38"/></g><polygon class="cls-5" points="130.75 10.09 131.28 2.65 126.92 0 0 3.61 1.74 30.59 4.87 30.59 12.01 285.65 121.67 285.65 145.45 269.46 152.09 17.01 130.75 10.09"/><polygon class="cls-6" points="130.75 10.09 131.28 2.65 126.92 0 124.95 27.21 1.74 30.59 4.87 30.59 126.75 28.42 121.67 285.65 145.45 269.46 152.09 17.01 130.75 10.09"/><polygon class="cls-6" points="119.85 28.54 9.8 30.5 11.78 88.76 118.7 87.6 119.85 28.54"/><polygon class="cls-6" points="17.81 266.93 115.21 266.93 116.23 214.63 16.04 214.63 17.81 266.93"/><polygon class="cls-6" points="11.96 94.19 13.91 151.65 117.46 151.65 118.58 94.19 11.96 94.19"/><polygon class="cls-6" points="15.8 207.7 116.38 207.22 117.33 158.4 14.13 158.41 15.8 207.7"/><polygon class="cls-6" points="118.7 87.6 119.85 28.54 41.47 29.94 43.32 88.42 118.7 87.6"/><polygon class="cls-6" points="115.21 266.93 116.23 214.63 47.32 214.63 48.98 266.93 115.21 266.93"/><polygon class="cls-6" points="117.46 151.65 118.58 94.19 43.51 94.19 45.33 151.65 117.46 151.65"/><polygon class="cls-6" points="116.38 207.22 117.33 158.4 45.54 158.41 47.1 207.55 116.38 207.22"/><polygon class="cls-7" points="9.8 30.5 41.56 32.62 119.8 31.56 119.85 28.54 9.8 30.5"/><polygon class="cls-7" points="17.81 266.93 48.84 262.48 115.32 262.48 115.21 266.93 17.81 266.93"/><polygon class="cls-8" points="130.75 10.09 129.01 28.54 126.75 28.42 126.6 35.8 130.75 34.57 136.18 11.85 130.75 10.09"/><polygon class="cls-8" points="10.41 48.41 42.38 58.65 119.25 59.76 119.85 28.54 9.8 30.5 10.41 48.41"/><polygon class="cls-8" points="11.96 94.19 12.61 113.39 44.33 120.03 118.05 121.21 118.58 94.19 11.96 94.19"/><polygon class="cls-8" points="14.13 158.41 14.69 174.84 46.32 182.97 116.87 181.6 117.33 158.4 14.13 158.41"/><polygon class="cls-8" points="16.04 214.63 16.61 231.39 48.03 237.13 115.77 238.49 116.23 214.63 16.04 214.63"/><path class="cls-8" d="M5.43,7.74,7.52,26l110.93-3.72,1.4-17.74Zm111,13.64-107,3.28-2-16L117.81,5.78Z"/><polygon class="cls-8" points="10.45 25.85 9.48 24.66 7.47 8.64 117.81 5.78 119.7 6.38 119.85 4.49 5.43 7.74 7.52 25.95 10.45 25.85"/><path class="cls-8" d="M18.49,269.5l1.21,14.27,94.23-.22,1.74-13.81Zm93.78,13.35-90.87,0-1.21-12.55,93.71.44Z"/><polygon class="cls-8" points="22.19 283.76 21.4 282.81 20.19 270.26 113.9 270.7 115.48 271.22 115.67 269.74 18.49 269.5 19.7 283.77 22.19 283.76"/><g class="cls-9"><polygon class="cls-10" points="17.76 47.25 18.39 88.69 27.52 88.69 27.52 47.25 17.76 47.25"/><polygon class="cls-11" points="27.52 47.25 46.96 51.5 46.24 88.56 27.52 88.69 27.52 47.25"/><polygon class="cls-12" points="18.14 75.67 27.47 75.86 27.46 78.66 18.23 78.19 18.14 75.67"/><polygon class="cls-12" points="18.14 72.12 27.47 72.12 27.46 74.92 18.17 74.32 18.14 72.12"/><polygon class="cls-13" points="29.36 47.25 29.99 88.69 39.12 88.69 39.12 47.25 29.36 47.25"/><polygon class="cls-14" points="39.12 47.25 58.56 51.5 57.84 88.56 39.12 88.69 39.12 47.25"/><polygon class="cls-15" points="29.87 80.87 39.17 80.87 39.07 83.67 29.91 83.08 29.87 80.87"/><polygon class="cls-15" points="29.47 54.04 39.12 54.04 39.1 56.8 29.5 56.42 29.47 54.04"/><polygon class="cls-15" points="31.62 58.29 36.54 58.29 35.61 67.97 32.21 67.37 31.62 58.29"/><polygon class="cls-13" points="53.06 47.25 53.69 88.69 62.81 88.69 62.81 47.25 53.06 47.25"/><polygon class="cls-14" points="62.81 47.25 82.26 51.5 81.54 88.56 62.81 88.69 62.81 47.25"/><polygon class="cls-15" points="53.44 75.67 62.77 75.86 62.76 78.66 53.53 78.19 53.44 75.67"/><polygon class="cls-15" points="53.44 72.12 62.77 72.12 62.76 74.92 53.47 74.32 53.44 72.12"/><polygon class="cls-16" points="80.14 47.25 63.8 85.34 72.13 89.06 89.04 51.23 80.14 47.25"/><polygon class="cls-17" points="89.04 51.23 105.06 63.05 90.59 88.69 72.13 89.06 89.04 51.23"/><g class="cls-18"><polygon class="cls-16" points="80.68 51.78 85.76 53.37 71.33 83.67 66.58 82.27 80.68 51.78"/></g><polygon class="cls-10" points="89.96 47.25 90.59 88.69 99.72 88.69 99.72 47.25 89.96 47.25"/><polygon class="cls-11" points="99.72 47.25 119.17 51.5 118.44 88.56 99.72 88.69 99.72 47.25"/><polygon class="cls-12" points="90.48 80.87 99.77 80.87 99.67 83.67 90.51 83.08 90.48 80.87"/><polygon class="cls-12" points="90.07 54.04 99.72 54.04 99.7 56.8 90.1 56.42 90.07 54.04"/><polygon class="cls-12" points="92.22 58.29 97.14 58.29 96.21 67.97 92.81 67.37 92.22 58.29"/><polygon class="cls-13" points="101.12 47.25 101.75 88.69 110.88 88.69 110.88 47.25 101.12 47.25"/><polygon class="cls-14" points="110.88 47.25 130.32 51.5 129.6 88.56 110.88 88.69 110.88 47.25"/><polygon class="cls-15" points="101.64 80.87 110.93 80.87 110.83 83.67 101.67 83.08 101.64 80.87"/><polygon class="cls-15" points="101.23 54.04 110.88 54.04 110.86 56.8 101.26 56.42 101.23 54.04"/><polygon class="cls-15" points="103.38 58.29 108.3 58.29 107.37 67.97 103.97 67.37 103.38 58.29"/></g><g class="cls-19"><polygon class="cls-10" points="28.33 225.94 28.96 267.38 38.09 267.38 38.09 225.94 28.33 225.94"/><polygon class="cls-11" points="38.09 225.94 57.53 230.19 56.81 267.24 38.09 267.38 38.09 225.94"/><polygon class="cls-12" points="28.84 259.55 38.14 259.55 38.03 262.35 28.87 261.76 28.84 259.55"/><polygon class="cls-12" points="30.58 236.97 35.51 236.97 35.51 256.56 30.94 256.56 30.58 236.97"/><polygon class="cls-13" points="39.49 225.94 40.12 267.38 49.24 267.38 49.24 225.94 39.49 225.94"/><polygon class="cls-14" points="49.24 225.94 68.76 226.43 67.97 267.24 49.24 267.38 49.24 225.94"/><polygon class="cls-15" points="40 259.55 49.3 259.55 49.19 262.35 40.03 261.76 40 259.55"/><polygon class="cls-15" points="39.59 232.73 49.24 232.73 49.22 235.48 39.63 235.1 39.59 232.73"/><polygon class="cls-15" points="41.74 236.97 46.66 236.97 45.73 246.66 42.34 246.06 41.74 236.97"/><polygon class="cls-16" points="62.8 225.94 63.43 267.38 72.56 267.38 72.56 225.94 62.8 225.94"/><polygon class="cls-17" points="72.56 225.94 92 230.19 91.28 267.24 72.56 267.38 72.56 225.94"/><g class="cls-18"><polygon class="cls-16" points="63.31 259.55 72.61 259.55 72.5 262.35 63.34 261.76 63.31 259.55"/></g><g class="cls-18"><polygon class="cls-16" points="65.06 236.97 69.98 236.97 69.98 256.56 65.41 256.56 65.06 236.97"/></g><polygon class="cls-20" points="73.96 225.94 74.59 267.38 83.72 267.38 83.72 225.94 73.96 225.94"/><polygon class="cls-21" points="83.72 225.94 103.23 226.43 102.44 267.24 83.72 267.38 83.72 225.94"/><polygon class="cls-22" points="74.47 259.55 83.77 259.55 83.66 262.35 74.5 261.76 74.47 259.55"/><polygon class="cls-22" points="74.06 232.73 83.72 232.73 83.69 235.48 74.1 235.1 74.06 232.73"/><polygon class="cls-22" points="76.21 236.97 81.14 236.97 80.2 246.66 76.81 246.06 76.21 236.97"/><polygon class="cls-20" points="86.84 225.94 87.47 267.38 96.6 267.38 96.6 225.94 86.84 225.94"/><polygon class="cls-21" points="96.6 225.94 116.05 230.19 115.33 267.24 96.6 267.38 96.6 225.94"/><polygon class="cls-22" points="87.36 259.55 96.65 259.55 96.55 262.35 87.39 261.76 87.36 259.55"/><polygon class="cls-22" points="89.1 236.97 94.02 236.97 94.02 256.56 89.45 256.56 89.1 236.97"/><polygon class="cls-13" points="98 225.94 98.63 267.38 107.76 267.38 107.76 225.94 98 225.94"/><polygon class="cls-14" points="107.76 225.94 127.28 226.43 126.48 267.24 107.76 267.38 107.76 225.94"/><polygon class="cls-15" points="98.52 259.55 107.81 259.55 107.71 262.35 98.55 261.76 98.52 259.55"/><polygon class="cls-15" points="98.11 232.73 107.76 232.73 107.74 235.48 98.14 235.1 98.11 232.73"/><polygon class="cls-15" points="100.26 236.97 105.18 236.97 104.25 246.66 100.85 246.06 100.26 236.97"/></g><g class="cls-23"><polygon class="cls-16" points="80.1 110.4 80.73 151.84 89.86 151.84 89.86 110.4 80.1 110.4"/><polygon class="cls-17" points="89.86 110.4 109.3 114.65 108.58 151.71 89.86 151.84 89.86 110.4"/><g class="cls-18"><polygon class="cls-16" points="80.61 144.01 89.91 144.01 89.8 146.82 80.64 146.22 80.61 144.01"/></g><g class="cls-18"><polygon class="cls-16" points="82.35 121.44 87.28 121.44 87.28 141.03 82.71 141.03 82.35 121.44"/></g><polygon class="cls-13" points="91.26 110.4 91.89 151.84 101.02 151.84 101.02 110.4 91.26 110.4"/><polygon class="cls-14" points="101.02 110.4 120.46 114.65 119.74 151.71 101.02 151.84 101.02 110.4"/><polygon class="cls-15" points="91.77 144.01 101.07 144.01 100.96 146.82 91.8 146.22 91.77 144.01"/><polygon class="cls-15" points="91.36 117.19 101.02 117.19 100.99 119.95 91.4 119.57 91.36 117.19"/><polygon class="cls-15" points="93.51 121.44 98.44 121.44 97.5 131.12 94.11 130.52 93.51 121.44"/></g><g class="cls-24"><polygon class="cls-10" points="23.01 165.89 23.64 207.33 32.77 207.33 32.77 165.89 23.01 165.89"/><polygon class="cls-11" points="32.77 165.89 52.22 170.14 51.49 207.19 32.77 207.33 32.77 165.89"/><polygon class="cls-12" points="23.39 194.31 32.72 194.49 32.72 197.3 23.48 196.83 23.39 194.31"/><polygon class="cls-12" points="23.39 190.76 32.72 190.76 32.72 193.56 23.43 192.96 23.39 190.76"/><polygon class="cls-20" points="50.09 165.89 33.75 203.97 42.08 207.7 59 169.87 50.09 165.89"/><polygon class="cls-21" points="59 169.87 75.02 181.69 60.55 207.33 42.08 207.7 59 169.87"/><polygon class="cls-22" points="50.63 170.42 55.72 172 41.29 202.31 36.53 200.91 50.63 170.42"/><polygon class="cls-13" points="59.92 165.89 60.55 207.33 69.67 207.33 69.67 165.89 59.92 165.89"/><polygon class="cls-14" points="69.67 165.89 89.12 170.14 88.4 207.19 69.67 207.33 69.67 165.89"/><polygon class="cls-15" points="60.43 199.5 69.73 199.5 69.62 202.31 60.46 201.71 60.43 199.5"/><polygon class="cls-15" points="60.02 172.68 69.67 172.68 69.65 175.44 60.06 175.06 60.02 172.68"/><polygon class="cls-15" points="62.17 176.93 67.1 176.93 66.16 186.61 62.77 186.01 62.17 176.93"/><polygon class="cls-13" points="71.08 165.89 71.71 207.33 80.83 207.33 80.83 165.89 71.08 165.89"/><polygon class="cls-14" points="80.83 165.89 100.28 170.14 99.56 207.19 80.83 207.33 80.83 165.89"/><polygon class="cls-15" points="71.59 199.5 80.89 199.5 80.78 202.31 71.62 201.71 71.59 199.5"/><polygon class="cls-15" points="71.18 172.68 80.83 172.68 80.81 175.44 71.22 175.06 71.18 172.68"/><polygon class="cls-15" points="73.33 176.93 78.26 176.93 77.32 186.61 73.93 186.01 73.33 176.93"/><polygon class="cls-10" points="84.95 165.89 85.58 207.33 94.71 207.33 94.71 165.89 84.95 165.89"/><polygon class="cls-11" points="94.71 165.89 114.15 170.14 113.43 207.19 94.71 207.33 94.71 165.89"/><polygon class="cls-12" points="85.33 194.31 94.66 194.49 94.65 197.3 85.42 196.83 85.33 194.31"/><polygon class="cls-12" points="85.33 190.76 94.66 190.76 94.65 193.56 85.36 192.96 85.33 190.76"/><polygon class="cls-13" points="96.55 165.89 97.18 207.33 106.31 207.33 106.31 165.89 96.55 165.89"/><polygon class="cls-14" points="106.31 165.89 125.75 170.14 125.03 207.19 106.31 207.33 106.31 165.89"/><polygon class="cls-15" points="97.06 199.5 106.36 199.5 106.26 202.31 97.1 201.71 97.06 199.5"/><polygon class="cls-15" points="96.66 172.68 106.31 172.68 106.29 175.44 96.69 175.06 96.66 172.68"/><polygon class="cls-15" points="98.81 176.93 103.73 176.93 102.8 186.61 99.4 186.01 98.81 176.93"/></g></g></g></g></svg>