<svg xmlns="http://www.w3.org/2000/svg" xmlns:xlink="http://www.w3.org/1999/xlink" viewBox="0 0 116.92 30.76"><defs><style>.cls-1{isolation:isolate;}.cls-2{fill:#3a2038;}.cls-3,.cls-4{fill:#312d3d;}.cls-3{opacity:0.33;}.cls-3,.cls-4,.cls-6{mix-blend-mode:multiply;}.cls-4{opacity:0.4;}.cls-5{fill:url(#Áåçûìÿííûé_ãðàäèåíò_129);}.cls-6{fill:#b53356;opacity:0.74;}.cls-7{fill:#3d0104;}</style><linearGradient id="Áåçûìÿííûé_ãðàäèåíò_129" x1="842.94" y1="6.8" x2="664.57" y2="6.8" gradientTransform="matrix(-1, 0.08, 0, 1, 807.25, -57.45)" gradientUnits="userSpaceOnUse"><stop offset="0" stop-color="#8c2c20"/><stop offset="0.48" stop-color="#942d30"/><stop offset="1" stop-color="#9e2e46"/></linearGradient></defs><g class="cls-1"><g id="Layer_2" data-name="Layer 2"><g id="Ñëîé_1" data-name="Ñëîé 1"><path class="cls-2" d="M24.19,14.12l2.53,4.19s15-3,15.85,10.39l3.88,2.06L52,30.33V10.78Z"/><path class="cls-3" d="M24.19,14.12l1.07,1.77,9-.7v2.53l-3.83.3c4.5.05,11.58,1.59,12.15,10.68l8.32-1.54.33,2.44-4.77,1.16L52,30.33V10.78Z"/><path class="cls-4" d="M35.49,12.77,35,17.38s13-.56,15.62,9.23L52,30.33V10.78Z"/><path class="cls-2" d="M80.69,9.73l2.53,4.19s15-3,15.85,10.4L103,26.37l5.56-.43V6.39Z"/><path class="cls-3" d="M80.69,9.73l1.07,1.77,9-.69v2.52l-3.83.3c4.51,0,11.58,1.59,12.15,10.69l8.32-1.55.34,2.45L103,26.37l5.56-.43V6.39Z"/><path class="cls-4" d="M92,8.38,91.54,13s13-.56,15.62,9.24l1.35,3.71V6.39Z"/><polygon class="cls-5" points="116.92 0 116.88 6.31 1.96 15.24 0 8.71 90.99 1.62 116.92 0"/><polygon class="cls-6" points="83.14 2.06 83.68 8.89 116.88 6.31 116.92 0 83.14 2.06"/><polygon class="cls-7" points="116.88 6.31 83.68 8.89 1.96 15.24 37.68 13.45 98.81 8.71 116.88 6.31"/></g></g></g></svg>