<svg xmlns="http://www.w3.org/2000/svg" xmlns:xlink="http://www.w3.org/1999/xlink" viewBox="0 0 113.18 23.76"><defs><style>.cls-1{isolation:isolate;}.cls-2{opacity:0.34;}.cls-2,.cls-5,.cls-6,.cls-8{mix-blend-mode:multiply;}.cls-3{fill:#4f2d41;}.cls-4{fill:#4b2a47;}.cls-5,.cls-6{fill:#312d3d;}.cls-5{opacity:0.33;}.cls-6{opacity:0.4;}.cls-7{fill:url(#Áåçûìÿííûé_ãðàäèåíò_40);}.cls-8{fill:#b53356;opacity:0.74;}</style><linearGradient id="Áåçûìÿííûé_ãðàäèåíò_40" x1="109.66" y1="2.7" x2="-0.82" y2="2.7" gradientUnits="userSpaceOnUse"><stop offset="0" stop-color="#9e2e46"/><stop offset="0.47" stop-color="#a63a34"/><stop offset="1" stop-color="#ad4424"/></linearGradient></defs><g class="cls-1"><g id="Layer_2" data-name="Layer 2"><g id="Ñëîé_1" data-name="Ñëîé 1"><g class="cls-2"><polygon class="cls-3" points="42.18 20.5 105.14 20.5 109.36 8.71 113.18 6.54 113.18 0 25.25 0 42.18 20.5"/></g><path class="cls-4" d="M15.5,5.39,18,9.77S33,7.92,33.87,21.4l3.88,2.36h5.56V4.21Z"/><path class="cls-5" d="M15.5,5.39l1.07,1.86h9V9.77H21.73c4.5.4,11.57,2.49,12.14,11.63l8.31-.9L42.52,23l-4.77.79h5.56V4.21Z"/><path class="cls-6" d="M26.8,4.91l-.46,4.58s13,.45,15.62,10.45l1.35,3.82V4.21Z"/><path class="cls-4" d="M70.77,5.39,73.3,9.77s15-1.85,15.84,11.63L93,23.76h5.56V4.21Z"/><path class="cls-5" d="M70.77,5.39l1.07,1.86h9V9.77H77c4.5.4,11.57,2.49,12.14,11.63l8.32-.9L97.79,23,93,23.76h5.56V4.21Z"/><path class="cls-6" d="M82.07,4.91l-.45,4.58s13,.45,15.61,10.45l1.35,3.82V4.21Z"/><polygon class="cls-7" points="0 0 1.85 5.39 109.92 5.39 109.92 0 0 0"/><polygon class="cls-8" points="80.94 0 82.51 5.39 109.92 5.39 109.92 0 80.94 0"/></g></g></g></svg>