<svg xmlns="http://www.w3.org/2000/svg" xmlns:xlink="http://www.w3.org/1999/xlink" viewBox="0 0 238.35 131.42"><defs><style>.cls-1{isolation:isolate;}.cls-2{fill:url(#Áåçûìÿííûé_ãðàäèåíò_97);}.cls-3{opacity:0.72;}.cls-4{fill:#650034;}.cls-11,.cls-5,.cls-8{fill:#b53356;mix-blend-mode:multiply;}.cls-6,.cls-7{fill:#e28959;}.cls-6{opacity:0.57;}.cls-7{opacity:0.26;}.cls-8{opacity:0.74;}.cls-9{fill:url(#Áåçûìÿííûé_ãðàäèåíò_248);}.cls-10{opacity:0.44;mix-blend-mode:screen;fill:url(#Áåçûìÿííûé_ãðàäèåíò_49);}.cls-11{opacity:0.19;}</style><linearGradient id="Áåçûìÿííûé_ãðàäèåíò_97" x1="120.81" y1="132.81" x2="118.65" y2="16.86" gradientUnits="userSpaceOnUse"><stop offset="0" stop-color="#9e2e46"/><stop offset="0.52" stop-color="#942d30"/><stop offset="1" stop-color="#8c2c20"/></linearGradient><linearGradient id="Áåçûìÿííûé_ãðàäèåíò_248" x1="191.66" y1="32.82" x2="191.66" y2="-24.9" gradientUnits="userSpaceOnUse"><stop offset="0" stop-color="#9e2e46"/><stop offset="0.66" stop-color="#c65838"/><stop offset="1" stop-color="#d56833"/></linearGradient><linearGradient id="Áåçûìÿííûé_ãðàäèåíò_49" x1="149.62" y1="7.87" x2="216.32" y2="7.87" gradientUnits="userSpaceOnUse"><stop offset="0" stop-color="#d56833"/><stop offset="0.34" stop-color="#c65838"/><stop offset="1" stop-color="#9e2e46"/></linearGradient></defs><g class="cls-1"><g id="Layer_2" data-name="Layer 2"><g id="Ñëîé_1" data-name="Ñëîé 1"><polygon class="cls-2" points="59.36 18.82 13.08 73.59 0 73.59 3.9 79.55 30.86 79.78 38.86 131.42 43.6 131.42 64.48 122.69 204.93 120.86 204.93 131.42 210.82 131.42 230.17 121.09 233.71 28.19 236.82 24.25 238.35 16.68 59.36 18.82"/><g class="cls-3"><polygon class="cls-4" points="43.6 131.42 37.02 79.71 193.68 77.72 202.03 67.38 204.93 120.86 64.48 122.69 43.6 131.42"/></g><polygon class="cls-5" points="43.6 131.42 37.41 83 31.36 83 30.86 79.78 193.68 77.72 233.71 28.19 230.17 121.09 210.82 131.42 208.14 77.72 202.63 78.41 204.93 120.86 64.48 122.69 43.6 131.42"/><polygon class="cls-6" points="13.08 73.59 191.85 73.59 238.35 16.68 59.36 18.82 13.08 73.59"/><polygon class="cls-5" points="64.51 122.91 60.12 79.41 193.68 77.72 202.03 67.38 204.95 121.31 64.51 122.91"/><polygon class="cls-7" points="206.77 45.67 216.88 33.25 158.85 70.35 167.21 70.36 206.77 45.67"/><polygon class="cls-7" points="150.12 71.14 123.31 71.14 119 73.59 146.2 73.59 150.12 71.14"/><polygon class="cls-7" points="157.61 71.14 153.78 73.59 162.03 73.59 165.95 71.14 157.61 71.14"/><polygon class="cls-7" points="151.4 70.34 223.08 25.63 226.27 21.72 227.8 21.72 226.19 23.69 237.43 16.69 218.86 16.91 124.76 70.31 151.4 70.34"/><polygon class="cls-8" points="37.02 79.71 38.11 88.48 61.89 97 203.53 95.04 202.03 67.38 193.68 77.72 37.02 79.71"/><polygon class="cls-8" points="28.68 71.14 27.23 70.22 63.64 23.18 157.77 21.72 157.02 21.21 61.65 21.72 24.32 71.14 28.68 71.14"/><polygon class="cls-8" points="61.65 21.72 24.32 71.14 187.56 71.14 227.8 21.72 226.27 21.72 186.64 70.37 27.23 70.22 63.64 23.18 157.77 21.72 157.02 21.21 61.65 21.72"/><polygon class="cls-9" points="149.62 0.74 151.93 28.19 223.89 28.19 233.71 16.68 233.71 0 149.62 0.74"/><polygon class="cls-8" points="223.89 28.19 223.18 0.09 233.71 0 233.71 16.68 223.89 28.19"/><path class="cls-5" d="M154.65,24.31h21.09V3.88H153ZM167.37,5h7.11V23.18H155.72L154.23,5h7.41C162.65,7.21,164.77,10.24,167.37,5Z"/><path class="cls-5" d="M179,24.31H199V3.88H177.56Zm12.48-19.1h6.06V23H180.24L179,5.21h7.51C187.31,7.41,189.07,10.2,191.52,5.21Z"/><path class="cls-5" d="M200.8,3.88V24.31h20.3V3.88ZM220,23.15h-18V5h6.63c.93,2.32,2.93,5.71,5.36,0h6Z"/><path class="cls-5" d="M154.65,24.31l1.17-1.13h-.1L154.23,5h7.41c1,2.2,3.13,5.23,5.73,0h7.11V5.1l1.26-1.22H153Z"/><path class="cls-5" d="M179,24.31,180.33,23h-.09L179,5.21h7.51c.85,2.2,2.61,5,5.06,0h6.06v.1L199,3.88H177.56Z"/><path class="cls-5" d="M201.94,5h6.63c.93,2.32,2.93,5.71,5.36,0h6l1.14-1.16H200.8V24.31l1.14-1.16Z"/><path class="cls-10" d="M150.88,15.74l-1.26-15L216.32,0S180,1.84,175.69,2.75s-24.39.31-24.39.31Z"/><polygon class="cls-8" points="0.78 74.77 3.9 79.55 34.91 79.73 33.57 73.59 0.78 74.77"/><polygon class="cls-8" points="233.71 16.68 233.71 14.72 223.74 26.2 151.8 27 151.49 22.98 150.39 28.76 121.87 28.76 44.07 60.89 41.4 65.12 105.69 67.17 103.51 68.9 116.32 68.9 120.62 64.9 137.56 64.6 159.71 29.23 227.8 29.59 191.85 73.59 181.44 73.59 184.49 77.83 193.68 77.72 202.03 67.38 202.21 70.62 207.34 70.37 233.4 36.18 233.71 28.19 236.82 24.25 238.35 16.68 233.71 16.68"/><polygon class="cls-11" points="186.3 28.19 190.78 28.19 193.7 24.31 189.44 24.31 186.3 28.19"/><polygon class="cls-11" points="214.84 3.88 217.54 0.14 211.87 0.19 209.08 3.88 214.84 3.88"/><polygon class="cls-11" points="193.67 3.88 197.21 0.32 187.23 0.41 183.82 3.88 193.67 3.88"/><polygon class="cls-11" points="205.97 3.88 208.93 0.22 206.64 0.24 203.54 3.88 205.97 3.88"/><polygon class="cls-11" points="173.35 24.31 163.82 24.31 160.01 28.19 169.49 28.19 173.35 24.31"/></g></g></g></svg>