<svg xmlns="http://www.w3.org/2000/svg" xmlns:xlink="http://www.w3.org/1999/xlink" viewBox="0 0 167.98 82.61"><defs><style>.cls-1{isolation:isolate;}.cls-2{fill:url(#Áåçûìÿííûé_ãðàäèåíò_97);}.cls-3{fill:#650034;opacity:0.72;}.cls-4,.cls-6{fill:#e28959;}.cls-4{opacity:0.26;}.cls-5,.cls-7{fill:#b53356;mix-blend-mode:multiply;}.cls-6{opacity:0.57;}.cls-7{opacity:0.74;}</style><linearGradient id="Áåçûìÿííûé_ãðàäèåíò_97" x1="83.99" y1="82.61" x2="83.99" gradientUnits="userSpaceOnUse"><stop offset="0" stop-color="#9e2e46"/><stop offset="0.52" stop-color="#942d30"/><stop offset="1" stop-color="#8c2c20"/></linearGradient></defs><g class="cls-1"><g id="Layer_2" data-name="Layer 2"><g id="Ñëîé_1" data-name="Ñëîé 1"><polygon class="cls-2" points="0 25.24 2.29 31 31.83 31 25.45 82.61 31.67 82.61 48.42 73.89 139.06 73.89 137.89 82.61 144.34 82.61 162.24 68.84 162.24 8.72 165.91 6.88 167.98 0 44.21 2.06 0 25.24"/><polygon class="cls-3" points="31.67 82.61 37.07 31 130.09 31 145.63 20.23 139.06 73.89 48.42 73.89 31.67 82.61"/><polygon class="cls-4" points="150.72 0.29 112 23.51 119.48 23.39 156.73 0.19 150.72 0.29"/><polygon class="cls-4" points="142.75 0.42 110.97 0.95 61.62 24.29 102.65 23.66 142.75 0.42"/><polygon class="cls-5" points="31.83 31 130.09 31 162.24 8.72 162.24 68.84 144.34 82.61 149.37 31 144.32 31 139.06 73.89 48.42 73.89 31.67 82.61 36.16 37.63 30.95 38.32 31.83 31"/><polygon class="cls-6" points="0 25.24 128.56 23.25 167.98 0 44.21 2.06 0 25.24"/><polygon class="cls-5" points="48.43 74.11 46.86 31 130.09 31 145.63 20.23 139.04 74.11 48.43 74.11"/><polygon class="cls-7" points="37.07 31 35.96 39.69 47.4 45.67 142.45 46.23 145.63 20.23 130.09 31 37.07 31"/><path class="cls-7" d="M41.29,3.21,38,5.82H56.71S50.17,11,67.31,11.88,85.47,6,81.52,4.68,91.64,1.27,91.64,1.27l-46.15.8Z"/></g></g></g></svg>