<svg xmlns="http://www.w3.org/2000/svg" xmlns:xlink="http://www.w3.org/1999/xlink" viewBox="0 0 58.13 60.77"><defs><style>.cls-1{isolation:isolate;}.cls-2{opacity:0.32;}.cls-3,.cls-4{mix-blend-mode:screen;}.cls-3{fill:url(#Áåçûìÿííûé_ãðàäèåíò_87);}.cls-4{fill:url(#Áåçûìÿííûé_ãðàäèåíò_87-2);}</style><linearGradient id="Áåçûìÿííûé_ãðàäèåíò_87" x1="4657.96" y1="-758.65" x2="4657.96" y2="-802.69" gradientTransform="matrix(-0.95, 0.33, 0.18, 0.98, 4622.16, -758.28)" gradientUnits="userSpaceOnUse"><stop offset="0" stop-color="#0b070f"/><stop offset="0.13" stop-color="#14111d"/><stop offset="0.36" stop-color="#2c2d43"/><stop offset="0.69" stop-color="#53597f"/><stop offset="1" stop-color="#7c88bf"/></linearGradient><linearGradient id="Áåçûìÿííûé_ãðàäèåíò_87-2" x1="4657.04" y1="-772.55" x2="4657.04" y2="-799.18" xlink:href="#Áåçûìÿííûé_ãðàäèåíò_87"/></defs><g class="cls-1"><g id="Layer_2" data-name="Layer 2"><g id="Ñëîé_1" data-name="Ñëîé 1"><g class="cls-2"><path class="cls-3" d="M4.78,43.81c1.78,2,5.46,2.35,6.93,4.59-.31,2.9-4.63,2.78-6,2.08a9.67,9.67,0,0,1-4.36-3.26C1.22,49,3.21,49.77,4.5,50.62c3.29,1.69,8.46,1.76,13.87-1-6.85,4.63-13.67,3-16.87.14a7.8,7.8,0,0,0,3.75,2.69s1,.63.9,1,.8,1.6.55,2.47a9.63,9.63,0,0,0,.46,3.27l.07-1.37c.07-1.37-.05-3.41.32-4s1.09-.24,1.27-.17.4,1.6.4,1.6.17-1.41.66-1.71,1,.48,1.38,1,1.24.33,1.2,1.29a15.6,15.6,0,0,0,.27,2.69,21.65,21.65,0,0,1,.36-4c.29-.51,2.47-1,2.59-.13s.5,2.17.14,3,.55,3.32.55,3.32.06-1,.09-3a27.3,27.3,0,0,1,.65-5.11c.15-.54,1.88-1.1,1.84-.35a3.17,3.17,0,0,0,.52,1.58,7.6,7.6,0,0,0,0-2c-.16-1,.48-1.05.83-1.55s.66.5.66.5,2.89-3.53,1.48-2.71A69.05,69.05,0,0,0,35.66,37.56c1.31-1.29,1.44.91,1.44.91a9.13,9.13,0,0,1,.69-2.64c.48-.87,1.22-.75,1.35,0s.72,1.48.55,2a7.65,7.65,0,0,0,.22,2.27s.68-2.82.13-3.55.64-2.61.48-3.12,1.39-2.47,1.86-2,.52,2,.82,2.92-.16,6.82,0,7.6a27.73,27.73,0,0,0,.8,2.76,11.12,11.12,0,0,0-.2-2.09c-.2-1,.14-8.58-.24-9.84a6.86,6.86,0,0,1,.59-4.37c.53-.82,1.2-1,1.24-.05a2.33,2.33,0,0,0,.74,1.53s-.36-4.06.2-4.82,2.09-3.66,2.22-2.9,1,1.86.44,3.43.45,1.93.32,2.74,1.24,6,1.18,5.1-.82-4.84-.58-7.45-.1-1.6.3-3.27-.5-4.39.5-6.3c2.84-5.51,5.14-11,7.45-16.45l-.8.39A139.57,139.57,0,0,1,38,28.14c-3.87,4.6-8.22,9.38-13.9,12.33C8,48,1.69,37.18.39,28.35L0,28.54c0,2.36,1.41,5.18,2.44,6.94C2,35.07.82,33.59.41,33.12c-.47,1.49.73,2,1.42,2.85A16.39,16.39,0,0,1,3.27,38a14.7,14.7,0,0,0,2.55,3.7c.11.14.59.49.14.72-2.2.23-3.92-3.3-5.23-4.38C.25,40,3.62,42.5,4.78,43.81ZM19.32,43c-.08.23-.56.37-.57.17S19.42,42.65,19.32,43Zm.78,0c-.05-.28.61-.64.75-.42S20.12,43.34,20.1,43Zm1.59.39c-.59.36-1.33.38-.81-.29a1.33,1.33,0,0,1,.45-.37c.51-.24.88-.71,1.4-.9C24.07,41.57,22.57,43.16,21.69,43.35ZM27.1,39.6c0-.08.13-.19.22-.23C28.07,39.05,27.2,40,27.1,39.6Zm2.07-.84a1.25,1.25,0,0,1-1.06.73C27.93,39.13,29.26,38.18,29.17,38.76ZM48.78,15.69c0,.14-.29.5-.39.36A2,2,0,0,1,48.78,15.69Zm1-1c-1.06.73-.16-.76.3-1.08C50.58,13.68,50.13,14.37,49.83,14.72Zm1.53-.48c-.3.59-1.9,2.84-2.54,2.32,0-.64,1.25-1.4,1.53-2.1a58.75,58.75,0,0,1,4.2-7.64h.07C53.3,9.34,52.56,11.73,51.36,14.24ZM37.94,35.13A77.9,77.9,0,0,0,45.06,26,53.4,53.4,0,0,1,37.94,35.13Zm-1.83-1.79c4-5.05,6.78-10.45,11.5-15.44,3-1.78-3,8.66-3.59,9.59-2.89,3.86-6.42,8.43-11,11.41C30.38,39.75,35.68,34.32,36.11,33.34ZM31.9,38c-.91.46-2.62,2.87-3.1,1.9.41-1,1.7-2.08,2.48-3.11a53.43,53.43,0,0,1,4.48-5.17c1-.6.7.32.41.8C35.57,34.29,33.39,36.23,31.9,38Zm-2.26,4.36c-2.72,2.26-5.73,4.72-8.89,6.05A36.17,36.17,0,0,0,26.84,44,26.8,26.8,0,0,1,32,40.09a3.45,3.45,0,0,1-1,.82C30.35,41.3,30.17,41.89,29.64,42.37ZM16.53,49.84c.33-.2.89-.64,1.11-.43C17.48,49.77,16.71,50,16.53,49.84Zm-2.82-2.79c1.65-.66,2.9.22,4.56-.27,2.22-1,3.85-3.14,6.13-4.26,4.22-1.43-3.79,5.26-5.18,5.5-2.45,1.16-4.75,1.11-5.69-.23A.51.51,0,0,1,13.71,47.05ZM12,50.32c0-.19.42-.3.42-.13S12,50.53,12,50.32Zm.33-.78c-.08.19-.33.14-.33,0S12.39,49.39,12.37,49.54ZM8.05,43.07c.57-2.67,5,2.09,6.7,1.5.88.14,7.87-1.34,4.24.91C13.89,47.2,9.15,46.37,8.05,43.07Zm-1.53.67c.3-.07.39,0,.22.21S6.36,43.94,6.52,43.74Zm-.73-.56c.07-.47.73-.25.77,0C6.48,43.71,5.81,43.45,5.79,43.18Z"/><path class="cls-4" d="M56.93.59A158.38,158.38,0,0,1,34.78,30.53a33.55,33.55,0,0,1-10.93,9.32c-7,3.56-13,2.5-16.74.14-4-2.58-5.39-7.25-6.46-11.76l.19-.1c1.29,4.55,3.41,12.15,9.39,12.75,6.18.1,15-5.69,21.08-10.59A107.63,107.63,0,0,0,56.06,1ZM33,32.22c.28-.26.62-.57.61-.85a.59.59,0,0,1,.19-.35c1.64-1.86,4.15-4,4.68-5.93,0-.26-.49,0-.69.22-2.74,2.74-5.59,5.41-8.56,7.93-1.63,1.3-3,2.76-4.55,4.08-1.21,1,.32,1,1.22.49C28.5,36.38,30.66,34.14,33,32.22ZM22.12,36.93a49.11,49.11,0,0,1-8.23,3.73c-1.44.88.16,1.24.95,1,4.49-.48,6.26-2,10.43-5.18a16.52,16.52,0,0,0,1.45-1.72c.86-.86,1.87-1.52,2.65-2.46C26.84,33.62,24.63,35.64,22.12,36.93ZM42.23,21.09c.72-1.87-3.95,3-3.31,3.61C39.17,25.52,41.65,21.59,42.23,21.09Zm1-1.32a1.14,1.14,0,0,0,.85-.92C43.58,19.09,43.29,19.37,43.23,19.77Z"/></g></g></g></g></svg>