<svg xmlns="http://www.w3.org/2000/svg" viewBox="0 0 76.26 33.54"><defs><style>.cls-1{isolation:isolate;}.cls-2{opacity:0.34;mix-blend-mode:multiply;}.cls-3{fill:#4f2d41;}</style></defs><g class="cls-1"><g id="Layer_2" data-name="Layer 2"><g id="Ñëîé_1" data-name="Ñëîé 1"><g class="cls-2"><path class="cls-3" d="M59,5.14c0-.8-4.29-1.09-8.59-1V0h-.82L50,4.15c-4.2.11-8.3.58-8.32,1.27,0,.88.56,4,.82,7.06,0,.81.08,1.66.12,2.53a13.4,13.4,0,0,1-.21,2.58l-.43,0-.17-.07s-5.34-.39-10-.64c-2-.11-3.87-.18-5.13-.19l.33.06c-1.62,0-3.27-.06-4.91-.06-5.2,0-8.17,2.3-9.27,5.14l-4.74-.23-.93-.05a1.7,1.7,0,0,0-.43-.33A1.55,1.55,0,0,0,6.1,21l-.92-.18-.59-.12-.27-.05a.66.66,0,0,1-.14,0A1.92,1.92,0,0,0,3.05,21a2.27,2.27,0,0,0-.44.38,1.21,1.21,0,0,0-.1.14l-.09.12-.28,0s-.07,0-.11,0c-2.78.12-2.55,6.09-.23,6.08l.65,0a2.1,2.1,0,0,0,.93.83,1.43,1.43,0,0,0,.28.07l.23,0h2a1.68,1.68,0,0,0,.24-.06,1.09,1.09,0,0,0,.26-.05,1.91,1.91,0,0,0,.27-.16,1.29,1.29,0,0,0,.16-.09h.89c1.75,0,3.45-.06,5.48-.12.18.3.36.6.55.88a7.87,7.87,0,0,0,2.3,2.18,8.89,8.89,0,0,0,4.59,1.31h1l3.53,0,18.11.07a8.49,8.49,0,0,0,.9-.12l.31.1c.32.1.79.24,1.38.38l1.14.24c.53.1,1.12.19,1.75.26l1.11.1a19.83,19.83,0,0,0,3.5-.11,14,14,0,0,0,4.93-1.54V17.77c1.13-.77.81-2.73.38-4.48C58.21,11.32,59,6.74,59,5.14Z"/><path class="cls-3" d="M75.57,21.59l-.35-5.34V14.81a1.69,1.69,0,0,0,.31-1.71c-.16-.39-3.35-.65-6.49-.74l.35-3.68h-.76l0,3.66c-3-.07-5.77,0-5.77.32a11.74,11.74,0,0,0,.14,1.73L63,16.69l-.58,7.59-.58,7.53a7.55,7.55,0,0,0,1,.39,16.44,16.44,0,0,0,4.56.71,31.83,31.83,0,0,0,3.54-.07c1.12-.08,2.16-.2,3-.32,1.44-.21,2.37-.4,2.37-.4Z"/></g></g></g></g></svg>