<svg xmlns="http://www.w3.org/2000/svg" viewBox="0 0 17.41 33.54"><defs><style>.cls-1{isolation:isolate;}.cls-2{fill:#b2a7bc;}.cls-3{fill:#fcb393;}.cls-4{fill:#b53356;opacity:0.33;mix-blend-mode:multiply;}.cls-5{fill:#fcc1ac;}.cls-6{fill:#ffecca;}</style></defs><g class="cls-1"><g id="Layer_2" data-name="Layer 2"><g id="Ñëîé_1" data-name="Ñëîé 1"><polygon class="cls-2" points="7.88 0 8.39 4.8 8.71 4.8 8.71 0 7.88 0"/><path class="cls-3" d="M1,6.55,2.35,32.37s7.9,2.94,14.28-.51V6.55Z"/><path class="cls-4" d="M16.63,6.24a104,104,0,0,1-2,11.68c-2.19-1.55-.07-5.87,0-5.88.74-2.16,0-3.57-1.51-2.36s-.63,8.87-1.5,8.24-.74-7.27-2-5.73-.57,2.87-1.6,3S8.1,8.9,6.75,9.63s-.87,1.93-1.85,2.1S3.91,8.19,2.47,9s.87,15.11-.69,15.13a1.5,1.5,0,0,1-.37,0C1,17.26.54,6.14.54,6.14Z"/><path class="cls-5" d="M17.29,5.14c.05,1.6-.75,6.18-.27,8.15.54,2.26.94,4.88-1.77,4.81s-.17-6.79-.17-6.79c.74-2.15-.53-3.75-2-2.54s-.63,8.87-1.5,8.24-.74-7.27-2-5.73-.57,2.87-1.6,3S8.1,8,6.75,8.72s-.87,1.93-1.85,2.1-1-3.54-2.43-2.75.87,15.1-.69,15.12S-.11,21.33.71,17.72,0,6.85,0,5.42,17.25,3.53,17.29,5.14Z"/><path class="cls-4" d="M16.63,31.86V18.91c-.78,9.17-14.16,14.94-14.58,7.91l.3,5.55S10.25,35.31,16.63,31.86Z"/><path class="cls-6" d="M0,5.42l17.29-.28A37.63,37.63,0,0,0,0,5.42Z"/></g></g></g></svg>