<svg xmlns="http://www.w3.org/2000/svg" xmlns:xlink="http://www.w3.org/1999/xlink" viewBox="0 0 31.55 41.59"><defs><style>.cls-1{isolation:isolate;}.cls-2{fill:#9a90b7;}.cls-3{fill:#9c8ca3;opacity:0.35;}.cls-3,.cls-8{mix-blend-mode:screen;}.cls-4{fill:#a1aec8;}.cls-4,.cls-6,.cls-7{opacity:0.5;}.cls-4,.cls-5,.cls-6,.cls-7{mix-blend-mode:multiply;}.cls-5{fill:#9c4f79;opacity:0.7;}.cls-6{fill:#a192c8;}.cls-7{fill:url(#Áåçûìÿííûé_ãðàäèåíò_121);}.cls-8{fill:#bca79f;}.cls-9{fill:#ffc721;}.cls-10{fill:#ffa21a;}</style><linearGradient id="Áåçûìÿííûé_ãðàäèåíò_121" x1="15.07" y1="38.58" x2="15.15" y2="40.8" gradientUnits="userSpaceOnUse"><stop offset="0" stop-color="#9a2caf"/><stop offset="1" stop-color="#7a1c91"/></linearGradient></defs><g class="cls-1"><g id="Layer_2" data-name="Layer 2"><g id="Ñëîé_1" data-name="Ñëîé 1"><path class="cls-2" d="M31.07,36.69,20.49,19.61a6.22,6.22,0,0,1-.93-3.31l.09-12.83H11.77l.49,12.39a6.25,6.25,0,0,1-.94,3.55L.5,36.67a3.21,3.21,0,0,0,2.72,4.92H28.33A3.21,3.21,0,0,0,31.07,36.69Zm-2.89,2C26.52,39.7,3.71,40.07,2.8,38.08S14,20.77,14.43,18.09s-1-13.78-1-13.78l4-.32s.05,10.59.3,13.79S29.83,37.58,28.18,38.64Z"/><path class="cls-3" d="M17.45,4l-4,.32s1.36,11.1,1,13.78-12.55,18-11.63,20,23.72,1.62,25.38.56S18,21,17.75,17.78,17.45,4,17.45,4Z"/><path class="cls-2" d="M15.16,0c3.48-.1,5.37.22,6.1.87s-.41,2.78-1,3.29-5.91.8-7.58.53-2.06-.76-2.49-2S10.7.91,11.74.53A16.25,16.25,0,0,1,15.16,0Z"/><path class="cls-4" d="M11.21,1.93a23.34,23.34,0,0,0,9-.42,9.86,9.86,0,0,1-1,2.28c-.41.49-6.05.84-7.09.35S11.21,1.93,11.21,1.93Z"/><path class="cls-5" d="M11.47,1.34a15.58,15.58,0,0,0,4.07.17A34.83,34.83,0,0,0,19.75,1,16.84,16.84,0,0,0,11.47,1.34Z"/><path class="cls-6" d="M19.25.17l-.32.45s1.77,0,1.41.41a7.17,7.17,0,0,1-2.13.91c.38,0,.76-.1,1.1-.16a3.12,3.12,0,0,0-1.8,1.13,2.33,2.33,0,0,1-.58.73c-.36.32-.77.65-.54.67a12.77,12.77,0,0,0,2.86-.48,16.6,16.6,0,0,0,1-2.26c.78-.23,1.22-.52.93-.78A4.65,4.65,0,0,0,19.25.17Z"/><path class="cls-6" d="M14.7,4.21a2.47,2.47,0,0,1-1.24-.71C12.86,3,12.76,2.22,12,2c.43,0,.76.07.76.07s-1.67-.31-1.68-.76.78-.38.78-.38L11.6.58s-1.07.33-1.33.85c-.12.23.37.39.94.49a3,3,0,0,0,.46,1.82c.41.52,1,.64,2.14.63S15,4.3,14.7,4.21Z"/><path class="cls-6" d="M12.82,11.36c.47.88,1.65,5.52,1.08,7.14S5.33,32.55,4,33.44s7-13.07,7.91-15.35S12,9.83,12.82,11.36Z"/><path class="cls-6" d="M18.23,15.05c-.43,1.88-.87,4.22,2.78,8.45s-1.35-3.84-1.55-5.72S18.75,12.81,18.23,15.05Z"/><path class="cls-7" d="M3.48,39.09c3.25.36,17,.92,22.26.42s-2.1,1.18-10.43,1.26S.38,38.74,3.48,39.09Z"/><path class="cls-8" d="M9.47,23c-.45,1.06,1.41-.85,2-1.74s2.23-3.72,1-2.69A14,14,0,0,0,9.47,23Z"/><path class="cls-9" d="M10,25.76c1.35-2.25,5.23-1.76,7.31-1.05s3.88.45,4.26,1.09-.46,2.11-.46,2.11l-8.87.16Z"/><path class="cls-10" d="M3,38c.9,2,23.33,1.6,25,.56,1-.65-3.06-7.14-6.37-12.74a10,10,0,0,0-2.69.9c-2.16,1-7-3-8.88-.94C6.58,30.87,2.46,36.81,3,38Z"/></g></g></g></svg>