<svg xmlns="http://www.w3.org/2000/svg" xmlns:xlink="http://www.w3.org/1999/xlink" viewBox="0 0 19.09 30.85"><defs><style>.cls-1{isolation:isolate;}.cls-2{fill:#9a90b7;}.cls-3{fill:#9c8ca3;opacity:0.35;}.cls-10,.cls-3,.cls-9{mix-blend-mode:screen;}.cls-4{fill:#cb3c2a;}.cls-5{fill:#b81f5b;opacity:0.21;}.cls-11,.cls-13,.cls-15,.cls-18,.cls-21,.cls-22,.cls-5,.cls-7,.cls-8{mix-blend-mode:multiply;}.cls-10,.cls-6{fill:#f47f22;}.cls-10,.cls-21,.cls-7,.cls-8{opacity:0.5;}.cls-7{fill:url(#Áåçûìÿííûé_ãðàäèåíò_121);}.cls-8{fill:#a192c8;}.cls-9{fill:#bca79f;}.cls-11{fill:url(#New_swatch_2);}.cls-12{fill:url(#Áåçûìÿííûé_ãðàäèåíò_257);}.cls-13{fill:#77244c;opacity:0.58;}.cls-14{fill:#a9244c;}.cls-15{fill:#9c4f79;opacity:0.7;}.cls-16{fill:#bb4c3c;}.cls-17{fill:#ff5ea0;opacity:0.69;}.cls-18{fill:#9e2e46;opacity:0.47;}.cls-19{fill:#e28959;}.cls-20{fill:#69223b;}.cls-21{fill:#a1aec8;}.cls-22{fill:#838ca3;opacity:0.24;}</style><linearGradient id="Áåçûìÿííûé_ãðàäèåíò_121" x1="2.78" y1="27.76" x2="16.08" y2="27.76" gradientUnits="userSpaceOnUse"><stop offset="0" stop-color="#9a2caf"/><stop offset="1" stop-color="#7a1c91"/></linearGradient><linearGradient id="New_swatch_2" x1="9.4" y1="11.06" x2="9.49" y2="13.47" gradientUnits="userSpaceOnUse"><stop offset="0" stop-color="#9c8ca3"/><stop offset="1" stop-color="#d3cfd8"/></linearGradient><linearGradient id="Áåçûìÿííûé_ãðàäèåíò_257" x1="5.51" y1="13.65" x2="13.24" y2="13.65" gradientUnits="userSpaceOnUse"><stop offset="0" stop-color="#82223b"/><stop offset="1" stop-color="#98193b"/></linearGradient></defs><g class="cls-1"><g id="Layer_2" data-name="Layer 2"><g id="Ñëîé_1" data-name="Ñëîé 1"><path class="cls-2" d="M11.87,13.31c-.37-.22-.44-1.23-.4-1.52a.47.47,0,0,1,.36-.44l-.32-.52-5.24-.08s0,.6.35.78.26,1.48-.09,2-2,.72-4,1.94S-.15,16.75,0,18.87a66.11,66.11,0,0,0,2.61,10.4c.61,1.53.44.74,2.1,1.33s5.71,0,6.83-.16c1.34-.13,4.27.12,4.79-.57S19.62,18.13,19,16.58,12.24,13.53,11.87,13.31ZM9.66,28.52c-5.5,0-7.27-4.5-7.88-7.47s-.51-3.92,2.15-5.31a11.57,11.57,0,0,1,5.93-1.5c3,0,6.69,1,7.38,3S16.4,28.51,9.66,28.52Z"/><path class="cls-3" d="M9.86,14.24c3,0,6.69,1,7.38,3S16.4,28.51,9.66,28.52c-5.5,0-7.27-4.5-7.88-7.47s-.51-3.92,2.15-5.31A11.57,11.57,0,0,1,9.86,14.24Z"/><path class="cls-4" d="M1.93,21c.6,2.86,2.33,7.21,7.73,7.2,5,0,7.1-5.2,7.5-8.52.09-1.2-1.42-2.93-1.79-1.69s-.87.46-2.06,1.28-3.54.41-5.86-.61-4.62-1.24-5.78-.23A7.93,7.93,0,0,0,1.93,21Z"/><path class="cls-5" d="M6.07,27.06c-.52-.1-.07-.7.09-.6S6.48,27.13,6.07,27.06Z"/><path class="cls-5" d="M7.84,26.2c-.18-.07,0-.29.14-.25S8,26.26,7.84,26.2Z"/><path class="cls-5" d="M11,27.28c-.57-.09.21-.72.46-.69S11.37,27.32,11,27.28Z"/><path class="cls-5" d="M11.21,27.7c-.25-.34.07-.37.16-.3S11.31,27.83,11.21,27.7Z"/><path class="cls-6" d="M1.67,18.47c-.38.83,2.48-.5,4.22-.1s2.49,1.18,6.23,1.82,5.9.45,4.69-1.74-4.56-.4-7.43-.16S2.56,16.51,1.67,18.47Z"/><path class="cls-7" d="M3.33,26.07c2.33,2.78,7.2,4.7,11.31.86S13,29.12,10,29.76C4.52,30.93,1.45,23.82,3.33,26.07Z"/><path class="cls-8" d="M4.34,14.6c1.12-.6,1.2.1.26.65s-2.76,1.24-3.12,2.26a10.71,10.71,0,0,0,.16,3.87c.07.41-.33,2.66-.63,1.81S0,18.83.26,17.68,3.66,15,4.34,14.6Z"/><path class="cls-9" d="M.46,17.29c-.44.5.93-.2,1.4-.59s1.9-1.63,1-1.3A8.18,8.18,0,0,0,.46,17.29Z"/><path class="cls-10" d="M11.08,19.8c-2.12-.56-3-1.14-3.71-1.3a13.88,13.88,0,0,0-3.68-.21c-.85.17-1.57.44-1.13.37a9,9,0,0,1,3.33-.29c1.75.41,2.49,1.18,6.23,1.82.62.11,1.2.19,1.72.25S13.2,20.36,11.08,19.8Z"/><path class="cls-11" d="M7.7,11.19A22.24,22.24,0,0,1,8,13.5a14.92,14.92,0,0,0,2.46-.39s.16-1.52.59-1.9S7.7,11.19,7.7,11.19Z"/><path class="cls-12" d="M6.79,11.79l.14.53s1.67,1.53,4.54-.07v-.33l.38-.13a6.38,6.38,0,0,0,.32.91l-.18.11.13.21.21-.07a4.56,4.56,0,0,0,.92.53,4.21,4.21,0,0,1-3.86,2.09,4.73,4.73,0,0,1-3.87-1.72,3.22,3.22,0,0,0,.56-.9l.26.07.09-.17-.26-.15a2.82,2.82,0,0,0,.34-1Z"/><path class="cls-13" d="M6.42,12.85a4.87,4.87,0,0,0,5.56,0l.13.21a4.23,4.23,0,0,1-5.78,0Z"/><path class="cls-14" d="M6.5,11.73s.14,1.91,2.67,1.39c2.8-.57,2.67-1.33,2.67-1.33h-.37l0,.2s-2.33,1.84-4.52.33l-.14-.53Z"/><path class="cls-14" d="M6.33,13a4.41,4.41,0,0,0,5.78,0l.21-.07s-2.64,3.69-6.25,0Z"/><path class="cls-2" d="M8.61,8c2.66-.07,4.1.17,4.65.66s-.31,2.12-.78,2.51-4.5.61-5.77.41S5.14,11,4.81,10,5.22,8.65,6,8.36A12.16,12.16,0,0,1,8.61,8Z"/><path class="cls-15" d="M7.05,9.59a14.47,14.47,0,0,0,3.81-.16s-.46,1.69-1.78,1.76S7.05,9.59,7.05,9.59Z"/><path class="cls-16" d="M6.12,8.2a4.24,4.24,0,0,1-1-1.81C5.13,6.06,8,0,8.72,0s3.86,5.37,3.8,6.11a6.66,6.66,0,0,1-1.35,2.24l-2.09.39Z"/><path class="cls-17" d="M6.52,3.36C8.13.27,8.29.3,8.59.05s1,1.87,1.35,3.45.28,2.14-.37,2.8S4.88,6.92,5.27,6A27.27,27.27,0,0,1,6.52,3.36Z"/><path class="cls-18" d="M5.41,7.13C5.14,6.61,9.09,6.86,9.47,7A1,1,0,0,1,10,8c0,.37-.28.83-2,.58S6,8.25,5.41,7.13Z"/><path class="cls-18" d="M10,8.35a3.1,3.1,0,0,1,.64-1.6c.33-.32,1.93-.69,1.79-.36a7.84,7.84,0,0,1-1.12,1.78C10.93,8.57,10,8.35,10,8.35Z"/><path class="cls-19" d="M6.52,3.36C8.13.27,8.29.3,8.59.05s1,1.87,1.35,3.45.28,2.14-.37,2.8S4.88,6.92,5.27,6A27.27,27.27,0,0,1,6.52,3.36Z"/><path class="cls-20" d="M6.28,8.85a9,9,0,0,0,2.9.23,6,6,0,0,0,2.25-.59c.17-.17.61-.82.5-.89A20,20,0,0,1,9,8.54,15.11,15.11,0,0,1,5.92,8C5.62,8,6,8.68,6.28,8.85Z"/><path class="cls-21" d="M5.6,9.43a17.68,17.68,0,0,0,6.86-.33,7.6,7.6,0,0,1-.73,1.75c-.32.37-4.61.64-5.41.26S5.6,9.43,5.6,9.43Z"/><path class="cls-22" d="M5.81,9a4.59,4.59,0,0,0,3,.66,7.43,7.43,0,0,0,3.27-.9A19.75,19.75,0,0,1,5.81,9Z"/><path class="cls-8" d="M11.73,8.09l-.24.34s1.34,0,1.07.31a5.52,5.52,0,0,1-1.63.69c.3,0,.58-.07.85-.12a2.41,2.41,0,0,0-1.37.86,1.82,1.82,0,0,1-.45.56c-.28.24-.59.5-.41.51a9,9,0,0,0,2.18-.37,12.31,12.31,0,0,0,.73-1.72c.6-.17.93-.39.71-.59A3.57,3.57,0,0,0,11.73,8.09Z"/><path class="cls-8" d="M8.26,11.16a1.93,1.93,0,0,1-.94-.53c-.46-.42-.53-1-1.1-1.12.32,0,.57.05.57.05S5.52,9.33,5.51,9s.59-.28.59-.28l-.2-.3s-.81.25-1,.64c-.09.18.28.3.71.38A2.3,2.3,0,0,0,6,10.8c.31.4.79.49,1.64.49S8.5,11.23,8.26,11.16Z"/></g></g></g></svg>