<svg xmlns="http://www.w3.org/2000/svg" xmlns:xlink="http://www.w3.org/1999/xlink" viewBox="0 0 21.55 34.02"><defs><style>.cls-1{isolation:isolate;}.cls-2{fill:#9a90b7;}.cls-3{fill:#9c8ca3;opacity:0.35;}.cls-16,.cls-17,.cls-19,.cls-3{mix-blend-mode:screen;}.cls-11,.cls-12,.cls-13,.cls-14,.cls-15,.cls-18,.cls-22,.cls-4,.cls-8{mix-blend-mode:multiply;}.cls-4{fill:url(#New_swatch_2);}.cls-5{fill:url(#Áåçûìÿííûé_ãðàäèåíò_213);}.cls-6{opacity:0.85;fill:url(#Áåçûìÿííûé_ãðàäèåíò_49);}.cls-7{fill:#77168c;}.cls-8{fill:#7a1c91;opacity:0.32;}.cls-9{fill:#9e35b7;}.cls-10,.cls-11,.cls-12,.cls-14,.cls-17{opacity:0.5;}.cls-10{fill:url(#Áåçûìÿííûé_ãðàäèåíò_248);}.cls-11{fill:url(#Áåçûìÿííûé_ãðàäèåíò_121);}.cls-12{fill:#a1aec8;}.cls-13,.cls-19{fill:#838ca3;}.cls-13{opacity:0.24;}.cls-14{fill:#a192c8;}.cls-15{fill:#9c4f79;opacity:0.7;}.cls-16{fill:#b48cae;opacity:0.9;}.cls-17{fill:#9a2caf;}.cls-18{opacity:0.29;fill:url(#Áåçûìÿííûé_ãðàäèåíò_49-2);}.cls-19{opacity:0.51;}.cls-20{fill:#bb4c3c;}.cls-21{fill:#e28959;}.cls-22{fill:#9e2e46;opacity:0.47;}</style><linearGradient id="New_swatch_2" x1="35.64" y1="38.38" x2="35.72" y2="40.35" gradientTransform="translate(-12.72 -32.87) rotate(12.13)" gradientUnits="userSpaceOnUse"><stop offset="0" stop-color="#9c8ca3"/><stop offset="1" stop-color="#d3cfd8"/></linearGradient><linearGradient id="Áåçûìÿííûé_ãðàäèåíò_213" x1="30.66" y1="41.12" x2="30.66" y2="29.12" gradientTransform="translate(-12.72 -32.87) rotate(12.13)" gradientUnits="userSpaceOnUse"><stop offset="0" stop-color="#fecfc9"/><stop offset="1" stop-color="#fe9f92"/></linearGradient><linearGradient id="Áåçûìÿííûé_ãðàäèåíò_49" x1="20.79" y1="42.1" x2="28.07" y2="32.56" gradientTransform="translate(-12.72 -32.87) rotate(12.13)" gradientUnits="userSpaceOnUse"><stop offset="0" stop-color="#d56833"/><stop offset="0.34" stop-color="#c65838"/><stop offset="1" stop-color="#9e2e46"/></linearGradient><linearGradient id="Áåçûìÿííûé_ãðàäèåíò_248" x1="42.65" y1="39.85" x2="34.9" y2="39.85" gradientTransform="translate(-12.72 -32.87) rotate(12.13)" gradientUnits="userSpaceOnUse"><stop offset="0" stop-color="#9e2e46"/><stop offset="0.66" stop-color="#c65838"/><stop offset="1" stop-color="#d56833"/></linearGradient><linearGradient id="Áåçûìÿííûé_ãðàäèåíò_121" x1="26.91" y1="57.03" x2="42.82" y2="57.03" gradientTransform="translate(-12.72 -32.87) rotate(12.13)" gradientUnits="userSpaceOnUse"><stop offset="0" stop-color="#9a2caf"/><stop offset="1" stop-color="#7a1c91"/></linearGradient><linearGradient id="Áåçûìÿííûé_ãðàäèåíò_49-2" x1="36.68" y1="40.5" x2="36.68" y2="39.15" xlink:href="#Áåçûìÿííûé_ãðàäèåíò_49"/></defs><g class="cls-1"><g id="Layer_2" data-name="Layer 2"><g id="Ñëîé_1" data-name="Ñëîé 1"><path class="cls-2" d="M19.3,17.88c-1.94-2.36-3.45-2.76-3.33-3.19.2-.7.62-.78.62-.78l.1-.9-5.57-2.15s-.34.2,0,.58c.57.73-.36,1.73-.82,1.82S3.59,12.91,1,17.7s-.2,13,6.46,15.52S19.66,31.71,21,27.72A10.16,10.16,0,0,0,19.3,17.88ZM17.24,29.6C12.39,33.33,1.38,29.39,1.46,22c.06-6,5.75-8.48,11.17-7.47C19.82,15.84,22.09,25.87,17.24,29.6Z"/><path class="cls-3" d="M12.63,14.5c7.19,1.34,9.46,11.37,4.61,15.1S1.38,29.39,1.46,22C1.52,16,7.21,13.49,12.63,14.5Z"/><path class="cls-4" d="M12.39,11.85s-.38,1.34-.45,1.53a17.7,17.7,0,0,0,3.11.94s.33-1,.7-1S12.39,11.85,12.39,11.85Z"/><path class="cls-5" d="M.41,3.05l1.2-3L4.34,1.79l.91,1.67.24-1.12a36,36,0,0,0,4,1.83,4,4,0,0,0,1.61.25l.46,6.3-.3.86,0,.63s6.19,2.16,7.56,3.09l-.6.53a21.51,21.51,0,0,0-9.34-2.14,16.22,16.22,0,0,1-4.28-1.45C3.34,11.4.41,3.05.41,3.05Z"/><path class="cls-6" d="M11.59,10.72l-.46-6.3a4,4,0,0,1-1.61-.25A23.91,23.91,0,0,1,6.29,2.74L5.85,4.58,4.34,1.79,1.61,0s2,9.93,3.28,11,4.71.44,4.71.44a6.41,6.41,0,0,0,1.64.82l0-.63Z"/><path class="cls-2" d="M15,7.94c3.28,1.37,5.33,3.09,5,4.15A3.37,3.37,0,0,1,17.12,14c-1.05,0-5.67-1.92-6.63-3.06s-.65-3.21.25-3.67S14.18,7.59,15,7.94Z"/><path class="cls-7" d="M1.61,21.91c-.06,7.2,10.8,11.06,15.56,7.46,2.76-2.09,3.16-6.24,1.63-9.62-.9-1.57-1.39.14-2.53,1.3s-3.49-.95-5.38-2.43S5.17,15.35,3.22,17.3A7.07,7.07,0,0,0,1.61,21.91Z"/><path class="cls-8" d="M4.86,26c-.47-.21.09-.43.09-.43S5.18,26.17,4.86,26Z"/><path class="cls-8" d="M12.13,27.31c.3,0,.41-.09,0-.24S12,27.29,12.13,27.31Z"/><path class="cls-8" d="M6.28,28.36c-.32-.19-.39-.42.07-.3S6.61,28.56,6.28,28.36Z"/><path class="cls-8" d="M6.73,27.77c-.1,0-.05-.25.06-.25S6.93,27.8,6.73,27.77Z"/><path class="cls-9" d="M3.52,17C1.92,18.87,8.39,22.22,14,21.8c4.45-.33,6-1.2,4.06-3.15s-5.68.81-8-.82S4.78,15.61,3.52,17Z"/><path class="cls-10" d="M8.86,13.69l.74-2.3a9.17,9.17,0,0,0,1.64.82A49.06,49.06,0,0,1,18.8,15.3l-.6.53A23,23,0,0,0,8.86,13.69Z"/><path class="cls-11" d="M2.53,26.89C4.92,29.15,8.4,33.1,15,31.12s-2,1.53-5.34,1.27S.28,24.77,2.53,26.89Z"/><path class="cls-12" d="M11,8.45s2.5,2.27,8,3.21a3.1,3.1,0,0,1-2,1.33c-1.31.23-5.25-1.58-5.85-2.42A2.72,2.72,0,0,1,11,8.45Z"/><path class="cls-13" d="M11.59,8s.22,1.37,2.55,2.31a11,11,0,0,0,4.64.72S13.89,10.21,11.59,8Z"/><path class="cls-14" d="M13.44,11.82a3.22,3.22,0,0,1-.93-1.36A3,3,0,0,0,11.81,9l.42.26s-1.21-1.07-1-1.58.89-.13.89-.13V7.17a2.57,2.57,0,0,0-1.42.09c-.37.19-.35.61.28,1.18a5.11,5.11,0,0,0,0,1.64c.15.59.63,1,1.67,1.51S13.79,12.14,13.44,11.82Z"/><path class="cls-15" d="M12.85,9.71a26.1,26.1,0,0,0,4.24,1.59c1.36.25-2.16,1.12-2.95.74S12.85,9.71,12.85,9.71Z"/><path class="cls-14" d="M5.8,14.14c1.56-.42.53.5-.82,1.3A7.11,7.11,0,0,0,1.5,19.55a10,10,0,0,0-.21,5.17C1.63,26-.55,23.32.42,19.61A7.71,7.71,0,0,1,5.8,14.14Z"/><path class="cls-14" d="M16.89,16.44a10.4,10.4,0,0,1,3.19,6.4c.33,3.13.91.37.82-1a7.1,7.1,0,0,0-2.28-4.7C17.5,16,15.39,14.87,16.89,16.44Z"/><path class="cls-16" d="M3.61,15.15c.68-.47.32.73-.49,1.7S.33,19.33.88,18.32A9,9,0,0,1,3.61,15.15Z"/><path class="cls-17" d="M17.12,21.25A5.67,5.67,0,0,1,14,21.11c-1.06-.17-1.75.56-2.89.4S8.51,20,7.83,20.06a9,9,0,0,1-3.16-.77,7.79,7.79,0,0,1-1.22-1,3.41,3.41,0,0,0,.21.31C5,20.28,9.76,22.12,14,21.8A11.62,11.62,0,0,0,18.21,21C18.51,20.72,18.4,20.85,17.12,21.25Z"/><path class="cls-14" d="M.63,24.06c.28.64.23-1.4.1-2.06S.3,19.68.22,20.62A8,8,0,0,0,.63,24.06Z"/><path class="cls-18" d="M12.13,12.52A27.2,27.2,0,0,0,15.9,14.7a5.06,5.06,0,0,0,1.61-.09S15,13.49,12.13,12.52Z"/><path class="cls-19" d="M6.29,2.74A23.91,23.91,0,0,0,9.52,4.17a36,36,0,0,1-4-1.83L5.25,3.46l.19.35A1.72,1.72,0,0,1,6.29,2.74Z"/><path class="cls-20" d="M12.28,8.41a14.49,14.49,0,0,0,3.41,1.46,8.39,8.39,0,0,0,2.85.51A14.7,14.7,0,0,0,20.9,7.79a1.55,1.55,0,0,0-.07-1.1A38.22,38.22,0,0,0,17,2.26a19.14,19.14,0,0,0-3.54-.19c-.28,0-.93.89-1,1.15S12,7.93,12.28,8.41Z"/><path class="cls-21" d="M13.32,3c.42-.29.34-.73.07-.86s-1,1-.94,1.29S13.32,3,13.32,3Z"/><path class="cls-22" d="M16.49,9.58c-.09-.08.5-.69.61-.67a.49.49,0,0,0,.16,0s.14-.1.11-.18-.34-.18-.7.16-.38.57-.31.62A.35.35,0,0,0,16.49,9.58Z"/><path class="cls-22" d="M15.76,9.64c.4-.91,1-1.14,2.27-1.49a8.79,8.79,0,0,0,2.12-.75c.56-.29.35.5,0,1.1a4.08,4.08,0,0,1-2.73,1.65C16.43,10.09,15.68,9.8,15.76,9.64Z"/><path class="cls-22" d="M12.45,3.39c1.12-.73,3.16,1.68,3.88,3.38a3,3,0,0,1-.64,3.1L12.28,8.41Z"/></g></g></g></svg>