<svg xmlns="http://www.w3.org/2000/svg" viewBox="0 0 40.34 34.17"><defs><style>.cls-1{isolation:isolate;}.cls-2{opacity:0.34;mix-blend-mode:multiply;}.cls-3{fill:#4f2d41;}</style></defs><g class="cls-1"><g id="Layer_2" data-name="Layer 2"><g id="Ñëîé_1" data-name="Ñëîé 1"><g class="cls-2"><path class="cls-3" d="M40.25,19.45c-.46-1.15-4-2.27-5.9-2.87.09-.13.14-.22.14-.22a4.53,4.53,0,0,1-.92-.54c-.18.11-.27,0-.34-.13.39-.08-.26-1.08-.14-1h-.37a.47.47,0,0,1,.36-.43c2-.38,2.05-3.55-.1-3.27.17-.29.38-.6,0-.45C35.13,9.14,31,3.17,29.8,3,29,4.1,25,9.21,27.26,10.94c-.24-.1-.26.05-.11.33-2.23.66-.77,2.88.88,3.39l-.28-.05a2.94,2.94,0,0,1-.34,1c.14.08.33.13.17.32-.39-.23-.9,1-.71,1-1.27.54-5.55,2.14-5.59,3.81-.54-2.09-3.53-4.91-4.81-5.7,2.1.6,1.81,1.28,2.7.32a11.28,11.28,0,0,0-1.3-.69c-.37-.18-.78-.36-1.19-.53a.69.69,0,0,1,.28-.17c2.05.43,5-1.94,2.28-3.77C23.41,7,19.75,5,17.39,2.26c-2.62-.46-5-.65-4.74,2.79-.06.69-.1,1.46-.11,2.1a5.89,5.89,0,0,0-.85,0c0-.66-.15-2-.2-2.7-.75.39-5.59-2-5.63-2.08L5.62,3.46C5.33,2.09,3.1.63,2,0L.78,3.05C1.51,4.75,3.84,14,8.17,13.44c-22.73,7,8.63,35,13.72,11.57,1.52,4,.59,7.88,4.1,8.47a37,37,0,0,0,11.61-.73C38.12,32.06,40.87,21,40.25,19.45Z"/></g></g></g></g></svg>