<svg xmlns="http://www.w3.org/2000/svg" viewBox="0 0 20.95 20.8"><defs><style>.cls-1{isolation:isolate;}.cls-2{fill:#540080;}.cls-3{fill:#9a90b7;}.cls-4{fill:#650038;}.cls-5{fill:#a192c8;opacity:0.5;}.cls-5,.cls-8,.cls-9{mix-blend-mode:multiply;}.cls-6{fill:#69223b;}.cls-7{fill:#bf0018;}.cls-8,.cls-9{fill:#950053;}.cls-8{opacity:0.51;}.cls-9{opacity:0.75;}.cls-10,.cls-11{fill:#b76fbc;mix-blend-mode:screen;}.cls-10{opacity:0.22;}.cls-11{opacity:0.56;}.cls-12{fill:#040047;}</style></defs><g class="cls-1"><g id="Layer_2" data-name="Layer 2"><g id="Ñëîé_1" data-name="Ñëîé 1"><path class="cls-2" d="M21,8.61s-9.88,9-20.95.7L10.87,6.67l6.26-.5Z"/><path class="cls-3" d="M5.51,5.83S-.6,5.89,1,19.16A1.86,1.86,0,0,0,2.89,20.8l14.91-.14a1.86,1.86,0,0,0,1.84-1.76c.21-4,.11-13.3-5.55-13.15Z"/><path class="cls-4" d="M6.54,6.53s-4.69,0-3.45,10.23A1.45,1.45,0,0,0,4.53,18L16,17.91a1.42,1.42,0,0,0,1.41-1.35c.16-3,.09-10.21-4.26-10.09Z"/><path class="cls-5" d="M12.93,18.42a16.65,16.65,0,0,0-6.65,1c-3.17,1.24-5.17-.06-5.45-2.31,0,.63.1,1.29.19,2A1.86,1.86,0,0,0,2.89,20.8l14.91-.14a1.86,1.86,0,0,0,1.84-1.76c.17-3.16.14-9.75-2.77-12.2L12,7.65A22.76,22.76,0,0,1,12.93,18.42Z"/><path class="cls-5" d="M19.13,11.29c-1.41-2.23-4.41-2.6-7.4.07S7.33,12.7,6,11.08c-2.26-2.78-5,.54-5,.54l.47-1.81L17,6.54,17.9,7.7A11.22,11.22,0,0,1,19.13,11.29Z"/><path class="cls-6" d="M20.39,9.07a1.87,1.87,0,0,0-.93-.53c-.74-.25-3.63-.4-7,1.73-2.19,1.39-3,2.33-4.64.81S5.52,9.43,4.49,9.68,1.77,10.59,0,9.31L4.9,7.57,14,6,19.6,7.62l1.35,1Z"/><path class="cls-7" d="M11.07,11.07C8.55,12.9,7.64,8.84,5.72,9.3s-4.5.95-5.72,0L4,5.25H2.82L2.23.15,18.45,0l-.62,4.57-2.09.18L21,8.61S17.92,6.09,11.07,11.07Z"/><path class="cls-8" d="M16.33,5.23l.3.18-.89-.66,2.09-.18.1-.71L18.45,0,15.92,0,15,3.79l-1.39.1V2.57l-.43,1.11-.61.06.21-2-1,2h-1L9.44,1.24l.08,2.53L3.86,3.66,3.25,1.91,2.82,5.26H4L.12,9.18c.58-.58,3-3,3.87-3.33,4.93-1.95-.9,3.87-2.46,4a12.88,12.88,0,0,0,3.69-.4c-.18,0-.42-.06.49-1,1.22-1.32,4-4.5,4.31-2.13s-1.59,4.69-2.53,3.81c1,.92,1.95,2.2,3.58,1,.42-.31.82-.58,1.21-.83-1.09.65-1.33-.38.08-3a5,5,0,0,1,1.16-1.51C14.63,4.76,18,8,18,8a5.45,5.45,0,0,1,3,.61Z"/><path class="cls-9" d="M.12,9.18,0,9.31Z"/><path class="cls-10" d="M18.66,13.18s1.76,7.15-1.54,6.8.38-1.27,1-2.65A12.56,12.56,0,0,0,18.66,13.18Z"/><path class="cls-11" d="M1.5,16.94S.32,10.72,3.61,10.31c3.12-.39.11,2.75-1.09,3.52S1.5,16.94,1.5,16.94Z"/><path class="cls-12" d="M17,4.64l-.93.4s-2.71-1.16-12.4.51l-.4-.41S7.67,2.94,17,4.64Z"/></g></g></g></svg>