<svg xmlns="http://www.w3.org/2000/svg" xmlns:xlink="http://www.w3.org/1999/xlink" viewBox="0 0 33.06 42.76"><defs><style>.cls-1{isolation:isolate;}.cls-2{fill:#9a90b7;}.cls-3{fill:#7e5f77;}.cls-4{fill:url(#Áåçûìÿííûé_ãðàäèåíò_45);}.cls-5{opacity:0.37;}.cls-5,.cls-9{mix-blend-mode:multiply;}.cls-6{fill:#ae0027;}.cls-7{fill:#c32432;}.cls-8{fill:#ff742f;}.cls-9{fill:#a192c8;opacity:0.5;}.cls-10{fill:#bb4c3c;}.cls-11{fill:#b48cae;opacity:0.9;}.cls-11,.cls-12{mix-blend-mode:screen;}.cls-12{fill:#e0ff86;opacity:0.21;}</style><linearGradient id="Áåçûìÿííûé_ãðàäèåíò_45" x1="18.4" y1="48.79" x2="18.4" y2="21.75" gradientTransform="translate(-1.35 -7.95) rotate(0.75)" gradientUnits="userSpaceOnUse"><stop offset="0" stop-color="#326b96"/><stop offset="0.52" stop-color="#173e6e"/><stop offset="1" stop-color="#00194c"/></linearGradient></defs><g class="cls-1"><g id="Layer_2" data-name="Layer 2"><g id="Ñëîé_1" data-name="Ñëîé 1"><path class="cls-2" d="M26.28,3.92a90.91,90.91,0,0,1,5.8,13.52c1.75,5.91.64,25.32.64,25.32L.27,42.5s-1-19.07.81-25.13A84.49,84.49,0,0,1,6.8,3.83l-1.57,0L5.16.56,27.84.7l-.11,3.17Z"/><path class="cls-3" d="M25.79,6.31a81,81,0,0,1,4.94,11.87c1.18,4.12.82,18,.62,21.87a1.66,1.66,0,0,1-1.66,1.59L3.27,41.46a1.65,1.65,0,0,1-1.61-1.6C1.5,36,1.23,22.35,2.44,18.13A75.06,75.06,0,0,1,7.32,6.24Z"/><path class="cls-4" d="M28.8,14.8c.5,1.29.94,2.61,1.28,3.83,1.08,3.87.75,17.1.57,20.85A1.67,1.67,0,0,1,29,41.08L4,40.91A1.64,1.64,0,0,1,2.36,39.3c-.15-3.68-.38-16.74.73-20.71a13.24,13.24,0,0,1,.85-2.7C4.47,14.88,28.18,13.18,28.8,14.8Z"/><g class="cls-5"><path class="cls-6" d="M27.37,31c.81,1.37-1.4,4-3,2.21a1.73,1.73,0,0,1-2.28-.83C21.15,30.86,25,27,27.37,31Z"/><path class="cls-6" d="M12,35.25c-2.08-1-1.43-6,1.89-5.07a2.52,2.52,0,0,1,3.45-.78C19.75,30.51,18.19,38.3,12,35.25Z"/><path class="cls-6" d="M12.25,32.25a3,3,0,0,0-1.11.26C11,30.68,9.9,28.85,8.08,28.87c-2.72.05-6.5,5.09-1,7a4.28,4.28,0,0,0,1.4.25c-.33,1.78.33,3.58,2.67,3.88C15.24,40.51,15.87,32.19,12.25,32.25Z"/><path class="cls-6" d="M27,32.52a3.1,3.1,0,0,0-2.83,1.06A2.64,2.64,0,0,0,22,32.5c-2.71,0-6.49,5.08-1,7,2.12.74,3.35-.14,3.83-1.49a2.91,2.91,0,0,0,.92.37C30.15,39.27,31.26,32.86,27,32.52Z"/><path class="cls-7" d="M4.43,39.53c-2.08-1-1.43-6,1.89-5.06a2.51,2.51,0,0,1,3.45-.78C12.16,34.79,10.6,42.59,4.43,39.53Z"/><path class="cls-7" d="M13.4,39.53c-2.08-1-1.43-6,1.89-5.06a2.51,2.51,0,0,1,3.45-.78C21.13,34.79,19.57,42.59,13.4,39.53Z"/><path class="cls-7" d="M11.17,34.81c-4.85-.62-2.55-7.68,1.08-7.74S15.24,35.33,11.17,34.81Z"/><path class="cls-7" d="M12.45,38a3,3,0,0,1,1.17-5.85C17.91,32.45,16.8,38.86,12.45,38Z"/><path class="cls-7" d="M24,39.68a3,3,0,0,1,1.17-5.85C29.41,34.17,28.31,40.58,24,39.68Z"/><path class="cls-6" d="M15.26,30.25c-2.08-1-1.43-6,1.89-5.07a2.51,2.51,0,0,1,3.45-.77C23,25.51,21.43,33.3,15.26,30.25Z"/><path class="cls-8" d="M10.26,32.5c-1.72,0-4.13,3.24-.62,4.45S12.83,32.46,10.26,32.5Z"/><path class="cls-7" d="M20,25.35c-1-2.11,2.65-5.54,4.65-2.76a2.53,2.53,0,0,1,3.18,1.57C29,26.52,22.93,31.6,20,25.35Z"/><path class="cls-8" d="M14.28,36c-4.85-.62-2.55-7.68,1.08-7.74S18.35,36.47,14.28,36Z"/><path class="cls-8" d="M19.77,39.66a2.48,2.48,0,0,1,1-4.86C24.29,35.09,23.38,40.41,19.77,39.66Z"/><path class="cls-8" d="M9.37,20.9a2.52,2.52,0,0,1,1-4.95C14,16.24,13,21.66,9.37,20.9Z"/><path class="cls-8" d="M19.94,25.79a2,2,0,0,1,.77-3.87C23.54,22.15,22.81,26.38,19.94,25.79Z"/></g><path class="cls-9" d="M29,9.5c-1.44-3.17-2.72-5.58-2.72-5.58l1.45,0,.08-2.26L26.9,3.07,6.36,3,5.18,1.78l.05,2,1.57,0s-1.37,2.55-2.88,6C5.77,14.83,26.63,11.73,29,9.5Z"/><path class="cls-9" d="M.27,42.5l32.45.26s.69-13.67.11-20.63c0,3.6-1.12,12.28-8.61,12.65-1.22.06-15,0-16.07-.08C2.85,34.14,0,31.39,0,27.16-.09,32.91.27,42.5.27,42.5Z"/><path class="cls-9" d="M6.8,3.83l19.48.09S9.92,5.86,6.8,3.83Z"/><polygon class="cls-10" points="4.62 0 4.81 1.47 28.13 1.61 28.66 0.15 4.62 0"/><path class="cls-11" d="M.88,22.48l3.55-.83c0-.35,0-.68,0-1L1,21.8C.93,22,.9,22.25.88,22.48Z"/><path class="cls-11" d="M4.6,17c.61-3.64.92-3.89.36-3.74-2,.51-3.23,3.26-3.78,6.69l3.26-.77A20.6,20.6,0,0,1,4.6,17Z"/><path class="cls-12" d="M24,12.52s3.93-.31,4.46,2.88S28.22,42,28.22,42l-2.43-.2Z"/></g></g></g></svg>