<svg xmlns="http://www.w3.org/2000/svg" xmlns:xlink="http://www.w3.org/1999/xlink" viewBox="0 0 21.04 64.06"><defs><style>.cls-1{isolation:isolate;}.cls-2{fill:#e1b49f;}.cls-10,.cls-11,.cls-12,.cls-13,.cls-3,.cls-8{opacity:0.51;}.cls-10,.cls-11,.cls-12,.cls-13,.cls-14,.cls-15,.cls-16,.cls-3,.cls-4,.cls-5,.cls-6,.cls-7,.cls-8{mix-blend-mode:multiply;}.cls-3{fill:url(#Áåçûìÿííûé_ãðàäèåíò_904);}.cls-4,.cls-5{fill:#b53356;}.cls-4{opacity:0.7;}.cls-5{opacity:0.71;}.cls-6{fill:url(#Áåçûìÿííûé_ãðàäèåíò_905);}.cls-7{fill:url(#Áåçûìÿííûé_ãðàäèåíò_811);}.cls-8{fill:#b5402e;}.cls-9{fill:#bca79f;opacity:0.25;mix-blend-mode:screen;}.cls-10{fill:url(#Áåçûìÿííûé_ãðàäèåíò_906);}.cls-11{fill:url(#Áåçûìÿííûé_ãðàäèåíò_907);}.cls-12{fill:url(#Áåçûìÿííûé_ãðàäèåíò_821);}.cls-13{fill:url(#Áåçûìÿííûé_ãðàäèåíò_821-2);}.cls-14{fill:#9f3356;}.cls-15{fill:url(#Áåçûìÿííûé_ãðàäèåíò_909);}.cls-16{fill:url(#Áåçûìÿííûé_ãðàäèåíò_911);}.cls-17{fill:#3d0104;}</style><linearGradient id="Áåçûìÿííûé_ãðàäèåíò_904" x1="22.56" y1="-15.96" x2="11.2" y2="16.49" gradientTransform="matrix(0.82, -0.57, 0.57, 0.82, -9.7, 55.97)" gradientUnits="userSpaceOnUse"><stop offset="0" stop-color="#fff"/><stop offset="0.75" stop-color="#b5402e"/></linearGradient><linearGradient id="Áåçûìÿííûé_ãðàäèåíò_905" x1="28.64" y1="-1.69" x2="31.92" y2="3.55" gradientTransform="matrix(0.82, -0.57, 0.57, 0.82, -9.7, 55.97)" gradientUnits="userSpaceOnUse"><stop offset="0.27" stop-color="#b53356"/><stop offset="0.35" stop-color="#b7395b"/><stop offset="0.46" stop-color="#be4b6a"/><stop offset="0.58" stop-color="#c86882"/><stop offset="0.71" stop-color="#d790a3"/><stop offset="0.85" stop-color="#e9c3cd"/><stop offset="1" stop-color="#fff"/></linearGradient><linearGradient id="Áåçûìÿííûé_ãðàäèåíò_811" x1="17.18" y1="3.5" x2="17.18" y2="-5.42" gradientTransform="matrix(0.82, -0.57, 0.57, 0.82, -9.7, 55.97)" gradientUnits="userSpaceOnUse"><stop offset="0" stop-color="#fff"/><stop offset="0.15" stop-color="#e9c3cd"/><stop offset="0.29" stop-color="#d790a3"/><stop offset="0.42" stop-color="#c86882"/><stop offset="0.54" stop-color="#be4b6a"/><stop offset="0.65" stop-color="#b7395b"/><stop offset="0.73" stop-color="#b53356"/></linearGradient><linearGradient id="Áåçûìÿííûé_ãðàäèåíò_906" x1="19.29" y1="6.09" x2="22.43" y2="12.43" gradientTransform="matrix(0.82, -0.57, 0.57, 0.82, -9.7, 55.97)" gradientUnits="userSpaceOnUse"><stop offset="0" stop-color="#b5402e"/><stop offset="1" stop-color="#fff"/></linearGradient><linearGradient id="Áåçûìÿííûé_ãðàäèåíò_907" x1="15.54" y1="6.3" x2="15.54" y2="3.06" gradientTransform="matrix(0.82, -0.57, 0.57, 0.82, -9.7, 55.97)" gradientUnits="userSpaceOnUse"><stop offset="0" stop-color="#fff"/><stop offset="1" stop-color="#b5402e"/></linearGradient><linearGradient id="Áåçûìÿííûé_ãðàäèåíò_821" x1="24.54" y1="7.59" x2="25.98" y2="10.49" gradientTransform="matrix(0.82, -0.57, 0.57, 0.82, -9.7, 55.97)" gradientUnits="userSpaceOnUse"><stop offset="0.25" stop-color="#b5402e"/><stop offset="1" stop-color="#fff"/></linearGradient><linearGradient id="Áåçûìÿííûé_ãðàäèåíò_821-2" x1="34" y1="-10.59" x2="37.76" y2="-3" xlink:href="#Áåçûìÿííûé_ãðàäèåíò_821"/><linearGradient id="Áåçûìÿííûé_ãðàäèåíò_909" x1="19.66" y1="14.11" x2="19.66" y2="6.58" gradientTransform="matrix(0.82, -0.57, 0.57, 0.82, -9.7, 55.97)" gradientUnits="userSpaceOnUse"><stop offset="0.27" stop-color="#fff"/><stop offset="0.39" stop-color="#f4e2e7"/><stop offset="0.66" stop-color="#da98a9"/><stop offset="1" stop-color="#b53356"/></linearGradient><linearGradient id="Áåçûìÿííûé_ãðàäèåíò_911" x1="14.02" y1="17.73" x2="14.02" y2="8.1" gradientTransform="matrix(0.82, -0.57, 0.57, 0.82, -9.7, 55.97)" gradientUnits="userSpaceOnUse"><stop offset="0" stop-color="#b53356"/><stop offset="0.34" stop-color="#da98a9"/><stop offset="0.61" stop-color="#f4e2e7"/><stop offset="0.73" stop-color="#fff"/></linearGradient></defs><g class="cls-1"><g id="Layer_2" data-name="Layer 2"><g id="Ñëîé_1" data-name="Ñëîé 1"><path class="cls-2" d="M12.17,64.05c.37.31.85-8.43,4.28-13.5,1.7-2.52,4-5.32,4.48-6.62s-.55-3.25-.77-5.08S20.25,34,20,33.36s-1-.8-2.07-2.56a6.24,6.24,0,0,0-5.59-3C9.59,27.77,2.61,29.69.94,39.15a3.09,3.09,0,0,1-.34,1,4.32,4.32,0,0,0-.6,1.6c0,.67,1,1,2,2.71s1.22,2.4,1.06,3.43.75,2,3.37,4.57A16.54,16.54,0,0,0,12.17,64.05Z"/><path class="cls-3" d="M7.7,54c-.6-4.33-.24-3.47-.6-4.33a56.49,56.49,0,0,0-4.88-7.56,5.07,5.07,0,0,1-1-4.33c-.11.45-.21.91-.3,1.39a3.09,3.09,0,0,1-.34,1,4.32,4.32,0,0,0-.6,1.6c0,.67,1,1,2,2.71s1.22,2.4,1.06,3.43.75,2,3.37,4.57a16.54,16.54,0,0,0,5.71,11.61C10.89,62.87,8.3,58.3,7.7,54Z"/><path class="cls-4" d="M13.18,45.45c-1-.57-1.38-6.1.53-9.8s4.48-3.81,5.16-2.13.76,7.2-.63,9.17S14.33,46.1,13.18,45.45Z"/><path class="cls-4" d="M6.72,49c-1.37-2.55-5-8-5.61-7.31s3,5.73,4,6.66S7.54,50.48,6.72,49Z"/><path class="cls-5" d="M14.64,45.48c1.78-.59.43-.38-.58-.53s.89-.18,2.56-1.58.68-5.73.41-7.56,1.52.36,1.77,2.55.42.76.54-.89-.08-4-1-4.78-3.59-.17-5,3.71a14,14,0,0,0-.65,8.32C13.12,46,14.64,45.48,14.64,45.48Z"/><path class="cls-5" d="M6.72,49c-.55-1-1.95-1.59-3.15-3.4s1.61,3,0,.87S.65,42.06,1,41.55s2.1,1.61,3,3.05S6.72,49,6.72,49Z"/><path class="cls-6" d="M12.71,44.72c.21.62,2.11.83,4.45-1.37s1.82-7.51.5-9.3-2.46-.65-3.39.49S11.37,40.76,12.71,44.72Z"/><path class="cls-7" d="M6.62,48.79c.33.7-2.45-1.7-4.29-4.73s-.9-2.69.18-1.41A44.71,44.71,0,0,1,6.62,48.79Z"/><path class="cls-8" d="M12.71,44.72c.6,1,4.07-2.12,3.93-6.43s-1.55-4.73-2.91-2.84C12,37.85,10.15,40.61,12.71,44.72Z"/><path class="cls-9" d="M3.3,42.59c.6,1,4.06-2.11,3.93-6.42s-1.55-4.73-2.92-2.84C2.58,35.73.74,38.48,3.3,42.59Z"/><path class="cls-8" d="M5.91,47.52c.36,1-3.35-3.12-3.83-4.82S5,44.79,5.91,47.52Z"/><path class="cls-10" d="M11.54,59.22c-1.81-6.71-.37-11.88,2.39-11.7s4-.47,5.24-1.49-1.11,2.12-2.72,4.52a26.06,26.06,0,0,0-3.18,6.94C12.46,59.92,12.59,63.12,11.54,59.22Z"/><path class="cls-4" d="M6.46,52.44c-.18-1.26-.24-2-1-2.63s-2.34-1.48-1.88-.55A8.48,8.48,0,0,0,6.46,52.44Z"/><path class="cls-11" d="M6.46,52.44a4.08,4.08,0,0,1-1.58-2c-.51-1.37.59-.93,1-.22A3.84,3.84,0,0,1,6.46,52.44Z"/><path class="cls-12" d="M15,48c.65-.85,2.65-.48,3.48-.75s-2.3,4.12-2.9,4.36S14.4,48.74,15,48Z"/><path class="cls-13" d="M17.53,31.84c-3.29-1-7.08-3.92-4.58-4s3.86,1.22,5.25,3.1S18.12,32,17.53,31.84Z"/><path class="cls-4" d="M10.76,52.79c.08-2.26,1.84-4.47,2.46-4.67s-1.12,4.24-1.44,7.5-.19,3.75-.75,1.32A11,11,0,0,1,10.76,52.79Z"/><path class="cls-14" d="M11.14,52.82a6.4,6.4,0,0,0,1.2-3.58c0-.38-.31,0-.87,1a5.33,5.33,0,0,0-.71,2.55C10.69,53.76,10.77,53.36,11.14,52.82Z"/><path class="cls-15" d="M10.76,52.79c.08-2.26,1.84-4.47,2.46-4.67s-1.12,4.24-1.44,7.5-.19,3.75-.75,1.32A11,11,0,0,1,10.76,52.79Z"/><path class="cls-4" d="M.88,39.43c-.24,1.67.31.81.64-.92S1.17,37.43.88,39.43Z"/><path class="cls-16" d="M9.24,60.83C7,57.64,7.14,52.38,7.62,54.42a24.27,24.27,0,0,0,2.84,7.26C11.9,64.22,10.8,63,9.24,60.83Z"/><path class="cls-17" d="M14.27,34.54c3.26-2.7.22-28.54-.91-30.25S-1.55,35.06,2.22,42.09s.29.56.29.56-1.88-1-.94-7.86S10.94,1.07,13.24,0s5.15,30.64,3.4,34-3.07,1.95-3.07,1.95Z"/></g></g></g></svg>