<svg xmlns="http://www.w3.org/2000/svg" xmlns:xlink="http://www.w3.org/1999/xlink" viewBox="0 0 87.15 85.63"><defs><style>.cls-1{isolation:isolate;}.cls-2{fill:#514f04;}.cls-3{fill:#4f4104;}.cls-4{fill:#6a5f07;}.cls-5{fill:#7f790e;}.cls-6{fill:#818600;}.cls-10,.cls-6{opacity:0.38;}.cls-10,.cls-11,.cls-6,.cls-8,.cls-9{mix-blend-mode:multiply;}.cls-7{fill:#6f3100;}.cls-11,.cls-8{fill:#8d3160;}.cls-8{opacity:0.25;}.cls-9{fill:#b53356;opacity:0.6;}.cls-10{fill:url(#Áåçûìÿííûé_ãðàäèåíò_133);}.cls-11{opacity:0.18;}</style><linearGradient id="Áåçûìÿííûé_ãðàäèåíò_133" x1="30.14" y1="55.81" x2="30.14" y2="12.67" gradientUnits="userSpaceOnUse"><stop offset="0.01" stop-color="#818600"/><stop offset="0.25" stop-color="#a3a94a"/><stop offset="0.59" stop-color="#cfd7aa"/><stop offset="0.83" stop-color="#eaf4e7"/><stop offset="0.94" stop-color="#f5ffff"/></linearGradient></defs><g class="cls-1"><g id="Layer_2" data-name="Layer 2"><g id="Ñëîé_1" data-name="Ñëîé 1"><path class="cls-2" d="M43,10.87l-2.36.33s3.16,11.47,2.56,20.12,2.86-4,2.86-4l.09-15.73Z"/><path class="cls-2" d="M61.16,33c-4.81-.57-9.74,2.19-13.19,4.75h-.71c6.85-7.22,20.68-17.31,20.68-17.31a31.89,31.89,0,0,0-16,8.85A176,176,0,0,1,70.61,8.47S60,10.82,52.49,17.79c-4.86,4.53-8,8.24-9,14.28l.21,5.7c-.39-7-2-15.85-7.07-21.36C27.18,6.18,19,4.88,19,4.88a52.63,52.63,0,0,1,20.78,24.5,11.13,11.13,0,0,0-3.36-3C29.09,22.17,16,21.82,16,21.82c6.76,1.32,10.84,6,15.38,8.71-10.12-6.24-15.79.58-15.79.58,8-3.18,14.67-.9,19.47,2.36.73.82,1.4,1.62,2,2.4C33.82,33.74,32,33.81,28,34.28,19.36,35.3,9,42.55,9,42.55A40.87,40.87,0,0,1,29.38,39c5.84,2.41,10.05,12.25,10.05,12.25s7.69,3.16,12-6.27c2.1-4.59,6.11-6.53,9.67-7.32a40.48,40.48,0,0,1,19,3.58S69.78,34,61.16,33Z"/><path class="cls-3" d="M42.12,48.83S27,45.74,16.23,55.94c0,0,5.62-7.74,11.45-10.28S42.12,48.83,42.12,48.83Z"/><path class="cls-3" d="M67.42,49.54s-15.13-3.09-25.9,7.11c0,0,5.63-7.74,11.46-10.28S67.42,49.54,67.42,49.54Z"/><path class="cls-4" d="M42.17,51.78s22.9-12,45-.59c0,0-12.65-9.85-23.22-11.23S42.17,51.78,42.17,51.78Z"/><path class="cls-4" d="M45,50.06S22.08,38,0,49.47c0,0,12.65-9.86,23.23-11.23S45,50.06,45,50.06Z"/><path class="cls-4" d="M44.29,52.14S54.3,28.29,78.59,23c0,0-16,.46-25.05,6.14S44.29,52.14,44.29,52.14Z"/><path class="cls-4" d="M44.14,50.06s-13-24.77-29.23-28.89C14.91,21.17,39.5,41,44.14,50.06Z"/><path class="cls-4" d="M44.42,58S46.49,10.31,32.8.1C32.8.1,45.84,37.71,44.42,58Z"/><path class="cls-4" d="M46.21,60.28S37.27,13.43,49.34,1.36C49.34,1.36,41.87,40.46,46.21,60.28Z"/><path class="cls-4" d="M45.73,55.94S39.66,13.06,60.92,1.3C60.92,1.3,39.27-3.86,45.73,55.94Z"/><path class="cls-4" d="M45,50.2s13.54-23.63,34.1-14.56C79.09,35.64,65.35,18.61,45,50.2Z"/><path class="cls-5" d="M44.73,52.25S43,27,33.86,17.55,11.63,4.88,11.63,4.88,37.1,31.16,44.73,52.25Z"/><path class="cls-5" d="M44.92,59.18s-3.14-29.59,8.42-43.5S74.9,0,74.9,0,44.92,18.42,44.92,59.18Z"/><path class="cls-6" d="M58.38,45c-3.52-1.63-9.5,1.3-9.5,1.3s4.68-4,8.54-3.63S69.74,52.82,69.74,52.82s-6.67-12-11.9-11.74c-3.38.17-7,2.75-9.11,4.56-1.16,1-1.88,1.74-1.88,1.74.46-.72.93-1.38,1.4-2.05-.5.63-.92,1.22-1.24,1.7A57.29,57.29,0,0,1,60.93,31.3c-6.39,2.92-13.12,11.6-13.12,11.6C52,28.27,63.18,27.75,63.18,27.75c-11.31,0-16,12.88-16,12.88,2.42-18.5,9.46-26.71,10.63-28C47.46,22.58,45.46,43.43,45.46,43.43A10.11,10.11,0,0,1,45,40.54l0,.25c0-.15,0-.32,0-.48-.42-7,1-21.54,1-21.54C44,27.42,44,39.86,44,39.86A121.75,121.75,0,0,0,40,18.77a212.38,212.38,0,0,1,3.93,27C41.68,31.15,31.37,19.31,31.37,19.31A65.49,65.49,0,0,1,42.93,47.87c-.12-.17-.22-.34-.32-.5a46.52,46.52,0,0,0-4.33-5.28c1,1.26,1.87,2.35,2.5,3.2s1.19,1.45,1.69,2.13L42,47l.17.24L31.71,37.58l8,8.14S29.1,36.94,26.06,37.58s-8.88,9.53-8.88,9.53,6.72-8.56,10-8.37,11.85,7,11.85,7c-8.41-4.84-13.62-.56-13.62-.56.25-.08.52-.21.8-.31,1,.1,2,.22,2.9.37a7.17,7.17,0,0,0-1.43.44,23.16,23.16,0,0,0-6.37,4.55l2,1a33.8,33.8,0,0,1,18.83-2.37l-.21-.13c.66.26,1.23.5,1.68.7.09.19.17.39.25.58-1.05,1.07-1.67,1.8-1.67,1.8s.73-.38,2-.93c.05.12.09.24.14.37,0,.57,0,.92,0,.92s.06-.15.17-.37c0,.44,0,.87,0,1.31-.3.32-.56.62-.82.91l1.42.14c0-.1,0-.2,0-.29a.59.59,0,0,1,.09.3h.09c0-.14,0-.27,0-.4s.15-.11.23-.15c0,.21,0,.38.06.57a4,4,0,0,0,0-.6,30.57,30.57,0,0,1,15.35-4.44c2.53,1.78,5.56,4.27,8.35,6.68C67.4,53.6,61.35,46.38,58.38,45Zm-13.86,8c0-.42,0-.85,0-1.31,0,.46,0,.87,0,1.26Zm.7-.75.06-.77.06.65Zm.15-.15c0-.24,0-.49-.07-.72s.08-.72.12-1.08c.88-.35,1.9-.73,3.09-1.12A37,37,0,0,0,45.37,52.15Z"/><path class="cls-7" d="M66.21,48.33l-44.14-.12,2.15,9.16s1.21.38,3.36.85l4,27.41L59,85.09,61.38,58c.76-.19,1.51-.4,2.27-.62Z"/><path class="cls-8" d="M27.79,58.32A152,152,0,0,0,61,58.1Z"/><path class="cls-9" d="M27.58,58.22s.54,23.68,13.09,22C48.51,79.16,61.38,58,61.38,58L59,85.09l-27.38.54Z"/><path class="cls-9" d="M61.25,59.45l-.12,1.35L61.38,58c.76-.19,1.51-.4,2.27-.62L65,52.48l-2.94,3.31H25.9l-2.83-3.31,1.15,4.89s1.21.38,3.36.85l.18,1.23C29.55,60,44.37,59.53,61.25,59.45Z"/><path class="cls-5" d="M46.23,48.31s4.83-9,12.29-9.56S77.84,63.63,77.84,63.63s-15.64-14.9-21-16.83S46.23,48.31,46.23,48.31Z"/><path class="cls-5" d="M43.11,48.28s-.23-.27-.65-.73C39.93,44.75,30.74,35,25.63,34.83c-6-.17-11.72,11.8-12.28,22,0,0,6.93-10.71,14-12.32S43.11,48.28,43.11,48.28Z"/><path class="cls-6" d="M56.85,46.8a26.85,26.85,0,0,1,5.85,3.69l.49.37L64.68,52c.19.15.37.31.57.46l1.51,1.25.5.42c.63.53,1.26,1.06,1.87,1.59l.07.06C67.4,53.6,61.35,46.38,58.38,45c-3.52-1.63-9.5,1.3-9.5,1.3s4.68-4,8.54-3.63S69.74,52.82,69.74,52.82s-6.67-12-11.9-11.74c-3.38.17-7,2.75-9.11,4.56-1.16,1-1.88,1.74-1.88,1.74.46-.72.93-1.38,1.4-2.05-.5.63-.92,1.22-1.24,1.7-.5.77-.78,1.28-.78,1.28S51.5,44.86,56.85,46.8Z"/><path class="cls-10" d="M43.11,48.28s-.23-.27-.65-.73l-.3-.32L31.75,37.62l7.92,8.1S29.1,36.94,26.06,37.58s-8.88,9.53-8.88,9.53,6.72-8.56,10-8.37,11.85,7,11.85,7c-8.41-4.84-13.62-.56-13.62-.56a12.48,12.48,0,0,1,1.95-.67C34.44,42.88,43.11,48.28,43.11,48.28Z"/><path class="cls-11" d="M25.85,48.21l1.26.74,2.06,20.62.35,2.24,6-13.2L38.27,58s2.34-8.23,8.64-9.75Z"/><path class="cls-5" d="M45.28,48.18s-8.91-5-15.51-1.43-2.88,31.36-2.88,31.36,5.16-21,8.63-25.48S45.28,48.18,45.28,48.18Z"/><path class="cls-6" d="M35.52,52.63a27,27,0,0,0-3,6.26c-.07.19-.14.38-.2.57-.21.59-.42,1.18-.63,1.79-.08.23-.16.46-.23.7-.21.62-.41,1.24-.61,1.87-.06.2-.13.41-.2.62-.24.78-.48,1.56-.71,2.34l0,.09c.33-2.83,1.54-12.17,3.3-14.93,2.1-3.27,8.71-4,8.71-4s-6.08-.81-9.15,1.54S27.9,64.64,27.9,64.64s-.84-13.7,3.7-16.29c2.94-1.69,7.37-1.45,10.14-1.07,1.51.21,2.52.45,2.52.45-.78-.35-1.53-.66-2.28-1,.75.27,1.43.53,2,.77.84.37,1.35.65,1.35.65S39,48.11,35.52,52.63Z"/></g></g></g></svg>