<svg xmlns="http://www.w3.org/2000/svg" viewBox="0 0 32.94 55.48"><defs><style>.cls-1{isolation:isolate;}.cls-2{fill:#6f3100;}.cls-3,.cls-5{fill:#8d3160;}.cls-3{opacity:0.25;}.cls-10,.cls-3,.cls-4,.cls-5{mix-blend-mode:multiply;}.cls-4{fill:#b53356;opacity:0.6;}.cls-5{opacity:0.18;}.cls-6{fill:#514f04;}.cls-7{fill:#6a5f07;}.cls-8{fill:#6a6907;}.cls-9{fill:#726f06;}.cls-10{fill:#818600;opacity:0.38;}</style></defs><g class="cls-1"><g id="Layer_2" data-name="Layer 2"><g id="Ñëîé_1" data-name="Ñëîé 1"><path class="cls-2" d="M28.67,38.47,8.54,38.41l1,4.18s.55.17,1.53.39l1.82,12.5,12.49-.24,1.11-12.37c.34-.08.69-.18,1-.28Z"/><path class="cls-3" d="M11.15,43a69.24,69.24,0,0,0,15.13-.1Z"/><path class="cls-4" d="M11.05,43s1.62,12.16,5.72,8.1c2.17-2.16,2.25-5,2.9-7.92l6.8-.29L25.36,55.24l-12.49.24Z"/><path class="cls-4" d="M26.41,43.54l-.05.62.11-1.29c.34-.08.69-.18,1-.28l1.16-4.4-7,.63L21,41.59l-10.69.28L9,40.36l.53,2.23s.55.17,1.53.39l.08.56C12,43.79,18.71,43.58,26.41,43.54Z"/><path class="cls-5" d="M8.54,38.73a8.58,8.58,0,0,0,5.4,1l-.74,1.3s5.14,1.13,7.2-1.17c0,0,3.07,2.21,7.94-1.26l-12.74-1Z"/><path class="cls-6" d="M21,33.35s2.24-20.66.28-30.1C21.23,3.25,16.36,25.53,21,33.35Z"/><path class="cls-6" d="M23.33,36.89S31.05,22,32.62,14.83C32.62,14.83,22.7,30.58,23.33,36.89Z"/><path class="cls-6" d="M16.15,35S7.39,20,2.87,14.56C2.87,14.56,11.87,31.84,16.15,35Z"/><path class="cls-6" d="M20.51,37.54s8.46,1,12.43-5.13C32.94,32.41,22,32.76,20.51,37.54Z"/><path class="cls-7" d="M20.57,39S15,21.78,31.5,5.79C31.5,5.79,29.14,34.09,20.57,39Z"/><path class="cls-7" d="M19,39S16.15,27.63,0,0C0,0,12.34,33.35,19,39Z"/><path class="cls-8" d="M19.29,39.39S9.47,24.88,3.06,19.88C3.06,19.88,12.08,36.86,19.29,39.39Z"/><path class="cls-9" d="M18.14,38.62s-7-3.07-13.38-.84C4.76,37.78,14.55,40.81,18.14,38.62Z"/><path class="cls-9" d="M19.57,38.62s3.51-3.54,9.53-.34C29.1,38.28,22.08,41.84,19.57,38.62Z"/><path class="cls-7" d="M19.57,38.62S24.91,22.17,12.9,12.1C12.9,12.1,11.36,28.9,19.57,38.62Z"/><path class="cls-7" d="M19.58,39C19.32,39,22,29.24,30.26,26.61,30.26,26.61,29.64,36.43,19.58,39Z"/><path class="cls-7" d="M17.36,38.62A21.63,21.63,0,0,0,1.15,28.08S4.22,38.59,17.36,38.62Z"/><path class="cls-10" d="M21.46,36.42c.91-1.63,6-6.52,6-6.52A25.5,25.5,0,0,0,20.75,37l.88-3a27.11,27.11,0,0,1,5.59-16.79c-4.85,3.55-6.47,12.46-6.47,12.46a11.57,11.57,0,0,1-1,5.2c.58-3.73-1.53-10.18-2.78-13.56a33.47,33.47,0,0,1,1.14,13.61c-.05-.15-2.68-3.42-2.68-3.42C13.89,27,6.63,12.33,6.63,12.33,8.11,18,17.36,36.63,17.36,36.63s-2.1-1-2.53-1.89-7.2-8.88-7.2-8.88,4,5.57,5.64,7.72a5.8,5.8,0,0,1,1.47,3.8c-.48-1.77-9-6.43-9-6.43l9.36,7.69-3.89-.45,3.41.89H10.47c2.68.42,5.67.57,7.43-.33a8.17,8.17,0,0,0,1.39.64l-.36-.52L19,39s-.06-.46-.21-1.29c.24.32.49.64.76.95,0,0,.23-.72.49-1.95a3.7,3.7,0,0,0,.07.38,11.69,11.69,0,0,0-.5,1.52l-.06,0,0,0c0,.2-.05.31,0,.3l.25-.07a4.88,4.88,0,0,0,4.14,1c-1.68.1-3.39-.56-2.7-.93s5.47-.77,5.47-.77a19,19,0,0,0-4.37,0l1.84-1.25.1-.07C24.05,37,20.58,38,21.46,36.42Z"/><path class="cls-9" d="M13.94,40.8s1.88-4.28,6.46-4.35C20.4,36.45,22.58,40.67,13.94,40.8Z"/><path class="cls-10" d="M20.4,36.45a11.81,11.81,0,0,0-6.46,4.35A55,55,0,0,1,20.4,36.45Z"/></g></g></g></svg>