<svg xmlns="http://www.w3.org/2000/svg" viewBox="0 0 47.35 64.9"><defs><style>.cls-1{isolation:isolate;}.cls-2{fill:#6a5f07;}.cls-3{fill:#7f790e;}.cls-4{fill:#818600;opacity:0.38;}.cls-4,.cls-6,.cls-7,.cls-8{mix-blend-mode:multiply;}.cls-5{fill:#7f3b0d;}.cls-6,.cls-8{fill:#8d3160;}.cls-6{opacity:0.25;}.cls-7{fill:#b53356;opacity:0.5;}.cls-8{opacity:0.18;}</style></defs><g class="cls-1"><g id="Layer_2" data-name="Layer 2"><g id="Ñëîé_1" data-name="Ñëîé 1"><path class="cls-2" d="M34.73,33c-3.2-.37-6.49,1.47-8.79,3.17h-.47C30,31.31,39.25,24.58,39.25,24.58A21.26,21.26,0,0,0,28.6,30.49,117.52,117.52,0,0,1,41,16.59S33.93,18.16,29,22.81c-3.23,3-5.34,5.49-6,9.52l.15,3.79c-.27-4.66-1.33-10.56-4.71-14.23C12.09,15.07,6.66,14.2,6.66,14.2A35.17,35.17,0,0,1,20.51,30.53a7.39,7.39,0,0,0-2.25-2c-4.9-2.79-13.61-3-13.61-3,4.51.89,7.22,4,10.25,5.81-6.75-4.16-10.52.38-10.52.38a13.36,13.36,0,0,1,13,1.58c.48.54.93,1.07,1.34,1.59-2.19-1.42-3.41-1.37-6.08-1.05C6.87,34.47,0,39.3,0,39.3A27.24,27.24,0,0,1,13.55,37c3.9,1.61,6.7,8.16,6.7,8.16s5.12,2.1,8-4.18a8.78,8.78,0,0,1,6.44-4.87,26.92,26.92,0,0,1,12.66,2.38S40.47,33.63,34.73,33Z"/><path class="cls-3" d="M24.59,44.07S17.72,30.33,3.11,28.18c0,0,9.52-.36,15.09,2.64S24.59,44.07,24.59,44.07Z"/><path class="cls-3" d="M24.16,46.18S23.37,13.49,33.71,0C33.71,0,23.81,34.31,24.16,46.18Z"/><path class="cls-3" d="M24,44.79S25.92,19.14,12.86,13C12.86,13,25.48,9.1,24,44.79Z"/><path class="cls-3" d="M24.13,44.45s.7-15,6-20.74a30.84,30.84,0,0,1,13-7.8S28.4,31.83,24.13,44.45Z"/><path class="cls-3" d="M24.33,44.09S25,26.43,17.61,18.64s-13.4-8.43-13.4-8.43S22.71,19.93,24.33,44.09Z"/><path class="cls-4" d="M28.25,41a8.78,8.78,0,0,1,6.44-4.87,30.63,30.63,0,0,1,3.57.06c-4.29-.7-10.15.39-10.15.39s.33-.68,3.52-1.86,10.68,1.45,10.68,1.45-5-2.15-7.47-2.45-6.21,2.15-6.21,2.15a6.43,6.43,0,0,1,2.3-2.4,14.25,14.25,0,0,0-1.67.68c.74-1.19,1.5-2.36,2.28-3.5,1.5-1.24,3-2.41,4.23-3.38l-2.34,1.42,1.21-2.37a87.6,87.6,0,0,0-8,9.36A21.75,21.75,0,0,1,37.24,19.82c-8.39,3.71-12.13,13.89-12.13,13.89,0-6.51,3.26-19.34,3.26-19.34a143.79,143.79,0,0,0-4.24,21c.28-4.15-1.05-6.11-1.05-6.11a9.79,9.79,0,0,1,0,6.14c-.19-10.94-6.47-16.16-6.47-16.16,5.14,5.82,5.62,15.46,5.62,15.46C19.82,30,13.14,28,13.14,28c8.84,3.69,7.94,8.55,7.94,8.55-2.51-6.28-7.94-6.41-7.94-6.41,6,2.28,7.61,6.41,7.61,6.41-3.22-3.18-9.27-5.6-9.27-5.6a18,18,0,0,1,1.94,1.14q1.22.76,2.28,1.59h-.21a21.38,21.38,0,0,1,2.56,2.61c-3.07-3.18-9.13-1-9.13-1,5.41-1,8.06.86,8.06.86-3.63-.94-7.55.47-10.59,1.18A30.37,30.37,0,0,1,13.55,37c3.9,1.61,6.7,8.16,6.7,8.16a5.83,5.83,0,0,0,1.48.3l3.61-.87A8.09,8.09,0,0,0,28.25,41Z"/><path class="cls-5" d="M39.25,38.68l-31-.09L9.73,45s.85.27,2.36.6L14.9,64.9l19.25-.38,1.7-19c.54-.14,1.07-.28,1.6-.44Z"/><path class="cls-6" d="M12.24,45.7a107,107,0,0,0,23.32-.16Z"/><path class="cls-7" d="M12.09,45.63s.3,14.2,9.12,15.38S35.85,45.47,35.85,45.47l-1.7,19L14.9,64.9Z"/><path class="cls-7" d="M35.76,46.49l-.08.95.17-2c.54-.14,1.07-.28,1.6-.44l1-3.44-2.07,2.34H10.91l-2-2.34L9.73,45s.85.27,2.36.6l.13.86C13.48,46.88,23.9,46.55,35.76,46.49Z"/><path class="cls-8" d="M9.73,45l2.36.6.13.86.84,5.6.27,2,3.57-8.41,1.24-.07S18.86,40,24,38.89s9.84,6.69,9.84,6.69l.74,0,.91,3.48.32-3.63L36.69,44l1.17-5.36H9.73Z"/><path class="cls-3" d="M24.14,38.61l.56-.17c2.15-.63,9.84-2.71,12.47-1.19,3.06,1.77,2.25,9.62-.63,14.94,0,0-.18-7.57-3.26-10.59S24.14,38.61,24.14,38.61Z"/><path class="cls-3" d="M20.4,38,20,37.88c-1.68-.49-7.71-2.12-9.77-.93-2.4,1.39-1.76,7.54.5,11.71,0,0,.13-5.94,2.55-8.3S20.4,38,20.4,38Z"/><path class="cls-4" d="M20.4,38,20,37.88a36.23,36.23,0,0,0-6.55-1.31c-.23,0-3.35.32-3.71,5.35,0,0,.81-4.08,4.25-4.54a1.07,1.07,0,0,1,.34-.05l-.34.05c-.9.24-3.24,1.8-3.26,11.28,0,0,.13-5.94,2.55-8.3S20.4,38,20.4,38Z"/><path class="cls-4" d="M24.14,38.61s6.06,0,9.14,3c2.16,2.11,2.89,6.45,3.13,8.87,0,0-.61-9.4-2.46-10.33a43.7,43.7,0,0,0-7-2s6-.44,7.81-.11,3,9.37,3,9.37.86-8.48-1.22-9.29-7.75-.71-7.84-.7c-1.69.36-3.16.77-3.93,1Z"/><path class="cls-3" d="M24.13,38.62S19,35.34,15,37.19s-2.86,18.49-2.86,18.49,3.83-12.24,6-14.79S24.13,38.62,24.13,38.62Z"/><path class="cls-4" d="M24.13,38.62a13.39,13.39,0,0,0-1.53-.81c-.09,0-5.83-1.11-7.4.34S13.14,48,13.14,48,14,38.37,17,37.78A11.92,11.92,0,0,1,22,38a2.65,2.65,0,0,1,1,.3s-.4-.14-1-.3a5,5,0,0,0-2.69.56c-2.37,1.16-4.62,9.58-4.62,9.58,1.15-3.06,2.47-6.14,3.46-7.28C20.4,38.34,24.13,38.62,24.13,38.62Z"/></g></g></g></svg>