<svg xmlns="http://www.w3.org/2000/svg" viewBox="0 0 122.49 105.58"><defs><style>.cls-1{isolation:isolate;}.cls-2{opacity:0.34;mix-blend-mode:multiply;}.cls-3{fill:#4f2d41;}</style></defs><g class="cls-1"><g id="Layer_2" data-name="Layer 2"><g id="Ñëîé_1" data-name="Ñëîé 1"><g class="cls-2"><path class="cls-3" d="M110,86.41l.86-1c.28-.34.56-.69.83-1s.55-.72.81-1.08l.77-1.09c.26-.38.51-.75.76-1.14s.48-.76.71-1.14.48-.79.71-1.19.43-.79.65-1.19.44-.82.64-1.24.4-.83.59-1.25.4-.85.59-1.29.35-.86.52-1.29.36-.9.53-1.36.31-.89.46-1.34.32-.93.47-1.41.26-.93.39-1.39.27-1,.4-1.46.21-1,.32-1.44.23-1,.33-1.53.17-1,.26-1.48.18-1,.26-1.58.12-1,.18-1.53.14-1.08.19-1.64.08-1,.11-1.56c.12-1.66.2-3.35.2-5.09,0-16.47-4.18-29.49-12.67-40.71,0,0-1.37-1.76-1.37-1.76,1.21-.36,1.87-.74,1.87-1.14V0H12V6s0,0,0,.06a22.75,22.75,0,0,0-8.79,9.15c-4.23,7.51-4,16.66-.68,22a87.35,87.35,0,0,0-.87,12.43C1.63,68,8.21,81.82,18.89,91.15c.6.53,1.21,1,1.82,1.52l.22.18c.57.45,1.15.88,1.74,1.3l.39.28c.56.39,1.12.77,1.69,1.14l.53.34c.54.34,1.09.67,1.65,1l.66.38q.8.45,1.62.87c.25.14.51.27.77.4.52.26,1.05.52,1.59.77l.88.4c.51.23,1,.45,1.56.67l1,.39,1.55.58,1.07.37c.5.18,1,.35,1.52.51l1.17.35c.5.14,1,.29,1.5.42l1.25.32,1.48.36,1.34.28,1.45.29c.48.09,1,.16,1.44.24l1.41.23,1.55.2c.45,0,.9.12,1.35.16l1.69.16,1.26.11,1.94.1,1.06.06c1,0,2,0,2.95,0h.22c1,0,2,0,2.93,0l1.08-.06c.65,0,1.3-.06,1.94-.11.41,0,.82-.07,1.23-.1l1.75-.16,1.28-.16,1.65-.22c.44-.06.87-.14,1.3-.21s1.06-.17,1.58-.27l1.32-.26,1.51-.32,1.3-.32,1.47-.37,1.29-.38c.47-.14,1-.27,1.42-.42l1.27-.43c.46-.15.92-.31,1.37-.48s.84-.31,1.25-.48.89-.34,1.33-.53l1.22-.53L93,99.14l1.19-.59,1.24-.63,1.16-.64,1.18-.69c.38-.23.76-.46,1.13-.7l1.14-.73,1.08-.75c.37-.26.74-.52,1.1-.79s.7-.53,1-.81.7-.55,1-.84.68-.56,1-.85.66-.59,1-.9l1-.91c.31-.31.63-.62.93-.94s.62-.64.92-1S109.66,86.75,110,86.41ZM7,15.24a24.07,24.07,0,0,1,6.64-7.66l.48-.32.26.07-.65.89a64.25,64.25,0,0,0-10,22.6c.09-.4.17-.81.27-1.18A25.06,25.06,0,0,1,7,15.24Z"/></g></g></g></g></svg>