<svg xmlns="http://www.w3.org/2000/svg" xmlns:xlink="http://www.w3.org/1999/xlink" viewBox="0 0 61.36 27.23"><defs><style>.cls-1{isolation:isolate;}.cls-2{opacity:0.34;}.cls-10,.cls-11,.cls-12,.cls-13,.cls-14,.cls-2,.cls-4,.cls-7,.cls-9{mix-blend-mode:multiply;}.cls-3{fill:#4f2d41;}.cls-4{opacity:0.75;}.cls-5{fill:url(#linear-gradient);}.cls-6{fill:#341a33;}.cls-14,.cls-7{fill:#dd402e;}.cls-7{opacity:0.6;}.cls-8{fill:url(#Áåçûìÿííûé_ãðàäèåíò_2748);}.cls-9{fill:#6d2eae;}.cls-10,.cls-11,.cls-12,.cls-13,.cls-9{opacity:0.56;}.cls-10{fill:url(#linear-gradient-2);}.cls-11{fill:url(#linear-gradient-3);}.cls-12{fill:url(#linear-gradient-4);}.cls-13{fill:url(#linear-gradient-5);}.cls-14{opacity:0.28;}.cls-15{fill:#bbb2c2;}</style><linearGradient id="linear-gradient" x1="120.13" y1="59.19" x2="120.13" y2="52.8" gradientTransform="matrix(0.54, 0.84, -0.84, 0.54, -15.54, -107.96)" gradientUnits="userSpaceOnUse"><stop offset="0" stop-color="#c35752"/><stop offset="0.08" stop-color="#bc524d"/><stop offset="0.45" stop-color="#9e3b36"/><stop offset="0.77" stop-color="#8c2e29"/><stop offset="1" stop-color="#862924"/></linearGradient><linearGradient id="Áåçûìÿííûé_ãðàäèåíò_2748" x1="113.93" y1="20.73" x2="127.91" y2="20.73" gradientTransform="matrix(0.54, 0.84, -0.84, 0.54, -15.54, -107.96)" gradientUnits="userSpaceOnUse"><stop offset="0" stop-color="#585d5e"/><stop offset="1" stop-color="#241d31"/></linearGradient><linearGradient id="linear-gradient-2" x1="113.93" y1="17.39" x2="134.06" y2="17.39" gradientTransform="matrix(0.54, 0.84, -0.84, 0.54, -15.54, -107.96)" gradientUnits="userSpaceOnUse"><stop offset="0.11" stop-color="#6d2eae"/><stop offset="1" stop-color="#fff"/></linearGradient><linearGradient id="linear-gradient-3" x1="113.93" y1="23.74" x2="134.06" y2="23.74" xlink:href="#linear-gradient-2"/><linearGradient id="linear-gradient-4" x1="113.93" y1="37.29" x2="134.06" y2="37.29" xlink:href="#linear-gradient-2"/><linearGradient id="linear-gradient-5" x1="113.93" y1="12.86" x2="134.06" y2="12.86" xlink:href="#linear-gradient-2"/></defs><g class="cls-1"><g id="Layer_2" data-name="Layer 2"><g id="Ñëîé_1" data-name="Ñëîé 1"><g class="cls-2"><path class="cls-3" d="M61.36,6.27l-.07,0a20.31,20.31,0,0,0-6-3,5.88,5.88,0,0,0-2.05-.11l-.38,0-.29,0a30.72,30.72,0,0,0-6.48,1.93h-.17l5.63-2.9c-.25-.06-.52-.1-.78-.15L50.23,2,44.44,5.28l-1,.1L49,1.78c-.76-.11-1.55-.21-2.36-.3h-.22l-.28,0a8.91,8.91,0,0,0-1.77.38L44,2l-.5.19-.36.15-.49.21-.36.18L41.83,3l-.37.2L41,3.41l-.37.22-.42.25-.36.23-.38.25-.55.37-.42.3-.34.25-.06,0-.06,0-.49.37-.18.13L37.2,6l-.1.09-.17.13-.12.1-.12.1-.11.09-.07,0L35,7c.39-.4.78-.77,1.16-1.12,4.29-3.91,7.73-4.58,7.74-4.58-.82-.05-1.67-.08-2.54-.1-.38,0-.75,0-1.13,0s-.57,0-.85,0l-.61.6c0,.06-.11.11-.16.16l-.75.72L37,3.5l-.2.18-.91.86L34.45,5.86l-.52.48-.26.24-.31.29-.21.19-.38.35-.11.1-.11.11c-.39.1-.77.21-1.15.33a9,9,0,0,0,.79-.59c.15-.12.31-.27.47-.41s.24-.21.37-.34A51.34,51.34,0,0,0,37.7,1.27c-.77.05-1.54.15-2.3.25l.24,0-.46.06-.9.13c-.82.12-1.62.26-2.41.42a8.14,8.14,0,0,0-1,.3l-.24.1c-.29.11-.57.23-.85.36l-.18.09a16.75,16.75,0,0,0-3,2L26.45,5c-.26.21-.51.43-.75.65L25.4,6,25,6.33A37.7,37.7,0,0,0,20.26,12l-.43.18c.28-2.47,2.22-5.43,4.14-7.8a24,24,0,0,0-4.6,2.25l-.2.14C16.12,9,14.42,14.7,14.42,14.7c-1.23.61-2.16,1.11-2.74,1.42,0-.67.44-1.75,2.2-3.55,0,0-3.17,2-4,3.71-.06.13-.09.22-.13.32-1.14,1.66-1.42.8-1.42.8s-.37-.2-.72.43l-1.68.91s.42,0,.47.3-.93,0-.93,0a6.41,6.41,0,0,0-3.73,4.86,9.45,9.45,0,0,1,.65-.73,2,2,0,0,0-.16.28,1.11,1.11,0,0,0-.07.16c0,.09-.08.17-.11.26A.56.56,0,0,0,2,24c0,.08-.05.16-.07.23a2.45,2.45,0,0,0-.09.63,14.15,14.15,0,0,1,4.43-3.81.63.63,0,0,0,.26-.33h.17s5.07-3.34,6.45-3.56a2.47,2.47,0,0,1-.6-.09c1.11-.63,2.25-1.24,3.43-1.82a13.54,13.54,0,0,0,5.26.77L21.6,16c1.12-.21,3.51-.66,6.51-1.31l-6-2.09c.6-.24,1.21-.47,1.81-.69L28,13.61l1.62.7c4.07-.91,8.92-2.12,13.12-3.52-.24,0-.48,0-.7,0l-.22,0-.41-.05-.24,0-.32-.08-.23-.07a4,4,0,0,1-2.73-2.67,8.59,8.59,0,0,0,4.35,2.05c.28,0,.54.06.79.08h.15c.19,0,.38,0,.56,0H44l.34,0,.15,0h.13l.21,0,.28,0,.1,0,.41-.08.09,0,.26-.06.08,0,.16,0,.1,0c1.27-.48,2.52-.88,3.71-1.22-.24,0-.48-.05-.71-.09l-.2,0-.49-.1-.19,0-.54-.14-.08,0-.62-.2a11.7,11.7,0,0,1-2.86-1.52l1.45.36A54.65,54.65,0,0,0,52.64,7.6l.67-.15c1.19-.27,2.3-.48,3.28-.64L52.42,5.45l6,1.09C60.25,6.31,61.36,6.27,61.36,6.27Z"/></g><g class="cls-4"><path class="cls-3" d="M21,20.62a14,14,0,0,1-1.94-.19c-.79-.13-2-.31-3.32-.42-2.15-.19-2.53.83,0,1.06s2.34.74-1.22.55S2.12,21.44,1.84,23.29s15.35,0,19.14.51,1.39-1.36-1-1.74-.51-.81,1.3-.71,5.57.14,4.7-.28S24.61,20.73,21,20.62Z"/></g><g class="cls-4"><path class="cls-3" d="M28.57,24.49c-4.32-.28-6.71,1.11.2,1.2S34.31,24.86,28.57,24.49Z"/></g><g class="cls-4"><path class="cls-3" d="M23.94,26.53c-4-.1-1.15,1,1.85.64S28,26.62,23.94,26.53Z"/></g><path class="cls-5" d="M4.7,21.4s-.08.54-.35.71A14.07,14.07,0,0,0,.17,26.18,3.72,3.72,0,0,1,1,23.77C2,22.36,2.14,21,4.7,21.4Z"/><path class="cls-6" d="M4.7,21.4s-.08.54-.35.71A14.07,14.07,0,0,0,.17,26.18,3.72,3.72,0,0,1,1,23.77C2,22.36,2.14,21,4.7,21.4Z"/><path class="cls-7" d="M4.7,21.4C2.14,21,2,22.36,1,23.77a4.59,4.59,0,0,0-.8,1.8s1.59-2.93,4.14-3.46C4.62,21.94,4.7,21.4,4.7,21.4Z"/><path class="cls-6" d="M6.17,18.34s.33.84,1.34-.87.7.93.7.93L5.59,20.24S4.8,19.67,6.17,18.34Z"/><path class="cls-8" d="M20.55,11.53l6.68,2.38c4-1.16,8.77-2.67,12.88-4.33-4.18.28-5-2.67-5-2.67A8.53,8.53,0,0,0,43.52,8.1c1.24-.55,2.46-1,3.63-1.45a11.48,11.48,0,0,1-5.82-1.79,59.46,59.46,0,0,0,8.44.92c1.42-.43,2.74-.77,3.88-1L49.42,3.65l6,.72c1.83-.36,2.94-.46,2.94-.46a19.91,19.91,0,0,0-6.23-2.65C49,.6,42.28,4.15,42.28,4.15L48.37.51C47.93.44,47.47.38,47,.33L40.55,4.55l-1,.25L45.74.2C45,.13,44.18.08,43.36.05,38.72.49,33.1,6.27,33.1,6.27l-1,0C36.6,1,40.63,0,40.64,0,39.81,0,39,0,38.1.06c-.66,0-1.32.08-2,.14-1.88,2.18-7.61,8.1-7.61,8.1s-2.56,1.11.08-.85C30.52,6,33.16,2.31,34.46.39A46.57,46.57,0,0,0,28.7,1.58c-5.94,1.71-11,10.62-11,10.62l-.44.23c.14-2.5,1.9-5.57,3.66-8.06a24.25,24.25,0,0,0-4.64,2.68c-2.91,2.37-4.25,8.21-4.25,8.21s4.61,1.44,6.92.88c.9-.23,3.46-.87,6.75-1.8l-6.54-1.83Z"/><path class="cls-9" d="M43.19.07c-4.09.5-8.86,5-9.89,6l.76,0S38.82,1.2,43.19.07Z"/><path class="cls-9" d="M41.51,4.37l6.06-4L47,.33l-5.9,3.86-.57.43Z"/><path class="cls-9" d="M50.12,1.28a26.14,26.14,0,0,0-7,2.46l-2,1.18S46.91,2,50.12,1.28Z"/><path class="cls-9" d="M41.33,4.86a51.93,51.93,0,0,0,8.44.92l.66-.19a57.29,57.29,0,0,1-8.14-.91S40.77,4.57,41.33,4.86Z"/><path class="cls-9" d="M36,6.72s-1.5-.43-1,.19a8.71,8.71,0,0,0,7.38,1.54A8.48,8.48,0,0,1,36,6.72Z"/><path class="cls-9" d="M29.4,7.38c-.54.57-.89.92-.89.92l-.16.07c0,.23,1.12-.25,1.12-.25S35,2.39,37,.13L36.12.2c-.72.83-2,2.2-3.29,3.58s-2.36,2.48-3.28,3.49A.72.72,0,0,1,29.4,7.38Z"/><path class="cls-9" d="M56.41,4.18l-6-.72-.95.19,6,.72c1.83-.36,2.94-.46,2.94-.46l-.08-.05C57.82,3.93,57.18,4,56.41,4.18Z"/><path class="cls-9" d="M21,11.7l6.22,2.21Z"/><path class="cls-9" d="M18.24,12.24l.44-.22s5-8.91,11-10.63c.9-.24,1.83-.46,2.77-.66-1.27.24-2.52.52-3.72.85C24.07,2.92,20,8.51,17.73,12.2,17.64,12.6,18.27,11.87,18.24,12.24Z"/><path class="cls-9" d="M13,15.08s1.34-5.84,4.25-8.21a19.4,19.4,0,0,1,3.39-2.08L21,4.37a24.25,24.25,0,0,0-4.64,2.68c-2.91,2.37-4.25,8.21-4.25,8.21s4.61,1.44,6.92.88l.33-.09A20.7,20.7,0,0,1,13,15.08Z"/><path class="cls-10" d="M18.32,12.64c.63-.33,1.33-.66,2.08-1l.15-.11.05,0c7.58-3.38,19.94-6.93,19.94-6.93l1.75.06c1.78,0,2.55.29,2.55.73,2.59.29,4.89.37,4.93.37,1.42-.43,2.74-.77,3.88-1L49.42,3.65l6,.72c1.83-.36,2.94-.46,2.94-.46a19.91,19.91,0,0,0-6.23-2.65C49,.6,42.28,4.15,42.28,4.15L48.37.51C47.93.44,47.47.38,47,.33L40.55,4.55l-1,.25L45.74.2C45,.13,44.18.08,43.36.05h-.1c1.17.91,1.41,2.39-5.73,3.8-.82.16-1.62.35-2.39.55-1.24,1-2,1.86-2,1.86l-1,0c.41-.48.82-.92,1.22-1.33-.79.24-1.56.5-2.3.77-1.4,1.47-2.51,2.61-2.51,2.61s-2.56,1.11.08-.85A10.92,10.92,0,0,0,30.13,6,46.22,46.22,0,0,0,18.32,12.64Z"/><path class="cls-11" d="M27.23,13.91c4-1.16,8.77-2.67,12.88-4.33a6.52,6.52,0,0,1-2.27-.21,119.33,119.33,0,0,1-12.27,4Z"/><path class="cls-12" d="M12.06,15.26s4.61,1.44,6.92.88c.9-.23,3.46-.87,6.75-1.8l-2-.55c-4.92,1.18-8.93,1.69-9.56.71-1.49-2.33.89-5.83,2.32-7.59l-.19.14C13.4,9.42,12.06,15.26,12.06,15.26Z"/><path class="cls-13" d="M39.55,8.68a8.36,8.36,0,0,0,4-.58c1.24-.55,2.46-1,3.63-1.45a10.4,10.4,0,0,1-2.87-.45A21.56,21.56,0,0,1,39.55,8.68Z"/><path class="cls-6" d="M8.76,17.27S29,4,47.32,3.38c0,0-22.9,4.81-37.5,14.71Z"/><path class="cls-14" d="M47.32,3.38C27.78,6.2,12.1,15.68,9.14,17.56l.68.53C24.42,8.19,47.32,3.38,47.32,3.38Z"/><path class="cls-15" d="M11,17.78s-3.79.29.42-4.62c0,0-3,2.22-3.74,4s.25,1.07.25,1.07-2.4,2.45-1.73.15c0,0-.38-.19-.69.47l-1.63,1s.42-.05.5.28-.93,0-.93,0A6.46,6.46,0,0,0,0,25.25s2.25-3.32,4.76-3.51C4.76,21.74,9.61,18.09,11,17.78Z"/></g></g></g></svg>