<svg xmlns="http://www.w3.org/2000/svg" xmlns:xlink="http://www.w3.org/1999/xlink" viewBox="0 0 66.85 70.41"><defs><style>.cls-1{isolation:isolate;}.cls-2{fill:url(#Áåçûìÿííûé_ãðàäèåíò_18);}.cls-3{fill:#6d163f;}.cls-4{opacity:0.67;}.cls-5{fill:#6d0029;}.cls-6{fill:#9f008d;opacity:0.78;}.cls-6,.cls-7{mix-blend-mode:multiply;}.cls-7{opacity:0.49;fill:url(#Áåçûìÿííûé_ãðàäèåíò_152);}.cls-8{fill:#3a2038;}</style><linearGradient id="Áåçûìÿííûé_ãðàäèåíò_18" x1="-769.96" y1="4.2" x2="-751.38" y2="78.79" gradientTransform="translate(790.58)" gradientUnits="userSpaceOnUse"><stop offset="0.1" stop-color="#bb5924"/><stop offset="0.38" stop-color="#ad4a1b"/><stop offset="1" stop-color="#932d09"/></linearGradient><linearGradient id="Áåçûìÿííûé_ãðàäèåíò_152" x1="140.32" y1="35.31" x2="281.53" y2="35.31" gradientTransform="matrix(-1, 0, 0, 1, 233.78, 0)" gradientUnits="userSpaceOnUse"><stop offset="0.28" stop-color="#92008d"/><stop offset="0.9" stop-color="#fff"/></linearGradient></defs><g class="cls-1"><g id="Layer_2" data-name="Layer 2"><g id="Ñëîé_1" data-name="Ñëîé 1"><path class="cls-2" d="M37.8,17.45s-1.06-6-2.95-9.2-1.16-5,3.37-7.18,1.58-.46,3.26,0,1.16-.05,2.21,0,1.79,3.75,1.79,4.71-5.37,11.67-5.37,11.67A4.55,4.55,0,0,1,44,19.24s1.58-1.65,7.37,4.53S67,41.76,66.85,53.84s-.07,16.57-16.42,16.5-33.45.2-42.71,0-9.61-18.29-4.13-26.8S28.64,18,32.85,19.78C32.85,19.78,36.11,16.49,37.8,17.45Z"/><polygon class="cls-3" points="17.8 48.71 20.39 49.9 20.39 49.31 17.8 47.75 17.8 48.71"/><polygon class="cls-3" points="29.3 52.47 32.11 53.66 32.11 53.06 29.3 51.92 29.3 52.47"/><polygon class="cls-3" points="27.34 41.48 26.39 45.14 26.87 45.14 28.18 42.05 27.34 41.48"/><rect class="cls-3" x="59.27" y="45.69" width="0.49" height="3.14"/><polygon class="cls-3" points="55.13 34.71 56.88 38.09 57.23 38.09 56.18 34.71 55.13 34.71"/><polygon class="cls-3" points="55.55 42 57.23 41.48 55.55 42.85 55.55 42"/><polygon class="cls-3" points="61.52 39.28 60.32 40.2 60.32 40.66 62.01 39.28 61.52 39.28"/><g class="cls-4"><path class="cls-5" d="M18.5,52.06s3.35-9.45,3.83-10,12,4.1,12,4.1L27.13,59.61Z"/></g><g class="cls-4"><polygon class="cls-5" points="55.13 37.64 59.02 35.99 62.6 45.33 58.08 46.98 55.13 37.64"/></g><path class="cls-6" d="M7.72,70.34c9.26.2,26.35-.08,42.71,0s16.31-4.42,16.42-16.5S57.16,30,51.38,23.77,44,19.23,44,19.23a4.56,4.56,0,0,0-3.9-1.78s3.15-6.27,4.62-9.65c-2.85,6.07-3.57,6.77-4.41,5.76S42.49,2.44,42.81,1.22a2.53,2.53,0,0,1-1.33-.15c-.71-.19-.6-.6-.57-.86C39.2,4,39.9,13.28,39.55,15.3s-4.22-6.15-4.22-6.15a38.49,38.49,0,0,1,2.47,8.3c-1.69-1-4.95,2.33-4.95,2.33S26.22,22.53,26.74,28c0,0,4.9-7.62,8.06-9.4s7.73,1.44,9.63,10.71c0,0,3-5.63-3.58-9.34s4.89-1,7.42,5.36c0,0-.43-4.79-4-5.7s.85-.17,2.26.37S61.09,35,62.22,50.73,38.85,68,30.71,66,13.2,70,5.35,67.58c-7.28-2.2-3.53-20.33-2.87-22C-1.77,54.65-.85,70.15,7.72,70.34Z"/><path class="cls-7" d="M51.38,23.77C45.59,17.59,44,19.23,44,19.23a4.56,4.56,0,0,0-3.9-1.78s.6-1.2,1.4-2.83l.73-1.49c.38-.78.77-1.6,1.15-2.4.5-1.06,1-2.08,1.34-2.93-2,4-4.35,3.18-3.64-.16.7-2.86,1.56-5.8,1.72-6.42a2.53,2.53,0,0,1-1.33-.15c-.71-.19-.6-.6-.57-.86C40,2.12,39.8,5.47,39.72,8.57c-1.17,6-2.59,4.08-4.39.58a2.72,2.72,0,0,0,.11.25c.15.34.31.69.45,1l0,.06a43.09,43.09,0,0,1,1.89,6.94c-1.69-1-4.95,2.33-4.95,2.33s-.27,0-.4-.05a3.81,3.81,0,0,1-.36.43c-1.73.91-5.76,3.53-5.35,7.86a64.86,64.86,0,0,1,4.79-6.43c4-2.77,7.93-2.45,10.31.55a23,23,0,0,1,2.59,7.19,6.67,6.67,0,0,0-.36-6.5c-1.06-3.51-.28-2.48,1.42-1.18a9.84,9.84,0,0,1,2.78,3.7A9.34,9.34,0,0,0,47.18,22c1.88,3.37,14.39,30.37,5.56,33.77C43.48,59.33,30,47.52,22.85,46.7s-25,4.1-16.26-7.09a37.93,37.93,0,0,0-3,3.93A25.7,25.7,0,0,0,.11,55l0,.32c0,.5,0,1,0,1.5,0,.22,0,.43,0,.65,0,.43,0,.86,0,1.29,0,.27,0,.54,0,.81s.08.76.13,1.13.08.6.13.89.12.67.2,1,.14.62.22.92.17.58.27.86.21.59.33.88.21.5.33.74.29.54.44.8.25.42.39.61a8.23,8.23,0,0,0,.57.7c.15.17.29.34.45.49a7.59,7.59,0,0,0,.71.56c.16.11.32.24.49.34a6.38,6.38,0,0,0,.92.4,4.37,4.37,0,0,0,.46.18,6.21,6.21,0,0,0,1.58.24c9.26.2,26.35-.08,42.71,0s16.31-4.42,16.42-16.5S57.16,30,51.38,23.77Zm-4.47-2.18.06.06a1.19,1.19,0,0,1,.1.16A1.77,1.77,0,0,0,46.91,21.59Z"/><path class="cls-8" d="M36.7,17.31s1.81-3.84,5.67.6C42.37,17.91,38.23,18.27,36.7,17.31Z"/></g></g></g></svg>