<svg xmlns="http://www.w3.org/2000/svg" xmlns:xlink="http://www.w3.org/1999/xlink" viewBox="0 0 73.82 52.39"><defs><style>.cls-1{isolation:isolate;}.cls-2{fill:url(#Áåçûìÿííûé_ãðàäèåíò_256);}.cls-3{fill:#e8c0bf;}.cls-4{opacity:0.56;mix-blend-mode:screen;}.cls-5,.cls-7{opacity:0.31;}.cls-10,.cls-5,.cls-6,.cls-7,.cls-8,.cls-9{mix-blend-mode:multiply;}.cls-5{fill:url(#Áåçûìÿííûé_ãðàäèåíò_13);}.cls-6{fill:#b53356;opacity:0.6;}.cls-7,.cls-8{fill:#ae2a4c;}.cls-8{opacity:0.2;}.cls-9{opacity:0.35;fill:url(#Áåçûìÿííûé_ãðàäèåíò_103);}.cls-10{fill:#f56b6f;opacity:0.22;}</style><linearGradient id="Áåçûìÿííûé_ãðàäèåíò_256" x1="221.03" y1="39.74" x2="247.7" y2="4.09" gradientTransform="matrix(-1, 0, 0, 1, 268.91, 0)" gradientUnits="userSpaceOnUse"><stop offset="0.35" stop-color="#af434d"/><stop offset="0.42" stop-color="#b85457"/><stop offset="0.69" stop-color="#d9937c"/><stop offset="0.89" stop-color="#edba93"/><stop offset="1" stop-color="#f5c99c"/></linearGradient><linearGradient id="Áåçûìÿííûé_ãðàäèåíò_13" x1="238.59" y1="42.19" x2="268.91" y2="42.19" gradientTransform="matrix(-1, 0, 0, 1, 268.91, 0)" gradientUnits="userSpaceOnUse"><stop offset="0"/><stop offset="0.05" stop-color="#110e0b"/><stop offset="0.25" stop-color="#554636"/><stop offset="0.44" stop-color="#8e755b"/><stop offset="0.62" stop-color="#b97"/><stop offset="0.78" stop-color="#dbb38b"/><stop offset="0.91" stop-color="#eec398"/><stop offset="1" stop-color="#f5c99c"/></linearGradient><linearGradient id="Áåçûìÿííûé_ãðàäèåíò_103" x1="222.11" y1="13.53" x2="222.25" y2="5.43" gradientTransform="matrix(-1, 0, 0, 1, 268.91, 0)" gradientUnits="userSpaceOnUse"><stop offset="0.23" stop-color="#f56b6f"/><stop offset="0.32" stop-color="#f78285"/><stop offset="0.6" stop-color="#fbc5c6"/><stop offset="0.81" stop-color="#feefef"/><stop offset="0.92" stop-color="#fff"/></linearGradient></defs><g class="cls-1"><g id="Layer_2" data-name="Layer 2"><g id="Ñëîé_1" data-name="Ñëîé 1"><path class="cls-2" d="M72.58,8l.6,1.52a1.86,1.86,0,0,0-.89.28c-.28.23.52,1.38.52,1.38H69.23l-29.45.37,6.87,9.63s4.27.66,3.23,1.55-1.05,1.11.39.57l.46.14-4,6,3.1,10.89h-.54s-1.77-1.74-2.1-.76-.75,2.73-.75,2.73L48.23,46l-.22.64h-.52s-1.17-3.57-1.28-2.29-7.73.35-7.73.35L13.67,46.48,4.05,46l1.08-2.52.57,0s1.42,2.39,1.13,1.46,6.78.45,6.78.45l9.65-1.43,3-8.32S18.89,25.4,19.47,24.49s.42-1.85-.39-1.49l-.14-.33s1-6.3,3.19-6.61-1.3-.19-1.3-.19l-.31-.34,5-.82,8.9-1.24,1.4-4.27S29,2.91,29.49,3s.73,0,.12-.49l.06-.38L46,4.4,63.2,5.67Z"/><path class="cls-3" d="M31.83,12.28H29.67c-.65,0-1.38-2.64-2.11-3.8s-.13-3.55,1.81-6,2-1.94,4.88-1.46S50.15,3.12,52,2.77l1.17.35S64,1.36,66.67.45c3.07-1.06,3.6-.1,5.07,1.24,2.75,2.52,2.2,4.15,1.53,7.35s-.75,5.14-6.11,5.18-10.75.26-13,1.21-2.77,1.64-3,3.24-.74,11.83-1.17,19.65-2.29,10.32-7.17,12.31-7.39,2.16-9.33,1.17S24,47.43,18.31,47.43s-10.49,1.21-12.13.7S1.12,43.2,0,40.44l.35-.35s1.25,5.23,18.4,3.85c0,0,1.55-.91,1.85-2s-1.9-12.75-1.68-18.62.9-7.34,1.94-8S26.17,13.23,31.83,12.28Z"/><g class="cls-4"><path class="cls-5" d="M0,40.44l.35-.35s1.25,5.23,18.4,3.85a32.72,32.72,0,0,0,11.57-2.41s-4.41,2.3-13.18,2.62S2.46,44.63,0,40.44Z"/></g><path class="cls-6" d="M17.14,44.15c8.77-.32,13.18-2.62,13.18-2.62s1.88,7.61,3.17,8.91,8.88,1.49,13.74-2.71a11.37,11.37,0,0,1-4.47,2.9c-4.88,2-7.39,2.16-9.33,1.17S24,47.43,18.31,47.43s-10.49,1.21-12.13.7S1.12,43.2,0,40.44C2.46,44.63,8.36,44.48,17.14,44.15Z"/><path class="cls-7" d="M72.59,8.75c-.67,3.19-.75,5.13-6.11,5.18-2,0-3.9.05-5.71.14-4-.56-8.7-1.17-11.37-1.37-5.23-.39-18.24-.29-21.07.25,1.09-.24,2.26-.47,3.5-.67,0,0,3.11-.2,9.37-.11S55,10.05,59.41,11.8a20.33,20.33,0,0,0,6.8,1.73,5.69,5.69,0,0,0,3.87-1.06c1.64-1.33,2.68-5,2.63-7.47S69.58,3.37,68,4.63s-5.68,4.83-4.78,6,4.3,1.43,6.61-.29,2.17-4,.59-3.84S66.7,9.2,66.7,9.2c2.48-2.32,4.53-2.93,4.14-.81s-4.79,3.22-6.39,2.46-1-1.86,3.14-5.09,5.28-1.63,4.24,2.4-2.75,5-5.24,4.81-6.19-1.83-6.21-2.7,1.25-2,3.58-3.42,3.58-4.24,4.2-5.13,1.67-1.46,2.2-1l.7.65C73.81,3.92,73.26,5.55,72.59,8.75Z"/><path class="cls-8" d="M21.64,42.19A29.77,29.77,0,0,0,26,43a35.32,35.32,0,0,1-7.22,1s1.55-.91,1.85-2a18.39,18.39,0,0,0-.28-3.5A14.87,14.87,0,0,0,21.64,42.19Z"/><path class="cls-8" d="M49.2,38.8c-.36,5-1.37,7.69-3.53,9.51a8.94,8.94,0,0,1-2.32,1.34A15.23,15.23,0,0,1,37.19,51c-3.2-.06-3.59-.49-4.45-2.63a33.31,33.31,0,0,1-1.29-4.67c5.24.64,11,1.24,13.17,1.28C46.92,45,48.37,41.72,49.2,38.8Z"/><path class="cls-7" d="M41.2,12.17c6.27.08,13.8-2.12,18.21-.37a27.89,27.89,0,0,0,5,1.52c-1.8-.29-6.42-.91-8.66-1.14-2.49-.26-2.49-.84-5.6-.36s-12.63.6-18.2.45C32.65,12.23,35.72,12.09,41.2,12.17Z"/><path class="cls-9" d="M28.77,9.3c.95.36,4.75,2.8,7.55,2.16s10.5-3.07,11.1-3.11,9.12.56,9.94.56,4.19-1.77,7.36-3.48a13.47,13.47,0,0,1-1.13,1C60.15,9,58.37,10,61,11.69a12.4,12.4,0,0,0,5.21,1.84,20.33,20.33,0,0,1-6.8-1.73c-4.41-1.75-11.94.45-18.21.37s-9.37.11-9.37.11H30.48l-1.06-.13c-.59-.53-1.22-2.66-1.86-3.67a1.87,1.87,0,0,1-.28-.87A2.74,2.74,0,0,0,28.77,9.3Z"/><path class="cls-7" d="M72.26,3.81a1.61,1.61,0,0,0-1.2-.4L67.3,3.15c.37-.61.65-1.14.86-1.43.61-.89,1.67-1.46,2.2-1l.7.65c1.94,1.77,2.24,3.11,2,4.86A2.71,2.71,0,0,0,72.26,3.81Z"/><path class="cls-7" d="M66.59,13c-2.5-.21-6.19-1.83-6.21-2.7a1.18,1.18,0,0,1,.13-.53l3.34,1.41a2.65,2.65,0,0,0,.42.18s3.12,2.55,5.34.93A4.16,4.16,0,0,1,66.59,13Z"/><path class="cls-7" d="M64.45,10.85c-1.08-.51-1.16-1.18.14-2.53l2.11.88.84-.74L68.22,8l-1.88,2.1-1.9-.67s-.27,2.15,2.76,1.56A4.76,4.76,0,0,1,64.45,10.85Z"/><path class="cls-7" d="M68.85,7.55c1.38-.78,2.26-.62,2,.84a2.54,2.54,0,0,1-1.17,1.55C71.18,8.48,69.84,7.13,68.85,7.55Z"/><path class="cls-7" d="M71.51,7.26a1.06,1.06,0,0,0-.21-.44.75.75,0,0,0-.19-.17,7.91,7.91,0,0,0-2.26-.72L67.54,5.8l0,0c4.16-3.22,5.28-1.63,4.24,2.4-.06.24-.12.47-.19.69s-.11.33-.16.49a.56.56,0,0,0,0,.12,10.35,10.35,0,0,1-.45,1A5.75,5.75,0,0,0,71.51,7.26Z"/><path class="cls-7" d="M72.26,3.81a1.61,1.61,0,0,0-1.2-.4L67.3,3.15c.37-.61.65-1.14.86-1.43.61-.89,1.67-1.46,2.2-1l.7.65c1.94,1.77,2.24,3.11,2,4.86A2.71,2.71,0,0,0,72.26,3.81Z"/><path class="cls-7" d="M66.59,13c-2.5-.21-6.19-1.83-6.21-2.7a1.18,1.18,0,0,1,.13-.53l3.34,1.41a2.65,2.65,0,0,0,.42.18s3.12,2.55,5.34.93A4.16,4.16,0,0,1,66.59,13Z"/><path class="cls-7" d="M64.45,10.85c-1.08-.51-1.16-1.18.14-2.53l2.11.88.84-.74L68.22,8l-1.88,2.1-1.9-.67s-.27,2.15,2.76,1.56A4.76,4.76,0,0,1,64.45,10.85Z"/><path class="cls-7" d="M71.51,7.26a1.06,1.06,0,0,0-.21-.44.75.75,0,0,0-.19-.17,7.91,7.91,0,0,0-2.26-.72L67.54,5.8l0,0c4.16-3.22,5.28-1.63,4.24,2.4-.06.24-.12.47-.19.69s-.11.33-.16.49a.56.56,0,0,0,0,.12,10.35,10.35,0,0,1-.45,1A5.75,5.75,0,0,0,71.51,7.26Z"/><path class="cls-7" d="M68.85,7.55c1.38-.78,2.26-.62,2,.84a2.54,2.54,0,0,1-1.17,1.55C71.18,8.48,69.84,7.13,68.85,7.55Z"/><path class="cls-6" d="M72.59,8.75c-.67,3.19-.75,5.13-6.11,5.18-2,0-3.9.05-5.71.14-4-.56-8.7-1.17-11.37-1.37-5.23-.39-18.24-.29-21.07.25,1.09-.24,2.26-.47,3.5-.67,0,0,3.11-.2,9.37-.11S55,10.05,59.41,11.8a20.33,20.33,0,0,0,6.8,1.73,5.69,5.69,0,0,0,3.87-1.06c1.64-1.33,2.68-5,2.63-7.47S69.58,3.37,68,4.63s-5.68,4.83-4.78,6,4.3,1.43,6.61-.29,2.17-4,.59-3.84S66.7,9.2,66.7,9.2c2.48-2.32,4.53-2.93,4.14-.81s-4.79,3.22-6.39,2.46-1-1.86,3.14-5.09,5.28-1.63,4.24,2.4-2.75,5-5.24,4.81-6.19-1.83-6.21-2.7,1.25-2,3.58-3.42,3.58-4.24,4.2-5.13,1.67-1.46,2.2-1l.7.65C73.81,3.92,73.26,5.55,72.59,8.75Z"/><path class="cls-10" d="M58.08,13.44c-4.45-.25-7.85-.79-6.39-1a23.09,23.09,0,0,1,5.18.52Z"/><polygon class="cls-10" points="60.73 14.3 59.35 13.87 54.38 13.87 55.54 14.09 60.73 14.3"/></g></g></g></svg>