<svg xmlns="http://www.w3.org/2000/svg" xmlns:xlink="http://www.w3.org/1999/xlink" viewBox="0 0 91.62 23.76"><defs><style>.cls-1{isolation:isolate;}.cls-2{opacity:0.34;}.cls-2,.cls-5,.cls-6,.cls-8{mix-blend-mode:multiply;}.cls-3{fill:#4f2d41;}.cls-4{fill:#4b2a47;}.cls-5,.cls-6{fill:#312d3d;}.cls-5{opacity:0.33;}.cls-6{opacity:0.4;}.cls-7{fill:url(#Áåçûìÿííûé_ãðàäèåíò_40);}.cls-8{fill:#b53356;opacity:0.74;}</style><linearGradient id="Áåçûìÿííûé_ãðàäèåíò_40" x1="87.39" y1="2.7" x2="-0.65" y2="2.7" gradientUnits="userSpaceOnUse"><stop offset="0" stop-color="#9e2e46"/><stop offset="0.47" stop-color="#a63a34"/><stop offset="1" stop-color="#ad4424"/></linearGradient></defs><g class="cls-1"><g id="Layer_2" data-name="Layer 2"><g id="Ñëîé_1" data-name="Ñëîé 1"><g class="cls-2"><polygon class="cls-3" points="43.41 20.5 83.58 20.5 87.8 8.71 91.61 6.54 91.61 0 26.48 0 43.41 20.5"/></g><path class="cls-4" d="M15.5,5.39,18,9.77S33,7.92,33.87,21.4l3.88,2.36h5.56V4.21Z"/><path class="cls-5" d="M15.5,5.39l1.07,1.86h9V9.77H21.73c4.5.4,11.57,2.49,12.14,11.63l8.31-.9L42.52,23l-4.77.79h5.56V4.21Z"/><path class="cls-6" d="M26.8,4.91l-.46,4.58s13,.45,15.62,10.45l1.35,3.82V4.21Z"/><path class="cls-4" d="M48.45,5.39,51,9.77S66,7.92,66.81,21.4l3.88,2.36h5.56V4.21Z"/><path class="cls-5" d="M48.45,5.39l1.07,1.86h9V9.77H54.67c4.5.4,11.57,2.49,12.14,11.63l8.32-.9L75.47,23l-4.78.79h5.56V4.21Z"/><path class="cls-6" d="M59.74,4.91l-.45,4.58s13,.45,15.61,10.45l1.35,3.82V4.21Z"/><polygon class="cls-7" points="0 0 1.85 5.39 87.6 5.39 87.6 0 0 0"/><polygon class="cls-8" points="58.61 0 60.19 5.39 87.6 5.39 87.6 0 58.61 0"/></g></g></g></svg>