<svg xmlns="http://www.w3.org/2000/svg" xmlns:xlink="http://www.w3.org/1999/xlink" viewBox="0 0 95.19 76.35"><defs><style>.cls-1{isolation:isolate;}.cls-2{opacity:0.21;}.cls-3,.cls-4{mix-blend-mode:screen;}.cls-3{fill:url(#Áåçûìÿííûé_ãðàäèåíò_68);}.cls-4{fill:url(#Áåçûìÿííûé_ãðàäèåíò_87);}</style><linearGradient id="Áåçûìÿííûé_ãðàäèåíò_68" x1="68.85" y1="40.64" x2="68.85" y2="39.52" gradientUnits="userSpaceOnUse"><stop offset="0"/><stop offset="1" stop-color="#7c88bf"/></linearGradient><linearGradient id="Áåçûìÿííûé_ãðàäèåíò_87" x1="47.59" y1="76.04" x2="47.59" y2="-11.35" gradientUnits="userSpaceOnUse"><stop offset="0" stop-color="#0b070f"/><stop offset="0.13" stop-color="#14111d"/><stop offset="0.36" stop-color="#2c2d43"/><stop offset="0.69" stop-color="#53597f"/><stop offset="1" stop-color="#7c88bf"/></linearGradient></defs><g class="cls-1"><g id="Layer_2" data-name="Layer 2"><g id="Ñëîé_1" data-name="Ñëîé 1"><g class="cls-2"><path class="cls-3" d="M68.78,39.52a8.77,8.77,0,0,0,.14,1.12A6.51,6.51,0,0,0,68.78,39.52Z"/><path class="cls-4" d="M95.19,0H89.76c-.67,4.33-.9,9.19-5,12.3-1.2,1.07-4.24,1.21-4.14-.48C81.07,8,82.57,4.08,83.91,0H80.78c0,13.52-1.33,22.05-13,35.69a19.31,19.31,0,0,1-2.4,2.4c-.72.42-1.47.88-2.21,1.38C53.66,43.29,49.78,6.8,49.47,0h-20c.3,9.54-3.05,9.63-2.71,0h-1C26,7.87,23,14.74,20.57,20.82,15.9,22.13,11.19,2.87,11.69,0c-.56,0-.73.48-.88,0,1.9,6,1.85,7.71.5,10.73C8.53,7.94,9.19,3.53,7.31,0H0C5.39,6.93,6.2,14.72,8.82,21.11c3.91,11.6,7.8,22.29,11.19,31-.18-4.67-3.21-10.24-3-15.62.5-1.46-.36-6.87,2-7A29.6,29.6,0,0,1,32,42.59c0,1.32,3.18,6.93,3.28,9s1.91,3.83,1.29,5.67,2,12.31,2,12.31-1.05-8.22-1.25-9.16a4.84,4.84,0,0,1,1.41-2.91c.06.17.12.33.17.49-.33,1.76,1.41,7.73,1.41,7.73s-1.56-8.47,1-.45c1.29,4.07,2.42,7.82,3.6,11,.77.09.54-4.2,1-4.72s-.12-2.42,1.35-2.22c1.58.47,1.65,1.58,2.39,2.3A48.06,48.06,0,0,0,55.7,55.23a34.09,34.09,0,0,1,1.62-7.89c.59-.49.88,8.11.88,8.11s1.07-3.15.71-4.69-.59-4.91,1.15-7.14,1,3.55,1.65,5.43,0,11.17,0,11.17,2.25-8.68,1.12-9.91S62,47.16,62.22,45s.56-4.27,1.63-4.35,1.22,5.68,1.22,5.68,1.34-3.91.9-5.23,1-3.66,2-3.07a2.39,2.39,0,0,1,.83,1.5c-.07-1.08,0-2.6,1.09-2.9a34.18,34.18,0,0,1,6.76-.95c2.36,2.19,1.18,11.11,2.75,4.47,2.19-7.65,3.72-16.4,9.23-25.46.67-1.36,3.53-1.18,3.7-2.66A89,89,0,0,1,95.19,0ZM10,15.28c.84.55,1.84,2.82.25,2.23A1.56,1.56,0,0,1,10,15.28ZM7.77,11.86c0-.48.7-.35.74.18A.4.4,0,0,1,7.77,11.86Zm6.48,18.35c-1.71,1-2.93-8.74-1.93-9.21C14.93,23.3,14.82,27.9,14.25,30.21Zm4.16-5.89a1.84,1.84,0,0,1-1.53-2.62C17.83,22.23,20.25,24,18.41,24.32ZM43.48,12.64c1.18-.06,1.25,1.43.1,1.37S42.44,12.6,43.48,12.64Zm-.14,4.94c1.06.33,1.58,2.43.09,1.84A1.55,1.55,0,0,1,43.34,17.58Zm-1.08,3.71c2.62.77,2.64,4.22,3,6,.26.9,0,2.62-1.66,1.8C42.19,27.77,40,22.26,42.26,21.29Zm-22.15,1.3c1.35-1.32,3.2,2.46,3.78,3.27C22.77,28.57,19.53,24,20.11,22.59Zm6.74,8c-.59-.19-.73-.54-.32-.71C27,30,27.09,30.26,26.85,30.63Zm-2.1-5.75c-1.23-4.11-2-10.33,2.89-13,13.11.46,14.67,24.69,15.52,30.39,2.05,25.45-8.79.7-14-10.56C28.21,29.36,25.92,27.3,24.75,24.88ZM50.8,46.7c0,7-.47,13.53-2.74,19.15-4.85,1.74-3.46-9.77-3.71-11.48.35-1.77-4.27-27.53,4-19.63A30.28,30.28,0,0,1,50.8,46.7Zm1.61-7.23c2.57-.91,2.07,2.56,2.35,3.59C53.72,47.46,50.13,40.8,52.41,39.47Zm-.8,22.34c0-.28.55-.34.52,0A.27.27,0,0,1,51.61,61.81Zm1.2-1.94c-1.17-.26-1.08-1.29.11-1.48C54.3,58.49,54.08,59.74,52.81,59.87Zm.79-3C52.78,55.41,52,53,54,51.67,55.38,52.75,55.21,55.82,53.6,56.82ZM55,47.68c-.63-.32-.28-1,.39-1.21C55.9,47.07,55.77,47.43,55,47.68Zm.86-2.63c-.73-.76-1-1.58-.43-2.38C57,42.1,56.58,44.56,55.83,45.05ZM83.14,19.84c-1.1,3.88-2.3,9.81-7.51,11.32-3.62-1.15,3.07-9.4,3-12.27C80.05,14.39,84.66,15.6,83.14,19.84Z"/></g></g></g></g></svg>