<svg xmlns="http://www.w3.org/2000/svg" xmlns:xlink="http://www.w3.org/1999/xlink" viewBox="0 0 50.13 25.76"><defs><style>.cls-1{mask:url(#mask);}.cls-12,.cls-14,.cls-15,.cls-17,.cls-2,.cls-21,.cls-29,.cls-36,.cls-42,.cls-9{mix-blend-mode:multiply;}.cls-2{fill:url(#Áåçûìÿííûé_ãðàäèåíò_289);}.cls-3{isolation:isolate;}.cls-4{fill:url(#Áåçûìÿííûé_ãðàäèåíò_36);}.cls-25,.cls-5{fill:#42151f;}.cls-5{opacity:0.5;}.cls-6,.cls-7{fill:#d0bfbe;}.cls-16,.cls-22,.cls-23,.cls-33,.cls-46,.cls-47,.cls-6,.cls-7{mix-blend-mode:soft-light;}.cls-7{opacity:0.6;}.cls-8{fill:#632633;opacity:0.33;}.cls-14,.cls-15,.cls-17,.cls-21,.cls-29,.cls-9{fill:#bd6f95;}.cls-9{opacity:0.54;}.cls-10,.cls-22,.cls-23{fill:#f1e4dc;}.cls-11{fill:url(#Áåçûìÿííûé_ãðàäèåíò_15);}.cls-12{opacity:0.2;}.cls-13{fill:#3a275e;}.cls-14{opacity:0.45;}.cls-15,.cls-16{opacity:0.23;}.cls-16,.cls-33,.cls-46,.cls-47{fill:#fff;}.cls-17,.cls-42,.cls-46{opacity:0.41;}.cls-18{fill:#42153b;}.cls-19{fill:url(#Áåçûìÿííûé_ãðàäèåíò_28);}.cls-20{fill:url(#Áåçûìÿííûé_ãðàäèåíò_63);}.cls-21{opacity:0.53;}.cls-23{opacity:0.4;}.cls-24{fill:#6a2c2e;}.cls-26{fill:url(#Áåçûìÿííûé_ãðàäèåíò_44);}.cls-27{opacity:0.67;fill:url(#Áåçûìÿííûé_ãðàäèåíò_149);}.cls-27,.cls-37{mix-blend-mode:color-dodge;}.cls-28{fill:none;}.cls-29{opacity:0.65;}.cls-30{fill:#430c0f;}.cls-31{fill:#632446;}.cls-32{fill:url(#Áåçûìÿííûé_ãðàäèåíò_29);}.cls-34{fill:#521532;}.cls-35{fill:url(#Áåçûìÿííûé_ãðàäèåíò_110);}.cls-36{opacity:0.14;fill:url(#Áåçûìÿííûé_ãðàäèåíò_37);}.cls-37{opacity:0.28;fill:url(#Áåçûìÿííûé_ãðàäèåíò_16);}.cls-38{fill:url(#Áåçûìÿííûé_ãðàäèåíò_29-2);}.cls-39{fill:url(#Áåçûìÿííûé_ãðàäèåíò_29-3);}.cls-40{fill:url(#Áåçûìÿííûé_ãðàäèåíò_29-4);}.cls-41{fill:url(#Áåçûìÿííûé_ãðàäèåíò_29-5);}.cls-42{fill:url(#Áåçûìÿííûé_ãðàäèåíò_37-2);}.cls-43{mask:url(#mask-2);}.cls-44{fill:url(#Áåçûìÿííûé_ãðàäèåíò_2);}.cls-45{fill:url(#Áåçûìÿííûé_ãðàäèåíò_51);}.cls-47{opacity:0.42;}.cls-48{filter:url(#luminosity-noclip);}</style><filter id="luminosity-noclip" x="7.3" y="-8217.01" width="5.55" height="32766" filterUnits="userSpaceOnUse" color-interpolation-filters="sRGB"><feFlood flood-color="#fff" result="bg"/><feBlend in="SourceGraphic" in2="bg"/></filter><mask id="mask" x="7.3" y="-8217.01" width="5.55" height="32766" maskUnits="userSpaceOnUse"><g class="cls-48"/></mask><linearGradient id="Áåçûìÿííûé_ãðàäèåíò_289" x1="7.3" y1="19.85" x2="12.85" y2="19.85" gradientUnits="userSpaceOnUse"><stop offset="0"/><stop offset="1" stop-color="#fff"/></linearGradient><linearGradient id="Áåçûìÿííûé_ãðàäèåíò_36" y1="22.92" x2="50" y2="22.92" gradientUnits="userSpaceOnUse"><stop offset="0" stop-color="#c1919c"/><stop offset="1" stop-color="#84778d"/></linearGradient><linearGradient id="Áåçûìÿííûé_ãðàäèåíò_15" x1="25" y1="20.54" x2="25" gradientUnits="userSpaceOnUse"><stop offset="0" stop-color="#636d8b"/><stop offset="1" stop-color="#745072"/></linearGradient><linearGradient id="Áåçûìÿííûé_ãðàäèåíò_28" x1="35.57" y1="14.07" x2="42.13" y2="2.71" gradientUnits="userSpaceOnUse"><stop offset="0" stop-color="#745072"/><stop offset="1" stop-color="#4a365e"/></linearGradient><linearGradient id="Áåçûìÿííûé_ãðàäèåíò_63" x1="36.22" y1="13.05" x2="41.62" y2="3.7" gradientUnits="userSpaceOnUse"><stop offset="0" stop-color="#797492"/><stop offset="1" stop-color="#4a365e"/></linearGradient><linearGradient id="Áåçûìÿííûé_ãðàäèåíò_44" x1="38.73" y1="12.18" x2="38.73" y2="4.48" gradientUnits="userSpaceOnUse"><stop offset="0" stop-color="#3b1d40"/><stop offset="1" stop-color="#271b31"/></linearGradient><linearGradient id="Áåçûìÿííûé_ãðàäèåíò_149" x1="38.77" y1="11.94" x2="38.77" y2="6.25" gradientUnits="userSpaceOnUse"><stop offset="0" stop-color="#3ed477"/><stop offset="1"/></linearGradient><linearGradient id="Áåçûìÿííûé_ãðàäèåíò_29" x1="12.26" y1="23.54" x2="12.26" y2="22.4" gradientUnits="userSpaceOnUse"><stop offset="0" stop-color="#812853"/><stop offset="1" stop-color="#af4a59"/></linearGradient><linearGradient id="Áåçûìÿííûé_ãðàäèåíò_110" x1="10.08" y1="23.21" x2="10.08" y2="17.45" gradientUnits="userSpaceOnUse"><stop offset="0" stop-color="#812853"/><stop offset="1" stop-color="#e14a59"/></linearGradient><linearGradient id="Áåçûìÿííûé_ãðàäèåíò_37" x1="10.5" y1="21.57" x2="12.85" y2="21.57" gradientUnits="userSpaceOnUse"><stop offset="0" stop-color="#3e0033"/><stop offset="1" stop-color="#873659"/></linearGradient><linearGradient id="Áåçûìÿííûé_ãðàäèåíò_16" x1="9.83" y1="21.25" x2="9.83" y2="17.45" gradientUnits="userSpaceOnUse"><stop offset="0"/><stop offset="1" stop-color="#fcccae"/></linearGradient><linearGradient id="Áåçûìÿííûé_ãðàäèåíò_29-2" x1="11.54" y1="22.7" x2="11.72" y2="22.7" xlink:href="#Áåçûìÿííûé_ãðàäèåíò_29"/><linearGradient id="Áåçûìÿííûé_ãðàäèåíò_29-3" x1="11.94" y1="23.19" x2="12.12" y2="23.19" xlink:href="#Áåçûìÿííûé_ãðàäèåíò_29"/><linearGradient id="Áåçûìÿííûé_ãðàäèåíò_29-4" x1="13.94" y1="15.81" x2="14.12" y2="15.81" gradientTransform="translate(-0.76 5.81) rotate(2.59)" xlink:href="#Áåçûìÿííûé_ãðàäèåíò_29"/><linearGradient id="Áåçûìÿííûé_ãðàäèåíò_29-5" x1="14.26" y1="16.24" x2="14.44" y2="16.24" gradientTransform="translate(-0.76 5.81) rotate(2.59)" xlink:href="#Áåçûìÿííûé_ãðàäèåíò_29"/><linearGradient id="Áåçûìÿííûé_ãðàäèåíò_37-2" x1="7.3" y1="18.62" x2="10.78" y2="18.62" xlink:href="#Áåçûìÿííûé_ãðàäèåíò_37"/><mask id="mask-2" x="7.3" y="17.45" width="5.55" height="4.79" maskUnits="userSpaceOnUse"><g class="cls-1"><polygon class="cls-2" points="12.85 22.24 9.78 17.45 7.3 17.95 9.75 17.54 12.85 22.24"/></g></mask><linearGradient id="Áåçûìÿííûé_ãðàäèåíò_2" x1="7.3" y1="19.85" x2="12.85" y2="19.85" gradientUnits="userSpaceOnUse"><stop offset="0" stop-color="#2dffbd"/><stop offset="1" stop-color="#43eb6d"/></linearGradient><linearGradient id="Áåçûìÿííûé_ãðàäèåíò_51" x1="18.44" y1="36.41" x2="31.56" y2="13.68" gradientUnits="userSpaceOnUse"><stop offset="0" stop-color="#745072"/><stop offset="1" stop-color="#66407a"/></linearGradient></defs><g class="cls-3"><g id="Layer_2" data-name="Layer 2"><g id="witch"><rect class="cls-4" y="20.82" width="50" height="4.19"/><path class="cls-5" d="M35,21.38H35l14.33,0h0l.64.28v-.1l-.43-.18H50V21.3H34.93l-.59-.48h-.05l.57.48H0v0l11.88,0H12l12.2,0-.62.85-14,.07H9.4l-9.4,0v0l9.27,0L6.48,23.38H0v.07H6.45l16.18,0L21.48,25h.2l1.12-1.52,14.68,0h.17l12.46,0v-.15H37.49l-1.43-1.16,14-.06v-.08L36,22.15h-.11l-12.16.06.59-.85Zm1,.84,1.38,1.16H6.66l2.76-1.05,14.1-.06h.14Z"/><polygon class="cls-6" points="21.68 25.01 22.8 23.49 50.11 23.53 22.89 23.52 21.89 25.01 21.68 25.01"/><polygon class="cls-6" points="6.66 23.38 9.42 22.33 35.95 22.22 9.45 22.37 6.82 23.38 6.66 23.38"/><polygon class="cls-6" points="37.49 23.38 36.06 22.21 50.11 22.16 36.26 22.23 37.62 23.38 37.49 23.38"/><polygon class="cls-6" points="23.7 22.21 24.29 21.36 49.36 21.41 24.36 21.39 23.83 22.21 23.7 22.21"/><polygon class="cls-7" points="21.48 25.01 22.63 23.49 0 23.45 0 25.01 21.48 25.01"/><polygon class="cls-7" points="50.11 23.38 37.49 23.38 36.06 22.21 50.11 22.16 50.11 23.38"/><polygon class="cls-7" points="0 22.32 23.57 22.21 24.19 21.36 0 21.32 0 22.32"/><polygon class="cls-8" points="37.33 23.38 35.95 22.22 23.83 22.27 35.75 22.32 36.5 22.99 29.04 23.05 36.6 23.11 36.8 23.28 31.93 23.38 37.33 23.38"/><polygon class="cls-8" points="50.11 25.01 50.11 23.53 22.8 23.49 48.58 23.67 49.21 24.23 38.21 24.25 50.11 24.46 50.11 24.92 22.8 25.01 50.11 25.01"/><polygon class="cls-8" points="49.36 21.41 41.13 21.39 49.36 21.47 50.11 22.03 42.18 22.12 50.11 22.08 50.13 21.75 49.36 21.41"/><polygon class="cls-9" points="46.19 20.82 45.18 24.72 7.69 24.25 8.4 20.32 0.01 20.54 0 25.01 50 25.01 50 20.82 46.19 20.82"/><polygon class="cls-10" points="50 20.24 50 20.82 9.38 20.82 9.38 20.55 14.15 20.52 17.38 20.49 50 20.24"/><polygon class="cls-11" points="50 20.23 0.01 20.54 0.01 0 50 0 50 20.23"/><polygon class="cls-9" points="0.01 20.54 4.3 20.5 6.54 1.45 43.08 2.43 46 20.25 50 20.23 50 0 0.01 0 0.01 20.54"/><g class="cls-12"><rect class="cls-13" x="24.97" y="-20.47" width="0.06" height="50.01" transform="translate(19.81 29.42) rotate(-88.5)"/><rect class="cls-13" x="0.01" y="6.17" width="50" height="0.06"/><rect class="cls-13" x="25.03" y="-13.8" width="0.06" height="50.11" transform="matrix(0.02, -1, 1, 0.02, 13.3, 36.09)"/><rect class="cls-13" x="-0.01" y="16.39" width="50.14" height="0.06" transform="translate(-0.41 0.65) rotate(-1.46)"/></g><polygon class="cls-14" points="0.97 6.42 0.97 7.29 6.54 7.23 6.54 6.54 0.97 6.42"/><polygon class="cls-15" points="4.64 7.59 4.64 8.33 10.21 8.27 10.21 7.58 4.64 7.59"/><polygon class="cls-15" points="6.92 6.49 6.92 7.23 12.5 7.4 12.5 6.48 6.92 6.49"/><polygon class="cls-15" points="10.57 4.55 10.57 5.29 16.15 5.46 16.15 4.54 10.57 4.55"/><polygon class="cls-15" points="16.4 4.55 16.4 5.46 21.98 5.46 21.98 4.67 16.4 4.55"/><polygon class="cls-14" points="36.92 8.05 36.92 8.96 42.49 8.96 42.49 8.16 36.92 8.05"/><polygon class="cls-16" points="39.22 9.22 39.22 10.12 44.79 10.12 44.88 9.51 39.22 9.22"/><polygon class="cls-16" points="36.38 17.97 36.38 18.51 42.11 18.67 42.05 17.9 36.38 17.97"/><polygon class="cls-16" points="17.48 12.39 17.48 13.3 23.06 13.3 23.14 12.69 17.48 12.39"/><polygon class="cls-14" points="39.79 16.99 39.79 17.6 45.36 17.6 45.36 17.07 39.79 16.99"/><polygon class="cls-15" points="20.86 13.63 20.86 14.3 26.43 14.24 26.43 13.75 20.86 13.63"/><polygon class="cls-16" points="13.36 3.14 13.57 4.01 18.83 4.01 18.93 3.25 13.36 3.14"/><polygon class="cls-15" points="38.74 3.14 38.74 3.81 44.31 3.75 44.31 3.25 38.74 3.14"/><polygon class="cls-15" points="3.01 18.06 3.01 18.73 8.59 18.67 8.59 18.17 3.01 18.06"/><polygon class="cls-15" points="0.56 0 0.56 4.35 8.97 4.54 1.32 4.67 1.47 9.33 12.5 9.73 7.75 9.73 7.88 12.39 13.36 12.51 3.76 12.85 3.92 13.97 9.71 14.3 2.25 14.57 2.38 19.01 14.27 19.56 6.54 19.56 6.54 20.5 0.01 20.54 0.01 0 0.56 0"/><polygon class="cls-15" points="47.77 0 47.77 1.45 38.35 1.45 47.48 2.2 47.77 4.38 41.88 4.38 46.33 4.72 46.52 5.78 39.22 6.2 45.5 6.65 45.92 10.58 34.54 10.76 47.06 11.28 47.45 15.01 38.74 15.34 44.47 15.59 45.36 20.12 32.78 20.34 50 20.23 50 0 47.77 0"/><polygon class="cls-16" points="38.73 3.74 38.86 4.3 42.23 4.3 42.29 3.81 38.73 3.74"/><path class="cls-17" d="M43.67,3.58,43,14.39H34.51l-1-10,0-.76C35.82.74,41.41.74,43.67,3.58Z"/><path class="cls-18" d="M43.24,3.94l-.65,9.9H34.85L34,4.64l-.05-.7C36.05,1.34,41.18,1.34,43.24,3.94Z"/><path class="cls-19" d="M43.66,3.94l-.86,9.9H35.18l-.81-9.2,0-.7C36.46,1.34,41.59,1.34,43.66,3.94Z"/><path class="cls-20" d="M42.8,4.67l-.53,8.09H35.71l-.49-7.52,0-.57C36.93,2.55,41.11,2.55,42.8,4.67Z"/><path class="cls-21" d="M42.8,4.67l-.53,8.09-.74-.34L42,5.27H35.27l-.05,0,0-.57C36.93,2.55,41.11,2.55,42.8,4.67Z"/><polygon class="cls-18" points="34.74 8.79 35.44 8.61 35.45 8.79 34.69 8.91 34.74 8.79"/><polygon class="cls-18" points="34.93 11 35.6 11 35.6 11.03 34.9 11.08 34.93 11"/><polygon class="cls-18" points="34.9 11.87 35.66 11.87 35.66 11.91 34.9 11.99 34.9 11.87"/><polygon class="cls-18" points="35.71 12.76 35.18 13.85 35.27 13.85 35.78 12.76 35.71 12.76"/><polygon class="cls-18" points="34.59 7.08 35.34 7.08 35.34 7.02 34.55 7.02 34.59 7.08"/><polygon class="cls-18" points="35.24 5.57 34.4 5.68 34.4 5.73 35.24 5.62 35.24 5.57"/><polygon class="cls-18" points="34.33 3.94 35.18 4.67 35.24 4.58 34.33 3.94"/><polygon class="cls-18" points="36.14 4.53 36.14 3.81 35.4 2.99 35.46 2.95 36.2 3.78 36.2 4.49 36.14 4.53"/><polygon class="cls-18" points="39.77 2.03 39.77 3.13 39.37 3.94 39.4 3.95 39.84 3.13 39.84 2.04 39.77 2.03"/><polygon class="cls-18" points="41.3 2.36 41.3 3.54 40.48 4.24 40.5 4.25 41.32 3.55 41.37 2.38 41.3 2.36"/><polygon class="cls-18" points="43.66 3.94 42.8 4.67 41.93 5.16 41.95 5.19 42.8 4.76 43.65 4.02 43.66 3.94"/><polygon class="cls-18" points="41.84 7.76 42.6 7.76 43.33 7.76 43.32 7.86 42.59 7.81 41.84 7.81 41.84 7.76"/><polygon class="cls-18" points="41.77 8.76 42.52 8.91 43.22 8.98 43.22 9.03 42.52 8.98 41.77 8.79 41.77 8.76"/><polygon class="cls-18" points="41.67 10.44 42.4 10.71 43.07 10.73 43.06 10.8 42.4 10.77 41.66 10.45 41.67 10.44"/><polygon class="cls-18" points="41.53 12.42 42.27 12.76 42.8 13.85 42.19 12.76 41.48 12.42 41.53 12.42"/><polygon class="cls-18" points="40.02 12.42 40.22 12.76 40.12 13.85 40.08 13.85 40.17 12.77 39.98 12.42 40.02 12.42"/><polygon class="cls-18" points="37.59 12.42 37.71 12.76 37.65 13.85 37.68 13.85 37.75 12.76 37.63 12.42 37.59 12.42"/><polygon class="cls-22" points="42.8 4.67 42.27 12.76 35.78 12.76 42.34 12.85 42.8 4.67"/><polygon class="cls-22" points="34.33 3.94 35.18 13.85 35.27 13.85 34.33 3.94"/><polygon class="cls-22" points="37.75 12.76 40.17 12.77 40.08 13.85 40.13 12.85 37.75 12.8 37.75 12.76"/><polygon class="cls-22" points="43.06 10.8 42.45 10.77 42.34 12.85 42.5 10.8 43.06 10.86 43.06 10.8"/><polygon class="cls-22" points="43.33 7.76 42.6 7.76 42.8 4.76 43.65 4.02 42.85 4.8 42.66 7.68 43.33 7.76"/><path class="cls-22" d="M41.3,2.36V3.54a6.51,6.51,0,0,0-1.47-.41,6,6,0,0,1,1.42.33Z"/><polygon class="cls-22" points="35.4 2.99 36.14 3.81 36.12 3.86 35.35 2.99 35.4 2.99"/><polygon class="cls-22" points="34.48 5.73 35.24 5.62 35.34 7.02 35.27 7.02 35.22 5.65 34.48 5.73"/><polygon class="cls-22" points="34.75 8.9 35.45 8.79 35.6 11 35.58 11 35.41 8.84 34.75 8.9"/><polygon class="cls-23" points="34.33 3.94 35.18 4.67 35.24 5.57 34.47 5.67 34.33 3.94"/><polygon class="cls-23" points="42.45 10.77 42.34 12.85 42.8 13.85 43.06 10.8 42.45 10.77"/><polygon class="cls-23" points="37.65 13.85 37.71 12.76 37.59 12.42 35.74 12.42 35.78 12.76 35.27 13.85 37.65 13.85"/><path class="cls-23" d="M35.46,3A6.63,6.63,0,0,1,39.76,2V3.12a6.52,6.52,0,0,0-3.56.66Z"/><polygon class="cls-15" points="35.58 8.73 35.58 9.18 40.87 9.58 40.87 8.86 35.58 8.73"/><path class="cls-24" d="M41.73,12.54l-6-.12-.47-7.15c1.54-1.88,5.24-1.88,6.92.19Z"/><path class="cls-25" d="M41.67,5.56l-.24,6.62H36.22L35.8,5.75a3.9,3.9,0,0,1,3-1.27A3.38,3.38,0,0,1,41.67,5.56Z"/><path class="cls-26" d="M41.66,5.75l-.09,1.37-.33,5.06h-5L35.8,5.75a3.9,3.9,0,0,1,3-1.27l.51,0a3.58,3.58,0,0,1,2.4,1.23Z"/><polygon class="cls-27" points="36.66 11.95 37.19 6.25 40.57 6.25 40.87 11.87 36.66 11.95"/><polygon class="cls-25" points="38.72 4.49 38.83 12.18 38.95 12.18 39.05 4.47 38.72 4.49"/><polygon class="cls-24" points="38.9 4.36 38.76 12.2 39 12.2 39.26 4.36 38.9 4.36"/><polygon class="cls-24" points="41.79 7.12 35.85 7.03 35.85 7.51 41.79 7.38 41.79 7.12"/><polygon class="cls-24" points="41.79 10.13 35.85 10.04 35.74 10.19 41.79 10.39 41.79 10.13"/><path class="cls-23" d="M41.66,5.75l-.09,1.37-2.21,0,2-.06A3.94,3.94,0,0,0,41,5.84a3.21,3.21,0,0,0-1.46-.57c-.05.1-.32,1.81-.32,1.81l0-2.56a3.58,3.58,0,0,1,2.4,1.23Z"/><path class="cls-23" d="M35.88,7S38.6,7,38.65,6.89a10.82,10.82,0,0,0-.16-2c-.07-.07-2,.48-2.16.9A3.91,3.91,0,0,0,36.24,7l-.36,0-.08-1.3a3.76,3.76,0,0,1,3-1.27v2.6Z"/><path class="cls-23" d="M39.24,7.43l0,2.66,2.17,0,.18-2.74Zm1.95,2.15a2.42,2.42,0,0,1-1.63.23,7.7,7.7,0,0,1-.08-2.13,7.55,7.55,0,0,1,1.84-.06A4.15,4.15,0,0,1,41.19,9.58Z"/><path class="cls-23" d="M38.76,7.44l-2.85.07L36.08,10l2.72,0Zm-.31,2.07a4.55,4.55,0,0,1-2,.21,4.82,4.82,0,0,1-.23-2,7.62,7.62,0,0,1,2.34.06A4.47,4.47,0,0,1,38.45,9.51Z"/><path class="cls-23" d="M38.8,10.39H36.1l.12,1.79h2.6Zm-.35,1.51a5.45,5.45,0,0,1-2,.1,2.92,2.92,0,0,1-.11-1.46,6.54,6.54,0,0,1,2.25,0A2.25,2.25,0,0,1,38.45,11.9Z"/><path class="cls-23" d="M39.21,10.39l0,1.79h2.05l.12-1.79ZM41,12c-.12.12-1.41.15-1.5,0a3.62,3.62,0,0,1,0-1.27,3.21,3.21,0,0,1,1.63-.16A3.59,3.59,0,0,1,41,12Z"/><rect class="cls-28" y="0.01" width="50" height="25"/><polygon class="cls-29" points="10.49 23.08 6.68 23.1 4.41 24.32 9.61 24.32 11.23 23.51 11.87 23.09 10.49 23.08"/><polygon class="cls-30" points="11.23 23.51 13.01 22.4 20.18 22.37 19.07 23.62 11.23 23.51"/><polygon class="cls-31" points="12.89 23.54 13.29 23.28 19.33 23.33 20.18 22.37 13.01 22.4 11.23 23.51 12.89 23.54"/><polygon class="cls-32" points="13.29 23.28 13.01 22.4 11.23 23.51 12.89 23.54 13.29 23.28"/><polygon class="cls-33" points="11.23 23.51 13 22.33 20.18 22.37 13.01 22.4 11.23 23.51"/><polygon class="cls-34" points="11.31 23.21 10.82 23.52 6.78 18.54 7.3 17.95 11.31 23.21"/><polygon class="cls-35" points="7.3 17.95 9.78 17.45 12.85 22.24 11.31 23.21 7.3 17.95"/><polygon class="cls-36" points="12.12 22.7 10.5 20.43 11.83 22.02 12.21 21.83 11.43 20.51 12.85 22.24 12.12 22.7"/><polygon class="cls-33" points="11.31 23.21 7.3 17.95 11.41 23.15 11.31 23.21"/><path class="cls-37" d="M7.48,17.9S9.54,20.26,10,20.76s2.15.49,2.15.49l-2.41-3.8Z"/><polygon class="cls-30" points="11.27 22.71 11.33 22.57 12.35 23.37 12.46 23.53 11.95 23.52 11.27 22.71"/><polygon class="cls-30" points="12.21 22.21 12.27 22.11 13.15 22.95 13.28 23.3 13.01 23.46 12.21 22.21"/><polygon class="cls-31" points="11.33 22.57 12.11 23.48 12.35 23.37 11.6 22.42 11.33 22.57"/><polygon class="cls-31" points="12.27 22.11 12.92 23.09 13.15 22.95 12.53 21.99 12.27 22.11"/><path class="cls-33" d="M11.33,22.57l.27-.15.75.95s-.73-.89-.77-.89A2.3,2.3,0,0,0,11.33,22.57Z"/><path class="cls-33" d="M12.27,22.11l.26-.12.62,1S12.53,22,12.5,22Z"/><path class="cls-30" d="M11.7,22.65c0,.06.05.13,0,.15s-.09,0-.14-.06-.05-.12,0-.15S11.65,22.6,11.7,22.65Z"/><path class="cls-38" d="M11.68,22.67c0,.06.06.12,0,.14s-.08,0-.12-.07-.06-.12,0-.14S11.63,22.61,11.68,22.67Z"/><path class="cls-30" d="M12.1,23.14c0,.05.06.12,0,.14s-.09,0-.13-.06-.06-.12,0-.14S12.06,23.08,12.1,23.14Z"/><path class="cls-39" d="M12.08,23.15c0,.06.06.12,0,.14s-.08,0-.12-.07-.06-.12,0-.14S12,23.1,12.08,23.15Z"/><path class="cls-30" d="M12.6,22.2c0,.06.05.12,0,.14s-.08,0-.13-.07-.05-.12,0-.14S12.56,22.14,12.6,22.2Z"/><path class="cls-40" d="M12.58,22.21c0,.06.05.12,0,.14s-.08,0-.12-.08-.06-.12,0-.13S12.54,22.15,12.58,22.21Z"/><path class="cls-30" d="M12.9,22.64c0,.06,0,.12,0,.14s-.08,0-.13-.06,0-.13,0-.15S12.86,22.58,12.9,22.64Z"/><path class="cls-41" d="M12.88,22.65c0,.06,0,.12,0,.14s-.08,0-.12-.07-.06-.12,0-.14S12.84,22.59,12.88,22.65Z"/><polygon class="cls-33" points="20.18 22.37 19.07 23.62 11.23 23.51 19.13 23.71 20.18 22.37"/><polygon class="cls-42" points="7.3 17.95 8.97 19.79 7.62 18 8.88 17.76 9.6 18.77 9.04 17.77 9.74 17.68 10.78 19 9.78 17.45 7.3 17.95"/><g class="cls-43"><polygon class="cls-44" points="12.85 22.24 9.78 17.45 7.3 17.95 9.75 17.54 12.85 22.24"/></g><rect class="cls-45" y="24.32" width="50" height="1.44"/><rect class="cls-46" x="42.74" y="24.33" width="1.96" height="1.43"/><rect class="cls-16" x="14.87" y="24.33" width="1.96" height="1.43"/><rect class="cls-47" x="45.19" y="24.32" width="0.37" height="1.44"/><rect class="cls-47" x="14.08" y="24.32" width="0.37" height="1.44"/><rect class="cls-47" x="32.38" y="24.32" width="0.37" height="1.44"/></g></g></g></svg>