<svg xmlns="http://www.w3.org/2000/svg" xmlns:xlink="http://www.w3.org/1999/xlink" viewBox="0 0 3.19 1.49"><defs><style>.cls-1{fill:url(#Áåçûìÿííûé_ãðàäèåíò_20);}.cls-2{fill:#f1a4a4;}.cls-3{fill:url(#Áåçûìÿííûé_ãðàäèåíò_20-2);}</style><linearGradient id="Áåçûìÿííûé_ãðàäèåíò_20" y1="0.79" x2="3.19" y2="0.79" gradientUnits="userSpaceOnUse"><stop offset="0" stop-color="#f3d5c9"/><stop offset="1" stop-color="#f3ccad"/></linearGradient><linearGradient id="Áåçûìÿííûé_ãðàäèåíò_20-2" x1="0.54" y1="0.98" x2="2.71" y2="0.98" gradientTransform="translate(-0.36 0.58) rotate(-27.49)" xlink:href="#Áåçûìÿííûé_ãðàäèåíò_20"/></defs><g id="Layer_2" data-name="Layer 2"><g id="witch"><path class="cls-1" d="M3.16,1.3C3,1.47,2.38,1,2.38,1H.53s-.4.48-.51.26A.24.24,0,0,1,0,1,.82.82,0,0,1,.29.74S-.06.5.08.36.5.69.5.69L2.38.75s.3-.51.4-.51,0,.45,0,.45h0C2.87.76,3.32,1.14,3.16,1.3Z"/><path class="cls-2" d="M3.16,1.3C3,1.47,2.38,1,2.38,1H.53s-.4.48-.51.26A.24.24,0,0,1,0,1C.22,1.23.55.88.55.88L2.47.93S3,1.25,3,1.1A1,1,0,0,0,2.79.7C2.87.76,3.32,1.14,3.16,1.3Z"/><path class="cls-3" d="M2.63.52c0,.16-.57,0-.57,0L1,1.15s-.09.42-.23.32a.17.17,0,0,1,0-.12.52.52,0,0,1,.06-.27S.44,1.05.48.92.84,1,.84,1L2,.43S2,0,2.07,0s.14.27.14.27h0C2.29.29,2.68.38,2.63.52Z"/><path class="cls-2" d="M2.63.52c0,.16-.57,0-.57,0L1,1.15s-.09.42-.23.32a.17.17,0,0,1,0-.12c.17,0,.26-.26.26-.26L2.1.52s.39,0,.35-.05A.62.62,0,0,0,2.22.28C2.29.29,2.68.38,2.63.52Z"/></g></g></svg>