<svg xmlns="http://www.w3.org/2000/svg" xmlns:xlink="http://www.w3.org/1999/xlink" viewBox="0 0 3.19 1.1"><defs><style>.cls-1{fill:url(#Áåçûìÿííûé_ãðàäèåíò_20);}.cls-2{fill:#f1a4a4;}</style><linearGradient id="Áåçûìÿííûé_ãðàäèåíò_20" y1="0.55" x2="3.19" y2="0.55" gradientUnits="userSpaceOnUse"><stop offset="0" stop-color="#f3d5c9"/><stop offset="1" stop-color="#f3ccad"/></linearGradient></defs><g id="Layer_2" data-name="Layer 2"><g id="witch"><path class="cls-1" d="M3.16,1.06C3,1.23,2.38.74,2.38.74H.53S.13,1.22,0,1A.24.24,0,0,1,0,.8.82.82,0,0,1,.29.5S-.06.26.08.12.5.45.5.45L2.38.51s.3-.51.4-.51,0,.45,0,.45h0C2.87.52,3.32.9,3.16,1.06Z"/><path class="cls-2" d="M3.16,1.06C3,1.23,2.38.74,2.38.74H.53S.13,1.22,0,1A.24.24,0,0,1,0,.8C.22,1,.55.64.55.64l1.92,0S3,1,3,.86a1,1,0,0,0-.16-.4C2.87.52,3.32.9,3.16,1.06Z"/></g></g></svg>