<svg xmlns="http://www.w3.org/2000/svg" viewBox="0 0 2.39 0.68"><defs><style>.cls-1{isolation:isolate;}.cls-2{fill:#155168;}.cls-3{fill:#ffd6cc;}.cls-4{fill:#a21800;opacity:0.26;}.cls-4,.cls-5{mix-blend-mode:multiply;}.cls-5{fill:#385f00;opacity:0.28;}.cls-6{fill:#5f8090;}</style></defs><g class="cls-1"><g id="Layer_2" data-name="Layer 2"><g id="witch"><polygon class="cls-2" points="2.38 0.38 1.02 0.33 0.2 0.37 0.3 0.68 2.38 0.68 2.38 0.65 1.08 0.6 1.04 0.37 2.38 0.42 2.38 0.38"/><polygon class="cls-3" points="1.08 0.6 1.04 0.37 2.33 0.42 2.34 0.65 1.08 0.6"/><polygon class="cls-4" points="2.33 0.47 1.35 0.44 1.35 0.48 1.79 0.52 1.06 0.51 1.04 0.37 2.33 0.42 2.33 0.47"/><polygon class="cls-5" points="0.89 0.33 0.95 0.67 0.85 0.67 0.77 0.34 0.89 0.33"/><polygon class="cls-5" points="0.37 0.36 0.47 0.68 0.41 0.68 0.29 0.37 0.37 0.36"/><polygon class="cls-6" points="2.33 0.08 0.88 0 0 0.04 0.1 0.36 2.33 0.36 2.33 0.29 0.94 0.29 0.9 0.05 2.33 0.13 2.33 0.08"/><polygon class="cls-3" points="0.94 0.29 0.9 0.05 2.28 0.13 2.26 0.29 0.94 0.29"/><polygon class="cls-4" points="2.27 0.18 1.23 0.13 1.23 0.17 1.7 0.22 0.92 0.19 0.9 0.05 2.28 0.13 2.27 0.18"/></g></g></g></svg>