<svg xmlns="http://www.w3.org/2000/svg" xmlns:xlink="http://www.w3.org/1999/xlink" viewBox="0 0 0.53 1.89"><defs><style>.cls-1{isolation:isolate;}.cls-2{fill:url(#Áåçûìÿííûé_ãðàäèåíò_4);}.cls-3{fill:#571123;}.cls-4,.cls-7,.cls-8{opacity:0.62;mix-blend-mode:color-dodge;}.cls-4{fill:url(#Áåçûìÿííûé_ãðàäèåíò_111);}.cls-10,.cls-5,.cls-9{fill:#fff6d6;}.cls-5{opacity:0.55;}.cls-6{fill:#7a1d23;opacity:0.53;mix-blend-mode:multiply;}.cls-7{fill:url(#Áåçûìÿííûé_ãðàäèåíò_111-2);}.cls-8{fill:url(#Áåçûìÿííûé_ãðàäèåíò_111-3);}.cls-10{opacity:0.2;}</style><linearGradient id="Áåçûìÿííûé_ãðàäèåíò_4" x1="-1.12" y1="1.98" x2="-1.12" y2="0.09" gradientUnits="userSpaceOnUse"><stop offset="0" stop-color="#2395a6"/><stop offset="1" stop-color="#015663"/></linearGradient><linearGradient id="Áåçûìÿííûé_ãðàäèåíò_111" x1="-148.32" y1="-305.42" x2="-148.32" y2="-305.99" gradientTransform="translate(146.85 306.71) rotate(0.07)" gradientUnits="userSpaceOnUse"><stop offset="0"/><stop offset="1" stop-color="#b3a600"/></linearGradient><linearGradient id="Áåçûìÿííûé_ãðàäèåíò_111-2" x1="-148.31" y1="-306.06" x2="-148.31" y2="-306.29" gradientTransform="translate(148.24 306.62) rotate(0.07)" xlink:href="#Áåçûìÿííûé_ãðàäèåíò_111"/><linearGradient id="Áåçûìÿííûé_ãðàäèåíò_111-3" x1="-148.29" y1="-306.32" x2="-148.29" y2="-306.4" gradientTransform="translate(148.24 306.62) rotate(0.07)" xlink:href="#Áåçûìÿííûé_ãðàäèåíò_111"/></defs><g class="cls-1"><g id="Layer_2" data-name="Layer 2"><g id="witch"><path class="cls-2" d="M-.85.74s0,0,0-.06A.31.31,0,0,0-1,.53L-1,.47h0v0h0V.21h0v0h0V.11h0v0h-.21l0,.38-.08.06h0a.31.31,0,0,0-.11.25V.85h0l0,.37h0l0,.72a0,0,0,0,0,0,0h.34a0,0,0,0,0,0,0v0l0-.29h0V1.44l0-.56V.74Zm-.27,1.14v0Zm0-.34v0Zm0-.32v0h0Z" transform="translate(1.38 -0.09)"/><polygon class="cls-3" points="0.39 0.02 0.37 0.12 0.16 0.12 0.14 0.02 0.39 0.02"/><path class="cls-4" d="M-1.28.79s0-.24.2-.26.21.18.21.26,0,.3,0,.3,0-.31,0-.34-.09,0-.2,0A.28.28,0,0,0-1.28.79Z" transform="translate(1.38 -0.09)"/><path class="cls-5" d="M-1.14.76H-1l0,.8h0s0-.72,0-.75S-1.14.76-1.14.76Z" transform="translate(1.38 -0.09)"/><polygon class="cls-5" points="0.47 1.83 0.47 1.84 0.47 1.61 0.49 0.79 0.49 0.79 0.51 0.76 0.51 0.75 0.53 0.72 0.53 0.72 0.53 0.79 0.5 1.35 0.49 1.54 0.49 1.54 0.47 1.83"/><path class="cls-6" d="M-1,.21h-.19v0h0V.47A.35.35,0,0,0-1.34.7c0,.14.05,1.28.05,1.28h.12s0-1.16,0-1.27A1.41,1.41,0,0,1-1.13.47V.28Z" transform="translate(1.38 -0.09)"/><polygon class="cls-7" points="0.3 0.17 0.35 0.13 0.32 0.37 0.3 0.36 0.3 0.17"/><polygon class="cls-8" points="0.32 0.03 0.37 0.03 0.36 0.1 0.32 0.1 0.32 0.03"/><polygon class="cls-6" points="0.17 0.1 0.16 0.03 0.25 0.03 0.24 0.1 0.17 0.1"/><polygon class="cls-9" points="0.36 0.12 0.35 0.38 0.33 0.37 0.35 0.13 0.35 0.12 0.35 0.12 0.36 0.12"/><polygon class="cls-9" points="0.39 0.02 0.37 0.12 0.36 0.12 0.36 0.11 0.37 0.05 0.37 0.03 0.37 0 0.39 0.02"/><path class="cls-10" d="M-1.2.74l0,1.24h.08l0-1.26S-1.16.7-1.2.74Z" transform="translate(1.38 -0.09)"/></g></g></g></svg>