<svg xmlns="http://www.w3.org/2000/svg" xmlns:xlink="http://www.w3.org/1999/xlink" viewBox="0 0 0.92 3.26"><defs><style>.cls-1{isolation:isolate;}.cls-2{fill:url(#Áåçûìÿííûé_ãðàäèåíò_141);}.cls-3{fill:#571123;}.cls-4,.cls-7,.cls-8{opacity:0.62;mix-blend-mode:color-dodge;}.cls-4{fill:url(#Áåçûìÿííûé_ãðàäèåíò_111);}.cls-10,.cls-5,.cls-9{fill:#fff6d6;}.cls-5{opacity:0.55;}.cls-6{fill:#7a1d23;opacity:0.53;mix-blend-mode:multiply;}.cls-7{fill:url(#Áåçûìÿííûé_ãðàäèåíò_111-2);}.cls-8{fill:url(#Áåçûìÿííûé_ãðàäèåíò_111-3);}.cls-10{opacity:0.2;}</style><linearGradient id="Áåçûìÿííûé_ãðàäèåíò_141" x1="1.26" y1="2.1" x2="1.26" y2="-1.16" gradientUnits="userSpaceOnUse"><stop offset="0" stop-color="#4f9f00"/><stop offset="1" stop-color="#267015"/></linearGradient><linearGradient id="Áåçûìÿííûé_ãðàäèåíò_111" x1="-145.93" y1="-305.94" x2="-145.93" y2="-306.92" gradientTransform="translate(146.86 306.71) rotate(0.07)" gradientUnits="userSpaceOnUse"><stop offset="0"/><stop offset="1" stop-color="#b3a600"/></linearGradient><linearGradient id="Áåçûìÿííûé_ãðàäèåíò_111-2" x1="-145.9" y1="-307.04" x2="-145.9" y2="-307.45" gradientTransform="translate(146.06 307.86) rotate(0.07)" xlink:href="#Áåçûìÿííûé_ãðàäèåíò_111"/><linearGradient id="Áåçûìÿííûé_ãðàäèåíò_111-3" x1="-145.86" y1="-307.5" x2="-145.86" y2="-307.63" gradientTransform="translate(146.06 307.86) rotate(0.07)" xlink:href="#Áåçûìÿííûé_ãðàäèåíò_111"/></defs><g class="cls-1"><g id="Layer_2" data-name="Layer 2"><g id="witch"><path class="cls-2" d="M1.72,0l0-.1A.48.48,0,0,0,1.53-.4L1.4-.51h0V-.62l0-.34h0V-1h0v-.09h0v0H1.08l0,.65L1-.4H1A.53.53,0,0,0,.8,0V.16h0L.83.8h0L.88,2A.08.08,0,0,0,1,2.1h.58A.08.08,0,0,0,1.62,2V2l0-.51h0l0-.33.05-1V0Zm-.46,2v0Zm0-.59v0Zm0-.55v0h0Z" transform="translate(-0.8 1.16)"/><polygon class="cls-3" points="0.67 0.03 0.64 0.2 0.27 0.2 0.25 0.03 0.67 0.03"/><path class="cls-4" d="M1,0s.07-.4.34-.44.36.31.36.44,0,.53,0,.53a1.89,1.89,0,0,0,0-.6c-.06-.06-.16,0-.34,0A.45.45,0,0,0,1,0Z" transform="translate(-0.8 1.16)"/><path class="cls-5" d="M1.21,0h.25l0,1.38h0s0-1.24,0-1.3S1.21,0,1.21,0Z" transform="translate(-0.8 1.16)"/><polygon class="cls-5" points="0.82 3.17 0.8 3.17 0.81 2.78 0.85 1.36 0.85 1.36 0.88 1.3 0.88 1.3 0.92 1.24 0.92 1.24 0.91 1.36 0.86 2.33 0.84 2.66 0.84 2.66 0.82 3.17"/><path class="cls-6" d="M1.43-1H1.1v0h0v.39a.63.63,0,0,0-.27.4C.82.13,1,2.1,1,2.1h.21s-.06-2,0-2.19.09-.42.09-.42V-.83Z" transform="translate(-0.8 1.16)"/><polygon class="cls-7" points="0.52 0.3 0.6 0.23 0.56 0.64 0.51 0.63 0.52 0.3"/><polygon class="cls-8" points="0.56 0.04 0.64 0.04 0.63 0.18 0.55 0.17 0.56 0.04"/><polygon class="cls-6" points="0.29 0.18 0.28 0.04 0.43 0.04 0.41 0.18 0.29 0.18"/><polygon class="cls-9" points="0.63 0.2 0.6 0.65 0.57 0.64 0.6 0.23 0.6 0.21 0.6 0.2 0.63 0.2"/><polygon class="cls-9" points="0.67 0.03 0.64 0.2 0.63 0.2 0.63 0.19 0.64 0.09 0.64 0.04 0.64 0 0.67 0.03"/><path class="cls-10" d="M1.12,0l0,2.14h.14l0-2.17S1.18-.1,1.12,0Z" transform="translate(-0.8 1.16)"/></g></g></g></svg>