<svg xmlns="http://www.w3.org/2000/svg" xmlns:xlink="http://www.w3.org/1999/xlink" viewBox="0 0 1.87 1"><defs><style>.cls-1{isolation:isolate;}.cls-2{fill:url(#Áåçûìÿííûé_ãðàäèåíò_4);}.cls-3{fill:#004245;}.cls-4{fill:url(#Áåçûìÿííûé_ãðàäèåíò_4-2);}.cls-5{fill:#00038b;opacity:0.25;mix-blend-mode:multiply;}.cls-6{fill:#fff;mix-blend-mode:soft-light;}</style><linearGradient id="Áåçûìÿííûé_ãðàäèåíò_4" x1="-184.62" y1="4.99" x2="-183.55" y2="4.99" gradientTransform="translate(185.33 -4.46)" gradientUnits="userSpaceOnUse"><stop offset="0" stop-color="#2395a6"/><stop offset="1" stop-color="#015663"/></linearGradient><linearGradient id="Áåçûìÿííûé_ãðàäèåíò_4-2" x1="-185.33" y1="4.59" x2="-183.46" y2="4.59" xlink:href="#Áåçûìÿííûé_ãðàäèåíò_4"/></defs><g class="cls-1"><g id="Layer_2" data-name="Layer 2"><g id="witch"><polygon class="cls-2" points="0.79 0.99 0.7 0.07 1.78 0.07 1.64 0.98 0.79 0.99"/><polygon class="cls-3" points="0.7 0.07 0.07 0.1 0.25 1 0.79 0.99 0.7 0.07"/><polygon class="cls-4" points="1.84 0.26 1.86 0.03 0.69 0 0 0.04 0.05 0.26 0.72 0.22 1.84 0.26"/><polygon class="cls-3" points="0.05 0.26 0 0.04 0.69 0 0.69 0.22 0.05 0.26"/><polygon class="cls-5" points="0.17 0.6 0.73 0.34 1.74 0.34 1.75 0.25 0.72 0.22 0.1 0.26 0.17 0.6"/><polygon class="cls-3" points="1.04 0.28 1.04 0.39 1.54 0.39 1.56 0.31 1.04 0.28"/><polygon class="cls-5" points="0.05 0.05 0.08 0.23 0.29 0.22 0.28 0.04 0.05 0.05"/><polygon class="cls-5" points="0.14 0.28 0.28 0.98 0.7 0.96 0.36 0.94 0.29 0.26 0.14 0.28"/><polygon class="cls-6" points="1.17 0.04 1.84 0.07 1.78 0.22 1.17 0.19 1.17 0.04"/><polygon class="cls-6" points="1.33 0.45 1.66 0.45 1.59 0.98 1.35 0.98 1.33 0.45"/></g></g></g></svg>