<svg xmlns="http://www.w3.org/2000/svg" xmlns:xlink="http://www.w3.org/1999/xlink" viewBox="0 0 2.38 1.27"><defs><style>.cls-1{isolation:isolate;}.cls-2{fill:url(#Áåçûìÿííûé_ãðàäèåíò_4);}.cls-3{fill:#004245;}.cls-4{fill:url(#Áåçûìÿííûé_ãðàäèåíò_4-2);}.cls-5{fill:#00038b;opacity:0.25;mix-blend-mode:multiply;}.cls-6{fill:#fff;mix-blend-mode:soft-light;}</style><linearGradient id="Áåçûìÿííûé_ãðàäèåíò_4" x1="-446.41" y1="0.68" x2="-445.03" y2="0.68" gradientTransform="matrix(-1, 0, 0, 1, -444.93, 0)" gradientUnits="userSpaceOnUse"><stop offset="0" stop-color="#2395a6"/><stop offset="1" stop-color="#015663"/></linearGradient><linearGradient id="Áåçûìÿííûé_ãðàäèåíò_4-2" x1="-447.31" y1="0.16" x2="-444.93" y2="0.16" xlink:href="#Áåçûìÿííûé_ãðàäèåíò_4"/></defs><g class="cls-1"><g id="Layer_2" data-name="Layer 2"><g id="witch"><polygon class="cls-2" points="1.37 1.27 1.48 0.09 0.11 0.09 0.29 1.26 1.37 1.27"/><polygon class="cls-3" points="1.48 0.09 2.29 0.12 2.06 1.27 1.37 1.27 1.48 0.09"/><polygon class="cls-4" points="0.04 0.33 0 0.04 1.5 0 2.38 0.04 2.32 0.33 1.47 0.28 0.04 0.33"/><polygon class="cls-3" points="2.32 0.33 2.38 0.04 1.5 0 1.5 0.28 2.32 0.33"/><polygon class="cls-5" points="2.16 0.77 1.45 0.44 0.16 0.44 0.14 0.32 1.47 0.28 2.25 0.33 2.16 0.77"/><polygon class="cls-3" points="1.05 0.36 1.05 0.5 0.41 0.5 0.39 0.4 1.05 0.36"/><polygon class="cls-5" points="2.32 0.07 2.28 0.3 2.01 0.28 2.03 0.05 2.32 0.07"/><polygon class="cls-5" points="2.21 0.36 2.02 1.25 1.48 1.22 1.92 1.2 2.01 0.33 2.21 0.36"/><polygon class="cls-6" points="0.88 0.05 0.04 0.09 0.11 0.28 0.88 0.25 0.88 0.05"/><polygon class="cls-6" points="0.68 0.57 0.26 0.57 0.35 1.25 0.66 1.25 0.68 0.57"/></g></g></g></svg>