<svg xmlns="http://www.w3.org/2000/svg" xmlns:xlink="http://www.w3.org/1999/xlink" viewBox="0 0 4.09 15.68"><defs><style>.cls-1{isolation:isolate;}.cls-2{fill:url(#Áåçûìÿííûé_ãðàäèåíò_107);}.cls-3{fill:#bd6f95;opacity:0.41;mix-blend-mode:multiply;}.cls-4{fill:url(#Áåçûìÿííûé_ãðàäèåíò_107-2);}.cls-5{fill:#fff;opacity:0.23;mix-blend-mode:soft-light;}.cls-6{fill:url(#Áåçûìÿííûé_ãðàäèåíò_80);}.cls-7{opacity:0.8;mix-blend-mode:color-dodge;fill:url(#Áåçûìÿííûé_ãðàäèåíò_149);}.cls-8{fill:url(#Áåçûìÿííûé_ãðàäèåíò_80-2);}</style><linearGradient id="Áåçûìÿííûé_ãðàäèåíò_107" x1="1.23" y1="11.42" x2="1.23" gradientUnits="userSpaceOnUse"><stop offset="0" stop-color="#e77231"/><stop offset="0.99" stop-color="#9c3536"/></linearGradient><linearGradient id="Áåçûìÿííûé_ãðàäèåíò_107-2" x1="2.7" y1="15.68" x2="2.7" y2="10.79" xlink:href="#Áåçûìÿííûé_ãðàäèåíò_107"/><linearGradient id="Áåçûìÿííûé_ãðàäèåíò_80" x1="2.03" y1="11.92" x2="2.84" y2="11.92" gradientUnits="userSpaceOnUse"><stop offset="0" stop-color="#822717"/><stop offset="0.99" stop-color="#700c26"/></linearGradient><linearGradient id="Áåçûìÿííûé_ãðàäèåíò_149" x1="1.11" y1="10.48" x2="1.11" y2="0.91" gradientUnits="userSpaceOnUse"><stop offset="0" stop-color="#3ed477"/><stop offset="1"/></linearGradient><linearGradient id="Áåçûìÿííûé_ãðàäèåíò_80-2" x1="2.03" y1="10.77" x2="2.51" y2="10.77" xlink:href="#Áåçûìÿííûé_ãðàäèåíò_80"/></defs><g class="cls-1"><g id="Layer_2" data-name="Layer 2"><g id="witch"><path class="cls-2" d="M2.42,11l0-.22,0-.25L2,6.33l.11-.08V6L2,6.08H2l-.2-2.24L.54,0A.81.81,0,0,0,0,.85v0A.45.45,0,0,0,0,1L1.23,3.94,2,10.59l0,.39.05.44h.32Z"/><path class="cls-3" d="M2.42,11l-.33,0h0l0-.39.08-.08L1.65,3.94.25.58,0,.89H0v0A.81.81,0,0,1,.54,0L1.79,3.84l.59,6.7,0,.25Z"/><path class="cls-4" d="M4.08,15.31H3.94l-.18-1.39v1.56a3.55,3.55,0,0,1-1.48.16h0a1.16,1.16,0,0,1-.4-.16l-.35-1.41.18,1.41H1.56s0-.09,0-.23h0a7.34,7.34,0,0,1-.16-2.21,9.26,9.26,0,0,0,.71-1.12,2.38,2.38,0,0,1-.34-.65h0a.05.05,0,0,1,0,0L2,10.92H2l.07-.07.32-.06a1.67,1.67,0,0,1,.45.15,4.56,4.56,0,0,1,0,1L4,13A16.6,16.6,0,0,1,4.08,15.31Z"/><path class="cls-3" d="M4.08,15.31H3.94l-.18-1.39v1.56a3.55,3.55,0,0,1-1.48.16h0L2.05,13.5l.37,1.94h.32l0-1.26.17,1.17H3l-.13-2.42-.38-1,.19,0V11.3l-.34-.05v.67l-.12-.72-.48.08h0a.05.05,0,0,1,0,0l.36-.38.32-.06a1.67,1.67,0,0,1,.45.15,4.56,4.56,0,0,1,0,1L4,13A16.6,16.6,0,0,1,4.08,15.31Z"/><polygon class="cls-5" points="1.73 12.66 1.42 13.1 1.59 13.9 1.6 13.23 2.75 13.16 2.81 12.93 1.63 12.93 1.73 12.66"/><polygon class="cls-6" points="2.03 11.86 2.03 12 2.84 11.93 2.84 11.83 2.03 11.86"/><polygon class="cls-7" points="0.33 0.91 0.2 1.1 1.3 3.94 2.03 10.48 2 9.42 1.52 3.93 0.33 0.91"/><polygon class="cls-8" points="2.03 10.92 2.03 10.68 2.42 10.61 2.51 10.81 2.03 10.92"/></g></g></g></svg>