<svg xmlns="http://www.w3.org/2000/svg" xmlns:xlink="http://www.w3.org/1999/xlink" viewBox="0 0 3.22 5.75"><defs><style>.cls-1{isolation:isolate;}.cls-2{fill:url(#Áåçûìÿííûé_ãðàäèåíò_61);}.cls-3{fill:url(#Áåçûìÿííûé_ãðàäèåíò_61-2);}.cls-4{fill:url(#Áåçûìÿííûé_ãðàäèåíò_3);}.cls-5{fill:url(#Áåçûìÿííûé_ãðàäèåíò_3-2);}.cls-6{fill:url(#Áåçûìÿííûé_ãðàäèåíò_3-3);}.cls-7{fill:#fff;mix-blend-mode:soft-light;}.cls-8{fill:#797f9d;opacity:0.44;}.cls-10,.cls-8,.cls-9{mix-blend-mode:multiply;}.cls-9{fill:#8d0013;opacity:0.19;}.cls-10{fill:#bd6f95;opacity:0.54;}</style><linearGradient id="Áåçûìÿííûé_ãðàäèåíò_61" x1="0.26" y1="0.88" x2="1.26" y2="0.88" gradientUnits="userSpaceOnUse"><stop offset="0" stop-color="#f6e5b8"/><stop offset="1" stop-color="#fff7bf"/></linearGradient><linearGradient id="Áåçûìÿííûé_ãðàäèåíò_61-2" x1="0.52" y1="0.26" x2="0.76" y2="0.26" xlink:href="#Áåçûìÿííûé_ãðàäèåíò_61"/><linearGradient id="Áåçûìÿííûé_ãðàäèåíò_3" x1="0.78" y1="5.09" x2="0.97" y2="4.46" gradientUnits="userSpaceOnUse"><stop offset="0.05" stop-color="#c0c9b9"/><stop offset="0.54" stop-color="#8b9aaa"/><stop offset="1" stop-color="#afd6c5"/></linearGradient><linearGradient id="Áåçûìÿííûé_ãðàäèåíò_3-2" x1="0.41" y1="4.46" x2="1.12" y2="1.98" xlink:href="#Áåçûìÿííûé_ãðàäèåíò_3"/><linearGradient id="Áåçûìÿííûé_ãðàäèåíò_3-3" x1="0.61" y1="2" x2="0.83" y2="1.22" xlink:href="#Áåçûìÿííûé_ãðàäèåíò_3"/></defs><g class="cls-1"><g id="Layer_2" data-name="Layer 2"><g id="witch"><polygon class="cls-2" points="0.33 1.37 0.26 0.44 1.26 0.4 1.21 1.37 0.33 1.37"/><polygon class="cls-3" points="0.7 0.51 0.52 0 0.58 0 0.76 0.46 0.7 0.51"/><polygon class="cls-4" points="0 4.87 1.7 4.87 1.26 4.54 0.44 4.54 0 4.87"/><polygon class="cls-5" points="0.68 4.54 0.39 2.58 0.59 1.93 0.94 1.93 1.13 2.58 0.95 4.54 0.68 4.54"/><polygon class="cls-6" points="0.17 1.37 0.24 1.88 0.57 1.99 0.96 1.99 1.27 1.87 1.36 1.37 0.17 1.37"/><polygon class="cls-7" points="0.28 1.82 0.55 1.82 0.52 1.42 1.3 1.4 0.23 1.4 0.28 1.82"/><polygon class="cls-7" points="0.6 2.03 0.42 2.57 0.71 4.44 0.51 2.62 0.99 2.56 0.89 2.03 0.6 2.03"/><polygon class="cls-7" points="0.07 4.85 0.45 4.57 1.24 4.57 1.5 4.77 1.23 4.61 0.39 4.77 0.34 4.85 0.07 4.85"/><polygon class="cls-8" points="0.24 1.88 0.59 1.96 0.99 1.84 1.05 1.42 1.3 1.42 1.23 1.85 0.94 1.98 0.57 1.99 0.24 1.88"/><polygon class="cls-8" points="0.95 2.04 1.09 2.59 0.92 4.54 0.68 4.54 0.8 4.49 0.76 3.23 0.95 3.21 1.05 2.56 0.95 2.04"/><polygon class="cls-8" points="1.19 4.71 1.3 4.87 1.5 4.87 1.29 4.71 1.19 4.71"/><polygon class="cls-9" points="0.86 0.47 1.17 0.47 1.13 1.32 0.42 1.32 0.89 1.29 0.86 0.47"/><polygon class="cls-10" points="0 4.87 1.87 5.73 3.21 5.75 1.7 4.87 0 4.87"/></g></g></g></svg>