<svg xmlns="http://www.w3.org/2000/svg" xmlns:xlink="http://www.w3.org/1999/xlink" viewBox="0 0 23.69 6.3"><defs><style>.cls-1{isolation:isolate;}.cls-2,.cls-6{fill:#bd6f95;mix-blend-mode:multiply;}.cls-2{opacity:0.68;}.cls-3{fill:url(#Áåçûìÿííûé_ãðàäèåíò_41);}.cls-4{fill:url(#Áåçûìÿííûé_ãðàäèåíò_110);}.cls-5{fill:url(#Áåçûìÿííûé_ãðàäèåíò_39);}.cls-6{opacity:0.54;}.cls-7{fill:#42153b;}.cls-10,.cls-11,.cls-12,.cls-17,.cls-18,.cls-8,.cls-9{mix-blend-mode:color-dodge;}.cls-8{fill:url(#Áåçûìÿííûé_ãðàäèåíò_25);}.cls-9{fill:url(#Áåçûìÿííûé_ãðàäèåíò_26);}.cls-10{fill:url(#Áåçûìÿííûé_ãðàäèåíò_26-2);}.cls-11,.cls-12,.cls-17{opacity:0.28;}.cls-11{fill:url(#Áåçûìÿííûé_ãðàäèåíò_25-2);}.cls-12{fill:url(#Áåçûìÿííûé_ãðàäèåíò_25-3);}.cls-13{fill:#fff;opacity:0.59;mix-blend-mode:soft-light;}.cls-14{fill:url(#Áåçûìÿííûé_ãðàäèåíò_39-2);}.cls-15{fill:url(#Áåçûìÿííûé_ãðàäèåíò_39-3);}.cls-16{fill:url(#Áåçûìÿííûé_ãðàäèåíò_42);}.cls-17{fill:url(#Áåçûìÿííûé_ãðàäèåíò_25-4);}.cls-18{fill:url(#Áåçûìÿííûé_ãðàäèåíò_26-3);}</style><linearGradient id="Áåçûìÿííûé_ãðàäèåíò_41" x1="1.85" y1="0.56" x2="21.16" y2="0.56" gradientUnits="userSpaceOnUse"><stop offset="0" stop-color="#c1919c"/><stop offset="1" stop-color="#d4778d"/></linearGradient><linearGradient id="Áåçûìÿííûé_ãðàäèåíò_110" x1="0.61" y1="2.03" x2="22.38" y2="2.03" gradientUnits="userSpaceOnUse"><stop offset="0" stop-color="#812853"/><stop offset="1" stop-color="#e14a59"/></linearGradient><linearGradient id="Áåçûìÿííûé_ãðàäèåíò_39" x1="0.61" y1="3.9" x2="22.38" y2="3.9" gradientUnits="userSpaceOnUse"><stop offset="0" stop-color="#97214a"/><stop offset="1" stop-color="#ac2853"/></linearGradient><linearGradient id="Áåçûìÿííûé_ãðàäèåíò_25" x1="2" y1="0.56" x2="18.07" y2="0.56" gradientUnits="userSpaceOnUse"><stop offset="0" stop-color="#898954"/><stop offset="1"/></linearGradient><linearGradient id="Áåçûìÿííûé_ãðàäèåíò_26" x1="1.85" y1="2.06" x2="18.19" y2="2.06" gradientUnits="userSpaceOnUse"><stop offset="0"/><stop offset="1" stop-color="#898954"/></linearGradient><linearGradient id="Áåçûìÿííûé_ãðàäèåíò_26-2" x1="18.16" y1="4.45" x2="18.4" y2="4.45" xlink:href="#Áåçûìÿííûé_ãðàäèåíò_26"/><linearGradient id="Áåçûìÿííûé_ãðàäèåíò_25-2" x1="1.08" y1="1.85" x2="12.69" y2="1.85" xlink:href="#Áåçûìÿííûé_ãðàäèåíò_25"/><linearGradient id="Áåçûìÿííûé_ãðàäèåíò_25-3" x1="1.08" y1="4.03" x2="11.92" y2="4.03" xlink:href="#Áåçûìÿííûé_ãðàäèåíò_25"/><linearGradient id="Áåçûìÿííûé_ãðàäèåíò_39-2" x1="10.12" y1="0.61" x2="18.78" y2="0.61" xlink:href="#Áåçûìÿííûé_ãðàäèåíò_39"/><linearGradient id="Áåçûìÿííûé_ãðàäèåíò_39-3" x1="16.7" y1="0.82" x2="16.7" y2="0.23" xlink:href="#Áåçûìÿííûé_ãðàäèåíò_39"/><linearGradient id="Áåçûìÿííûé_ãðàäèåíò_42" x1="1.27" y1="4.84" x2="22.2" y2="4.84" gradientUnits="userSpaceOnUse"><stop offset="0" stop-color="#e14a59"/><stop offset="1" stop-color="#812853"/></linearGradient><linearGradient id="Áåçûìÿííûé_ãðàäèåíò_25-4" x1="1.47" y1="5.02" x2="14.65" y2="5.02" xlink:href="#Áåçûìÿííûé_ãðàäèåíò_25"/><linearGradient id="Áåçûìÿííûé_ãðàäèåíò_26-3" x1="18.02" y1="5.47" x2="18.28" y2="5.47" xlink:href="#Áåçûìÿííûé_ãðàäèåíò_26"/></defs><g class="cls-1"><g id="Layer_2" data-name="Layer 2"><g id="witch"><polygon class="cls-2" points="1.89 4.64 0 5.6 19.82 6.3 23.69 4.64 21.57 4.03 1.89 4.64"/><polygon class="cls-3" points="1.85 0.97 2.66 0.58 17.38 0 21.16 0.52 17.8 1.12 1.85 0.97"/><polygon class="cls-4" points="1.85 0.97 0.6 2.98 18.09 3.55 22.38 2.45 21.16 0.52 17.8 1.12 1.85 0.97"/><polygon class="cls-5" points="0.6 2.98 2.08 4.89 18.23 5.35 21.66 4.36 22.38 2.45 18.25 3.26 0.6 2.98"/><polygon class="cls-6" points="17.8 1.12 18.19 3.15 0.74 2.76 0.6 2.98 18.25 3.26 22.38 2.45 21.16 0.52 17.8 1.12"/><polygon class="cls-6" points="0.74 3.16 18.4 3.55 18.23 5.35 21.66 4.36 22.38 2.45 18.25 3.26 0.6 2.98 0.74 3.16"/><polygon class="cls-7" points="0.6 2.98 18.25 3.26 22.38 2.45 22.37 2.48 18.27 3.32 0.67 3.05 0.6 2.98"/><polygon class="cls-8" points="2 0.92 17.3 1.12 18.07 0.09 17.38 0 2.66 0.58 2 0.92"/><polygon class="cls-9" points="1.85 0.97 17.74 1.18 18.19 3.15 17.8 1.12 1.85 0.97"/><polygon class="cls-10" points="18.4 3.55 18.16 5.35 18.23 5.35 18.4 3.55"/><polygon class="cls-11" points="1.08 2.59 1.89 1.12 12.69 1.54 11.69 2.36 1.08 2.59"/><polygon class="cls-12" points="2.16 4.8 1.08 3.26 11.92 3.97 11.4 4.75 2.16 4.8"/><polygon class="cls-6" points="0.6 2.98 5.59 2.94 6.15 2.03 5.8 2.97 11.3 3.06 11.3 2.62 11.43 3.06 15.29 3.15 15.38 2.03 15.56 3.04 17.4 3.07 17.18 1.76 17.8 3.25 0.6 2.98"/><polygon class="cls-6" points="18.27 3.32 0.67 3.05 2.08 4.89 1.02 3.25 10.14 3.29 10.26 3.97 10.28 3.29 16.11 3.32 16.25 4.04 16.38 3.39 18.4 3.32 20.98 2.83 20.93 4.17 21.24 2.74 22.34 2.56 22.38 2.45 18.27 3.32"/><polygon class="cls-13" points="21.16 0.52 20.56 0.82 20.38 0.71 19.35 0.89 19.27 1.04 19.13 0.97 17.81 1.19 9.33 1.07 8.96 1.19 8.6 1.06 5.28 1.01 4.79 1.12 4.67 1.06 1.85 0.97 17.8 1.12 21.16 0.52"/><polygon class="cls-7" points="21.66 4.36 21.53 4.47 18.16 5.47 2.33 5.01 2.08 4.89 18.23 5.35 21.66 4.36"/><polygon class="cls-14" points="18.61 0.56 10.27 0.56 10.12 0.66 18.78 0.61 18.61 0.56"/><polygon class="cls-15" points="16.61 0.24 16.5 0.82 16.89 0.82 16.7 0.23 16.61 0.24"/><polygon class="cls-16" points="1.76 4.47 1.26 5.05 18.28 5.72 22.2 4.33 21.8 3.97 18.28 5.06 1.76 4.47"/><polygon class="cls-17" points="1.47 5 1.85 4.54 14.18 5 14.65 5.5 1.47 5"/><polygon class="cls-6" points="1.76 4.47 18.16 5.24 18.28 5.72 22.2 4.33 21.8 3.97 18.28 5.06 1.76 4.47"/><polygon class="cls-7" points="22.2 4.33 22.2 4.41 18.28 5.83 1.26 5.13 1.26 5.05 18.28 5.72 22.2 4.33"/><polygon class="cls-18" points="18.02 5.23 18.28 5.72 18.16 5.24 18.02 5.23"/><polygon class="cls-13" points="1.26 5.05 9.44 5.3 9.61 5.21 10.38 5.35 15.86 5.6 16.02 5.35 16.12 5.56 18.28 5.72 1.26 5.05"/></g></g></g></svg>