<svg xmlns="http://www.w3.org/2000/svg" xmlns:xlink="http://www.w3.org/1999/xlink" viewBox="0 0 1.26 2.12"><defs><style>.cls-1{mask:url(#mask);filter:url(#luminosity-noclip-3);}.cls-2,.cls-4,.cls-9{mix-blend-mode:multiply;}.cls-2{fill:url(#Áåçûìÿííûé_ãðàäèåíò_216);}.cls-3{mask:url(#mask-2);filter:url(#luminosity-noclip-4);}.cls-4{fill:url(#Áåçûìÿííûé_ãðàäèåíò_216-2);}.cls-5{isolation:isolate;}.cls-6{mask:url(#mask-3);}.cls-13,.cls-7{opacity:0.5;}.cls-7{fill:url(#Áåçûìÿííûé_ãðàäèåíò_132);}.cls-8{fill:url(#Áåçûìÿííûé_ãðàäèåíò_107);}.cls-9{fill:#bd6f95;opacity:0.65;}.cls-10{fill:url(#Áåçûìÿííûé_ãðàäèåíò_107-2);}.cls-11{fill:#fff;opacity:0.53;mix-blend-mode:soft-light;}.cls-12{mask:url(#mask-4);}.cls-13{fill:url(#Áåçûìÿííûé_ãðàäèåíò_132-2);}.cls-14{fill:url(#Áåçûìÿííûé_ãðàäèåíò_121);}.cls-15,.cls-16,.cls-17,.cls-18{opacity:0.8;mix-blend-mode:color-dodge;}.cls-15{fill:url(#Áåçûìÿííûé_ãðàäèåíò_117);}.cls-16{fill:url(#Áåçûìÿííûé_ãðàäèåíò_117-2);}.cls-17{fill:url(#Áåçûìÿííûé_ãðàäèåíò_117-3);}.cls-18{fill:url(#Áåçûìÿííûé_ãðàäèåíò_117-4);}.cls-19{filter:url(#luminosity-noclip-2);}.cls-20{filter:url(#luminosity-noclip);}</style><filter id="luminosity-noclip" x="0" y="-8208.38" width="1.26" height="32766" filterUnits="userSpaceOnUse" color-interpolation-filters="sRGB"><feFlood flood-color="#fff" result="bg"/><feBlend in="SourceGraphic" in2="bg"/></filter><mask id="mask" x="0" y="-8208.38" width="1.26" height="32766" maskUnits="userSpaceOnUse"><g class="cls-20"/></mask><linearGradient id="Áåçûìÿííûé_ãðàäèåíò_216" x1="0.63" y1="2.12" x2="0.63" y2="0.23" gradientUnits="userSpaceOnUse"><stop offset="0" stop-color="gray"/><stop offset="1" stop-color="#fff"/></linearGradient><filter id="luminosity-noclip-2" x="0.05" y="-8208.38" width="1.16" height="32766" filterUnits="userSpaceOnUse" color-interpolation-filters="sRGB"><feFlood flood-color="#fff" result="bg"/><feBlend in="SourceGraphic" in2="bg"/></filter><mask id="mask-2" x="0.05" y="-8208.38" width="1.16" height="32766" maskUnits="userSpaceOnUse"><g class="cls-19"/></mask><linearGradient id="Áåçûìÿííûé_ãðàäèåíò_216-2" x1="0.63" y1="2.12" x2="0.63" y2="0.25" xlink:href="#Áåçûìÿííûé_ãðàäèåíò_216"/><filter id="luminosity-noclip-3" x="0" y="0.23" width="1.26" height="1.89" filterUnits="userSpaceOnUse" color-interpolation-filters="sRGB"><feFlood flood-color="#fff" result="bg"/><feBlend in="SourceGraphic" in2="bg"/></filter><mask id="mask-3" x="0" y="0.23" width="1.26" height="1.89" maskUnits="userSpaceOnUse"><g class="cls-1"><path class="cls-2" d="M1.26,1.49A.62.62,0,0,0,.78.88L.9.23H.36L.44.89A.62.62,0,0,0,.32,2h0l-.06.09H.94l0-.06h0A.63.63,0,0,0,1.26,1.49Z"/></g></mask><linearGradient id="Áåçûìÿííûé_ãðàäèåíò_132" x1="0.63" y1="2.12" x2="0.63" y2="0.23" gradientUnits="userSpaceOnUse"><stop offset="0" stop-color="#cfffe8"/><stop offset="1" stop-color="#4aefb1"/></linearGradient><linearGradient id="Áåçûìÿííûé_ãðàäèåíò_107" x1="0.62" y1="0.45" x2="0.62" y2="0.09" gradientUnits="userSpaceOnUse"><stop offset="0" stop-color="#e77231"/><stop offset="0.99" stop-color="#9c3536"/></linearGradient><linearGradient id="Áåçûìÿííûé_ãðàäèåíò_107-2" x1="0.63" y1="0.15" x2="0.63" y2="0" xlink:href="#Áåçûìÿííûé_ãðàäèåíò_107"/><filter id="luminosity-noclip-4" x="0.05" y="0.25" width="1.16" height="1.87" filterUnits="userSpaceOnUse" color-interpolation-filters="sRGB"><feFlood flood-color="#fff" result="bg"/><feBlend in="SourceGraphic" in2="bg"/></filter><mask id="mask-4" x="0.05" y="0.25" width="1.16" height="1.87" maskUnits="userSpaceOnUse"><g class="cls-3"><path class="cls-4" d="M1.21,1.5v.06a.65.65,0,0,1-.34.5h0l0,.06H.29L.34,2a.61.61,0,0,1-.29-.47V1.5A.64.64,0,0,1,.45.9L.38.25h.5L.77.89A.63.63,0,0,1,1.21,1.5Z"/></g></mask><linearGradient id="Áåçûìÿííûé_ãðàäèåíò_132-2" x1="0.63" y1="2.12" x2="0.63" y2="0.25" xlink:href="#Áåçûìÿííûé_ãðàäèåíò_132"/><linearGradient id="Áåçûìÿííûé_ãðàäèåíò_121" x1="0.63" y1="2.06" x2="0.63" y2="1.56" gradientUnits="userSpaceOnUse"><stop offset="0" stop-color="#f48ba9"/><stop offset="1" stop-color="#ff1591"/></linearGradient><linearGradient id="Áåçûìÿííûé_ãðàäèåíò_117" x1="0.74" y1="0.9" x2="0.74" y2="0.27" gradientUnits="userSpaceOnUse"><stop offset="0"/><stop offset="1" stop-color="#3ed477"/></linearGradient><linearGradient id="Áåçûìÿííûé_ãðàäèåíò_117-2" x1="0.45" y1="0.9" x2="0.45" y2="0.26" xlink:href="#Áåçûìÿííûé_ãðàäèåíò_117"/><linearGradient id="Áåçûìÿííûé_ãðàäèåíò_117-3" x1="0.87" y1="1.98" x2="0.87" y2="0.97" xlink:href="#Áåçûìÿííûé_ãðàäèåíò_117"/><linearGradient id="Áåçûìÿííûé_ãðàäèåíò_117-4" x1="0.22" y1="2.02" x2="0.22" y2="1.39" xlink:href="#Áåçûìÿííûé_ãðàäèåíò_117"/></defs><g class="cls-5"><g id="Layer_2" data-name="Layer 2"><g id="witch"><g class="cls-6"><path class="cls-7" d="M1.26,1.49A.62.62,0,0,0,.78.88L.9.23H.36L.44.89A.62.62,0,0,0,.32,2h0l-.06.09H.94l0-.06h0A.63.63,0,0,0,1.26,1.49Z"/></g><polygon class="cls-8" points="0.4 0.45 0.37 0.09 0.88 0.13 0.84 0.45 0.4 0.45"/><polygon class="cls-9" points="0.88 0.17 0.47 0.21 0.47 0.45 0.4 0.45 0.37 0.09 0.88 0.13 0.88 0.17"/><polygon class="cls-10" points="0.31 0 0.35 0.15 0.91 0.15 0.94 0 0.31 0"/><polygon class="cls-11" points="0.33 0.01 0.92 0.02 0.88 0.14 0.72 0.14 0.72 0.04 0.33 0.01"/><g class="cls-12"><path class="cls-13" d="M1.21,1.5v.06a.65.65,0,0,1-.34.5h0l0,.06H.29L.34,2a.61.61,0,0,1-.29-.47V1.5A.64.64,0,0,1,.45.9L.38.25h.5L.77.89A.63.63,0,0,1,1.21,1.5Z"/></g><path class="cls-14" d="M1.21,1.56a.65.65,0,0,1-.34.5L.34,2a.61.61,0,0,1-.29-.47Z"/><polygon class="cls-15" points="0.7 0.27 0.83 0.27 0.73 0.9 0.66 0.9 0.7 0.27"/><polygon class="cls-16" points="0.4 0.27 0.47 0.9 0.49 0.9 0.45 0.26 0.4 0.27"/><path class="cls-17" d="M.63,1,.88,1A.76.76,0,0,1,.94,2H.86A1.14,1.14,0,0,0,.63,1Z"/><path class="cls-18" d="M.18,1.39H.08A.75.75,0,0,0,.37,2,.7.7,0,0,1,.18,1.39Z"/><path class="cls-11" d="M.66,1.77a.08.08,0,0,1-.08.09.09.09,0,0,1,0-.18A.08.08,0,0,1,.66,1.77Z"/><path class="cls-11" d="M.74,1.64a0,0,0,0,1,0,0,0,0,0,0,1,0,0,0,0,0,0,1,0,0A0,0,0,0,1,.7,1.64Z"/><circle class="cls-11" cx="0.79" cy="1.91" r="0.05"/></g></g></g></svg>