<svg xmlns="http://www.w3.org/2000/svg" xmlns:xlink="http://www.w3.org/1999/xlink" viewBox="0 0 6.73 9.52"><defs><style>.cls-1{isolation:isolate;}.cls-2{fill:#bd6f95;opacity:0.65;mix-blend-mode:multiply;}.cls-3{fill:url(#Áåçûìÿííûé_ãðàäèåíò_80);}.cls-4{fill:url(#Áåçûìÿííûé_ãðàäèåíò_44);}.cls-5{fill:#fff;opacity:0.73;mix-blend-mode:soft-light;}.cls-6{fill:#897588;}</style><linearGradient id="Áåçûìÿííûé_ãðàäèåíò_80" x1="0.2" y1="4.86" x2="6.52" y2="4.86" gradientUnits="userSpaceOnUse"><stop offset="0" stop-color="#822717"/><stop offset="0.99" stop-color="#700c26"/></linearGradient><linearGradient id="Áåçûìÿííûé_ãðàäèåíò_44" x1="3.45" y1="9.13" x2="3.45" y2="0.7" gradientUnits="userSpaceOnUse"><stop offset="0" stop-color="#3b1d40"/><stop offset="1" stop-color="#271b31"/></linearGradient></defs><g class="cls-1"><g id="Layer_2" data-name="Layer 2"><g id="witch"><polygon class="cls-2" points="0 0.26 0.23 9.52 6.46 9.5 6.73 0.65 6.52 0 0 0.26"/><polygon class="cls-3" points="0.2 0.42 0.62 9.39 6.18 9.35 6.52 0.33 0.2 0.42"/><polygon class="cls-4" points="1.03 9.07 5.75 9.13 6.12 0.7 0.78 0.7 1.03 9.07"/><polygon class="cls-2" points="1.03 9.07 1.13 9.06 1.02 0.89 5.74 1.04 5.68 9.13 5.75 9.13 6.12 0.7 0.78 0.7 1.03 9.07"/><polygon class="cls-5" points="0.25 0.49 0.55 6.27 0.85 6.15 0.71 0.65 0.25 0.49"/><polygon class="cls-5" points="0.55 6.33 0.6 7.6 0.91 7.36 0.85 6.25 0.55 6.33"/><polygon class="cls-2" points="0.62 9.39 6.08 9.29 6.42 0.48 6.52 0.33 6.18 9.35 0.62 9.39"/><polygon class="cls-2" points="1.03 9.07 0.78 0.7 6.12 0.7 5.76 9.16 6.2 0.7 0.71 0.65 1.03 9.07"/><polygon class="cls-2" points="1.03 9.07 2.49 9 2.66 7.97 2.76 8.86 4.56 8.86 4.63 4.14 4.91 8.93 5.75 9.13 1.03 9.07"/><path class="cls-6" d="M3.47,5.41a1.61,1.61,0,1,1,1.61-1.6A1.61,1.61,0,0,1,3.47,5.41Zm0-3.15A1.55,1.55,0,1,0,5,3.81,1.55,1.55,0,0,0,3.47,2.26Z"/><path class="cls-6" d="M3.47,5.1A1.3,1.3,0,1,1,4.76,3.81,1.29,1.29,0,0,1,3.47,5.1Zm0-2.54A1.25,1.25,0,1,0,4.71,3.81,1.24,1.24,0,0,0,3.47,2.56Z"/><path class="cls-6" d="M2.42,5.5h0s0,0,0,0L3,3.69,1.46,3.07a0,0,0,0,1,0,0l0,0,1.85-.39.24-.73a0,0,0,0,1,0,0,0,0,0,0,1,0,0L4,2.49l.89-.18s0,0,0,0a0,0,0,0,1,0,0l-.56.72.89,1.48a0,0,0,0,1,0,0h0L3.62,4,2.44,5.49ZM3,3.71,2.49,5.34l1.08-1.4Zm.63.2,1.46.6L4.27,3.12ZM3,3.66l.58.23.63-.82-.31-.52-.58.12Zm-1.48-.6L3,3.64l.31-1ZM4,2.54l.3.49.5-.66ZM3.58,2l-.21.65.53-.11Z"/><rect class="cls-6" x="1.68" y="6.61" width="3.49" height="0.05"/><rect class="cls-6" x="3.66" y="5.43" width="0.05" height="2.97" transform="translate(-3.25 10.57) rotate(-89.67)"/><rect class="cls-6" x="1.47" y="8.02" width="3.71" height="0.05" transform="translate(-0.3 0.13) rotate(-2.17)"/></g></g></g></svg>