<svg xmlns="http://www.w3.org/2000/svg" xmlns:xlink="http://www.w3.org/1999/xlink" viewBox="0 0 2.47 3.32"><defs><style>.cls-1{isolation:isolate;}.cls-2{fill:url(#Áåçûìÿííûé_ãðàäèåíò_20);}.cls-3{fill:url(#Áåçûìÿííûé_ãðàäèåíò_20-2);}.cls-4{fill:url(#Áåçûìÿííûé_ãðàäèåíò_147);}.cls-5,.cls-9{fill:#fff;}.cls-10,.cls-5{mix-blend-mode:soft-light;}.cls-6,.cls-7{opacity:0.39;}.cls-6{fill:url(#Áåçûìÿííûé_ãðàäèåíò_259);}.cls-8{fill:#c6004c;}.cls-10{fill:#f1e4dc;opacity:0.4;}.cls-11,.cls-12{mix-blend-mode:color-dodge;}.cls-11{fill:url(#Áåçûìÿííûé_ãðàäèåíò_251);}.cls-12{fill:url(#Áåçûìÿííûé_ãðàäèåíò_251-2);}</style><linearGradient id="Áåçûìÿííûé_ãðàäèåíò_20" x1="0.17" y1="3.25" x2="1.98" y2="3.25" gradientUnits="userSpaceOnUse"><stop offset="0" stop-color="#f3d5c9"/><stop offset="1" stop-color="#f3ccad"/></linearGradient><linearGradient id="Áåçûìÿííûé_ãðàäèåíò_20-2" x1="0.83" y1="2.92" x2="1.42" y2="2.92" xlink:href="#Áåçûìÿííûé_ãðàäèåíò_20"/><linearGradient id="Áåçûìÿííûé_ãðàäèåíò_147" x1="0.03" y1="1.45" x2="2.47" y2="1.45" gradientUnits="userSpaceOnUse"><stop offset="0" stop-color="#e90088"/><stop offset="1" stop-color="#de3129"/></linearGradient><radialGradient id="Áåçûìÿííûé_ãðàäèåíò_259" cx="1.25" cy="1.45" r="0.22" gradientUnits="userSpaceOnUse"><stop offset="0" stop-color="#ee666d"/><stop offset="1" stop-color="#910025"/></radialGradient><radialGradient id="Áåçûìÿííûé_ãðàäèåíò_251" cx="-24.27" cy="-115.72" r="0.2" gradientTransform="matrix(3.98, -0.17, 0.11, 2.49, 110.48, 286.5)" gradientUnits="userSpaceOnUse"><stop offset="0" stop-color="#333b00"/><stop offset="0.26" stop-color="#2f3700"/><stop offset="0.52" stop-color="#252b00"/><stop offset="0.79" stop-color="#131600"/><stop offset="1"/></radialGradient><radialGradient id="Áåçûìÿííûé_ãðàäèåíò_251-2" cx="8.59" cy="-161.13" r="0.2" gradientTransform="matrix(2.59, -3.29, 2.56, 2.02, 390.45, 353.99)" xlink:href="#Áåçûìÿííûé_ãðàäèåíò_251"/></defs><g class="cls-1"><g id="Layer_2" data-name="Layer 2"><g id="witch"><path class="cls-2" d="M2,3.25a2.89,2.89,0,0,1-.9.07,3,3,0,0,1-.91-.07,2.8,2.8,0,0,1,.91-.08A2.71,2.71,0,0,1,2,3.25Z"/><polygon class="cls-3" points="0.83 3.25 1.01 2.6 1.36 2.63 1.42 3.25 0.83 3.25"/><path class="cls-4" d="M2.47,1.45A1.22,1.22,0,0,1,0,1.45a1.21,1.21,0,0,1,0-.19,1.22,1.22,0,0,1,2.43.14Z"/><path class="cls-5" d="M.29,2.21A1.22,1.22,0,1,0,2.21.69S2.29,2.82.29,2.21Z"/><path class="cls-6" d="M1.47,1.45a.22.22,0,1,1-.22-.22A.22.22,0,0,1,1.47,1.45Z"/><g class="cls-7"><path class="cls-8" d="M1.47,1.41v0a2.19,2.19,0,0,1,.59-.2c.15,0,.3-.25.3-.25h0s-.15.27-.32.27A2.5,2.5,0,0,0,1.47,1.41Z"/></g><g class="cls-7"><path class="cls-8" d="M1.43,1.32l0,0A3.23,3.23,0,0,1,1.76.89.73.73,0,0,0,1.94.45H2a.74.74,0,0,1-.19.46A4.55,4.55,0,0,0,1.43,1.32Z"/></g><g class="cls-7"><path class="cls-8" d="M1.28,1.24a.32.32,0,0,1,0-.37C1.45.7,1.21.24,1.2.24l0,0s.26.48.11.67a.29.29,0,0,0,0,.34Z"/></g><g class="cls-7"><path class="cls-8" d="M.14,1.92h0a1.15,1.15,0,0,1,.33-.34A1.39,1.39,0,0,1,1,1.48v0a1.46,1.46,0,0,0-.58.08A1.1,1.1,0,0,0,.14,1.92Z"/></g><g class="cls-7"><path class="cls-8" d="M.75,2.56h0a1.72,1.72,0,0,1,.22-.64,3,3,0,0,0,.21-.25h0A1.44,1.44,0,0,1,1,1.93,1.9,1.9,0,0,0,.75,2.56Z"/></g><g class="cls-7"><path class="cls-8" d="M1.66,2.61S1.32,2.16,1.4,2s-.11-.28-.11-.29v0s.22.12.13.32.25.61.25.62Z"/></g><g class="cls-7"><path class="cls-8" d="M2.36,2A1,1,0,0,1,1.9,1.8a1.1,1.1,0,0,0-.32-.25H1.45v0h.13a1.06,1.06,0,0,1,.35.26.87.87,0,0,0,.43.16Z"/></g><g class="cls-7"><path class="cls-8" d="M1.07,1.31a.26.26,0,0,0-.18-.06C.75,1.25.68,1.1.63,1S.28.9.16.91v0S.6.83.66,1s.12.25.23.25a.29.29,0,0,1,.2.06Z"/></g><path class="cls-9" d="M.82,1c-.11.2-.31.3-.43.23S.26,1,.38.77.69.46.81.54.94.83.82,1Z"/><path class="cls-10" d="M2.15,2.21c-.09.13-.22.19-.3.14s-.08-.21,0-.34.22-.19.3-.14S2.24,2.08,2.15,2.21Z"/><path class="cls-9" d="M.49,1.57c0,.11,0,.21-.11.22s-.13-.08-.14-.2,0-.21.1-.22S.48,1.45.49,1.57Z"/><path class="cls-11" d="M2.08,2.2c0,.28-.34.52-.78.54S.49,2.55.47,2.27s.34-.52.79-.54S2.07,1.93,2.08,2.2Z"/><path class="cls-12" d="M1.26.12a.77.77,0,0,1,0,1.07.77.77,0,0,1-1,.25A.77.77,0,0,1,.22.37.76.76,0,0,1,1.26.12Z"/></g></g></g></svg>