<svg xmlns="http://www.w3.org/2000/svg" xmlns:xlink="http://www.w3.org/1999/xlink" viewBox="0 0 2.27 4.03"><defs><style>.cls-1{isolation:isolate;}.cls-2{fill:url(#Áåçûìÿííûé_ãðàäèåíò_100);}.cls-3{fill:#fff;opacity:0.68;mix-blend-mode:soft-light;}.cls-4{fill:#81008b;opacity:0.11;}.cls-4,.cls-6{mix-blend-mode:multiply;}.cls-5{fill:url(#Áåçûìÿííûé_ãðàäèåíò_44);}.cls-6{fill:#bd6f95;opacity:0.54;}</style><linearGradient id="Áåçûìÿííûé_ãðàäèåíò_100" x1="0.38" y1="3.22" x2="2.05" y2="3.22" gradientUnits="userSpaceOnUse"><stop offset="0" stop-color="#ee666d"/><stop offset="1" stop-color="#910025"/></linearGradient><linearGradient id="Áåçûìÿííûé_ãðàäèåíò_44" x1="1.13" y1="2.41" x2="1.13" gradientUnits="userSpaceOnUse"><stop offset="0" stop-color="#3b1d40"/><stop offset="1" stop-color="#271b31"/></linearGradient></defs><g class="cls-1"><g id="Layer_2" data-name="Layer 2"><g id="witch"><path class="cls-2" d="M1.84,4A3.16,3.16,0,0,0,2,2.41H.41A3.64,3.64,0,0,0,.6,4Z"/><path class="cls-3" d="M1.69,2.42l-1.14,0A3.23,3.23,0,0,0,.74,4H.91A2.92,2.92,0,0,1,.8,2.47Z"/><path class="cls-4" d="M1.94,2.47A2.82,2.82,0,0,1,1.78,4l-.11,0a3.8,3.8,0,0,0,0-1.43Z"/><path class="cls-5" d="M2.27.49s-.15.6-.15.65a8.87,8.87,0,0,1-.75.66l.07.61H1l.12-.61L.38,1.6.24,1.34l-.11-.2V1.07L0,.93a1.74,1.74,0,0,1,.31.18s0,.2,0,.2.13.14.2.14a1.44,1.44,0,0,0,.39-.24A2.07,2.07,0,0,0,1,.79S.84.47.87.38l0-.09,0-.23s.28.74.28.79V1.1L1.46.78a1.2,1.2,0,0,1,0-.47A.39.39,0,0,1,1.57.18L1.64,0,1.55.93l-.13.2L1.74,1a2,2,0,0,1,0-.6c.06-.12.13-.11.13-.11l0-.17S1.85,1,1.85,1s-.16.22-.16.22L2,1.14a1.27,1.27,0,0,1,0-.44A.19.19,0,0,1,2.2.61Z"/><path class="cls-6" d="M1.18,1.75l-.07.66H1l.12-.61L.38,1.6.24,1.34h0s.18.23.21.23Z"/></g></g></g></svg>