<svg xmlns="http://www.w3.org/2000/svg" xmlns:xlink="http://www.w3.org/1999/xlink" viewBox="0 0 5.65 8.89"><defs><style>.cls-1{isolation:isolate;}.cls-2{fill:url(#Áåçûìÿííûé_ãðàäèåíò_181);}.cls-3{fill:url(#Áåçûìÿííûé_ãðàäèåíò_119);}.cls-4{fill:url(#Áåçûìÿííûé_ãðàäèåíò_225);}.cls-5{fill:#797f9d;opacity:0.44;}.cls-31,.cls-5{mix-blend-mode:multiply;}.cls-6{fill:url(#Áåçûìÿííûé_ãðàäèåíò_181-2);}.cls-7{fill:url(#Áåçûìÿííûé_ãðàäèåíò_181-3);}.cls-8{fill:url(#Áåçûìÿííûé_ãðàäèåíò_181-4);}.cls-9{fill:url(#Áåçûìÿííûé_ãðàäèåíò_181-5);}.cls-10{fill:url(#Áåçûìÿííûé_ãðàäèåíò_181-6);}.cls-11{fill:url(#Áåçûìÿííûé_ãðàäèåíò_181-7);}.cls-12{fill:url(#Áåçûìÿííûé_ãðàäèåíò_181-8);}.cls-13{fill:url(#Áåçûìÿííûé_ãðàäèåíò_181-9);}.cls-14{fill:url(#Áåçûìÿííûé_ãðàäèåíò_181-10);}.cls-15{fill:url(#Áåçûìÿííûé_ãðàäèåíò_119-2);}.cls-16{fill:#fff;mix-blend-mode:soft-light;}.cls-17{fill:url(#Áåçûìÿííûé_ãðàäèåíò_119-3);}.cls-18{fill:url(#Áåçûìÿííûé_ãðàäèåíò_119-4);}.cls-19{fill:url(#Áåçûìÿííûé_ãðàäèåíò_181-11);}.cls-20{fill:url(#Áåçûìÿííûé_ãðàäèåíò_181-12);}.cls-21{fill:url(#Áåçûìÿííûé_ãðàäèåíò_181-13);}.cls-22{fill:url(#Áåçûìÿííûé_ãðàäèåíò_181-14);}.cls-23{fill:url(#Áåçûìÿííûé_ãðàäèåíò_181-15);}.cls-24{fill:url(#Áåçûìÿííûé_ãðàäèåíò_181-16);}.cls-25{fill:url(#Áåçûìÿííûé_ãðàäèåíò_181-17);}.cls-26{fill:url(#Áåçûìÿííûé_ãðàäèåíò_181-18);}.cls-27{fill:url(#Áåçûìÿííûé_ãðàäèåíò_181-19);}.cls-28{fill:url(#Áåçûìÿííûé_ãðàäèåíò_119-5);}.cls-29{fill:url(#Áåçûìÿííûé_ãðàäèåíò_119-6);}.cls-30{fill:url(#Áåçûìÿííûé_ãðàäèåíò_119-7);}.cls-31{fill:#cd90ac;opacity:0.73;}</style><linearGradient id="Áåçûìÿííûé_ãðàäèåíò_181" x1="-26.25" y1="-34.32" x2="-22.2" y2="-34.32" gradientTransform="matrix(1.33, -0.2, 0.19, 1.28, 41.66, 43.84)" gradientUnits="userSpaceOnUse"><stop offset="0" stop-color="#812f22"/><stop offset="1" stop-color="#681815"/></linearGradient><radialGradient id="Áåçûìÿííûé_ãðàäèåíò_119" cx="-25.98" cy="-28.76" r="2.77" gradientTransform="matrix(1.33, -0.2, 0.16, 1.09, 39.7, 29.01)" gradientUnits="userSpaceOnUse"><stop offset="0" stop-color="#b3592c"/><stop offset="1" stop-color="#812f22"/></radialGradient><linearGradient id="Áåçûìÿííûé_ãðàäèåíò_225" x1="1.79" y1="3.05" x2="4.42" y2="6.09" gradientTransform="matrix(0.99, -0.15, 0.15, 0.99, -1.01, 0.42)" gradientUnits="userSpaceOnUse"><stop offset="0" stop-color="#f1ddd5"/><stop offset="0.67" stop-color="#8b9aaa"/><stop offset="1" stop-color="#9fc5db"/></linearGradient><linearGradient id="Áåçûìÿííûé_ãðàäèåíò_181-2" x1="2.73" y1="1.12" x2="3.73" y2="1.12" gradientTransform="matrix(0.99, -0.15, 0.15, 0.99, -1.01, 0.42)" xlink:href="#Áåçûìÿííûé_ãðàäèåíò_181"/><linearGradient id="Áåçûìÿííûé_ãðàäèåíò_181-3" x1="-61.61" y1="16.2" x2="-61.02" y2="16.2" gradientTransform="matrix(0.89, -0.45, 0.45, 0.89, 48.96, -40.46)" xlink:href="#Áåçûìÿííûé_ãðàäèåíò_181"/><linearGradient id="Áåçûìÿííûé_ãðàäèåíò_181-4" x1="74.86" y1="-28.79" x2="75.43" y2="-28.79" gradientTransform="matrix(0.95, 0.31, -0.31, 0.95, -77.04, 5.35)" xlink:href="#Áåçûìÿííûé_ãðàäèåíò_181"/><linearGradient id="Áåçûìÿííûé_ãðàäèåíò_181-5" x1="4.34" y1="1.07" x2="4.44" y2="1.12" gradientTransform="matrix(0.99, -0.15, 0.15, 0.99, -1.01, 0.42)" xlink:href="#Áåçûìÿííûé_ãðàäèåíò_181"/><linearGradient id="Áåçûìÿííûé_ãðàäèåíò_181-6" x1="3.71" y1="2.14" x2="3.81" y2="2.19" gradientTransform="matrix(0.99, -0.15, 0.15, 0.99, -1.01, 0.42)" xlink:href="#Áåçûìÿííûé_ãðàäèåíò_181"/><linearGradient id="Áåçûìÿííûé_ãðàäèåíò_181-7" x1="3.14" y1="2.11" x2="3.24" y2="2.16" gradientTransform="matrix(0.99, -0.15, 0.15, 0.99, -1.01, 0.42)" xlink:href="#Áåçûìÿííûé_ãðàäèåíò_181"/><linearGradient id="Áåçûìÿííûé_ãðàäèåíò_181-8" x1="3.1" y1="0.06" x2="3.26" y2="0.14" gradientTransform="matrix(0.99, -0.15, 0.15, 0.99, -1.01, 0.42)" xlink:href="#Áåçûìÿííûé_ãðàäèåíò_181"/><linearGradient id="Áåçûìÿííûé_ãðàäèåíò_181-9" x1="2.01" y1="1.01" x2="2.14" y2="1.08" gradientTransform="matrix(0.99, -0.15, 0.15, 0.99, -1.01, 0.42)" xlink:href="#Áåçûìÿííûé_ãðàäèåíò_181"/><linearGradient id="Áåçûìÿííûé_ãðàäèåíò_181-10" x1="2.48" y1="2.19" x2="2.58" y2="2.24" gradientTransform="matrix(0.99, -0.15, 0.15, 0.99, -1.01, 0.42)" xlink:href="#Áåçûìÿííûé_ãðàäèåíò_181"/><radialGradient id="Áåçûìÿííûé_ãðàäèåíò_119-2" cx="2.52" cy="9.52" r="1.07" gradientTransform="matrix(0.99, -0.15, 0.12, 0.84, -1.9, -7.17)" xlink:href="#Áåçûìÿííûé_ãðàäèåíò_119"/><radialGradient id="Áåçûìÿííûé_ãðàäèåíò_119-3" cx="-64.63" cy="23.69" r="0.64" gradientTransform="matrix(0.9, -0.4, 0.43, 0.75, 48.98, -42.4)" xlink:href="#Áåçûìÿííûé_ãðàäèåíò_119"/><radialGradient id="Áåçûìÿííûé_ãðàäèåíò_119-4" cx="78.48" cy="-21.9" r="0.64" gradientTransform="matrix(0.94, 0.24, -0.33, 0.82, -77.89, -0.33)" xlink:href="#Áåçûìÿííûé_ãðàäèåíò_119"/><linearGradient id="Áåçûìÿííûé_ãðàäèåíò_181-11" x1="2.37" y1="-198.7" x2="3.37" y2="-198.7" gradientTransform="matrix(0.99, -0.15, -0.15, -0.99, -28.44, -188.34)" xlink:href="#Áåçûìÿííûé_ãðàäèåíò_181"/><linearGradient id="Áåçûìÿííûé_ãðàäèåíò_181-12" x1="1.88" y1="-174.34" x2="2.46" y2="-174.34" gradientTransform="matrix(0.98, 0.17, 0.17, -0.98, 30.77, -164.59)" xlink:href="#Áåçûìÿííûé_ãðàäèåíò_181"/><linearGradient id="Áåçûìÿííûé_ãðàäèåíò_181-13" x1="-15.29" y1="-207.87" x2="-14.71" y2="-207.87" gradientTransform="matrix(0.82, -0.57, -0.57, -0.82, -102.53, -171.83)" xlink:href="#Áåçûìÿííûé_ãðàäèåíò_181"/><linearGradient id="Áåçûìÿííûé_ãðàäèåíò_181-14" x1="3.98" y1="-198.74" x2="4.08" y2="-198.69" gradientTransform="matrix(0.99, -0.15, -0.15, -0.99, -28.44, -188.34)" xlink:href="#Áåçûìÿííûé_ãðàäèåíò_181"/><linearGradient id="Áåçûìÿííûé_ãðàäèåíò_181-15" x1="3.35" y1="-197.67" x2="3.45" y2="-197.62" gradientTransform="matrix(0.99, -0.15, -0.15, -0.99, -28.44, -188.34)" xlink:href="#Áåçûìÿííûé_ãðàäèåíò_181"/><linearGradient id="Áåçûìÿííûé_ãðàäèåíò_181-16" x1="2.78" y1="-197.71" x2="2.88" y2="-197.66" gradientTransform="matrix(0.99, -0.15, -0.15, -0.99, -28.44, -188.34)" xlink:href="#Áåçûìÿííûé_ãðàäèåíò_181"/><linearGradient id="Áåçûìÿííûé_ãðàäèåíò_181-17" x1="2.74" y1="-199.75" x2="2.9" y2="-199.68" gradientTransform="matrix(0.99, -0.15, -0.15, -0.99, -28.44, -188.34)" xlink:href="#Áåçûìÿííûé_ãðàäèåíò_181"/><linearGradient id="Áåçûìÿííûé_ãðàäèåíò_181-18" x1="1.65" y1="-198.8" x2="1.78" y2="-198.74" gradientTransform="matrix(0.99, -0.15, -0.15, -0.99, -28.44, -188.34)" xlink:href="#Áåçûìÿííûé_ãðàäèåíò_181"/><linearGradient id="Áåçûìÿííûé_ãðàäèåíò_181-19" x1="2.12" y1="-197.63" x2="2.22" y2="-197.58" gradientTransform="matrix(0.99, -0.15, -0.15, -0.99, -28.44, -188.34)" xlink:href="#Áåçûìÿííûé_ãðàäèåíò_181"/><radialGradient id="Áåçûìÿííûé_ãðàäèåíò_119-5" cx="2.6" cy="-209.57" r="1.07" gradientTransform="matrix(0.99, -0.15, -0.12, -0.84, -25.48, -166.76)" xlink:href="#Áåçûìÿííûé_ãðàäèåíò_119"/><radialGradient id="Áåçûìÿííûé_ãðàäèåíò_119-6" cx="5.39" cy="-184.17" r="0.64" gradientTransform="matrix(0.98, 0.13, 0.2, -0.84, 32.81, -147.83)" xlink:href="#Áåçûìÿííûé_ãðàäèåíò_119"/><radialGradient id="Áåçûìÿííûé_ãðàäèåíò_119-7" cx="-19.81" cy="-217.51" r="0.64" gradientTransform="matrix(0.83, -0.51, -0.55, -0.68, -99.62, -151.34)" xlink:href="#Áåçûìÿííûé_ãðàäèåíò_119"/></defs><g class="cls-1"><g id="Layer_2" data-name="Layer 2"><g id="witch"><path class="cls-2" d="M5.61,4.16A2.91,2.91,0,0,1,3.35,7.57,2.9,2.9,0,0,1,.21,5,2.9,2.9,0,0,1,2.47,1.55,2.9,2.9,0,0,1,5.61,4.16Z"/><path class="cls-3" d="M5.43,4.09A2.9,2.9,0,0,1,3.18,7.5,2.91,2.91,0,0,1,0,4.88,2.9,2.9,0,0,1,2.29,1.47,2.89,2.89,0,0,1,5.43,4.09Z"/><path class="cls-4" d="M4.6,4.21A2,2,0,0,1,3,6.56a1.77,1.77,0,0,1-1.5-.5,2.21,2.21,0,0,1-.67-1.3A2,2,0,0,1,2.43,2.4a1.87,1.87,0,0,1,1.88,1A2.42,2.42,0,0,1,4.6,4.21Z"/><path class="cls-5" d="M1,4.93A2,2,0,0,1,2.56,2.57a1.85,1.85,0,0,1,1.66.67A1.87,1.87,0,0,0,2.43,2.4,2,2,0,0,0,.87,4.76,2.34,2.34,0,0,0,1.38,5.9,2.44,2.44,0,0,1,1,4.93Z"/><path class="cls-6" d="M2.85,1A1.73,1.73,0,0,1,2.51,2.1a1.72,1.72,0,0,1-.65-1A1.7,1.7,0,0,1,2.2,0,1.72,1.72,0,0,1,2.85,1Z"/><path class="cls-7" d="M1.83,1.56a.87.87,0,0,1,0,.67A1.18,1.18,0,0,1,1.3,1.8a.9.9,0,0,1-.05-.68A1.12,1.12,0,0,1,1.83,1.56Z"/><path class="cls-8" d="M3.61,1.49A1.27,1.27,0,0,1,3.08,2a.94.94,0,0,1,0-.67A1.2,1.2,0,0,1,3.58.82.94.94,0,0,1,3.61,1.49Z"/><polygon class="cls-9" points="3.45 0.83 3.58 0.81 3.49 0.93 3.45 0.83"/><polygon class="cls-10" points="2.96 2.04 3.08 2.02 3.06 1.98 2.96 2.04"/><polygon class="cls-11" points="2.38 2.12 2.51 2.1 2.47 1.99 2.38 2.12"/><polygon class="cls-12" points="2.08 0.02 2.2 0 2.22 0.14 2.08 0.02"/><polygon class="cls-13" points="1.12 1.14 1.25 1.12 1.26 1.21 1.12 1.14"/><polygon class="cls-14" points="1.89 2.23 1.76 2.25 1.78 2.19 1.89 2.23"/><path class="cls-15" d="M2.72,1a1.66,1.66,0,0,1-.33,1.12,1.63,1.63,0,0,1-.65-1A1.65,1.65,0,0,1,2.08,0,1.63,1.63,0,0,1,2.72,1Z"/><path class="cls-16" d="M2.25.82a.78.78,0,0,1-.16.53A.8.8,0,0,1,1.78.89.77.77,0,0,1,1.94.37.76.76,0,0,1,2.25.82Z"/><path class="cls-17" d="M1.71,1.58a.93.93,0,0,1,.05.67,1.14,1.14,0,0,1-.58-.43.93.93,0,0,1-.06-.68A1.17,1.17,0,0,1,1.71,1.58Z"/><path class="cls-16" d="M1.39,1.51a.42.42,0,0,1,0,.3.49.49,0,0,1-.27-.19.42.42,0,0,1,0-.31A.52.52,0,0,1,1.39,1.51Z"/><path class="cls-18" d="M3.48,1.51A1.22,1.22,0,0,1,3,2a.9.9,0,0,1,0-.68A1.22,1.22,0,0,1,3.45.83.91.91,0,0,1,3.48,1.51Z"/><path class="cls-16" d="M3.23,1.32a.48.48,0,0,1-.2.21.37.37,0,0,1,0-.27.54.54,0,0,1,.21-.21A.34.34,0,0,1,3.23,1.32Z"/><path class="cls-5" d="M4.45,4.29A1.82,1.82,0,0,1,3,6.42,1.64,1.64,0,0,1,1.69,6l.07-.18.5-.08L2.15,5,3.24,4.7,3.4,5l.35-.13L3.59,3.72l.6-.17A2,2,0,0,1,4.45,4.29Z"/><path class="cls-16" d="M.63,4.08l-.47,0A3.4,3.4,0,0,1,.58,2.8l.49.25A4.54,4.54,0,0,0,.63,4.08Z"/><polygon class="cls-16" points="1.11 2.94 0.65 2.67 0.83 2.43 1.22 2.81 1.11 2.94"/><path class="cls-19" d="M3.85,7.75a1.72,1.72,0,0,0-.65-1,1.65,1.65,0,0,0-.34,1.12,1.67,1.67,0,0,0,.65,1A1.7,1.7,0,0,0,3.85,7.75Z"/><path class="cls-20" d="M2.7,7.48a.93.93,0,0,0-.14-.66,1.14,1.14,0,0,0-.43.59.93.93,0,0,0,.14.66A1.2,1.2,0,0,0,2.7,7.48Z"/><path class="cls-21" d="M4.42,7a1.17,1.17,0,0,0-.65-.35.92.92,0,0,0,.16.65,1.26,1.26,0,0,0,.66.36A.92.92,0,0,0,4.42,7Z"/><polygon class="cls-22" points="4.46 7.71 4.59 7.69 4.47 7.61 4.46 7.71"/><polygon class="cls-23" points="3.65 6.7 3.77 6.68 3.77 6.72 3.65 6.7"/><polygon class="cls-24" points="3.07 6.79 3.2 6.77 3.19 6.89 3.07 6.79"/><polygon class="cls-25" points="3.38 8.89 3.51 8.87 3.49 8.73 3.38 8.89"/><polygon class="cls-26" points="2.15 8.08 2.27 8.07 2.26 7.98 2.15 8.08"/><polygon class="cls-27" points="2.56 6.82 2.44 6.84 2.47 6.89 2.56 6.82"/><path class="cls-28" d="M3.72,7.76a1.67,1.67,0,0,0-.65-1,1.7,1.7,0,0,0-.34,1.12,1.72,1.72,0,0,0,.65,1A1.68,1.68,0,0,0,3.72,7.76Z"/><path class="cls-16" d="M3.31,8.07A.77.77,0,0,0,3,7.61a.77.77,0,0,0-.16.52.77.77,0,0,0,.3.46A.77.77,0,0,0,3.31,8.07Z"/><path class="cls-29" d="M2.58,7.5a.93.93,0,0,0-.14-.66A1.14,1.14,0,0,0,2,7.42a.89.89,0,0,0,.15.66A1.15,1.15,0,0,0,2.58,7.5Z"/><path class="cls-16" d="M2.3,7.65a.42.42,0,0,0-.07-.29A.5.5,0,0,0,2,7.62a.4.4,0,0,0,.06.3A.54.54,0,0,0,2.3,7.65Z"/><path class="cls-30" d="M4.3,7.05a1.2,1.2,0,0,0-.65-.35.86.86,0,0,0,.16.65,1.25,1.25,0,0,0,.65.36A.89.89,0,0,0,4.3,7.05Z"/><path class="cls-16" d="M4.12,7.31a.46.46,0,0,0-.26-.15.34.34,0,0,0,.06.26.46.46,0,0,0,.26.15A.34.34,0,0,0,4.12,7.31Z"/><path class="cls-31" d="M4.09,6.26l.61.29a3.13,3.13,0,0,0,.69-2A2.86,2.86,0,0,1,5,5.71l-.5-.08Z"/></g></g></g></svg>