<svg xmlns="http://www.w3.org/2000/svg" viewBox="0 0 9.05 2.32"><defs><style>.cls-1{isolation:isolate;}.cls-2{opacity:0.54;mix-blend-mode:multiply;}.cls-3{fill:#bd6f95;}</style></defs><g class="cls-1"><g id="Layer_2" data-name="Layer 2"><g id="witch"><g class="cls-2"><path class="cls-3" d="M6.77,1.52l.06-.34h0v0h0l0-.08H6.52l0,.08h0v0h0l0,.35a.33.33,0,0,0-.06.6h0l0,.05h.36l0,0h0A.35.35,0,0,0,7,1.84.34.34,0,0,0,6.77,1.52Z"/><path class="cls-3" d="M1.26.79a.22.22,0,0,0,0-.08A.3.3,0,0,0,1.13.54L1,.46H1v0H1V.14h0l0-.12,0,0V0h0V0H.82V0h0V.14h0v0h0l0,.28L.76.54h0a.37.37,0,0,0-.14.3V.92h0v.45h0l0,.87a.06.06,0,0,0,.06,0h.4a.06.06,0,0,0,.06,0V1.87h0l0-.23,0-.69V.87h0v0A.07.07,0,0,0,1.26.79Z"/><path class="cls-3" d="M.53,1.08S.52,1,.52,1A.33.33,0,0,0,.42.87L.35.8h0V.54h0l0-.1H.15v.1h0v0h0L.19.8.11.87h0A.33.33,0,0,0,0,1.12v.07H0l0,.37H0l0,.71a0,0,0,0,0,0,0H.43a0,0,0,0,0,0,0h0L.49,2h0V1.78l0-.57V1.15h0V1.08Z"/><polygon class="cls-3" points="9.02 1.52 9.05 1.29 7.88 1.26 7.19 1.3 7.24 1.52 7.29 1.51 7.33 1.69 7.36 1.86 7.36 1.86 7.44 2.26 7.98 2.25 8.83 2.25 8.93 1.6 8.93 1.6 8.94 1.55 8.94 1.51 9.02 1.52"/><path class="cls-3" d="M6,1.48,6,.65H6v0h0l0-.09H5.7l0,.09h0v0h0l0,.84a.35.35,0,0,0-.25.35.38.38,0,0,0,.18.32h0l0,0h.39l0,0H6A.37.37,0,0,0,6,1.48Z"/><path class="cls-3" d="M3.05,1.11a.77.77,0,0,0-.7-.77H2.28a.89.89,0,0,0-.9.78.68.68,0,0,0,.25.5h0L2,2.25l1,0V2.16l0-.28H3l0-.66Z"/><path class="cls-3" d="M5,2.09s.22-.52,0-.52S4.61,2,4.61,2h-.9s-.39-.37-.5-.26.1.26.06.3l-.2.18,2.05,0L5,2.13Z"/></g></g></g></g></svg>