<svg xmlns="http://www.w3.org/2000/svg" xmlns:xlink="http://www.w3.org/1999/xlink" viewBox="0 0 1.67 1.91"><defs><style>.cls-1{fill:url(#Áåçûìÿííûé_ãðàäèåíò_20);}.cls-2{fill:url(#Áåçûìÿííûé_ãðàäèåíò_20-2);}.cls-3{fill:#f1a4a4;}.cls-4{fill:#42151f;}.cls-5{fill:url(#Áåçûìÿííûé_ãðàäèåíò_20-3);}</style><linearGradient id="Áåçûìÿííûé_ãðàäèåíò_20" y1="0.77" x2="1.67" y2="0.77" gradientUnits="userSpaceOnUse"><stop offset="0" stop-color="#f3d5c9"/><stop offset="1" stop-color="#f3ccad"/></linearGradient><linearGradient id="Áåçûìÿííûé_ãðàäèåíò_20-2" x1="0.9" y1="1.16" x2="1.67" y2="1.16" xlink:href="#Áåçûìÿííûé_ãðàäèåíò_20"/><linearGradient id="Áåçûìÿííûé_ãðàäèåíò_20-3" x1="0.24" y1="1.6" x2="1.67" y2="1.6" xlink:href="#Áåçûìÿííûé_ãðàäèåíò_20"/></defs><g id="Layer_2" data-name="Layer 2"><g id="witch"><path class="cls-1" d="M1.67.77a.77.77,0,0,1-.53.74L1,1.54H.79a.8.8,0,0,1-.34-.11,1,1,0,0,1-.2-.14A.7.7,0,0,1,0,.78.89.89,0,0,1,.9,0H1A.78.78,0,0,1,1.67.77Z"/><polygon class="cls-2" points="1.67 0.77 1.62 1.54 0.9 1.55 1.67 0.77"/><path class="cls-3" d="M1.62.78c0,.12-.07.21-.16.21h0C1.37,1,1.37.88,1.37.78s0-.18.06-.2h0C1.55.57,1.62.67,1.62.78Z"/><path class="cls-4" d="M1.56.78A.23.23,0,0,1,1.43,1C1.37,1,1.37.88,1.37.78s0-.18.06-.2A.2.2,0,0,1,1.56.78Z"/><path class="cls-3" d="M1.16.8c0,.15,0,.28-.16.28H1A.28.28,0,0,1,.79.8.28.28,0,0,1,1,.51H1C1.12.51,1.16.64,1.16.8Z"/><path class="cls-4" d="M1.09.8c0,.14,0,.25-.13.28A.28.28,0,0,1,.79.8.28.28,0,0,1,1,.51C1.05.54,1.09.65,1.09.8Z"/><path class="cls-3" d="M1.43,1.31a.51.51,0,0,1-.25,0h0s0,0,0,0,.08-.27.14-.31h0C1.39,1,1.46,1.27,1.43,1.31Z"/><path class="cls-4" d="M1.38,1.31a.46.46,0,0,1-.2,0h0s0,0,0,0,.08-.27.14-.31A.37.37,0,0,1,1.38,1.31Z"/><path class="cls-5" d="M1.67,1.54l0,.28v.07l-1,0L.24,1.29h0l.18.1,0,0c0,.08.1.23.14.23a.87.87,0,0,0,.2-.12h.88Z"/><path class="cls-3" d="M.9,1.84l0-.29h.35l-.15,0a1.22,1.22,0,0,1-.48-.16C.56,1.25.21.8.43.41A.76.76,0,0,1,1,0H.9A.89.89,0,0,0,0,.78a.7.7,0,0,0,.25.51h0l.37.62,1,0V1.82ZM.59,1.66S.48,1.51.45,1.43a.8.8,0,0,0,.34.11A.87.87,0,0,1,.59,1.66Z"/><polygon class="cls-3" points="0.94 1.55 1.17 1.55 1.15 1.74 1.21 1.56 1.42 1.55 1.42 1.66 1.46 1.55 1.58 1.55 1.58 1.65 1.67 1.54 0.94 1.55"/></g></g></svg>